<svg width="1684" height="530" viewBox="0 0 1684 530" fill="none" xmlns="http://www.w3.org/2000/svg">
<mask id="mask0_535_2470" style="mask-type:alpha" maskUnits="userSpaceOnUse" x="0" y="0" width="1684" height="530">
<rect width="1683.95" height="529.741" fill="#FFFAFA"/>
</mask>
<g mask="url(#mask0_535_2470)">
<rect width="1683.95" height="529.741" fill="#F9F9F9"/>
<path d="M2.63135 251.715L122.641 459.577H-117.378L2.63135 251.715Z" fill="#FFA85A" fill-opacity="0.12"/>
<path d="M-8.77051 169.272L111.239 377.134H-128.78L-8.77051 169.272Z" fill="#FFA85A" fill-opacity="0.12"/>
<path d="M1665.12 319.78L1483.33 394.777L1509.27 199.843L1665.12 319.78Z" fill="#747474" fill-opacity="0.12"/>
<path d="M1637.84 370.931L1456.05 445.928L1482 250.994L1637.84 370.931Z" fill="#747474" fill-opacity="0.12"/>
<path d="M1608.35 429.476L1426.56 504.472L1452.5 309.539L1608.35 429.476Z" fill="#747474" fill-opacity="0.12"/>
<path d="M1597.99 253.031C1597.99 260.539 1591.91 266.625 1584.4 266.625C1576.89 266.625 1570.81 260.539 1570.81 253.031C1570.81 245.523 1576.89 239.437 1584.4 239.437C1591.91 239.437 1597.99 245.523 1597.99 253.031Z" fill="#FFB546"/>
<path d="M177.165 363.978C177.165 405.151 143.788 438.528 102.616 438.528C61.443 438.528 28.0659 405.151 28.0659 363.978C28.0659 322.805 61.443 289.428 102.616 289.428C143.788 289.428 177.165 322.805 177.165 363.978Z" fill="#DF3E3F"/>
<path d="M183.305 246.006C183.305 263.206 169.365 277.15 152.169 277.15C134.974 277.15 121.034 263.206 121.034 246.006C121.034 228.806 134.974 214.863 152.169 214.863C169.365 214.863 183.305 228.806 183.305 246.006Z" fill="#6CBEDC"/>
<path fill-rule="evenodd" clip-rule="evenodd" d="M830.098 324.8C812.319 325.694 794.749 326.792 777.616 327.993C753.361 329.692 729.116 331.45 705.017 334.233C697.431 335.112 689.728 335.668 682.189 336.767C677.457 337.455 671.182 338.437 670.359 338.642C669.928 338.759 669.74 338.935 669.68 338.993C669.253 339.403 669.331 339.799 669.572 340.106C669.668 340.238 669.913 340.561 670.592 340.604C716.02 343.607 762.472 337.748 807.955 337.133C886.83 336.079 968.096 340.268 1046.35 349.407C1047.03 349.481 1047.69 349.114 1047.79 348.572C1047.9 348.045 1047.41 347.533 1046.73 347.459C968.343 338.305 886.944 334.101 807.917 335.17C765.529 335.742 722.304 340.883 679.857 339.125C680.833 338.979 681.789 338.832 682.662 338.7C690.17 337.602 697.841 337.06 705.396 336.181C729.444 333.398 753.64 331.64 777.862 329.956C807.917 327.847 839.281 326.03 870.892 325.181C882.201 325.313 893.471 325.445 904.742 325.606C929.124 325.957 953.619 326.983 977.944 328.359C985.268 328.784 992.592 329.224 999.916 329.604C1002.34 329.736 1008.61 330.117 1009.48 330.088C1010.56 330.058 1010.77 329.355 1010.79 329.238C1010.84 328.975 1010.81 328.608 1010.28 328.301C1010.22 328.257 1009.88 328.11 1009.12 328.022C964.89 322.837 917.663 321.973 870.93 323.218C821.635 322.676 772.151 322.442 722.982 322.193C722.278 322.193 721.703 322.632 721.697 323.174C721.693 323.716 722.261 324.156 722.965 324.17C758.567 324.346 794.351 324.522 830.098 324.8Z" fill="#FFB546"/>
<path d="M600.783 324.912V319.334H602.045C603.94 319.334 605.519 318.842 606.782 317.86C608.115 316.878 609.343 314.808 610.465 311.651L633.304 249.766H647.723L669.719 311.756C670.772 314.703 671.929 316.702 673.192 317.755C674.525 318.807 676.034 319.334 677.718 319.334H679.612V324.912H644.881V319.334H648.985C650.038 319.334 651.055 319.018 652.038 318.386C653.02 317.755 653.511 316.702 653.511 315.229C653.511 314.387 653.406 313.58 653.195 312.808C652.985 311.966 652.774 311.265 652.564 310.703L648.88 300.179H623.305L620.253 309.23C619.972 310.072 619.692 311.089 619.411 312.282C619.131 313.405 618.99 314.387 618.99 315.229C618.99 316.562 619.481 317.579 620.464 318.281C621.446 318.983 622.533 319.334 623.726 319.334H628.147V324.912H600.783ZM625.515 293.759H646.775L641.197 276.498C640.496 274.113 639.689 271.446 638.777 268.499C637.935 265.553 637.233 262.851 636.672 260.395C636.04 262.641 635.268 265.202 634.356 268.078C633.444 270.885 632.567 273.516 631.725 275.972L625.515 293.759ZM721.388 325.964C717.318 325.964 713.985 325.122 711.389 323.438C708.863 321.684 706.829 319.439 705.285 316.702H704.338L701.391 324.912H681.394V319.334H682.131C683.464 319.334 684.727 319.158 685.92 318.807C687.183 318.456 688.2 317.755 688.972 316.702C689.744 315.65 690.13 314.071 690.13 311.966V257.554C690.13 254.537 689.288 252.607 687.604 251.765C685.99 250.923 684.06 250.502 681.815 250.502H681.394V244.924H706.127V262.921C706.127 263.974 706.092 265.307 706.022 266.921C705.952 268.464 705.846 270.043 705.706 271.657C705.566 273.271 705.425 274.604 705.285 275.656H706.022C707.565 273.06 709.565 271.025 712.021 269.552C714.547 268.008 717.809 267.236 721.809 267.236C728.685 267.236 733.912 269.587 737.491 274.288C741.139 278.919 742.963 286.321 742.963 296.495C742.963 306.669 741.104 314.141 737.385 318.913C733.737 323.614 728.404 325.964 721.388 325.964ZM716.967 318.071C720.476 318.071 722.966 316.211 724.44 312.493C725.984 308.774 726.755 303.406 726.755 296.39C726.755 289.233 725.984 283.901 724.44 280.392C722.896 276.814 720.37 275.025 716.862 275.025C712.722 275.025 709.881 276.779 708.337 280.287C706.864 283.795 706.127 289.198 706.127 296.495C706.127 303.441 706.864 308.774 708.337 312.493C709.881 316.211 712.758 318.071 716.967 318.071ZM780.054 325.964C771.634 325.964 765.003 323.543 760.162 318.702C755.321 313.791 752.9 306.388 752.9 296.495C752.9 286.602 755.216 279.235 759.846 274.393C764.477 269.552 771.318 267.131 780.369 267.131C788.789 267.131 795.42 269.552 800.261 274.393C805.102 279.235 807.523 286.602 807.523 296.495C807.523 306.388 805.173 313.791 800.472 318.702C795.841 323.543 789.035 325.964 780.054 325.964ZM780.264 319.334C784.334 319.334 787.175 317.404 788.789 313.545C790.403 309.616 791.21 303.932 791.21 296.495C791.21 288.987 790.368 283.339 788.684 279.55C787.07 275.761 784.228 273.867 780.159 273.867C776.089 273.867 773.248 275.761 771.634 279.55C770.02 283.339 769.213 288.987 769.213 296.495C769.213 303.932 770.02 309.616 771.634 313.545C773.318 317.404 776.195 319.334 780.264 319.334ZM839.653 325.964C834.18 325.964 829.97 324.28 827.023 320.912C824.076 317.474 822.603 312.212 822.603 305.125V281.55C822.603 278.463 822.042 276.463 820.919 275.551C819.796 274.569 817.972 274.078 815.446 274.078H815.236V268.499H838.6V302.178C838.6 306.669 839.162 310.282 840.284 313.019C841.407 315.685 843.512 317.018 846.599 317.018C849.967 317.018 852.388 315.58 853.861 312.703C855.405 309.826 856.177 305.932 856.177 301.021V280.813C856.177 277.726 855.405 275.832 853.861 275.13C852.388 274.428 850.634 274.078 848.599 274.078H848.283V268.499H872.174V312.703C872.174 315.72 872.841 317.579 874.174 318.281C875.507 318.983 877.191 319.334 879.226 319.334H880.068V324.912H859.124L856.808 317.439H856.282C854.177 321.088 851.686 323.438 848.809 324.491C846.003 325.473 842.951 325.964 839.653 325.964ZM908.273 325.964C903.572 325.964 899.818 324.736 897.011 322.28C894.205 319.825 892.802 315.51 892.802 309.335V275.656H884.908V270.289C887.153 270.289 889.153 269.833 890.907 268.92C892.731 268.008 894.17 266.991 895.222 265.868C897.397 263.553 899.011 260.08 900.064 255.449H908.799V268.499H922.271V275.656H908.799V308.283C908.799 311.44 909.325 313.755 910.378 315.229C911.5 316.702 913.29 317.439 915.745 317.439C917.149 317.439 918.447 317.369 919.64 317.229C920.902 317.018 922.095 316.773 923.218 316.492V323.333C922.095 323.824 920.236 324.385 917.64 325.017C915.114 325.648 911.992 325.964 908.273 325.964ZM993.421 325.964C984.3 325.964 977.143 324.14 971.951 320.491C966.829 316.773 964.268 310.598 964.268 301.968V261.764C964.268 258.957 963.707 257.203 962.584 256.501C961.532 255.73 960.304 255.344 958.901 255.344H954.375V249.766H990.685V255.344H986.265C984.791 255.344 983.528 255.73 982.476 256.501C981.423 257.273 980.897 259.168 980.897 262.185V302.81C980.897 308.704 982.3 312.808 985.107 315.124C987.984 317.369 991.808 318.492 996.579 318.492C1001.28 318.492 1005 317.264 1007.74 314.808C1010.47 312.282 1011.84 308.353 1011.84 303.02V261.764C1011.84 258.957 1011.31 257.203 1010.26 256.501C1009.21 255.73 1007.95 255.344 1006.47 255.344H1002.05V249.766H1029.63V255.344H1025.1C1023.63 255.344 1022.36 255.73 1021.31 256.501C1020.26 257.273 1019.73 259.168 1019.73 262.185V303.231C1019.73 310.247 1017.63 315.79 1013.42 319.86C1009.28 323.929 1002.61 325.964 993.421 325.964ZM1055.63 325.964C1047.98 325.964 1042.54 324.806 1039.32 322.491C1036.09 320.105 1034.48 317.158 1034.48 313.65C1034.48 311.335 1035.04 309.616 1036.16 308.493C1037.28 307.371 1038.61 306.634 1040.16 306.283C1041.7 305.862 1043.07 305.651 1044.26 305.651C1044.26 310.002 1045.28 313.44 1047.32 315.966C1049.42 318.492 1052.19 319.755 1055.63 319.755C1059.28 319.755 1061.91 319.053 1063.52 317.65C1065.21 316.246 1066.05 314.562 1066.05 312.598C1066.05 310.282 1065.14 308.388 1063.31 306.914C1061.49 305.441 1058.09 303.827 1053.1 302.073C1047.42 300.109 1043.07 297.793 1040.05 295.127C1037.04 292.39 1035.53 288.672 1035.53 283.971C1035.53 278.358 1037.6 274.183 1041.74 271.446C1045.88 268.64 1051.35 267.236 1058.16 267.236C1062.58 267.236 1066.12 267.728 1068.79 268.71C1071.52 269.622 1073.49 270.85 1074.68 272.394C1075.94 273.867 1076.57 275.411 1076.57 277.024C1076.57 279.41 1075.73 281.234 1074.05 282.497C1072.43 283.69 1069.7 284.286 1065.84 284.286C1065.84 280.778 1065.07 278.077 1063.52 276.182C1061.98 274.218 1059.66 273.236 1056.58 273.236C1054.33 273.236 1052.33 273.797 1050.58 274.919C1048.89 275.972 1048.05 277.586 1048.05 279.761C1048.05 281.234 1048.44 282.532 1049.21 283.655C1050.05 284.778 1051.52 285.865 1053.63 286.918C1055.73 287.97 1058.68 289.163 1062.47 290.496C1067.17 292.11 1071 294.25 1073.94 296.916C1076.96 299.512 1078.47 303.02 1078.47 307.441C1078.47 313.264 1076.47 317.825 1072.47 321.123C1068.54 324.35 1062.93 325.964 1055.63 325.964Z" fill="black"/>
</g>
</svg>
