<svg width="1693" height="492" viewBox="0 0 1693 492" fill="none" xmlns="http://www.w3.org/2000/svg">
<path fill-rule="evenodd" clip-rule="evenodd" d="M20.4534 1.94685C14.8428 7.2743 9.48415 15.4596 7.41752 23.965C6.01856 29.7279 6.12521 35.6385 8.61102 40.9313C8.82587 41.387 9.36885 41.5813 9.82455 41.3665C10.2835 41.1532 10.4778 40.6102 10.2629 40.1545C7.95234 35.241 7.8906 29.7511 9.19243 24.4001C11.1778 16.233 16.3232 8.38192 21.7115 3.27448C22.075 2.92471 22.0911 2.34684 21.7462 1.98166C21.3964 1.61814 20.8186 1.60196 20.4534 1.94685Z" fill="black"/>
<path fill-rule="evenodd" clip-rule="evenodd" d="M1670.73 448.815C1665.12 454.142 1659.76 462.327 1657.69 470.833C1656.29 476.596 1656.4 482.506 1658.89 487.799C1659.1 488.255 1659.64 488.449 1660.1 488.234C1660.56 488.021 1660.75 487.478 1660.54 487.022C1658.23 482.109 1658.17 476.619 1659.47 471.268C1661.45 463.101 1666.6 455.25 1671.99 450.142C1672.35 449.792 1672.37 449.215 1672.02 448.849C1671.67 448.486 1671.09 448.47 1670.73 448.815Z" fill="black"/>
<path fill-rule="evenodd" clip-rule="evenodd" d="M34.4213 5.18269C28.8107 10.5101 23.452 18.6955 21.3854 27.2008C19.9865 32.9637 20.0931 38.8744 22.5789 44.1671C22.7938 44.6228 23.3367 44.8171 23.7924 44.6023C24.2514 44.3891 24.4457 43.846 24.2308 43.3903C21.9202 38.4768 21.8585 32.987 23.1603 27.636C25.1457 19.4689 30.2911 11.6178 35.6794 6.51032C36.0429 6.16055 36.059 5.58268 35.7141 5.2175C35.3643 4.85398 34.7865 4.8378 34.4213 5.18269Z" fill="black"/>
<path fill-rule="evenodd" clip-rule="evenodd" d="M1684.7 452.05C1679.09 457.378 1673.73 465.563 1671.66 474.069C1670.26 479.831 1670.37 485.742 1672.85 491.035C1673.07 491.491 1673.61 491.685 1674.07 491.47C1674.53 491.257 1674.72 490.714 1674.51 490.258C1672.2 485.344 1672.13 479.855 1673.44 474.504C1675.42 466.337 1680.57 458.485 1685.95 453.378C1686.32 453.028 1686.33 452.45 1685.99 452.085C1685.64 451.722 1685.06 451.705 1684.7 452.05Z" fill="black"/>
</svg>
