<svg width="1626" height="738" viewBox="0 0 1626 738" fill="none" xmlns="http://www.w3.org/2000/svg">
<path fill-rule="evenodd" clip-rule="evenodd" d="M1620.95 23.0751C1619.46 29.1532 1619.55 35.0064 1619.38 41.1715C1619.34 42.3756 1620.28 43.3765 1621.48 43.4128C1622.68 43.4491 1623.68 42.4989 1623.71 41.2949C1623.88 35.4489 1623.74 29.8858 1625.16 24.1123C1625.44 22.9446 1624.73 21.7623 1623.57 21.4794C1622.41 21.1893 1621.23 21.9073 1620.95 23.0751Z" fill="black"/>
<path fill-rule="evenodd" clip-rule="evenodd" d="M1608.29 11.2959C1598.18 20.5655 1588.66 32.4897 1582.01 44.53C1581.43 45.5818 1581.8 46.9091 1582.85 47.4894C1583.9 48.0697 1585.22 47.6925 1585.8 46.6407C1592.24 34.9994 1601.44 23.4667 1611.22 14.509C1612.1 13.6967 1612.16 12.3186 1611.35 11.4337C1610.55 10.5488 1609.17 10.4836 1608.29 11.2959Z" fill="black"/>
<path fill-rule="evenodd" clip-rule="evenodd" d="M1605.73 1.17037C1596.49 -0.360055 1586.96 2.25106 1578.55 5.94293C1577.46 6.4289 1576.96 7.71268 1577.44 8.80791C1577.92 9.91039 1579.2 10.4109 1580.29 9.93219C1587.95 6.56671 1596.6 4.07159 1605.02 5.4642C1606.2 5.66003 1607.32 4.85495 1607.52 3.67268C1607.71 2.49041 1606.91 1.3662 1605.73 1.17037Z" fill="black"/>
<path fill-rule="evenodd" clip-rule="evenodd" d="M10.5053 714.691C10.4825 708.433 8.97289 702.778 7.65592 696.753C7.39856 695.577 6.2414 694.834 5.07112 695.09C3.90013 695.345 3.15988 696.51 3.41654 697.687C4.66548 703.399 6.14293 708.763 6.1658 714.708C6.17016 715.911 7.14726 716.885 8.34417 716.877C9.54214 716.876 10.5104 715.894 10.5053 714.691Z" fill="black"/>
<path fill-rule="evenodd" clip-rule="evenodd" d="M25.6266 723.05C33.1951 711.604 39.5552 697.725 43.105 684.429C43.4142 683.268 42.7265 682.072 41.5705 681.764C40.4145 681.455 39.2233 682.142 38.9142 683.303C35.4812 696.158 29.3302 709.581 22.0105 720.644C21.3496 721.646 21.623 722.998 22.6204 723.66C23.6178 724.322 24.9657 724.052 25.6266 723.05Z" fill="black"/>
<path fill-rule="evenodd" clip-rule="evenodd" d="M30.5652 732.253C39.904 731.493 48.5177 726.648 55.7811 721.028C56.7276 720.291 56.9028 718.925 56.1731 717.979C55.4411 717.027 54.078 716.852 53.1297 717.582C46.5155 722.704 38.7182 727.225 30.213 727.918C29.0196 728.015 28.1306 729.067 28.2276 730.26C28.3238 731.454 29.3726 732.35 30.5652 732.253Z" fill="black"/>
</svg>
