<svg width="1693" height="493" viewBox="0 0 1693 493" fill="none" xmlns="http://www.w3.org/2000/svg">
<path fill-rule="evenodd" clip-rule="evenodd" d="M20.7227 2.41902C15.1121 7.74647 9.75343 15.9318 7.68681 24.4372C6.28785 30.2 6.3945 36.1107 8.88031 41.4035C9.09516 41.8592 9.63813 42.0535 10.0938 41.8386C10.5528 41.6254 10.7471 41.0824 10.5322 40.6267C8.22163 35.7131 8.15988 30.2233 9.46172 24.8723C11.4471 16.7052 16.5924 8.85409 21.9807 3.74665C22.3443 3.39687 22.3604 2.81901 22.0155 2.45383C21.6657 2.09031 21.0879 2.07413 20.7227 2.41902Z" fill="black"/>
<path fill-rule="evenodd" clip-rule="evenodd" d="M1671 449.287C1665.39 454.614 1660.03 462.799 1657.96 471.305C1656.56 477.068 1656.67 482.978 1659.16 488.271C1659.37 488.727 1659.91 488.921 1660.37 488.706C1660.83 488.493 1661.02 487.95 1660.81 487.494C1658.5 482.581 1658.44 477.091 1659.74 471.74C1661.72 463.573 1666.87 455.722 1672.26 450.614C1672.62 450.265 1672.64 449.687 1672.29 449.322C1671.94 448.958 1671.36 448.942 1671 449.287Z" fill="black"/>
<path fill-rule="evenodd" clip-rule="evenodd" d="M34.6905 5.65486C29.0799 10.9823 23.7212 19.1676 21.6546 27.673C20.2556 33.4359 20.3623 39.3465 22.8481 44.6393C23.0629 45.095 23.6059 45.2893 24.0616 45.0745C24.5206 44.8612 24.7148 44.3182 24.5 43.8625C22.1894 38.949 22.1277 33.4591 23.4295 28.1081C25.4149 19.9411 30.5602 12.0899 35.9485 6.98248C36.312 6.63271 36.3281 6.05485 35.9833 5.68967C35.6335 5.32615 35.0557 5.30997 34.6905 5.65486Z" fill="black"/>
<path fill-rule="evenodd" clip-rule="evenodd" d="M1684.97 452.523C1679.36 457.85 1674 466.035 1671.93 474.541C1670.53 480.304 1670.64 486.214 1673.12 491.507C1673.34 491.963 1673.88 492.157 1674.34 491.942C1674.8 491.729 1674.99 491.186 1674.78 490.73C1672.46 485.817 1672.4 480.327 1673.7 474.976C1675.69 466.809 1680.84 458.958 1686.22 453.85C1686.59 453.5 1686.6 452.923 1686.26 452.557C1685.91 452.194 1685.33 452.178 1684.97 452.523Z" fill="black"/>
</svg>
