<svg width="959" height="1136" viewBox="0 0 959 1136" fill="none" xmlns="http://www.w3.org/2000/svg">
<path d="M181.266 816.54C184.745 825.394 189.246 833.502 195.788 840.319C201.545 846.322 208.439 850.965 215.625 854.967C224.377 859.84 233.529 863.923 242.375 868.611C243.238 869.068 244.416 868.519 245.138 867.973C245.525 867.681 246.737 866.447 245.871 865.988C230.793 857.996 214.107 851.808 201.455 839.852C194.926 833.536 189.782 825.855 186.36 817.311C185.078 814.235 183.93 811.096 182.709 807.993C181.483 809.11 180.373 810.354 179.396 811.706C180.019 813.317 180.635 814.933 181.266 816.54Z" fill="#554140"/>
<path d="M175.127 801.664C176.601 804.568 177.837 807.586 179.023 810.626C180.026 809.321 181.158 808.126 182.4 807.059C181.739 805.385 181.045 803.726 180.299 802.091C178.051 797.198 175.189 792.635 171.787 788.518C169.212 785.4 166.441 782.459 163.493 779.714L159.544 781.905C161.743 783.949 163.863 786.082 165.864 788.335C169.497 792.346 172.61 796.825 175.127 801.664V801.664Z" fill="#554140"/>
<path d="M157.995 800.073C160.73 803.962 163.031 808.159 164.856 812.585C167.918 819.666 169.859 827.263 172.764 834.413C173.109 831.107 173.366 827.772 173.879 824.511C172.439 820.234 171.072 815.924 169.359 811.785C167.589 807.344 165.384 803.103 162.779 799.128C160.364 795.645 157.358 792.64 153.902 790.255C152.502 789.252 151.064 788.307 149.588 787.42L145.485 789.695C146.506 790.299 147.512 790.928 148.502 791.582C152.135 793.81 155.348 796.684 157.995 800.073V800.073Z" fill="#554140"/>
<path d="M173.333 835.923C174.202 837.988 175.187 839.999 176.284 841.943C178.925 846.691 182.586 850.744 186.993 853.796C191.608 856.764 196.518 859.224 201.644 861.137C207.448 863.469 213.135 865.988 218.78 868.692C224.48 871.428 230.173 874.174 236.048 876.505C237.333 877.017 240.799 874.377 238.902 873.626C228.393 869.455 218.506 863.848 208.009 859.645C202.84 857.741 197.823 855.44 192.998 852.762C188.287 850.056 184.279 846.235 181.298 841.61C178.242 836.814 176.218 831.509 174.377 826.118C173.937 829.269 173.711 832.457 173.371 835.615L173.333 835.923Z" fill="#554140"/>
<path d="M168.847 852.865C169.354 853.525 169.867 854.181 170.392 854.829C176.829 862.957 185.163 869.267 194.634 873.181C205.651 877.639 217.465 879.528 228.657 883.431C229.962 883.887 233.414 881.219 231.507 880.555C221.544 877.083 211.111 875.203 201.157 871.696C191.41 868.33 182.701 862.427 175.869 854.553C174.101 852.506 172.434 850.37 170.84 848.175C170.576 848.923 170.289 849.665 169.98 850.402C169.627 851.238 169.25 852.059 168.847 852.865Z" fill="#554140"/>
<path d="M142.985 813.193C146.539 817.565 149.746 822.225 152.576 827.128C157.62 835.488 162.448 844.078 168.336 851.851C169.095 850.311 169.764 848.726 170.339 847.107C165.826 840.804 161.892 834.028 157.938 827.375C155.136 822.471 152.047 817.749 148.687 813.235C145.822 809.398 142.266 806.166 138.208 803.712C135.116 801.961 131.922 800.406 128.641 799.056L124.464 801.374C126.992 802.473 129.517 803.566 131.932 804.811C136.119 806.836 139.873 809.682 142.985 813.193V813.193Z" fill="#554140"/>
<path d="M139.74 840.482C146.568 848.146 152.93 856.331 160.307 863.456C161.299 862.393 162.244 861.293 163.142 860.156C156.787 853.864 151.16 846.831 145.239 840.105C138.114 832.011 130.684 824.102 122.177 817.529C118.275 814.507 114.127 811.835 109.777 809.54L105.651 811.831C109.355 813.729 112.91 815.912 116.288 818.363C124.992 824.666 132.57 832.434 139.74 840.482Z" fill="#554140"/>
<path d="M161.837 865.325C169.538 872.518 178.263 878.46 187.719 882.952C198.624 888.057 210.364 891.077 222.371 891.867C222.91 891.844 223.439 891.693 223.917 891.428C224.395 891.162 224.809 890.789 225.127 890.335C225.661 889.508 225.286 888.988 224.403 888.927C203.212 887.48 183.284 878.623 167.318 864.513C166.065 863.405 164.847 862.26 163.654 861.091C162.754 862.219 161.808 863.308 160.817 864.358C161.156 864.682 161.494 865.006 161.837 865.325Z" fill="#554140"/>
<path d="M95.2518 829.611C101.072 832.234 106.685 835.037 111.791 838.948C116.335 842.595 120.67 846.507 124.777 850.665C132.606 858.24 140.478 865.863 148.676 873.03C149.899 872.226 151.1 871.388 152.282 870.517C144.987 864.143 138.029 857.339 131.009 850.67C126.719 846.594 122.572 842.343 118.043 838.54C113.339 834.62 108.161 831.34 102.633 828.781C99.1307 827.133 95.5957 825.56 92.0277 824.063C90.4496 823.393 88.8658 822.708 87.2717 822.044L83.0391 824.395C83.946 824.769 84.8507 825.148 85.7548 825.522C88.9401 826.838 92.1058 828.201 95.2518 829.611Z" fill="#554140"/>
<path d="M149.225 874.032C149.764 874.502 150.304 874.97 150.845 875.437C159.791 883.122 169.47 890.036 180.434 894.358C186.381 896.702 192.518 897.273 198.864 897.5C204.988 897.72 211.188 897.807 217.021 899.871C218.323 900.331 221.774 897.67 219.869 896.997C209.358 893.282 197.875 895.895 187.235 892.863C181.684 891.131 176.384 888.665 171.465 885.526C166.447 882.429 161.653 878.969 157.118 875.17C155.667 873.972 154.231 872.753 152.811 871.514C152.523 871.73 152.231 871.945 151.936 872.16C151.046 872.804 150.137 873.427 149.225 874.032Z" fill="#554140"/>
<path d="M216.872 899.978C211.037 897.865 204.855 897.724 198.745 897.455C192.413 897.174 186.289 896.554 180.341 894.155C169.376 889.737 159.674 882.735 150.698 874.965C150.153 874.494 149.61 874.021 149.069 873.547C149.979 872.944 150.877 872.326 151.763 871.691C152.053 871.481 152.343 871.267 152.631 871.052C154.058 872.302 155.498 873.534 156.953 874.748C161.503 878.59 166.309 882.096 171.334 885.239C176.262 888.423 181.566 890.936 187.114 892.717C197.749 895.839 209.184 893.318 219.693 897.124C221.44 897.757 218.694 900.036 217.227 900.036C217.106 900.037 216.986 900.018 216.872 899.978V899.978ZM222.224 891.957C210.248 891.068 198.524 887.948 187.617 882.749C178.16 878.176 169.421 872.157 161.694 864.893C161.35 864.571 161.01 864.243 160.669 863.917C161.648 862.873 162.583 861.791 163.475 860.67C164.673 861.846 165.894 863.006 167.152 864.126C183.165 878.38 203.095 887.409 224.23 889.033C225.111 889.1 225.488 889.624 224.961 890.448C224.657 890.879 224.267 891.238 223.817 891.5C223.367 891.761 222.867 891.919 222.353 891.963C222.309 891.961 222.266 891.96 222.224 891.96L222.224 891.957ZM228.518 883.52C217.336 879.525 205.553 877.537 194.545 872.987C185.082 868.994 176.734 862.613 170.263 854.426C169.739 853.773 169.221 853.114 168.71 852.447C169.106 851.645 169.477 850.827 169.825 849.993C170.129 849.258 170.409 848.518 170.667 847.771C172.271 849.981 173.946 852.13 175.722 854.191C182.585 862.126 191.302 868.103 201.037 871.549C210.979 875.139 221.388 877.107 231.339 880.661C233.091 881.286 230.337 883.571 228.869 883.571C228.751 883.574 228.634 883.556 228.522 883.52L228.518 883.52ZM235.914 876.61C230.051 874.231 224.366 871.439 218.675 868.657C213.039 865.903 207.36 863.345 201.568 860.969C196.454 859.015 191.551 856.516 186.938 853.511C182.532 850.424 178.86 846.343 176.199 841.574C175.84 840.946 175.495 840.313 175.164 839.675C174.465 838.319 173.821 836.937 173.219 835.536C173.23 835.433 173.241 835.33 173.252 835.229C173.568 832.074 173.775 828.891 174.188 825.745C176.057 831.149 178.107 836.467 181.18 841.287C184.179 845.936 188.195 849.787 192.901 852.53C197.722 855.248 202.733 857.589 207.891 859.534C218.368 863.821 228.247 869.508 238.731 873.763C240.457 874.462 237.763 876.686 236.3 876.685C236.168 876.685 236.037 876.66 235.914 876.611L235.914 876.61ZM124.616 850.535C120.5 846.346 116.159 842.4 111.613 838.718C106.505 834.768 100.899 831.919 95.0894 829.25C91.953 827.808 88.7939 826.421 85.6121 825.089C84.7105 824.708 83.8081 824.321 82.9038 823.94L87.0965 821.624C88.6865 822.302 90.2678 822.999 91.8438 823.68C95.4007 825.215 98.9294 826.816 102.43 828.483C107.945 831.086 113.117 834.405 117.822 838.36C122.355 842.198 126.511 846.481 130.808 850.59C137.842 857.316 144.812 864.175 152.115 870.604C150.95 871.467 149.761 872.296 148.549 873.09C140.345 865.855 132.46 858.171 124.617 850.536L124.616 850.535ZM242.248 868.69C233.424 863.934 224.298 859.781 215.564 854.842C208.393 850.786 201.509 846.09 195.745 840.05C191.474 835.516 187.863 830.363 185.024 824.755C183.592 821.966 182.298 819.104 181.147 816.18C180.508 814.57 179.886 812.95 179.255 811.335C180.217 809.994 181.312 808.76 182.523 807.654C183.758 810.764 184.923 813.904 186.216 816.989C189.677 825.552 194.842 833.266 201.376 839.626C214.033 851.673 230.662 857.986 245.707 866.097C246.569 866.562 245.373 867.784 244.991 868.073C244.413 868.536 243.716 868.811 242.988 868.864C242.731 868.869 242.478 868.81 242.249 868.691L242.248 868.69ZM139.59 840.347C132.411 832.252 124.824 824.431 116.131 818.068C112.757 815.592 109.209 813.383 105.515 811.457L109.6 809.202C113.939 811.529 118.08 814.232 121.979 817.282C130.483 823.916 137.916 831.874 145.053 840.015C150.983 846.781 156.624 853.851 162.983 860.181C162.1 861.31 161.168 862.401 160.188 863.453C152.808 856.284 146.431 848.058 139.591 840.348L139.59 840.347ZM152.412 827.008C149.57 822.091 146.356 817.414 142.8 813.022C139.686 809.491 135.941 806.619 131.771 804.563C129.365 803.297 126.852 802.191 124.335 801.073L128.465 798.794C131.731 800.169 134.913 801.747 137.993 803.521C142.037 806.002 145.588 809.255 148.46 813.107C151.826 817.638 154.925 822.376 157.739 827.294C161.709 833.964 165.662 840.758 170.184 847.085C169.624 848.697 168.971 850.272 168.228 851.803C162.327 844.004 157.476 835.393 152.413 827.009L152.412 827.008ZM164.712 812.455C162.874 808.025 160.564 803.822 157.826 799.921C155.179 796.519 151.973 793.627 148.357 791.376C147.372 790.716 146.371 790.08 145.354 789.469L149.407 787.233C150.874 788.132 152.305 789.087 153.701 790.096C157.143 792.502 160.143 795.523 162.562 799.018C165.172 803.003 167.386 807.249 169.171 811.694C170.898 815.835 172.283 820.144 173.739 824.422C173.254 827.67 173.021 830.996 172.701 834.288C169.773 827.139 167.796 819.547 164.713 812.46L164.712 812.455ZM175.011 801.549C172.48 796.701 169.36 792.207 165.727 788.178C163.727 785.911 161.611 783.767 159.415 781.71L163.317 779.557C166.261 782.318 169.03 785.273 171.607 788.403C175.01 792.54 177.879 797.118 180.142 802.021C180.893 803.658 181.589 805.32 182.26 806.994C181.039 808.046 179.926 809.228 178.942 810.519C177.741 807.484 176.493 804.463 175.012 801.554L175.011 801.549Z" fill="#3B3430"/>
<path d="M821.195 248.801C823.689 249.177 825.683 250.502 827.784 251.589C830.616 253.005 833.557 254.174 836.578 255.081C837.455 255.315 838.276 255.737 838.985 256.32C839.695 256.903 840.278 257.634 840.697 258.466C840.927 258.923 841.073 259.419 840.471 259.763C839.965 260.054 839.57 259.784 839.133 259.534C833.684 256.417 827.605 254.248 821.685 251.84C821.093 251.598 820.515 251.322 819.953 251.013C819.807 250.947 819.676 250.85 819.569 250.729C819.462 250.607 819.381 250.463 819.331 250.307C819.281 250.15 819.263 249.985 819.279 249.821C819.295 249.657 819.345 249.499 819.424 249.356C819.693 248.653 820.47 248.823 821.195 248.801Z" fill="#FFA85A"/>
<path d="M846.053 295.818C845.893 296.099 845.7 296.36 845.478 296.592C841.679 299.952 839.006 303.912 836.331 307.877C835.844 308.599 835.423 309.806 834.003 309.176C832.809 308.645 833.627 307.715 833.975 306.985C835.989 302.796 839.358 299.285 842.551 295.691C842.846 295.292 843.249 294.993 843.709 294.834C844.169 294.675 844.665 294.662 845.132 294.798C845.373 294.838 845.594 294.96 845.761 295.145C845.928 295.329 846.031 295.566 846.053 295.818Z" fill="#FFA85A"/>
<path d="M896.329 304.034C896.541 304.771 896.383 305.221 895.682 305.357C895.379 305.461 895.048 305.444 894.757 305.308C894.465 305.172 894.233 304.928 894.107 304.623C892.861 300.616 889.154 297.892 886.389 294.674C885.708 293.88 884.908 293.005 886.28 292.196C887.695 291.362 888.33 292.316 889.037 293.118C890.741 295.058 892.46 296.992 894.23 298.893C894.907 299.551 895.444 300.348 895.805 301.233C896.167 302.119 896.345 303.073 896.329 304.034V304.034Z" fill="#FFA85A"/>
<path d="M907.619 235.44C907.549 236.393 906.667 237.227 905.938 237.992C902.806 241.275 899.229 244.277 897.157 248.184C896.725 249 895.675 250.224 894.414 249.555C893.283 248.954 894.011 247.868 894.693 246.932C897.733 242.761 902.056 239.379 905.304 235.337C905.494 235.111 905.733 234.933 906.001 234.819C906.269 234.704 906.559 234.656 906.849 234.678C907.048 234.674 907.241 234.751 907.386 234.894C907.53 235.037 907.614 235.233 907.619 235.44V235.44Z" fill="#FFA85A"/>
<path d="M836.374 274.706C836.299 275.486 835.592 275.76 834.909 276.016C831.101 277.454 827.309 278.926 823.455 280.275C822.399 280.635 821.377 281.098 820.404 281.655C820.032 281.913 819.579 282.015 819.138 281.938C818.696 281.862 818.3 281.614 818.029 281.245C817.462 280.522 817.683 279.79 818.671 279.592C824.149 278.485 828.642 275.686 833.701 273.864C835.057 273.38 835.948 273.491 836.374 274.706Z" fill="#FFA85A"/>
<path d="M849.71 230.659C850.863 230.853 851.929 231.415 852.76 232.265C854.752 234.406 855.969 236.873 857.106 239.347C857.517 240.242 857.991 241.099 858.463 241.967C858.757 242.509 859.199 243.15 858.215 243.552C857.88 243.705 857.506 243.743 857.149 243.66C856.791 243.577 856.469 243.379 856.228 243.092C855.628 242.463 855.097 241.768 854.645 241.019C853.101 238.158 851.962 235.136 849.426 232.682C848.944 232.215 848.647 231.59 849.058 230.969C849.18 230.786 849.569 230.721 849.71 230.659Z" fill="#FFA85A"/>
<path d="M882.975 230.376C882.905 234.023 881.57 237.511 880.95 241.088C880.815 241.863 880.094 242.309 879.139 242.196C878.103 242.072 878.297 241.34 878.282 240.732C878.202 238.873 878.482 237.017 879.105 235.272C879.985 233.177 880.422 230.91 880.385 228.625C880.346 227.886 880.298 226.76 881.756 226.825C883.127 226.885 882.997 227.941 883.06 228.738C883.069 229.286 883.041 229.833 882.975 230.376Z" fill="#FFA85A"/>
<path d="M869.524 304.224C869.712 306.39 869.886 308.556 870.094 310.721C870.167 311.488 870.834 312.55 869.272 312.649C867.856 312.737 867.333 311.736 867.208 310.713C866.936 308.483 866.652 306.249 866.496 304.012C866.443 302.715 866.281 301.424 866.012 300.155C865.792 299.237 866.026 298.292 867.462 298.152C868.832 298.02 869.102 298.863 869.199 299.738C869.363 301.228 869.507 302.722 869.661 304.213L869.524 304.224Z" fill="#FFA85A"/>
<path d="M913.435 285.282C913.37 286.091 912.693 286.461 911.745 286.257C910.548 286.005 909.375 285.646 908.238 285.184C905.633 284.1 903.084 282.929 900.51 281.796C899.576 281.385 898.574 280.868 899.377 279.929C899.737 279.53 900.213 279.263 900.733 279.168C901.253 279.074 901.788 279.157 902.259 279.405C905.764 280.954 908.798 283.174 912.637 284.25C912.865 284.299 913.07 284.429 913.215 284.617C913.361 284.806 913.438 285.041 913.435 285.282Z" fill="#FFA85A"/>
<path d="M903.718 268.787C902.775 268.872 902.4 268.735 902.156 268.429C901.828 268.021 902.019 267.623 902.342 267.294C903.02 266.601 903.877 266.125 904.81 265.924C908.948 265.036 913.11 264.224 917.253 263.352C918.008 263.192 918.584 263.211 918.938 263.832C919.326 264.509 918.789 264.923 918.17 265.143C913.36 266.815 907.989 266.997 903.718 268.787Z" fill="#FFA85A"/>
<path d="M867.215 310.703C866.942 308.473 866.659 306.24 866.502 304.003C866.448 302.706 866.287 301.416 866.018 300.148C865.798 299.23 866.032 298.285 867.468 298.144C868.838 298.012 869.109 298.856 869.206 299.731C869.37 301.221 869.513 302.711 869.668 304.205L869.531 304.215C869.719 306.38 869.894 308.546 870.101 310.71C870.176 311.478 870.842 312.539 869.28 312.637C869.222 312.641 869.164 312.642 869.107 312.642C867.82 312.643 867.335 311.683 867.215 310.703ZM834.013 309.157C832.819 308.626 833.636 307.696 833.985 306.967C835.999 302.777 839.369 299.268 842.565 295.675C842.859 295.276 843.262 294.977 843.722 294.818C844.182 294.658 844.678 294.646 845.145 294.782C845.386 294.823 845.607 294.945 845.773 295.13C845.939 295.315 846.042 295.552 846.064 295.804C845.903 296.085 845.71 296.345 845.488 296.578C841.689 299.937 839.016 303.897 836.342 307.861C835.949 308.441 835.6 309.337 834.74 309.337C834.489 309.329 834.242 309.268 834.014 309.158L834.013 309.157ZM894.107 304.621C892.861 300.613 889.155 297.889 886.391 294.672C885.708 293.878 884.909 293.003 886.281 292.194C887.696 291.36 888.331 292.314 889.037 293.115C890.741 295.056 892.46 296.989 894.23 298.89C894.908 299.547 895.445 300.344 895.806 301.23C896.168 302.115 896.347 303.069 896.33 304.03C896.542 304.768 896.385 305.217 895.683 305.353C895.557 305.379 895.428 305.392 895.298 305.392C895.046 305.416 894.793 305.353 894.578 305.214C894.363 305.075 894.198 304.866 894.108 304.621L894.107 304.621ZM911.74 286.264C910.543 286.012 909.37 285.653 908.233 285.19C905.629 284.107 903.08 282.936 900.506 281.803C899.572 281.391 898.57 280.875 899.372 279.935C899.732 279.536 900.208 279.269 900.728 279.175C901.248 279.08 901.784 279.163 902.254 279.411C905.758 280.961 908.793 283.181 912.631 284.258C912.86 284.307 913.064 284.437 913.21 284.625C913.355 284.814 913.433 285.049 913.428 285.291C913.419 285.441 913.38 285.589 913.314 285.724C913.248 285.858 913.156 285.978 913.043 286.074C912.931 286.171 912.801 286.242 912.66 286.285C912.52 286.327 912.373 286.34 912.228 286.321C912.064 286.319 911.901 286.3 911.741 286.264L911.74 286.264ZM818.04 281.237C817.473 280.515 817.697 279.783 818.682 279.584C824.159 278.477 828.652 275.677 833.711 273.856C835.064 273.369 835.956 273.479 836.382 274.694C836.307 275.474 835.599 275.749 834.917 276.005C831.109 277.444 827.318 278.916 823.464 280.265C822.408 280.625 821.386 281.088 820.413 281.645C820.103 281.835 819.751 281.939 819.391 281.947C819.129 281.943 818.87 281.877 818.636 281.754C818.402 281.631 818.198 281.454 818.04 281.237L818.04 281.237ZM902.148 268.441C901.82 268.033 902.011 267.635 902.334 267.306C903.012 266.613 903.869 266.137 904.802 265.936C908.939 265.048 913.1 264.236 917.243 263.364C917.997 263.203 918.574 263.223 918.928 263.841C919.315 264.518 918.779 264.933 918.16 265.152C913.35 266.829 907.98 267.011 903.71 268.802C903.524 268.818 903.36 268.827 903.216 268.827C903.021 268.856 902.822 268.836 902.637 268.768C902.451 268.701 902.284 268.589 902.149 268.441L902.148 268.441ZM839.097 259.534C833.649 256.417 827.571 254.247 821.651 251.839C821.059 251.597 820.481 251.321 819.919 251.011C819.773 250.945 819.642 250.849 819.535 250.727C819.428 250.605 819.347 250.461 819.297 250.305C819.247 250.148 819.23 249.983 819.246 249.819C819.262 249.655 819.311 249.497 819.39 249.354C819.612 248.772 820.179 248.785 820.777 248.797C820.904 248.8 821.034 248.802 821.162 248.797C823.656 249.173 825.65 250.498 827.751 251.585C830.582 253.002 833.523 254.17 836.543 255.078C837.421 255.312 838.241 255.734 838.951 256.317C839.66 256.9 840.243 257.631 840.662 258.463C840.892 258.921 841.039 259.417 840.436 259.76C840.302 259.842 840.15 259.885 839.994 259.887C839.672 259.848 839.363 259.727 839.097 259.534L839.097 259.534ZM894.401 249.57C893.27 248.969 893.998 247.884 894.68 246.951C897.72 242.78 902.043 239.398 905.291 235.357C905.481 235.13 905.72 234.953 905.988 234.839C906.256 234.724 906.546 234.676 906.836 234.698C907.034 234.694 907.227 234.77 907.372 234.912C907.516 235.054 907.601 235.249 907.607 235.455C907.537 236.409 906.656 237.242 905.926 238.008C902.794 241.29 899.217 244.292 897.145 248.2C896.799 248.85 896.06 249.763 895.134 249.763C894.878 249.76 894.627 249.694 894.401 249.57V249.57ZM856.223 243.098C855.624 242.469 855.093 241.773 854.64 241.024C853.096 238.164 851.958 235.142 849.422 232.688C848.94 232.221 848.642 231.595 849.054 230.975C849.176 230.792 849.565 230.728 849.706 230.665C850.86 230.858 851.927 231.42 852.758 232.271C854.751 234.412 855.967 236.878 857.104 239.353C857.516 240.247 857.989 241.104 858.461 241.971C858.756 242.513 859.197 243.154 858.213 243.556C857.986 243.651 857.744 243.701 857.499 243.703C857.257 243.702 857.018 243.648 856.798 243.544C856.578 243.44 856.382 243.288 856.222 243.099L856.223 243.098ZM879.129 242.209C878.093 242.086 878.286 241.353 878.271 240.745C878.191 238.887 878.471 237.031 879.095 235.287C879.975 233.192 880.412 230.926 880.375 228.641C880.336 227.902 880.288 226.776 881.745 226.842C883.117 226.901 882.987 227.957 883.05 228.754C883.06 229.301 883.031 229.849 882.965 230.392C882.896 234.038 881.56 237.524 880.94 241.101C880.864 241.449 880.667 241.757 880.387 241.964C880.106 242.172 879.761 242.265 879.418 242.227C879.322 242.226 879.225 242.219 879.129 242.207L879.129 242.209Z" fill="#555555"/>
</svg>
