<svg width="1424" height="646" viewBox="0 0 1424 646" fill="none" xmlns="http://www.w3.org/2000/svg">
<path fill-rule="evenodd" clip-rule="evenodd" d="M1419.38 19.6206C1418.08 24.9472 1418.16 30.0768 1418.01 35.4798C1417.98 36.5349 1418.8 37.4122 1419.85 37.4439C1420.9 37.4757 1421.77 36.643 1421.8 35.5878C1421.95 30.4646 1421.83 25.5893 1423.07 20.5296C1423.32 19.5062 1422.7 18.4701 1421.68 18.2222C1420.66 17.9679 1419.63 18.5972 1419.38 19.6206Z" fill="black"/>
<path fill-rule="evenodd" clip-rule="evenodd" d="M1408.3 9.29774C1399.45 17.4213 1391.11 27.8712 1385.28 38.4229C1384.78 39.3445 1385.11 40.5078 1386.02 41.0163C1386.94 41.5249 1388.1 41.1943 1388.61 40.2726C1394.24 30.0705 1402.3 19.9638 1410.86 12.1136C1411.63 11.4017 1411.69 10.194 1410.98 9.41848C1410.27 8.64299 1409.07 8.58582 1408.3 9.29774Z" fill="black"/>
<path fill-rule="evenodd" clip-rule="evenodd" d="M1406.06 0.424085C1397.96 -0.917092 1389.62 1.37114 1382.26 4.60649C1381.3 5.03237 1380.86 6.1574 1381.28 7.1172C1381.7 8.08335 1382.82 8.52197 1383.78 8.10245C1390.49 5.15314 1398.07 2.96655 1405.44 4.18696C1406.47 4.35858 1407.45 3.65305 1407.62 2.61697C1407.79 1.5809 1407.09 0.595705 1406.06 0.424085Z" fill="black"/>
<path fill-rule="evenodd" clip-rule="evenodd" d="M9.25319 625.731C9.23403 620.247 7.91265 615.291 6.76006 610.012C6.53481 608.981 5.52149 608.331 4.49653 608.555C3.47096 608.779 2.8225 609.799 3.04713 610.831C4.14019 615.837 5.43341 620.537 5.45266 625.747C5.45633 626.8 6.31193 627.654 7.36018 627.647C8.40934 627.646 9.25747 626.785 9.25319 625.731Z" fill="black"/>
<path fill-rule="evenodd" clip-rule="evenodd" d="M22.4903 633.057C29.12 623.025 34.692 610.862 37.8028 599.21C38.0738 598.193 37.4717 597.145 36.4594 596.875C35.4471 596.605 34.4039 597.207 34.133 598.224C31.1245 609.49 25.7358 621.254 19.3239 630.949C18.745 631.827 18.9842 633.012 19.8575 633.592C20.7309 634.172 21.9113 633.935 22.4903 633.057Z" fill="black"/>
<path fill-rule="evenodd" clip-rule="evenodd" d="M26.8171 641.123C34.9943 640.455 42.5374 636.209 48.8983 631.284C49.7272 630.638 49.8808 629.441 49.2421 628.613C48.6013 627.778 47.4078 627.626 46.5773 628.266C40.785 632.754 33.9568 636.716 26.5094 637.325C25.4645 637.41 24.6858 638.331 24.7705 639.377C24.8546 640.423 25.7728 641.207 26.8171 641.123Z" fill="black"/>
</svg>
