<svg width="1626" height="737" viewBox="0 0 1626 737" fill="none" xmlns="http://www.w3.org/2000/svg">
<path fill-rule="evenodd" clip-rule="evenodd" d="M1621.72 22.3326C1620.23 28.406 1620.33 34.2547 1620.15 40.4151C1620.12 41.6182 1621.06 42.6184 1622.26 42.6546C1623.45 42.6908 1624.45 41.7414 1624.49 40.5383C1624.66 34.6968 1624.52 29.138 1625.94 23.369C1626.22 22.2022 1625.51 21.0208 1624.35 20.7382C1623.18 20.4483 1622.01 21.1657 1621.72 22.3326Z" fill="black"/>
<path fill-rule="evenodd" clip-rule="evenodd" d="M1609.06 10.5626C1598.94 19.8249 1589.41 31.7397 1582.75 43.7706C1582.17 44.8215 1582.55 46.1478 1583.6 46.7276C1584.65 47.3074 1585.97 46.9305 1586.55 45.8797C1592.99 34.2474 1602.21 22.7238 1611.98 13.7732C1612.87 12.9614 1612.93 11.5844 1612.12 10.7002C1611.31 9.81604 1609.94 9.75086 1609.06 10.5626Z" fill="black"/>
<path fill-rule="evenodd" clip-rule="evenodd" d="M1606.49 0.445409C1597.24 -1.08381 1587.71 1.52525 1579.3 5.21423C1578.2 5.69982 1577.7 6.98259 1578.18 8.07696C1578.66 9.17858 1579.94 9.6787 1581.04 9.20036C1588.7 5.83752 1597.36 3.34435 1605.79 4.73587C1606.97 4.93156 1608.09 4.12711 1608.28 2.94576C1608.48 1.76442 1607.68 0.641091 1606.49 0.445409Z" fill="black"/>
<path fill-rule="evenodd" clip-rule="evenodd" d="M10.1475 713.41C10.1226 707.157 8.61103 701.506 7.29204 695.486C7.03428 694.31 5.87685 693.568 4.70663 693.823C3.5357 694.078 2.79582 695.241 3.05288 696.417C4.30374 702.126 5.78299 707.486 5.80784 713.426C5.8126 714.627 6.79004 715.601 7.98698 715.593C9.18497 715.593 10.1529 714.612 10.1475 713.41Z" fill="black"/>
<path fill-rule="evenodd" clip-rule="evenodd" d="M25.2862 721.761C32.8547 710.325 39.2136 696.457 42.7612 683.171C43.0701 682.01 42.3818 680.815 41.2251 680.506C40.0685 680.198 38.877 680.883 38.568 682.044C35.1372 694.89 28.9874 708.303 21.6676 719.356C21.0067 720.357 21.2806 721.708 22.2787 722.37C23.2768 723.033 24.6252 722.763 25.2862 721.761Z" fill="black"/>
<path fill-rule="evenodd" clip-rule="evenodd" d="M30.2232 730.957C39.568 730.2 48.1862 725.359 55.4528 719.742C56.3998 719.005 56.5747 717.64 55.8443 716.694C55.1115 715.742 53.7474 715.567 52.7987 716.297C46.1815 721.415 38.3802 725.932 29.8695 726.623C28.6754 726.72 27.786 727.771 27.8834 728.964C27.9801 730.158 29.0298 731.053 30.2232 730.957Z" fill="black"/>
</svg>
