<svg width="59" height="59" viewBox="0 0 59 59" fill="none" xmlns="http://www.w3.org/2000/svg">
<path d="M44.1055 40.4888L38.2539 36.5639C38.007 36.3879 37.7177 36.281 37.4157 36.254C37.1137 36.227 36.81 36.281 36.5358 36.4104L34.2892 37.5498C34.0074 37.6884 33.6912 37.7417 33.3795 37.7032C33.0678 37.6647 32.7742 37.536 32.5345 37.333C28.3344 33.8574 25.5231 28.9882 24.6132 23.613C24.5573 23.3039 24.5927 22.9853 24.7152 22.6961C24.8377 22.4069 25.0419 22.1598 25.3028 21.9849L27.3483 20.4972C27.6019 20.3302 27.8063 20.0986 27.9404 19.8262C28.0746 19.5538 28.1336 19.2506 28.1114 18.9478L27.6381 11.9177L27.53 10.117C27.5105 9.85786 27.4327 9.60646 27.3024 9.38159C27.0935 9.01662 26.7558 8.74286 26.3555 8.61399C25.2516 8.24656 24.076 8.14785 22.9263 8.32607C21.7766 8.50428 20.686 8.95427 19.7451 9.63865L19.2856 9.98836L19.0476 10.1708C18.9368 10.2507 18.8304 10.3366 18.7289 10.428L18.4357 10.7098C14.5657 14.4921 15.2937 24.0009 20.2807 33.443L21.7979 36.0709C27.4742 45.0982 35.3451 50.483 40.5789 49.102L40.9696 48.989C41.0988 48.9471 41.2256 48.8983 41.3496 48.8428L41.6278 48.73L42.1604 48.507C43.223 48.0338 44.1574 47.314 44.886 46.4073C45.6146 45.5006 46.1164 44.4332 46.3497 43.2936C46.4382 42.8825 46.37 42.4532 46.1584 42.0898C46.0288 41.8645 45.85 41.6714 45.6353 41.5249L44.1055 40.4888Z" stroke="#DF3E3F" stroke-width="1.3096" stroke-miterlimit="10"/>
</svg>
