<svg width="44" height="44" viewBox="0 0 44 44" fill="none" xmlns="http://www.w3.org/2000/svg">
<path d="M32.7451 30.072L28.4656 27.2015C28.2851 27.0729 28.0734 26.9946 27.8526 26.9749C27.6317 26.9552 27.4096 26.9947 27.2091 27.0893L25.5661 27.9226C25.36 28.024 25.1287 28.0629 24.9008 28.0348C24.6728 28.0066 24.4581 27.9125 24.2828 27.7641C21.211 25.2222 19.155 21.6611 18.4896 17.73C18.4487 17.504 18.4746 17.2709 18.5642 17.0594C18.6538 16.8479 18.8031 16.6672 18.9939 16.5393L20.4899 15.4513C20.6753 15.3292 20.8248 15.1597 20.9229 14.9605C21.021 14.7613 21.0642 14.5396 21.048 14.3181L20.7018 9.17675L20.6228 7.85981C20.6085 7.67028 20.5516 7.48642 20.4563 7.32196C20.3036 7.05504 20.0566 6.85483 19.7638 6.76058C18.9565 6.49187 18.0967 6.41968 17.2559 6.55001C16.415 6.68035 15.6174 7.00944 14.9293 7.50996L14.5933 7.76572L14.4192 7.89915C14.3382 7.9576 14.2604 8.02039 14.1861 8.08723L13.9717 8.29337C11.1414 11.0595 11.6738 18.0137 15.321 24.9191L16.4306 26.841C20.5819 33.443 26.3382 37.3812 30.166 36.3712L30.4517 36.2886C30.5462 36.258 30.639 36.2223 30.7296 36.1817L30.9331 36.0992L31.3226 35.936C32.0998 35.59 32.7831 35.0636 33.316 34.4005C33.8488 33.7374 34.2158 32.9567 34.3864 32.1233C34.4512 31.8227 34.4013 31.5086 34.2465 31.2429C34.1517 31.0781 34.0209 30.9369 33.8639 30.8298L32.7451 30.072Z" stroke="#E2E2E2" stroke-width="1.3096" stroke-miterlimit="10"/>
</svg>
