<svg width="49" height="49" viewBox="0 0 49 49" fill="none" xmlns="http://www.w3.org/2000/svg">
<path d="M36.6563 33.5218L31.7546 30.234C31.5478 30.0867 31.3054 29.9971 31.0525 29.9745C30.7995 29.9519 30.5451 29.9971 30.3154 30.1055L28.4335 31.06C28.1974 31.176 27.9326 31.2207 27.6715 31.1884C27.4104 31.1561 27.1644 31.0484 26.9637 30.8783C23.4453 27.9669 21.0904 23.8881 20.3282 19.3855C20.2814 19.1266 20.311 18.8597 20.4137 18.6174C20.5163 18.3752 20.6873 18.1681 20.9059 18.0217L22.6193 16.7755C22.8317 16.6356 23.003 16.4416 23.1153 16.2134C23.2277 15.9852 23.2771 15.7312 23.2586 15.4776L22.8621 9.58872L22.7716 8.08032C22.7552 7.86324 22.69 7.65265 22.5809 7.46428C22.4059 7.15855 22.123 6.92923 21.7877 6.82129C20.863 6.5135 19.8782 6.43082 18.9151 6.5801C17.952 6.72938 17.0385 7.10632 16.2504 7.67961L15.8655 7.97255L15.6661 8.12538C15.5733 8.19233 15.4842 8.26424 15.3991 8.34081L15.1535 8.57691C11.9117 11.7452 12.5215 19.7104 16.699 27.6198L17.9699 29.8211C22.7248 37.3829 29.318 41.8937 33.7022 40.7369L34.0295 40.6422C34.1377 40.6071 34.2439 40.5662 34.3478 40.5197L34.5808 40.4253L35.027 40.2384C35.9171 39.8421 36.6998 39.2391 37.3101 38.4796C37.9205 37.7201 38.3408 36.8259 38.5362 35.8714C38.6104 35.527 38.5532 35.1673 38.3759 34.8629C38.2674 34.6742 38.1176 34.5125 37.9378 34.3898L36.6563 33.5218Z" stroke="#E2E2E2" stroke-width="1.5" stroke-miterlimit="10"/>
</svg>
