<svg width="67" height="67" viewBox="0 0 67 67" fill="none" xmlns="http://www.w3.org/2000/svg">
<path d="M50.1223 45.836L43.42 41.3405C43.1372 41.139 42.8058 41.0165 42.4599 40.9856C42.114 40.9547 41.7662 41.0165 41.4521 41.1647L38.8789 42.4698C38.5561 42.6285 38.194 42.6896 37.837 42.6455C37.48 42.6014 37.1436 42.454 36.8691 42.2215C32.0583 38.2406 28.8383 32.6635 27.7962 26.5068C27.7321 26.1528 27.7727 25.7878 27.913 25.4566C28.0533 25.1254 28.2872 24.8423 28.586 24.6421L30.9289 22.938C31.2193 22.7467 31.4534 22.4814 31.6071 22.1695C31.7607 21.8575 31.8283 21.5102 31.8029 21.1633L31.2609 13.1112L31.1371 11.0487C31.1147 10.7519 31.0256 10.4639 30.8764 10.2064C30.6371 9.78834 30.2503 9.47478 29.7918 9.32718C28.5274 8.90633 27.1808 8.79327 25.864 8.99739C24.5471 9.20152 23.298 9.71693 22.2203 10.5008L21.694 10.9014L21.4214 11.1103C21.2945 11.2019 21.1727 11.3002 21.0564 11.4049L20.7206 11.7277C16.2879 16.0599 17.1217 26.9511 22.8338 37.7659L24.5716 40.7759C31.0731 51.1156 40.0882 57.2833 46.083 55.7015L46.5305 55.5721C46.6785 55.5241 46.8238 55.4682 46.9657 55.4046L47.2844 55.2755L47.8945 55.02C49.1115 54.4781 50.1818 53.6536 51.0163 52.6151C51.8508 51.5765 52.4256 50.3539 52.6928 49.0487C52.7942 48.5778 52.716 48.086 52.4737 47.6698C52.3252 47.4118 52.1204 47.1906 51.8745 47.0229L50.1223 45.836Z" stroke="#DF3E3F" stroke-width="1.5" stroke-miterlimit="10"/>
</svg>
