<svg width="22" height="23" viewBox="0 0 22 23" fill="none" xmlns="http://www.w3.org/2000/svg">
<path d="M12.4326 4.97144H9.41751C7.30905 4.97144 5.53345 6.54773 5.28362 8.64139L4.14273 18.2022C3.93298 19.9597 5.30561 21.5058 7.07563 21.5058H14.7746C16.5446 21.5058 17.9172 19.9597 17.7075 18.2022L16.5666 8.64139C16.3167 6.54773 14.5412 4.97144 12.4326 4.97144Z" fill="#F4ECD5"/>
<path d="M12.5534 10.9722C11.6544 10.9696 10.9249 11.6975 10.9249 12.5958C10.9249 11.6975 10.1954 10.9696 9.29653 10.9722C7.88295 10.9762 7.14053 12.6846 8.12784 13.7173L8.1274 13.7175L10.3526 16.0304C10.665 16.3552 11.1847 16.3552 11.4972 16.0304L13.7224 13.7175L13.722 13.7173C14.7106 12.6833 13.965 10.9762 12.5534 10.9722Z" fill="#FF7876"/>
<path d="M13.298 1.34448H8.55201C7.91875 1.34448 7.46694 1.95829 7.65506 2.56296L8.92449 4.99397H12.9254L14.1948 2.56296C14.383 1.95829 13.9312 1.34448 13.298 1.34448Z" fill="#F4ECD5"/>
<path d="M18.2479 18.1375L17.107 8.57674C16.8783 6.6599 15.5155 5.12518 13.7392 4.61175C14.7398 2.69556 14.6919 2.79731 14.7146 2.72466C15.0122 1.76871 14.2992 0.800049 13.298 0.800049H8.55207C7.35914 0.800049 6.79541 2.09234 7.17261 2.81481L8.11085 4.61168C6.33459 5.12518 4.97175 6.65982 4.74298 8.57667L3.60216 18.1375C3.35386 20.2184 4.98148 22.05 7.07557 22.05H14.7746C16.8701 22.05 18.496 20.2168 18.2479 18.1375ZM8.55207 1.88875H13.298C13.5523 1.88875 13.7353 2.12283 13.6849 2.3635L12.6053 4.43095C12.4343 4.42471 9.42165 4.42449 9.2447 4.43095L8.16514 2.3635C8.1147 2.12268 8.29782 1.88875 8.55207 1.88875ZM14.7745 20.9613H7.07549C5.63216 20.9613 4.51217 19.6986 4.68317 18.2664L5.82406 8.70565C6.02758 7.0003 7.44289 5.53817 9.40416 5.53817L8.78665 7.12281C8.67749 7.4029 8.81604 7.71848 9.0962 7.82764C9.3768 7.93687 9.69209 7.79781 9.8011 7.51809L10.5727 5.53817H11.2775L12.0491 7.51809C12.1583 7.79825 12.474 7.9368 12.754 7.82764C13.0341 7.71848 13.1728 7.4029 13.0636 7.12281L12.4461 5.53817C14.4017 5.53817 15.8219 6.99442 16.0262 8.70565L17.1671 18.2664C17.338 19.6997 16.2168 20.9613 14.7745 20.9613Z" fill="#414042"/>
<path d="M14.7125 12.4615C14.6435 11.3244 13.6957 10.431 12.5549 10.4277C12.5528 10.4277 12.5506 10.4277 12.5485 10.4277C11.9243 10.4277 11.3417 10.6898 10.925 11.1589C10.5088 10.6903 9.92635 10.4277 9.30136 10.4277C9.29933 10.4277 9.29708 10.4277 9.29504 10.4277C7.40534 10.4332 6.43015 12.6967 7.71715 14.075C7.72295 14.0817 7.72905 14.0883 7.73522 14.0948L9.96046 16.4078C10.4877 16.9558 11.3624 16.9555 11.8896 16.4077C11.905 16.3917 14.1182 14.0917 14.1328 14.075C14.5376 13.6415 14.7486 13.0549 14.7124 12.4614V12.4615H14.7125ZM13.3286 13.3411C13.324 13.3459 13.3194 13.3508 13.3151 13.3558L11.1051 15.653C11.0069 15.7551 10.8434 15.7553 10.7451 15.6531L8.53498 13.3558C8.53055 13.3509 8.52606 13.346 8.52141 13.3412C7.8684 12.6583 8.35135 11.5193 9.29816 11.5166C9.29925 11.5166 9.3002 11.5166 9.30129 11.5166C9.89797 11.5166 10.3806 11.9993 10.3806 12.5959C10.3806 12.8965 10.6243 13.1402 10.925 13.1402C11.2257 13.1402 11.4693 12.8965 11.4693 12.5959C11.4693 12.007 11.9424 11.517 12.5518 11.5166C13.4932 11.5192 13.9842 12.6554 13.3286 13.3411Z" fill="#414042"/>
</svg>
