<svg width="22" height="23" viewBox="0 0 22 23" fill="none" xmlns="http://www.w3.org/2000/svg">
<path d="M12.4322 4.9707H9.41708C7.30862 4.9707 5.53302 6.547 5.2832 8.64066L4.14231 18.2014C3.93255 19.959 5.30519 21.5051 7.0752 21.5051H14.7742C16.5442 21.5051 17.9167 19.959 17.7071 18.2014L16.5662 8.64066C16.3163 6.547 14.5407 4.9707 12.4322 4.9707Z" fill="#F4ECD5"/>
<path d="M12.5535 10.9717C11.6546 10.9691 10.9251 11.6971 10.9251 12.5953C10.9251 11.6971 10.1956 10.9691 9.29665 10.9717C7.88307 10.9758 7.14065 12.6841 8.12796 13.7168L8.12752 13.717L10.3528 16.03C10.6652 16.3547 11.1848 16.3547 11.4973 16.03L13.7225 13.717L13.7221 13.7168C14.7107 12.6828 13.9651 10.9758 12.5535 10.9717Z" fill="#FF7876"/>
<path d="M13.2983 1.34473H8.55232C7.91905 1.34473 7.46724 1.95854 7.65537 2.56321L8.9248 4.99421H12.9257L14.1951 2.56321C14.3833 1.95854 13.9315 1.34473 13.2983 1.34473Z" fill="#F4ECD5"/>
<path d="M18.248 18.1373L17.1071 8.5765C16.8783 6.65965 15.5156 5.12494 13.7392 4.61151C14.7398 2.69531 14.692 2.79707 14.7147 2.72442C15.0123 1.76846 14.2993 0.799805 13.2981 0.799805H8.55213C7.3592 0.799805 6.79547 2.0921 7.17267 2.81456L8.11091 4.61143C6.33465 5.12494 4.97181 6.65958 4.74304 8.57643L3.60222 18.1373C3.35392 20.2182 4.98154 22.0498 7.07563 22.0498H14.7747C16.8702 22.0497 18.4961 20.2166 18.248 18.1373ZM8.55213 1.88851H13.2981C13.5524 1.88851 13.7354 2.12258 13.685 2.36326L12.6054 4.43071C12.4344 4.42447 9.42171 4.42425 9.24476 4.43071L8.1652 2.36326C8.11476 2.12244 8.29788 1.88851 8.55213 1.88851ZM14.7746 20.961H7.07555C5.63222 20.961 4.51223 19.6983 4.68323 18.2662L5.82412 8.7054C6.02764 7.00005 7.44296 5.53792 9.40422 5.53792L8.78671 7.12257C8.67755 7.40266 8.8161 7.71824 9.09626 7.8274C9.37686 7.93663 9.69215 7.79757 9.80116 7.51784L10.5728 5.53792H11.2776L12.0492 7.51784C12.1584 7.798 12.4741 7.93656 12.7541 7.8274C13.0342 7.71824 13.1728 7.40266 13.0637 7.12257L12.4461 5.53792C14.4017 5.53792 15.822 6.99417 16.0262 8.7054L17.1671 18.2662C17.3381 19.6994 16.2169 20.961 14.7746 20.961Z" fill="#414042"/>
<path d="M14.7121 12.4615C14.6431 11.3244 13.6954 10.431 12.5546 10.4277C12.5524 10.4277 12.5503 10.4277 12.5482 10.4277C11.9239 10.4277 11.3413 10.6898 10.9246 11.1589C10.5084 10.6903 9.92598 10.4277 9.30099 10.4277C9.29896 10.4277 9.29671 10.4277 9.29468 10.4277C7.40498 10.4332 6.42979 12.6967 7.71678 14.075C7.72259 14.0817 7.72868 14.0883 7.73485 14.0948L9.96009 16.4078C10.4873 16.9558 11.3621 16.9555 11.8892 16.4077C11.9047 16.3917 14.1179 14.0917 14.1324 14.075C14.5372 13.6415 14.7482 13.0549 14.7121 12.4614V12.4615H14.7121ZM13.3282 13.3411C13.3236 13.3459 13.319 13.3508 13.3147 13.3558L11.1047 15.653C11.0065 15.7551 10.843 15.7553 10.7447 15.6531L8.53462 13.3558C8.53019 13.3509 8.52569 13.346 8.52104 13.3412C7.86804 12.6583 8.35099 11.5193 9.2978 11.5166C9.29889 11.5166 9.29983 11.5166 9.30092 11.5166C9.8976 11.5166 10.3803 11.9993 10.3803 12.5959C10.3803 12.8965 10.6239 13.1402 10.9246 13.1402C11.2253 13.1402 11.469 12.8965 11.469 12.5959C11.469 12.007 11.942 11.517 12.5514 11.5166C13.4929 11.5192 13.9839 12.6554 13.3282 13.3411Z" fill="#414042"/>
</svg>
