<svg width="1920" height="952" viewBox="0 0 1920 952" fill="none" xmlns="http://www.w3.org/2000/svg">
<circle cx="1.49146" cy="4.15649" r="1.49146" fill="#BCBCBC"/>
<circle cx="1.49146" cy="633.55" r="1.49146" fill="#BCBCBC"/>
<circle cx="830.74" cy="2.16772" r="1.49146" fill="#BCBCBC"/>
<circle cx="830.74" cy="631.562" r="1.49146" fill="#BCBCBC"/>
<circle cx="417.11" cy="4.15649" r="1.49146" fill="#BCBCBC"/>
<circle cx="417.11" cy="633.55" r="1.49146" fill="#BCBCBC"/>
<circle cx="1246.36" cy="2.16772" r="1.49146" fill="#BCBCBC"/>
<circle cx="1246.36" cy="631.562" r="1.49146" fill="#BCBCBC"/>
<circle cx="1.49146" cy="214.948" r="1.49146" fill="#BCBCBC"/>
<circle cx="1.49146" cy="844.343" r="1.49146" fill="#BCBCBC"/>
<circle cx="830.74" cy="212.96" r="1.49146" fill="#BCBCBC"/>
<circle cx="830.74" cy="842.354" r="1.49146" fill="#BCBCBC"/>
<circle cx="417.11" cy="214.948" r="1.49146" fill="#BCBCBC"/>
<circle cx="417.11" cy="844.343" r="1.49146" fill="#BCBCBC"/>
<circle cx="1246.36" cy="212.96" r="1.49146" fill="#BCBCBC"/>
<circle cx="1246.36" cy="842.354" r="1.49146" fill="#BCBCBC"/>
<circle cx="1.49146" cy="425.741" r="1.49146" fill="#BCBCBC"/>
<circle cx="830.74" cy="423.752" r="1.49146" fill="#BCBCBC"/>
<circle cx="417.11" cy="425.741" r="1.49146" fill="#BCBCBC"/>
<circle cx="1246.36" cy="423.752" r="1.49146" fill="#BCBCBC"/>
<circle cx="1.49146" cy="109.552" r="1.49146" fill="#BCBCBC"/>
<circle cx="1.49146" cy="738.947" r="1.49146" fill="#BCBCBC"/>
<circle cx="830.74" cy="107.564" r="1.49146" fill="#BCBCBC"/>
<circle cx="830.74" cy="736.958" r="1.49146" fill="#BCBCBC"/>
<circle cx="417.11" cy="109.552" r="1.49146" fill="#BCBCBC"/>
<circle cx="417.11" cy="738.947" r="1.49146" fill="#BCBCBC"/>
<circle cx="1246.36" cy="107.564" r="1.49146" fill="#BCBCBC"/>
<circle cx="1246.36" cy="736.958" r="1.49146" fill="#BCBCBC"/>
<circle cx="1.49146" cy="320.344" r="1.49146" fill="#BCBCBC"/>
<circle cx="1.49146" cy="949.739" r="1.49146" fill="#BCBCBC"/>
<circle cx="830.74" cy="318.356" r="1.49146" fill="#BCBCBC"/>
<circle cx="830.74" cy="947.751" r="1.49146" fill="#BCBCBC"/>
<circle cx="417.11" cy="320.344" r="1.49146" fill="#BCBCBC"/>
<circle cx="417.11" cy="949.739" r="1.49146" fill="#BCBCBC"/>
<circle cx="1246.36" cy="318.356" r="1.49146" fill="#BCBCBC"/>
<circle cx="1246.36" cy="947.751" r="1.49146" fill="#BCBCBC"/>
<circle cx="1.49146" cy="531.137" r="1.49146" fill="#BCBCBC"/>
<circle cx="830.74" cy="529.148" r="1.49146" fill="#BCBCBC"/>
<circle cx="417.11" cy="531.137" r="1.49146" fill="#BCBCBC"/>
<circle cx="1246.36" cy="529.148" r="1.49146" fill="#BCBCBC"/>
<circle cx="1.49146" cy="56.8547" r="1.49146" fill="#BCBCBC"/>
<circle cx="1.49146" cy="686.248" r="1.49146" fill="#BCBCBC"/>
<circle cx="830.74" cy="54.8665" r="1.49146" fill="#BCBCBC"/>
<circle cx="830.74" cy="684.26" r="1.49146" fill="#BCBCBC"/>
<circle cx="417.11" cy="56.8547" r="1.49146" fill="#BCBCBC"/>
<circle cx="417.11" cy="686.248" r="1.49146" fill="#BCBCBC"/>
<circle cx="1246.36" cy="54.8665" r="1.49146" fill="#BCBCBC"/>
<circle cx="1246.36" cy="684.26" r="1.49146" fill="#BCBCBC"/>
<circle cx="1.49146" cy="267.647" r="1.49146" fill="#BCBCBC"/>
<circle cx="1.49146" cy="897.041" r="1.49146" fill="#BCBCBC"/>
<circle cx="830.74" cy="265.658" r="1.49146" fill="#BCBCBC"/>
<circle cx="830.74" cy="895.052" r="1.49146" fill="#BCBCBC"/>
<circle cx="417.11" cy="267.647" r="1.49146" fill="#BCBCBC"/>
<circle cx="417.11" cy="897.041" r="1.49146" fill="#BCBCBC"/>
<circle cx="1246.36" cy="265.658" r="1.49146" fill="#BCBCBC"/>
<circle cx="1246.36" cy="895.052" r="1.49146" fill="#BCBCBC"/>
<circle cx="1.49146" cy="478.438" r="1.49146" fill="#BCBCBC"/>
<circle cx="830.74" cy="476.45" r="1.49146" fill="#BCBCBC"/>
<circle cx="417.11" cy="478.438" r="1.49146" fill="#BCBCBC"/>
<circle cx="1246.36" cy="476.45" r="1.49146" fill="#BCBCBC"/>
<circle cx="1.49146" cy="162.25" r="1.49146" fill="#BCBCBC"/>
<circle cx="1.49146" cy="791.645" r="1.49146" fill="#BCBCBC"/>
<circle cx="830.74" cy="160.262" r="1.49146" fill="#BCBCBC"/>
<circle cx="830.74" cy="789.656" r="1.49146" fill="#BCBCBC"/>
<circle cx="417.11" cy="162.25" r="1.49146" fill="#BCBCBC"/>
<circle cx="417.11" cy="791.645" r="1.49146" fill="#BCBCBC"/>
<circle cx="1246.36" cy="160.262" r="1.49146" fill="#BCBCBC"/>
<circle cx="1246.36" cy="789.656" r="1.49146" fill="#BCBCBC"/>
<circle cx="1.49146" cy="373.042" r="1.49146" fill="#BCBCBC"/>
<circle cx="830.74" cy="371.054" r="1.49146" fill="#BCBCBC"/>
<circle cx="417.11" cy="373.042" r="1.49146" fill="#BCBCBC"/>
<circle cx="1246.36" cy="371.054" r="1.49146" fill="#BCBCBC"/>
<circle cx="1.49146" cy="583.835" r="1.49146" fill="#BCBCBC"/>
<circle cx="830.74" cy="581.846" r="1.49146" fill="#BCBCBC"/>
<circle cx="417.11" cy="583.835" r="1.49146" fill="#BCBCBC"/>
<circle cx="1246.36" cy="581.846" r="1.49146" fill="#BCBCBC"/>
<circle cx="208.307" cy="4.15649" r="1.49146" fill="#BCBCBC"/>
<circle cx="208.307" cy="633.55" r="1.49146" fill="#BCBCBC"/>
<circle cx="1037.56" cy="2.16772" r="1.49146" fill="#BCBCBC"/>
<circle cx="1037.56" cy="631.562" r="1.49146" fill="#BCBCBC"/>
<circle cx="623.926" cy="4.15649" r="1.49146" fill="#BCBCBC"/>
<circle cx="623.926" cy="633.55" r="1.49146" fill="#BCBCBC"/>
<circle cx="1453.18" cy="2.16772" r="1.49146" fill="#BCBCBC"/>
<circle cx="1815.1" cy="2.16772" r="1.49146" fill="#BCBCBC"/>
<circle cx="1453.18" cy="631.562" r="1.49146" fill="#BCBCBC"/>
<circle cx="1815.1" cy="631.562" r="1.49146" fill="#BCBCBC"/>
<circle cx="208.307" cy="214.948" r="1.49146" fill="#BCBCBC"/>
<circle cx="208.307" cy="844.343" r="1.49146" fill="#BCBCBC"/>
<circle cx="1037.56" cy="212.96" r="1.49146" fill="#BCBCBC"/>
<circle cx="1037.56" cy="842.354" r="1.49146" fill="#BCBCBC"/>
<circle cx="623.926" cy="214.948" r="1.49146" fill="#BCBCBC"/>
<circle cx="623.926" cy="844.343" r="1.49146" fill="#BCBCBC"/>
<circle cx="1453.18" cy="212.96" r="1.49146" fill="#BCBCBC"/>
<circle cx="1815.1" cy="212.96" r="1.49146" fill="#BCBCBC"/>
<circle cx="1453.18" cy="842.354" r="1.49146" fill="#BCBCBC"/>
<circle cx="1815.1" cy="842.354" r="1.49146" fill="#BCBCBC"/>
<circle cx="208.307" cy="425.741" r="1.49146" fill="#BCBCBC"/>
<circle cx="1037.56" cy="423.752" r="1.49146" fill="#BCBCBC"/>
<circle cx="623.926" cy="425.741" r="1.49146" fill="#BCBCBC"/>
<circle cx="1453.18" cy="423.752" r="1.49146" fill="#BCBCBC"/>
<circle cx="1815.1" cy="423.752" r="1.49146" fill="#BCBCBC"/>
<circle cx="208.307" cy="109.552" r="1.49146" fill="#BCBCBC"/>
<circle cx="208.307" cy="738.947" r="1.49146" fill="#BCBCBC"/>
<circle cx="1037.56" cy="107.564" r="1.49146" fill="#BCBCBC"/>
<circle cx="1037.56" cy="736.958" r="1.49146" fill="#BCBCBC"/>
<circle cx="623.926" cy="109.552" r="1.49146" fill="#BCBCBC"/>
<circle cx="623.926" cy="738.947" r="1.49146" fill="#BCBCBC"/>
<circle cx="1453.18" cy="107.564" r="1.49146" fill="#BCBCBC"/>
<circle cx="1815.1" cy="107.564" r="1.49146" fill="#BCBCBC"/>
<circle cx="1453.18" cy="736.958" r="1.49146" fill="#BCBCBC"/>
<circle cx="1815.1" cy="736.958" r="1.49146" fill="#BCBCBC"/>
<circle cx="208.307" cy="320.344" r="1.49146" fill="#BCBCBC"/>
<circle cx="208.307" cy="949.739" r="1.49146" fill="#BCBCBC"/>
<circle cx="1037.56" cy="318.356" r="1.49146" fill="#BCBCBC"/>
<circle cx="1037.56" cy="947.751" r="1.49146" fill="#BCBCBC"/>
<circle cx="623.926" cy="320.344" r="1.49146" fill="#BCBCBC"/>
<circle cx="623.926" cy="949.739" r="1.49146" fill="#BCBCBC"/>
<circle cx="1453.18" cy="318.356" r="1.49146" fill="#BCBCBC"/>
<circle cx="1815.1" cy="318.356" r="1.49146" fill="#BCBCBC"/>
<circle cx="1453.18" cy="947.751" r="1.49146" fill="#BCBCBC"/>
<circle cx="1815.1" cy="947.751" r="1.49146" fill="#BCBCBC"/>
<circle cx="208.307" cy="531.137" r="1.49146" fill="#BCBCBC"/>
<circle cx="1037.56" cy="529.148" r="1.49146" fill="#BCBCBC"/>
<circle cx="623.926" cy="531.137" r="1.49146" fill="#BCBCBC"/>
<circle cx="1453.18" cy="529.148" r="1.49146" fill="#BCBCBC"/>
<circle cx="1815.1" cy="529.148" r="1.49146" fill="#BCBCBC"/>
<circle cx="208.307" cy="56.8547" r="1.49146" fill="#BCBCBC"/>
<circle cx="208.307" cy="686.248" r="1.49146" fill="#BCBCBC"/>
<circle cx="1037.56" cy="54.8665" r="1.49146" fill="#BCBCBC"/>
<circle cx="1037.56" cy="684.26" r="1.49146" fill="#BCBCBC"/>
<circle cx="623.926" cy="56.8547" r="1.49146" fill="#BCBCBC"/>
<circle cx="623.926" cy="686.248" r="1.49146" fill="#BCBCBC"/>
<circle cx="1453.18" cy="54.8665" r="1.49146" fill="#BCBCBC"/>
<circle cx="1815.1" cy="54.8665" r="1.49146" fill="#BCBCBC"/>
<circle cx="1453.18" cy="684.26" r="1.49146" fill="#BCBCBC"/>
<circle cx="1815.1" cy="684.26" r="1.49146" fill="#BCBCBC"/>
<circle cx="208.307" cy="267.647" r="1.49146" fill="#BCBCBC"/>
<circle cx="208.307" cy="897.041" r="1.49146" fill="#BCBCBC"/>
<circle cx="1037.56" cy="265.658" r="1.49146" fill="#BCBCBC"/>
<circle cx="1037.56" cy="895.052" r="1.49146" fill="#BCBCBC"/>
<circle cx="623.926" cy="267.647" r="1.49146" fill="#BCBCBC"/>
<circle cx="623.926" cy="897.041" r="1.49146" fill="#BCBCBC"/>
<circle cx="1453.18" cy="265.658" r="1.49146" fill="#BCBCBC"/>
<circle cx="1815.1" cy="265.658" r="1.49146" fill="#BCBCBC"/>
<circle cx="1453.18" cy="895.052" r="1.49146" fill="#BCBCBC"/>
<circle cx="1815.1" cy="895.052" r="1.49146" fill="#BCBCBC"/>
<circle cx="208.307" cy="478.438" r="1.49146" fill="#BCBCBC"/>
<circle cx="1037.56" cy="476.45" r="1.49146" fill="#BCBCBC"/>
<circle cx="623.926" cy="478.438" r="1.49146" fill="#BCBCBC"/>
<circle cx="1453.18" cy="476.45" r="1.49146" fill="#BCBCBC"/>
<circle cx="1815.1" cy="476.45" r="1.49146" fill="#BCBCBC"/>
<circle cx="208.307" cy="162.25" r="1.49146" fill="#BCBCBC"/>
<circle cx="208.307" cy="791.645" r="1.49146" fill="#BCBCBC"/>
<circle cx="1037.56" cy="160.262" r="1.49146" fill="#BCBCBC"/>
<circle cx="1037.56" cy="789.656" r="1.49146" fill="#BCBCBC"/>
<circle cx="623.926" cy="162.25" r="1.49146" fill="#BCBCBC"/>
<circle cx="623.926" cy="791.645" r="1.49146" fill="#BCBCBC"/>
<circle cx="1453.18" cy="160.262" r="1.49146" fill="#BCBCBC"/>
<circle cx="1815.1" cy="160.262" r="1.49146" fill="#BCBCBC"/>
<circle cx="1453.18" cy="789.656" r="1.49146" fill="#BCBCBC"/>
<circle cx="1815.1" cy="789.656" r="1.49146" fill="#BCBCBC"/>
<circle cx="208.307" cy="373.042" r="1.49146" fill="#BCBCBC"/>
<circle cx="1037.56" cy="371.054" r="1.49146" fill="#BCBCBC"/>
<circle cx="623.926" cy="373.042" r="1.49146" fill="#BCBCBC"/>
<circle cx="1453.18" cy="371.054" r="1.49146" fill="#BCBCBC"/>
<circle cx="1815.1" cy="371.054" r="1.49146" fill="#BCBCBC"/>
<circle cx="208.307" cy="583.835" r="1.49146" fill="#BCBCBC"/>
<circle cx="1037.56" cy="581.846" r="1.49146" fill="#BCBCBC"/>
<circle cx="623.926" cy="583.835" r="1.49146" fill="#BCBCBC"/>
<circle cx="1453.18" cy="581.846" r="1.49146" fill="#BCBCBC"/>
<circle cx="1815.1" cy="581.846" r="1.49146" fill="#BCBCBC"/>
<circle cx="53.1951" cy="4.15649" r="1.49146" fill="#BCBCBC"/>
<circle cx="53.1951" cy="633.55" r="1.49146" fill="#BCBCBC"/>
<circle cx="882.445" cy="2.16772" r="1.49146" fill="#BCBCBC"/>
<circle cx="882.445" cy="631.562" r="1.49146" fill="#BCBCBC"/>
<circle cx="468.814" cy="4.15649" r="1.49146" fill="#BCBCBC"/>
<circle cx="468.814" cy="633.55" r="1.49146" fill="#BCBCBC"/>
<circle cx="1298.06" cy="2.16772" r="1.49146" fill="#BCBCBC"/>
<circle cx="1659.99" cy="2.16772" r="1.49146" fill="#BCBCBC"/>
<circle cx="1298.06" cy="631.562" r="1.49146" fill="#BCBCBC"/>
<circle cx="1659.99" cy="631.562" r="1.49146" fill="#BCBCBC"/>
<circle cx="53.1951" cy="214.948" r="1.49146" fill="#BCBCBC"/>
<circle cx="53.1951" cy="844.343" r="1.49146" fill="#BCBCBC"/>
<circle cx="882.445" cy="212.96" r="1.49146" fill="#BCBCBC"/>
<circle cx="882.445" cy="842.354" r="1.49146" fill="#BCBCBC"/>
<circle cx="468.814" cy="214.948" r="1.49146" fill="#BCBCBC"/>
<circle cx="468.814" cy="844.343" r="1.49146" fill="#BCBCBC"/>
<circle cx="1298.06" cy="212.96" r="1.49146" fill="#BCBCBC"/>
<circle cx="1659.99" cy="212.96" r="1.49146" fill="#BCBCBC"/>
<circle cx="1298.06" cy="842.354" r="1.49146" fill="#BCBCBC"/>
<circle cx="1659.99" cy="842.354" r="1.49146" fill="#BCBCBC"/>
<circle cx="53.1951" cy="425.741" r="1.49146" fill="#BCBCBC"/>
<circle cx="882.445" cy="423.752" r="1.49146" fill="#BCBCBC"/>
<circle cx="468.814" cy="425.741" r="1.49146" fill="#BCBCBC"/>
<circle cx="1298.06" cy="423.752" r="1.49146" fill="#BCBCBC"/>
<circle cx="1659.99" cy="423.752" r="1.49146" fill="#BCBCBC"/>
<circle cx="53.1951" cy="109.552" r="1.49146" fill="#BCBCBC"/>
<circle cx="53.1951" cy="738.947" r="1.49146" fill="#BCBCBC"/>
<circle cx="882.445" cy="107.564" r="1.49146" fill="#BCBCBC"/>
<circle cx="882.445" cy="736.958" r="1.49146" fill="#BCBCBC"/>
<circle cx="468.814" cy="109.552" r="1.49146" fill="#BCBCBC"/>
<circle cx="468.814" cy="738.947" r="1.49146" fill="#BCBCBC"/>
<circle cx="1298.06" cy="107.564" r="1.49146" fill="#BCBCBC"/>
<circle cx="1659.99" cy="107.564" r="1.49146" fill="#BCBCBC"/>
<circle cx="1298.06" cy="736.958" r="1.49146" fill="#BCBCBC"/>
<circle cx="1659.99" cy="736.958" r="1.49146" fill="#BCBCBC"/>
<circle cx="53.1951" cy="320.344" r="1.49146" fill="#BCBCBC"/>
<circle cx="53.1951" cy="949.739" r="1.49146" fill="#BCBCBC"/>
<circle cx="882.445" cy="318.356" r="1.49146" fill="#BCBCBC"/>
<circle cx="882.445" cy="947.751" r="1.49146" fill="#BCBCBC"/>
<circle cx="468.814" cy="320.344" r="1.49146" fill="#BCBCBC"/>
<circle cx="468.814" cy="949.739" r="1.49146" fill="#BCBCBC"/>
<circle cx="1298.06" cy="318.356" r="1.49146" fill="#BCBCBC"/>
<circle cx="1659.99" cy="318.356" r="1.49146" fill="#BCBCBC"/>
<circle cx="1298.06" cy="947.751" r="1.49146" fill="#BCBCBC"/>
<circle cx="1659.99" cy="947.751" r="1.49146" fill="#BCBCBC"/>
<circle cx="53.1951" cy="531.137" r="1.49146" fill="#BCBCBC"/>
<circle cx="882.445" cy="529.148" r="1.49146" fill="#BCBCBC"/>
<circle cx="468.814" cy="531.137" r="1.49146" fill="#BCBCBC"/>
<circle cx="1298.06" cy="529.148" r="1.49146" fill="#BCBCBC"/>
<circle cx="1659.99" cy="529.148" r="1.49146" fill="#BCBCBC"/>
<circle cx="53.1951" cy="56.8547" r="1.49146" fill="#BCBCBC"/>
<circle cx="53.1951" cy="686.248" r="1.49146" fill="#BCBCBC"/>
<circle cx="882.445" cy="54.8665" r="1.49146" fill="#BCBCBC"/>
<circle cx="882.445" cy="684.26" r="1.49146" fill="#BCBCBC"/>
<circle cx="468.814" cy="56.8547" r="1.49146" fill="#BCBCBC"/>
<circle cx="468.814" cy="686.248" r="1.49146" fill="#BCBCBC"/>
<circle cx="1298.06" cy="54.8665" r="1.49146" fill="#BCBCBC"/>
<circle cx="1659.99" cy="54.8665" r="1.49146" fill="#BCBCBC"/>
<circle cx="1298.06" cy="684.26" r="1.49146" fill="#BCBCBC"/>
<circle cx="1659.99" cy="684.26" r="1.49146" fill="#BCBCBC"/>
<circle cx="53.1951" cy="267.647" r="1.49146" fill="#BCBCBC"/>
<circle cx="53.1951" cy="897.041" r="1.49146" fill="#BCBCBC"/>
<circle cx="882.445" cy="265.658" r="1.49146" fill="#BCBCBC"/>
<circle cx="882.445" cy="895.052" r="1.49146" fill="#BCBCBC"/>
<circle cx="468.814" cy="267.647" r="1.49146" fill="#BCBCBC"/>
<circle cx="468.814" cy="897.041" r="1.49146" fill="#BCBCBC"/>
<circle cx="1298.06" cy="265.658" r="1.49146" fill="#BCBCBC"/>
<circle cx="1659.99" cy="265.658" r="1.49146" fill="#BCBCBC"/>
<circle cx="1298.06" cy="895.052" r="1.49146" fill="#BCBCBC"/>
<circle cx="1659.99" cy="895.052" r="1.49146" fill="#BCBCBC"/>
<circle cx="53.1951" cy="478.438" r="1.49146" fill="#BCBCBC"/>
<circle cx="882.445" cy="476.45" r="1.49146" fill="#BCBCBC"/>
<circle cx="468.814" cy="478.438" r="1.49146" fill="#BCBCBC"/>
<circle cx="1298.06" cy="476.45" r="1.49146" fill="#BCBCBC"/>
<circle cx="1659.99" cy="476.45" r="1.49146" fill="#BCBCBC"/>
<circle cx="53.1951" cy="162.25" r="1.49146" fill="#BCBCBC"/>
<circle cx="53.1951" cy="791.645" r="1.49146" fill="#BCBCBC"/>
<circle cx="882.445" cy="160.262" r="1.49146" fill="#BCBCBC"/>
<circle cx="882.445" cy="789.656" r="1.49146" fill="#BCBCBC"/>
<circle cx="468.814" cy="162.25" r="1.49146" fill="#BCBCBC"/>
<circle cx="468.814" cy="791.645" r="1.49146" fill="#BCBCBC"/>
<circle cx="1298.06" cy="160.262" r="1.49146" fill="#BCBCBC"/>
<circle cx="1659.99" cy="160.262" r="1.49146" fill="#BCBCBC"/>
<circle cx="1298.06" cy="789.656" r="1.49146" fill="#BCBCBC"/>
<circle cx="1659.99" cy="789.656" r="1.49146" fill="#BCBCBC"/>
<circle cx="53.1951" cy="373.042" r="1.49146" fill="#BCBCBC"/>
<circle cx="882.445" cy="371.054" r="1.49146" fill="#BCBCBC"/>
<circle cx="468.814" cy="373.042" r="1.49146" fill="#BCBCBC"/>
<circle cx="1298.06" cy="371.054" r="1.49146" fill="#BCBCBC"/>
<circle cx="1659.99" cy="371.054" r="1.49146" fill="#BCBCBC"/>
<circle cx="53.1951" cy="583.835" r="1.49146" fill="#BCBCBC"/>
<circle cx="882.445" cy="581.846" r="1.49146" fill="#BCBCBC"/>
<circle cx="468.814" cy="583.835" r="1.49146" fill="#BCBCBC"/>
<circle cx="1298.06" cy="581.846" r="1.49146" fill="#BCBCBC"/>
<circle cx="1659.99" cy="581.846" r="1.49146" fill="#BCBCBC"/>
<circle cx="260.01" cy="4.15649" r="1.49146" fill="#BCBCBC"/>
<circle cx="260.01" cy="633.55" r="1.49146" fill="#BCBCBC"/>
<circle cx="1089.26" cy="2.16772" r="1.49146" fill="#BCBCBC"/>
<circle cx="1089.26" cy="631.562" r="1.49146" fill="#BCBCBC"/>
<circle cx="675.629" cy="4.15649" r="1.49146" fill="#BCBCBC"/>
<circle cx="675.629" cy="633.55" r="1.49146" fill="#BCBCBC"/>
<circle cx="1504.88" cy="2.16772" r="1.49146" fill="#BCBCBC"/>
<circle cx="1866.81" cy="2.16772" r="1.49146" fill="#BCBCBC"/>
<circle cx="1504.88" cy="631.562" r="1.49146" fill="#BCBCBC"/>
<circle cx="1866.81" cy="631.562" r="1.49146" fill="#BCBCBC"/>
<circle cx="260.01" cy="214.948" r="1.49146" fill="#BCBCBC"/>
<circle cx="260.01" cy="844.343" r="1.49146" fill="#BCBCBC"/>
<circle cx="1089.26" cy="212.96" r="1.49146" fill="#BCBCBC"/>
<circle cx="1089.26" cy="842.354" r="1.49146" fill="#BCBCBC"/>
<circle cx="675.629" cy="214.948" r="1.49146" fill="#BCBCBC"/>
<circle cx="675.629" cy="844.343" r="1.49146" fill="#BCBCBC"/>
<circle cx="1504.88" cy="212.96" r="1.49146" fill="#BCBCBC"/>
<circle cx="1866.81" cy="212.96" r="1.49146" fill="#BCBCBC"/>
<circle cx="1504.88" cy="842.354" r="1.49146" fill="#BCBCBC"/>
<circle cx="1866.81" cy="842.354" r="1.49146" fill="#BCBCBC"/>
<circle cx="260.01" cy="425.741" r="1.49146" fill="#BCBCBC"/>
<circle cx="1089.26" cy="423.752" r="1.49146" fill="#BCBCBC"/>
<circle cx="675.629" cy="425.741" r="1.49146" fill="#BCBCBC"/>
<circle cx="1504.88" cy="423.752" r="1.49146" fill="#BCBCBC"/>
<circle cx="1866.81" cy="423.752" r="1.49146" fill="#BCBCBC"/>
<circle cx="260.01" cy="109.552" r="1.49146" fill="#BCBCBC"/>
<circle cx="260.01" cy="738.947" r="1.49146" fill="#BCBCBC"/>
<circle cx="1089.26" cy="107.564" r="1.49146" fill="#BCBCBC"/>
<circle cx="1089.26" cy="736.958" r="1.49146" fill="#BCBCBC"/>
<circle cx="675.629" cy="109.552" r="1.49146" fill="#BCBCBC"/>
<circle cx="675.629" cy="738.947" r="1.49146" fill="#BCBCBC"/>
<circle cx="1504.88" cy="107.564" r="1.49146" fill="#BCBCBC"/>
<circle cx="1866.81" cy="107.564" r="1.49146" fill="#BCBCBC"/>
<circle cx="1504.88" cy="736.958" r="1.49146" fill="#BCBCBC"/>
<circle cx="1866.81" cy="736.958" r="1.49146" fill="#BCBCBC"/>
<circle cx="260.01" cy="320.344" r="1.49146" fill="#BCBCBC"/>
<circle cx="260.01" cy="949.739" r="1.49146" fill="#BCBCBC"/>
<circle cx="1089.26" cy="318.356" r="1.49146" fill="#BCBCBC"/>
<circle cx="1089.26" cy="947.751" r="1.49146" fill="#BCBCBC"/>
<circle cx="675.629" cy="320.344" r="1.49146" fill="#BCBCBC"/>
<circle cx="675.629" cy="949.739" r="1.49146" fill="#BCBCBC"/>
<circle cx="1504.88" cy="318.356" r="1.49146" fill="#BCBCBC"/>
<circle cx="1866.81" cy="318.356" r="1.49146" fill="#BCBCBC"/>
<circle cx="1504.88" cy="947.751" r="1.49146" fill="#BCBCBC"/>
<circle cx="1866.81" cy="947.751" r="1.49146" fill="#BCBCBC"/>
<circle cx="260.01" cy="531.137" r="1.49146" fill="#BCBCBC"/>
<circle cx="1089.26" cy="529.148" r="1.49146" fill="#BCBCBC"/>
<circle cx="675.629" cy="531.137" r="1.49146" fill="#BCBCBC"/>
<circle cx="1504.88" cy="529.148" r="1.49146" fill="#BCBCBC"/>
<circle cx="1866.81" cy="529.148" r="1.49146" fill="#BCBCBC"/>
<circle cx="260.01" cy="56.8547" r="1.49146" fill="#BCBCBC"/>
<circle cx="260.01" cy="686.248" r="1.49146" fill="#BCBCBC"/>
<circle cx="1089.26" cy="54.8665" r="1.49146" fill="#BCBCBC"/>
<circle cx="1089.26" cy="684.26" r="1.49146" fill="#BCBCBC"/>
<circle cx="675.629" cy="56.8547" r="1.49146" fill="#BCBCBC"/>
<circle cx="675.629" cy="686.248" r="1.49146" fill="#BCBCBC"/>
<circle cx="1504.88" cy="54.8665" r="1.49146" fill="#BCBCBC"/>
<circle cx="1866.81" cy="54.8665" r="1.49146" fill="#BCBCBC"/>
<circle cx="1504.88" cy="684.26" r="1.49146" fill="#BCBCBC"/>
<circle cx="1866.81" cy="684.26" r="1.49146" fill="#BCBCBC"/>
<circle cx="260.01" cy="267.647" r="1.49146" fill="#BCBCBC"/>
<circle cx="260.01" cy="897.041" r="1.49146" fill="#BCBCBC"/>
<circle cx="1089.26" cy="265.658" r="1.49146" fill="#BCBCBC"/>
<circle cx="1089.26" cy="895.052" r="1.49146" fill="#BCBCBC"/>
<circle cx="675.629" cy="267.647" r="1.49146" fill="#BCBCBC"/>
<circle cx="675.629" cy="897.041" r="1.49146" fill="#BCBCBC"/>
<circle cx="1504.88" cy="265.658" r="1.49146" fill="#BCBCBC"/>
<circle cx="1866.81" cy="265.658" r="1.49146" fill="#BCBCBC"/>
<circle cx="1504.88" cy="895.052" r="1.49146" fill="#BCBCBC"/>
<circle cx="1866.81" cy="895.052" r="1.49146" fill="#BCBCBC"/>
<circle cx="260.01" cy="478.438" r="1.49146" fill="#BCBCBC"/>
<circle cx="1089.26" cy="476.45" r="1.49146" fill="#BCBCBC"/>
<circle cx="675.629" cy="478.438" r="1.49146" fill="#BCBCBC"/>
<circle cx="1504.88" cy="476.45" r="1.49146" fill="#BCBCBC"/>
<circle cx="1866.81" cy="476.45" r="1.49146" fill="#BCBCBC"/>
<circle cx="260.01" cy="162.25" r="1.49146" fill="#BCBCBC"/>
<circle cx="260.01" cy="791.645" r="1.49146" fill="#BCBCBC"/>
<circle cx="1089.26" cy="160.262" r="1.49146" fill="#BCBCBC"/>
<circle cx="1089.26" cy="789.656" r="1.49146" fill="#BCBCBC"/>
<circle cx="675.629" cy="162.25" r="1.49146" fill="#BCBCBC"/>
<circle cx="675.629" cy="791.645" r="1.49146" fill="#BCBCBC"/>
<circle cx="1504.88" cy="160.262" r="1.49146" fill="#BCBCBC"/>
<circle cx="1866.81" cy="160.262" r="1.49146" fill="#BCBCBC"/>
<circle cx="1504.88" cy="789.656" r="1.49146" fill="#BCBCBC"/>
<circle cx="1866.81" cy="789.656" r="1.49146" fill="#BCBCBC"/>
<circle cx="260.01" cy="373.042" r="1.49146" fill="#BCBCBC"/>
<circle cx="1089.26" cy="371.054" r="1.49146" fill="#BCBCBC"/>
<circle cx="675.629" cy="373.042" r="1.49146" fill="#BCBCBC"/>
<circle cx="1504.88" cy="371.054" r="1.49146" fill="#BCBCBC"/>
<circle cx="1866.81" cy="371.054" r="1.49146" fill="#BCBCBC"/>
<circle cx="260.01" cy="583.835" r="1.49146" fill="#BCBCBC"/>
<circle cx="1089.26" cy="581.846" r="1.49146" fill="#BCBCBC"/>
<circle cx="675.629" cy="583.835" r="1.49146" fill="#BCBCBC"/>
<circle cx="1504.88" cy="581.846" r="1.49146" fill="#BCBCBC"/>
<circle cx="1866.81" cy="581.846" r="1.49146" fill="#BCBCBC"/>
<circle cx="104.9" cy="4.15649" r="1.49146" fill="#BCBCBC"/>
<circle cx="104.9" cy="633.55" r="1.49146" fill="#BCBCBC"/>
<circle cx="934.149" cy="2.16772" r="1.49146" fill="#BCBCBC"/>
<circle cx="934.149" cy="631.562" r="1.49146" fill="#BCBCBC"/>
<circle cx="520.518" cy="4.15649" r="1.49146" fill="#BCBCBC"/>
<circle cx="520.518" cy="633.55" r="1.49146" fill="#BCBCBC"/>
<circle cx="1349.77" cy="2.16772" r="1.49146" fill="#BCBCBC"/>
<circle cx="1711.69" cy="2.16772" r="1.49146" fill="#BCBCBC"/>
<circle cx="1349.77" cy="631.562" r="1.49146" fill="#BCBCBC"/>
<circle cx="1711.69" cy="631.562" r="1.49146" fill="#BCBCBC"/>
<circle cx="104.9" cy="214.948" r="1.49146" fill="#BCBCBC"/>
<circle cx="104.9" cy="844.343" r="1.49146" fill="#BCBCBC"/>
<circle cx="934.149" cy="212.96" r="1.49146" fill="#BCBCBC"/>
<circle cx="934.149" cy="842.354" r="1.49146" fill="#BCBCBC"/>
<circle cx="520.518" cy="214.948" r="1.49146" fill="#BCBCBC"/>
<circle cx="520.518" cy="844.343" r="1.49146" fill="#BCBCBC"/>
<circle cx="1349.77" cy="212.96" r="1.49146" fill="#BCBCBC"/>
<circle cx="1711.69" cy="212.96" r="1.49146" fill="#BCBCBC"/>
<circle cx="1349.77" cy="842.354" r="1.49146" fill="#BCBCBC"/>
<circle cx="1711.69" cy="842.354" r="1.49146" fill="#BCBCBC"/>
<circle cx="104.9" cy="425.741" r="1.49146" fill="#BCBCBC"/>
<circle cx="934.149" cy="423.752" r="1.49146" fill="#BCBCBC"/>
<circle cx="520.518" cy="425.741" r="1.49146" fill="#BCBCBC"/>
<circle cx="1349.77" cy="423.752" r="1.49146" fill="#BCBCBC"/>
<circle cx="1711.69" cy="423.752" r="1.49146" fill="#BCBCBC"/>
<circle cx="104.9" cy="109.552" r="1.49146" fill="#BCBCBC"/>
<circle cx="104.9" cy="738.947" r="1.49146" fill="#BCBCBC"/>
<circle cx="934.149" cy="107.564" r="1.49146" fill="#BCBCBC"/>
<circle cx="934.149" cy="736.958" r="1.49146" fill="#BCBCBC"/>
<circle cx="520.518" cy="109.552" r="1.49146" fill="#BCBCBC"/>
<circle cx="520.518" cy="738.947" r="1.49146" fill="#BCBCBC"/>
<circle cx="1349.77" cy="107.564" r="1.49146" fill="#BCBCBC"/>
<circle cx="1711.69" cy="107.564" r="1.49146" fill="#BCBCBC"/>
<circle cx="1349.77" cy="736.958" r="1.49146" fill="#BCBCBC"/>
<circle cx="1711.69" cy="736.958" r="1.49146" fill="#BCBCBC"/>
<circle cx="104.9" cy="320.344" r="1.49146" fill="#BCBCBC"/>
<circle cx="104.9" cy="949.739" r="1.49146" fill="#BCBCBC"/>
<circle cx="934.149" cy="318.356" r="1.49146" fill="#BCBCBC"/>
<circle cx="934.149" cy="947.751" r="1.49146" fill="#BCBCBC"/>
<circle cx="520.518" cy="320.344" r="1.49146" fill="#BCBCBC"/>
<circle cx="520.518" cy="949.739" r="1.49146" fill="#BCBCBC"/>
<circle cx="1349.77" cy="318.356" r="1.49146" fill="#BCBCBC"/>
<circle cx="1711.69" cy="318.356" r="1.49146" fill="#BCBCBC"/>
<circle cx="1349.77" cy="947.751" r="1.49146" fill="#BCBCBC"/>
<circle cx="1711.69" cy="947.751" r="1.49146" fill="#BCBCBC"/>
<circle cx="104.9" cy="531.137" r="1.49146" fill="#BCBCBC"/>
<circle cx="934.149" cy="529.148" r="1.49146" fill="#BCBCBC"/>
<circle cx="520.518" cy="531.137" r="1.49146" fill="#BCBCBC"/>
<circle cx="1349.77" cy="529.148" r="1.49146" fill="#BCBCBC"/>
<circle cx="1711.69" cy="529.148" r="1.49146" fill="#BCBCBC"/>
<circle cx="104.9" cy="56.8547" r="1.49146" fill="#BCBCBC"/>
<circle cx="104.9" cy="686.248" r="1.49146" fill="#BCBCBC"/>
<circle cx="934.149" cy="54.8665" r="1.49146" fill="#BCBCBC"/>
<circle cx="934.149" cy="684.26" r="1.49146" fill="#BCBCBC"/>
<circle cx="520.518" cy="56.8547" r="1.49146" fill="#BCBCBC"/>
<circle cx="520.518" cy="686.248" r="1.49146" fill="#BCBCBC"/>
<circle cx="1349.77" cy="54.8665" r="1.49146" fill="#BCBCBC"/>
<circle cx="1711.69" cy="54.8665" r="1.49146" fill="#BCBCBC"/>
<circle cx="1349.77" cy="684.26" r="1.49146" fill="#BCBCBC"/>
<circle cx="1711.69" cy="684.26" r="1.49146" fill="#BCBCBC"/>
<circle cx="104.9" cy="267.647" r="1.49146" fill="#BCBCBC"/>
<circle cx="104.9" cy="897.041" r="1.49146" fill="#BCBCBC"/>
<circle cx="934.149" cy="265.658" r="1.49146" fill="#BCBCBC"/>
<circle cx="934.149" cy="895.052" r="1.49146" fill="#BCBCBC"/>
<circle cx="520.518" cy="267.647" r="1.49146" fill="#BCBCBC"/>
<circle cx="520.518" cy="897.041" r="1.49146" fill="#BCBCBC"/>
<circle cx="1349.77" cy="265.658" r="1.49146" fill="#BCBCBC"/>
<circle cx="1711.69" cy="265.658" r="1.49146" fill="#BCBCBC"/>
<circle cx="1349.77" cy="895.052" r="1.49146" fill="#BCBCBC"/>
<circle cx="1711.69" cy="895.052" r="1.49146" fill="#BCBCBC"/>
<circle cx="104.9" cy="478.438" r="1.49146" fill="#BCBCBC"/>
<circle cx="934.149" cy="476.45" r="1.49146" fill="#BCBCBC"/>
<circle cx="520.518" cy="478.438" r="1.49146" fill="#BCBCBC"/>
<circle cx="1349.77" cy="476.45" r="1.49146" fill="#BCBCBC"/>
<circle cx="1711.69" cy="476.45" r="1.49146" fill="#BCBCBC"/>
<circle cx="104.9" cy="162.25" r="1.49146" fill="#BCBCBC"/>
<circle cx="104.9" cy="791.645" r="1.49146" fill="#BCBCBC"/>
<circle cx="934.149" cy="160.262" r="1.49146" fill="#BCBCBC"/>
<circle cx="934.149" cy="789.656" r="1.49146" fill="#BCBCBC"/>
<circle cx="520.518" cy="162.25" r="1.49146" fill="#BCBCBC"/>
<circle cx="520.518" cy="791.645" r="1.49146" fill="#BCBCBC"/>
<circle cx="1349.77" cy="160.262" r="1.49146" fill="#BCBCBC"/>
<circle cx="1711.69" cy="160.262" r="1.49146" fill="#BCBCBC"/>
<circle cx="1349.77" cy="789.656" r="1.49146" fill="#BCBCBC"/>
<circle cx="1711.69" cy="789.656" r="1.49146" fill="#BCBCBC"/>
<circle cx="104.9" cy="373.042" r="1.49146" fill="#BCBCBC"/>
<circle cx="934.149" cy="371.054" r="1.49146" fill="#BCBCBC"/>
<circle cx="520.518" cy="373.042" r="1.49146" fill="#BCBCBC"/>
<circle cx="1349.77" cy="371.054" r="1.49146" fill="#BCBCBC"/>
<circle cx="1711.69" cy="371.054" r="1.49146" fill="#BCBCBC"/>
<circle cx="104.9" cy="583.835" r="1.49146" fill="#BCBCBC"/>
<circle cx="934.149" cy="581.846" r="1.49146" fill="#BCBCBC"/>
<circle cx="520.518" cy="583.835" r="1.49146" fill="#BCBCBC"/>
<circle cx="1349.77" cy="581.846" r="1.49146" fill="#BCBCBC"/>
<circle cx="1711.69" cy="581.846" r="1.49146" fill="#BCBCBC"/>
<circle cx="311.715" cy="4.15649" r="1.49146" fill="#BCBCBC"/>
<circle cx="311.715" cy="633.55" r="1.49146" fill="#BCBCBC"/>
<circle cx="1140.96" cy="2.16772" r="1.49146" fill="#BCBCBC"/>
<circle cx="1140.96" cy="631.562" r="1.49146" fill="#BCBCBC"/>
<circle cx="727.333" cy="4.15649" r="1.49146" fill="#BCBCBC"/>
<circle cx="727.333" cy="633.55" r="1.49146" fill="#BCBCBC"/>
<circle cx="1556.58" cy="2.16772" r="1.49146" fill="#BCBCBC"/>
<circle cx="1918.51" cy="2.16772" r="1.49146" fill="#BCBCBC"/>
<circle cx="1556.58" cy="631.562" r="1.49146" fill="#BCBCBC"/>
<circle cx="1918.51" cy="631.562" r="1.49146" fill="#BCBCBC"/>
<circle cx="311.715" cy="214.948" r="1.49146" fill="#BCBCBC"/>
<circle cx="311.715" cy="844.343" r="1.49146" fill="#BCBCBC"/>
<circle cx="1140.96" cy="212.96" r="1.49146" fill="#BCBCBC"/>
<circle cx="1140.96" cy="842.354" r="1.49146" fill="#BCBCBC"/>
<circle cx="727.333" cy="214.948" r="1.49146" fill="#BCBCBC"/>
<circle cx="727.333" cy="844.343" r="1.49146" fill="#BCBCBC"/>
<circle cx="1556.58" cy="212.96" r="1.49146" fill="#BCBCBC"/>
<circle cx="1918.51" cy="212.96" r="1.49146" fill="#BCBCBC"/>
<circle cx="1556.58" cy="842.354" r="1.49146" fill="#BCBCBC"/>
<circle cx="1918.51" cy="842.354" r="1.49146" fill="#BCBCBC"/>
<circle cx="311.715" cy="425.741" r="1.49146" fill="#BCBCBC"/>
<circle cx="1140.96" cy="423.752" r="1.49146" fill="#BCBCBC"/>
<circle cx="727.333" cy="425.741" r="1.49146" fill="#BCBCBC"/>
<circle cx="1556.58" cy="423.752" r="1.49146" fill="#BCBCBC"/>
<circle cx="1918.51" cy="423.752" r="1.49146" fill="#BCBCBC"/>
<circle cx="311.715" cy="109.552" r="1.49146" fill="#BCBCBC"/>
<circle cx="311.715" cy="738.947" r="1.49146" fill="#BCBCBC"/>
<circle cx="1140.96" cy="107.564" r="1.49146" fill="#BCBCBC"/>
<circle cx="1140.96" cy="736.958" r="1.49146" fill="#BCBCBC"/>
<circle cx="727.333" cy="109.552" r="1.49146" fill="#BCBCBC"/>
<circle cx="727.333" cy="738.947" r="1.49146" fill="#BCBCBC"/>
<circle cx="1556.58" cy="107.564" r="1.49146" fill="#BCBCBC"/>
<circle cx="1918.51" cy="107.564" r="1.49146" fill="#BCBCBC"/>
<circle cx="1556.58" cy="736.958" r="1.49146" fill="#BCBCBC"/>
<circle cx="1918.51" cy="736.958" r="1.49146" fill="#BCBCBC"/>
<circle cx="311.715" cy="320.344" r="1.49146" fill="#BCBCBC"/>
<circle cx="311.715" cy="949.739" r="1.49146" fill="#BCBCBC"/>
<circle cx="1140.96" cy="318.356" r="1.49146" fill="#BCBCBC"/>
<circle cx="1140.96" cy="947.751" r="1.49146" fill="#BCBCBC"/>
<circle cx="727.333" cy="320.344" r="1.49146" fill="#BCBCBC"/>
<circle cx="727.333" cy="949.739" r="1.49146" fill="#BCBCBC"/>
<circle cx="1556.58" cy="318.356" r="1.49146" fill="#BCBCBC"/>
<circle cx="1918.51" cy="318.356" r="1.49146" fill="#BCBCBC"/>
<circle cx="1556.58" cy="947.751" r="1.49146" fill="#BCBCBC"/>
<circle cx="1918.51" cy="947.751" r="1.49146" fill="#BCBCBC"/>
<circle cx="311.715" cy="531.137" r="1.49146" fill="#BCBCBC"/>
<circle cx="1140.96" cy="529.148" r="1.49146" fill="#BCBCBC"/>
<circle cx="727.333" cy="531.137" r="1.49146" fill="#BCBCBC"/>
<circle cx="1556.58" cy="529.148" r="1.49146" fill="#BCBCBC"/>
<circle cx="1918.51" cy="529.148" r="1.49146" fill="#BCBCBC"/>
<circle cx="311.715" cy="56.8547" r="1.49146" fill="#BCBCBC"/>
<circle cx="311.715" cy="686.248" r="1.49146" fill="#BCBCBC"/>
<circle cx="1140.96" cy="54.8665" r="1.49146" fill="#BCBCBC"/>
<circle cx="1140.96" cy="684.26" r="1.49146" fill="#BCBCBC"/>
<circle cx="727.333" cy="56.8547" r="1.49146" fill="#BCBCBC"/>
<circle cx="727.333" cy="686.248" r="1.49146" fill="#BCBCBC"/>
<circle cx="1556.58" cy="54.8665" r="1.49146" fill="#BCBCBC"/>
<circle cx="1918.51" cy="54.8665" r="1.49146" fill="#BCBCBC"/>
<circle cx="1556.58" cy="684.26" r="1.49146" fill="#BCBCBC"/>
<circle cx="1918.51" cy="684.26" r="1.49146" fill="#BCBCBC"/>
<circle cx="311.715" cy="267.647" r="1.49146" fill="#BCBCBC"/>
<circle cx="311.715" cy="897.041" r="1.49146" fill="#BCBCBC"/>
<circle cx="1140.96" cy="265.658" r="1.49146" fill="#BCBCBC"/>
<circle cx="1140.96" cy="895.052" r="1.49146" fill="#BCBCBC"/>
<circle cx="727.333" cy="267.647" r="1.49146" fill="#BCBCBC"/>
<circle cx="727.333" cy="897.041" r="1.49146" fill="#BCBCBC"/>
<circle cx="1556.58" cy="265.658" r="1.49146" fill="#BCBCBC"/>
<circle cx="1918.51" cy="265.658" r="1.49146" fill="#BCBCBC"/>
<circle cx="1556.58" cy="895.052" r="1.49146" fill="#BCBCBC"/>
<circle cx="1918.51" cy="895.052" r="1.49146" fill="#BCBCBC"/>
<circle cx="311.715" cy="478.438" r="1.49146" fill="#BCBCBC"/>
<circle cx="1140.96" cy="476.45" r="1.49146" fill="#BCBCBC"/>
<circle cx="727.333" cy="478.438" r="1.49146" fill="#BCBCBC"/>
<circle cx="1556.58" cy="476.45" r="1.49146" fill="#BCBCBC"/>
<circle cx="1918.51" cy="476.45" r="1.49146" fill="#BCBCBC"/>
<circle cx="311.715" cy="162.25" r="1.49146" fill="#BCBCBC"/>
<circle cx="311.715" cy="791.645" r="1.49146" fill="#BCBCBC"/>
<circle cx="1140.96" cy="160.262" r="1.49146" fill="#BCBCBC"/>
<circle cx="1140.96" cy="789.656" r="1.49146" fill="#BCBCBC"/>
<circle cx="727.333" cy="162.25" r="1.49146" fill="#BCBCBC"/>
<circle cx="727.333" cy="791.645" r="1.49146" fill="#BCBCBC"/>
<circle cx="1556.58" cy="160.262" r="1.49146" fill="#BCBCBC"/>
<circle cx="1918.51" cy="160.262" r="1.49146" fill="#BCBCBC"/>
<circle cx="1556.58" cy="789.656" r="1.49146" fill="#BCBCBC"/>
<circle cx="1918.51" cy="789.656" r="1.49146" fill="#BCBCBC"/>
<circle cx="311.715" cy="373.042" r="1.49146" fill="#BCBCBC"/>
<circle cx="1140.96" cy="371.054" r="1.49146" fill="#BCBCBC"/>
<circle cx="727.333" cy="373.042" r="1.49146" fill="#BCBCBC"/>
<circle cx="1556.58" cy="371.054" r="1.49146" fill="#BCBCBC"/>
<circle cx="1918.51" cy="371.054" r="1.49146" fill="#BCBCBC"/>
<circle cx="311.715" cy="583.835" r="1.49146" fill="#BCBCBC"/>
<circle cx="1140.96" cy="581.846" r="1.49146" fill="#BCBCBC"/>
<circle cx="727.333" cy="583.835" r="1.49146" fill="#BCBCBC"/>
<circle cx="1556.58" cy="581.846" r="1.49146" fill="#BCBCBC"/>
<circle cx="1918.51" cy="581.846" r="1.49146" fill="#BCBCBC"/>
<circle cx="156.603" cy="4.15649" r="1.49146" fill="#BCBCBC"/>
<circle cx="156.603" cy="633.55" r="1.49146" fill="#BCBCBC"/>
<circle cx="985.852" cy="2.16772" r="1.49146" fill="#BCBCBC"/>
<circle cx="985.852" cy="631.562" r="1.49146" fill="#BCBCBC"/>
<circle cx="572.221" cy="4.15649" r="1.49146" fill="#BCBCBC"/>
<circle cx="572.221" cy="633.55" r="1.49146" fill="#BCBCBC"/>
<circle cx="1401.47" cy="2.16772" r="1.49146" fill="#BCBCBC"/>
<circle cx="1763.4" cy="2.16772" r="1.49146" fill="#BCBCBC"/>
<circle cx="1401.47" cy="631.562" r="1.49146" fill="#BCBCBC"/>
<circle cx="1763.4" cy="631.562" r="1.49146" fill="#BCBCBC"/>
<circle cx="156.603" cy="214.948" r="1.49146" fill="#BCBCBC"/>
<circle cx="156.603" cy="844.343" r="1.49146" fill="#BCBCBC"/>
<circle cx="985.852" cy="212.96" r="1.49146" fill="#BCBCBC"/>
<circle cx="985.852" cy="842.354" r="1.49146" fill="#BCBCBC"/>
<circle cx="572.221" cy="214.948" r="1.49146" fill="#BCBCBC"/>
<circle cx="572.221" cy="844.343" r="1.49146" fill="#BCBCBC"/>
<circle cx="1401.47" cy="212.96" r="1.49146" fill="#BCBCBC"/>
<circle cx="1763.4" cy="212.96" r="1.49146" fill="#BCBCBC"/>
<circle cx="1401.47" cy="842.354" r="1.49146" fill="#BCBCBC"/>
<circle cx="1763.4" cy="842.354" r="1.49146" fill="#BCBCBC"/>
<circle cx="156.603" cy="425.741" r="1.49146" fill="#BCBCBC"/>
<circle cx="985.852" cy="423.752" r="1.49146" fill="#BCBCBC"/>
<circle cx="572.221" cy="425.741" r="1.49146" fill="#BCBCBC"/>
<circle cx="1401.47" cy="423.752" r="1.49146" fill="#BCBCBC"/>
<circle cx="1763.4" cy="423.752" r="1.49146" fill="#BCBCBC"/>
<circle cx="156.603" cy="109.552" r="1.49146" fill="#BCBCBC"/>
<circle cx="156.603" cy="738.947" r="1.49146" fill="#BCBCBC"/>
<circle cx="985.852" cy="107.564" r="1.49146" fill="#BCBCBC"/>
<circle cx="985.852" cy="736.958" r="1.49146" fill="#BCBCBC"/>
<circle cx="572.221" cy="109.552" r="1.49146" fill="#BCBCBC"/>
<circle cx="572.221" cy="738.947" r="1.49146" fill="#BCBCBC"/>
<circle cx="1401.47" cy="107.564" r="1.49146" fill="#BCBCBC"/>
<circle cx="1763.4" cy="107.564" r="1.49146" fill="#BCBCBC"/>
<circle cx="1401.47" cy="736.958" r="1.49146" fill="#BCBCBC"/>
<circle cx="1763.4" cy="736.958" r="1.49146" fill="#BCBCBC"/>
<circle cx="156.603" cy="320.344" r="1.49146" fill="#BCBCBC"/>
<circle cx="156.603" cy="949.739" r="1.49146" fill="#BCBCBC"/>
<circle cx="985.852" cy="318.356" r="1.49146" fill="#BCBCBC"/>
<circle cx="985.852" cy="947.751" r="1.49146" fill="#BCBCBC"/>
<circle cx="572.221" cy="320.344" r="1.49146" fill="#BCBCBC"/>
<circle cx="572.221" cy="949.739" r="1.49146" fill="#BCBCBC"/>
<circle cx="1401.47" cy="318.356" r="1.49146" fill="#BCBCBC"/>
<circle cx="1763.4" cy="318.356" r="1.49146" fill="#BCBCBC"/>
<circle cx="1401.47" cy="947.751" r="1.49146" fill="#BCBCBC"/>
<circle cx="1763.4" cy="947.751" r="1.49146" fill="#BCBCBC"/>
<circle cx="156.603" cy="531.137" r="1.49146" fill="#BCBCBC"/>
<circle cx="985.852" cy="529.148" r="1.49146" fill="#BCBCBC"/>
<circle cx="572.221" cy="531.137" r="1.49146" fill="#BCBCBC"/>
<circle cx="1401.47" cy="529.148" r="1.49146" fill="#BCBCBC"/>
<circle cx="1763.4" cy="529.148" r="1.49146" fill="#BCBCBC"/>
<circle cx="156.603" cy="56.8547" r="1.49146" fill="#BCBCBC"/>
<circle cx="156.603" cy="686.248" r="1.49146" fill="#BCBCBC"/>
<circle cx="985.852" cy="54.8665" r="1.49146" fill="#BCBCBC"/>
<circle cx="985.852" cy="684.26" r="1.49146" fill="#BCBCBC"/>
<circle cx="572.221" cy="56.8547" r="1.49146" fill="#BCBCBC"/>
<circle cx="572.221" cy="686.248" r="1.49146" fill="#BCBCBC"/>
<circle cx="1401.47" cy="54.8665" r="1.49146" fill="#BCBCBC"/>
<circle cx="1763.4" cy="54.8665" r="1.49146" fill="#BCBCBC"/>
<circle cx="1401.47" cy="684.26" r="1.49146" fill="#BCBCBC"/>
<circle cx="1763.4" cy="684.26" r="1.49146" fill="#BCBCBC"/>
<circle cx="156.603" cy="267.647" r="1.49146" fill="#BCBCBC"/>
<circle cx="156.603" cy="897.041" r="1.49146" fill="#BCBCBC"/>
<circle cx="985.852" cy="265.658" r="1.49146" fill="#BCBCBC"/>
<circle cx="985.852" cy="895.052" r="1.49146" fill="#BCBCBC"/>
<circle cx="572.221" cy="267.647" r="1.49146" fill="#BCBCBC"/>
<circle cx="572.221" cy="897.041" r="1.49146" fill="#BCBCBC"/>
<circle cx="1401.47" cy="265.658" r="1.49146" fill="#BCBCBC"/>
<circle cx="1763.4" cy="265.658" r="1.49146" fill="#BCBCBC"/>
<circle cx="1401.47" cy="895.052" r="1.49146" fill="#BCBCBC"/>
<circle cx="1763.4" cy="895.052" r="1.49146" fill="#BCBCBC"/>
<circle cx="156.603" cy="478.438" r="1.49146" fill="#BCBCBC"/>
<circle cx="985.852" cy="476.45" r="1.49146" fill="#BCBCBC"/>
<circle cx="572.221" cy="478.438" r="1.49146" fill="#BCBCBC"/>
<circle cx="1401.47" cy="476.45" r="1.49146" fill="#BCBCBC"/>
<circle cx="1763.4" cy="476.45" r="1.49146" fill="#BCBCBC"/>
<circle cx="156.603" cy="162.25" r="1.49146" fill="#BCBCBC"/>
<circle cx="156.603" cy="791.645" r="1.49146" fill="#BCBCBC"/>
<circle cx="985.852" cy="160.262" r="1.49146" fill="#BCBCBC"/>
<circle cx="985.852" cy="789.656" r="1.49146" fill="#BCBCBC"/>
<circle cx="572.221" cy="162.25" r="1.49146" fill="#BCBCBC"/>
<circle cx="572.221" cy="791.645" r="1.49146" fill="#BCBCBC"/>
<circle cx="1401.47" cy="160.262" r="1.49146" fill="#BCBCBC"/>
<circle cx="1763.4" cy="160.262" r="1.49146" fill="#BCBCBC"/>
<circle cx="1401.47" cy="789.656" r="1.49146" fill="#BCBCBC"/>
<circle cx="1763.4" cy="789.656" r="1.49146" fill="#BCBCBC"/>
<circle cx="156.603" cy="373.042" r="1.49146" fill="#BCBCBC"/>
<circle cx="985.852" cy="371.054" r="1.49146" fill="#BCBCBC"/>
<circle cx="572.221" cy="373.042" r="1.49146" fill="#BCBCBC"/>
<circle cx="1401.47" cy="371.054" r="1.49146" fill="#BCBCBC"/>
<circle cx="1763.4" cy="371.054" r="1.49146" fill="#BCBCBC"/>
<circle cx="156.603" cy="583.835" r="1.49146" fill="#BCBCBC"/>
<circle cx="985.852" cy="581.846" r="1.49146" fill="#BCBCBC"/>
<circle cx="572.221" cy="583.835" r="1.49146" fill="#BCBCBC"/>
<circle cx="1401.47" cy="581.846" r="1.49146" fill="#BCBCBC"/>
<circle cx="1763.4" cy="581.846" r="1.49146" fill="#BCBCBC"/>
<circle cx="363.419" cy="4.15649" r="1.49146" fill="#BCBCBC"/>
<circle cx="363.419" cy="633.55" r="1.49146" fill="#BCBCBC"/>
<circle cx="1192.67" cy="2.16772" r="1.49146" fill="#BCBCBC"/>
<circle cx="1192.67" cy="631.562" r="1.49146" fill="#BCBCBC"/>
<circle cx="779.037" cy="4.15649" r="1.49146" fill="#BCBCBC"/>
<circle cx="779.037" cy="633.55" r="1.49146" fill="#BCBCBC"/>
<circle cx="1608.28" cy="2.16772" r="1.49146" fill="#BCBCBC"/>
<circle cx="1608.28" cy="631.562" r="1.49146" fill="#BCBCBC"/>
<circle cx="363.419" cy="214.948" r="1.49146" fill="#BCBCBC"/>
<circle cx="363.419" cy="844.343" r="1.49146" fill="#BCBCBC"/>
<circle cx="1192.67" cy="212.96" r="1.49146" fill="#BCBCBC"/>
<circle cx="1192.67" cy="842.354" r="1.49146" fill="#BCBCBC"/>
<circle cx="779.037" cy="214.948" r="1.49146" fill="#BCBCBC"/>
<circle cx="779.037" cy="844.343" r="1.49146" fill="#BCBCBC"/>
<circle cx="1608.28" cy="212.96" r="1.49146" fill="#BCBCBC"/>
<circle cx="1608.28" cy="842.354" r="1.49146" fill="#BCBCBC"/>
<circle cx="363.419" cy="425.741" r="1.49146" fill="#BCBCBC"/>
<circle cx="1192.67" cy="423.752" r="1.49146" fill="#BCBCBC"/>
<circle cx="779.037" cy="425.741" r="1.49146" fill="#BCBCBC"/>
<circle cx="1608.28" cy="423.752" r="1.49146" fill="#BCBCBC"/>
<circle cx="363.419" cy="109.552" r="1.49146" fill="#BCBCBC"/>
<circle cx="363.419" cy="738.947" r="1.49146" fill="#BCBCBC"/>
<circle cx="1192.67" cy="107.564" r="1.49146" fill="#BCBCBC"/>
<circle cx="1192.67" cy="736.958" r="1.49146" fill="#BCBCBC"/>
<circle cx="779.037" cy="109.552" r="1.49146" fill="#BCBCBC"/>
<circle cx="779.037" cy="738.947" r="1.49146" fill="#BCBCBC"/>
<circle cx="1608.28" cy="107.564" r="1.49146" fill="#BCBCBC"/>
<circle cx="1608.28" cy="736.958" r="1.49146" fill="#BCBCBC"/>
<circle cx="363.419" cy="320.344" r="1.49146" fill="#BCBCBC"/>
<circle cx="363.419" cy="949.739" r="1.49146" fill="#BCBCBC"/>
<circle cx="1192.67" cy="318.356" r="1.49146" fill="#BCBCBC"/>
<circle cx="1192.67" cy="947.751" r="1.49146" fill="#BCBCBC"/>
<circle cx="779.037" cy="320.344" r="1.49146" fill="#BCBCBC"/>
<circle cx="779.037" cy="949.739" r="1.49146" fill="#BCBCBC"/>
<circle cx="1608.28" cy="318.356" r="1.49146" fill="#BCBCBC"/>
<circle cx="1608.28" cy="947.751" r="1.49146" fill="#BCBCBC"/>
<circle cx="363.419" cy="531.137" r="1.49146" fill="#BCBCBC"/>
<circle cx="1192.67" cy="529.148" r="1.49146" fill="#BCBCBC"/>
<circle cx="779.037" cy="531.137" r="1.49146" fill="#BCBCBC"/>
<circle cx="1608.28" cy="529.148" r="1.49146" fill="#BCBCBC"/>
<circle cx="363.419" cy="56.8547" r="1.49146" fill="#BCBCBC"/>
<circle cx="363.419" cy="686.248" r="1.49146" fill="#BCBCBC"/>
<circle cx="1192.67" cy="54.8665" r="1.49146" fill="#BCBCBC"/>
<circle cx="1192.67" cy="684.26" r="1.49146" fill="#BCBCBC"/>
<circle cx="779.037" cy="56.8547" r="1.49146" fill="#BCBCBC"/>
<circle cx="779.037" cy="686.248" r="1.49146" fill="#BCBCBC"/>
<circle cx="1608.28" cy="54.8665" r="1.49146" fill="#BCBCBC"/>
<circle cx="1608.28" cy="684.26" r="1.49146" fill="#BCBCBC"/>
<circle cx="363.419" cy="267.647" r="1.49146" fill="#BCBCBC"/>
<circle cx="363.419" cy="897.041" r="1.49146" fill="#BCBCBC"/>
<circle cx="1192.67" cy="265.658" r="1.49146" fill="#BCBCBC"/>
<circle cx="1192.67" cy="895.052" r="1.49146" fill="#BCBCBC"/>
<circle cx="779.037" cy="267.647" r="1.49146" fill="#BCBCBC"/>
<circle cx="779.037" cy="897.041" r="1.49146" fill="#BCBCBC"/>
<circle cx="1608.28" cy="265.658" r="1.49146" fill="#BCBCBC"/>
<circle cx="1608.28" cy="895.052" r="1.49146" fill="#BCBCBC"/>
<circle cx="363.419" cy="478.438" r="1.49146" fill="#BCBCBC"/>
<circle cx="1192.67" cy="476.45" r="1.49146" fill="#BCBCBC"/>
<circle cx="779.037" cy="478.438" r="1.49146" fill="#BCBCBC"/>
<circle cx="1608.28" cy="476.45" r="1.49146" fill="#BCBCBC"/>
<circle cx="363.419" cy="162.25" r="1.49146" fill="#BCBCBC"/>
<circle cx="363.419" cy="791.645" r="1.49146" fill="#BCBCBC"/>
<circle cx="1192.67" cy="160.262" r="1.49146" fill="#BCBCBC"/>
<circle cx="1192.67" cy="789.656" r="1.49146" fill="#BCBCBC"/>
<circle cx="779.037" cy="162.25" r="1.49146" fill="#BCBCBC"/>
<circle cx="779.037" cy="791.645" r="1.49146" fill="#BCBCBC"/>
<circle cx="1608.28" cy="160.262" r="1.49146" fill="#BCBCBC"/>
<circle cx="1608.28" cy="789.656" r="1.49146" fill="#BCBCBC"/>
<circle cx="363.419" cy="373.042" r="1.49146" fill="#BCBCBC"/>
<circle cx="1192.67" cy="371.054" r="1.49146" fill="#BCBCBC"/>
<circle cx="779.037" cy="373.042" r="1.49146" fill="#BCBCBC"/>
<circle cx="1608.28" cy="371.054" r="1.49146" fill="#BCBCBC"/>
<circle cx="363.419" cy="583.835" r="1.49146" fill="#BCBCBC"/>
<circle cx="1192.67" cy="581.846" r="1.49146" fill="#BCBCBC"/>
<circle cx="779.037" cy="583.835" r="1.49146" fill="#BCBCBC"/>
<circle cx="1608.28" cy="581.846" r="1.49146" fill="#BCBCBC"/>
</svg>
