<svg width="2317" height="1110" viewBox="0 0 2317 1110" fill="none" xmlns="http://www.w3.org/2000/svg">
<path opacity="0.21" d="M435.889 844.305C435.889 964.571 338.394 1062.07 218.128 1062.07C97.8621 1062.07 0.367188 964.571 0.367188 844.305C0.367188 724.039 97.8621 626.544 218.128 626.544C338.394 626.544 435.889 724.039 435.889 844.305Z" fill="white"/>
<path d="M317.857 379.634C320.656 380.041 322.895 381.48 325.253 382.66C328.431 384.198 331.732 385.467 335.122 386.452C336.107 386.705 337.028 387.164 337.824 387.797C338.621 388.43 339.275 389.224 339.745 390.128C340.004 390.625 340.167 391.163 339.491 391.537C338.924 391.853 338.48 391.56 337.989 391.289C331.874 387.904 325.051 385.549 318.407 382.935C317.742 382.672 317.093 382.372 316.462 382.037C316.298 381.965 316.152 381.86 316.032 381.728C315.911 381.595 315.82 381.439 315.764 381.27C315.708 381.1 315.689 380.92 315.707 380.742C315.725 380.564 315.78 380.392 315.869 380.237C316.171 379.473 317.044 379.657 317.857 379.634Z" fill="#FFA85A"/>
<path d="M345.801 430.687C345.621 430.993 345.404 431.276 345.155 431.528C340.89 435.178 337.888 439.48 334.885 443.786C334.338 444.57 333.865 445.882 332.271 445.197C330.931 444.621 331.849 443.611 332.24 442.818C334.502 438.268 338.285 434.454 341.87 430.55C342.201 430.117 342.653 429.792 343.17 429.619C343.686 429.446 344.243 429.432 344.767 429.58C345.038 429.623 345.286 429.756 345.473 429.956C345.661 430.157 345.776 430.414 345.801 430.687Z" fill="#FFA85A"/>
<path d="M402.227 439.61C402.464 440.412 402.287 440.9 401.501 441.048C401.16 441.161 400.789 441.142 400.461 440.995C400.134 440.847 399.874 440.582 399.732 440.251C398.335 435.899 394.174 432.942 391.071 429.447C390.306 428.585 389.409 427.635 390.949 426.757C392.537 425.85 393.25 426.886 394.043 427.757C395.956 429.864 397.885 431.964 399.872 434.028C400.632 434.742 401.234 435.608 401.64 436.569C402.045 437.531 402.245 438.567 402.227 439.61V439.61Z" fill="#FFA85A"/>
<path d="M414.9 365.123C414.821 366.158 413.831 367.064 413.013 367.896C409.496 371.461 405.48 374.723 403.153 378.967C402.668 379.853 401.489 381.182 400.074 380.455C398.804 379.803 399.622 378.624 400.387 377.607C403.801 373.077 408.655 369.402 412.301 365.012C412.515 364.766 412.783 364.573 413.084 364.449C413.385 364.324 413.711 364.272 414.036 364.296C414.26 364.291 414.476 364.375 414.638 364.53C414.8 364.685 414.894 364.898 414.9 365.123V365.123Z" fill="#FFA85A"/>
<path d="M334.938 407.761C334.852 408.608 334.059 408.906 333.292 409.185C329.018 410.748 324.761 412.347 320.435 413.814C319.249 414.206 318.102 414.708 317.01 415.314C316.593 415.595 316.084 415.705 315.589 415.622C315.093 415.539 314.648 415.27 314.344 414.869C313.708 414.084 313.957 413.288 315.065 413.073C321.214 411.869 326.258 408.828 331.937 406.848C333.459 406.321 334.46 406.441 334.938 407.761Z" fill="#FFA85A"/>
<path d="M349.905 359.935C351.199 360.145 352.396 360.755 353.327 361.678C355.564 364.003 356.93 366.681 358.205 369.369C358.666 370.34 359.198 371.271 359.728 372.213C360.058 372.802 360.554 373.498 359.448 373.935C359.072 374.101 358.653 374.142 358.252 374.052C357.85 373.963 357.488 373.747 357.218 373.436C356.545 372.753 355.949 371.998 355.442 371.184C353.709 368.078 352.432 364.796 349.585 362.131C349.044 361.625 348.711 360.946 349.173 360.272C349.31 360.072 349.747 360.003 349.905 359.935Z" fill="#FFA85A"/>
<path d="M387.241 359.627C387.163 363.587 385.662 367.374 384.965 371.259C384.813 372.1 384.003 372.585 382.931 372.462C381.767 372.328 381.985 371.533 381.968 370.873C381.879 368.854 382.194 366.839 382.893 364.944C383.883 362.669 384.374 360.207 384.333 357.726C384.29 356.923 384.236 355.701 385.874 355.77C387.413 355.835 387.267 356.983 387.337 357.848C387.348 358.443 387.316 359.037 387.241 359.627Z" fill="#FFA85A"/>
<path d="M372.144 439.817C372.355 442.169 372.55 444.522 372.783 446.872C372.865 447.705 373.614 448.859 371.859 448.966C370.268 449.063 369.682 447.976 369.541 446.865C369.236 444.443 368.918 442.018 368.743 439.589C368.683 438.18 368.502 436.778 368.2 435.4C367.954 434.404 368.217 433.377 369.829 433.225C371.368 433.081 371.672 433.997 371.781 434.947C371.964 436.565 372.125 438.187 372.298 439.806L372.144 439.817Z" fill="#FFA85A"/>
<path d="M421.425 419.249C421.353 420.127 420.593 420.53 419.529 420.308C418.186 420.035 416.869 419.645 415.593 419.143C412.669 417.966 409.808 416.694 406.92 415.465C405.871 415.018 404.746 414.457 405.648 413.437C406.052 413.003 406.586 412.713 407.17 412.61C407.754 412.507 408.355 412.597 408.883 412.866C412.816 414.549 416.222 416.96 420.53 418.127C420.787 418.181 421.016 418.322 421.179 418.527C421.343 418.731 421.43 418.987 421.425 419.249Z" fill="#FFA85A"/>
<path d="M410.519 401.34C409.46 401.434 409.039 401.284 408.765 400.952C408.398 400.509 408.612 400.076 408.975 399.718C409.736 398.965 410.698 398.449 411.745 398.23C416.39 397.264 421.062 396.381 425.711 395.432C426.558 395.258 427.205 395.279 427.603 395.953C428.038 396.689 427.435 397.139 426.74 397.377C421.341 399.196 415.313 399.395 410.519 401.34Z" fill="#FFA85A"/>
<path d="M369.541 446.865C369.236 444.443 368.918 442.018 368.743 439.588C368.683 438.179 368.502 436.778 368.2 435.401C367.954 434.404 368.217 433.377 369.828 433.225C371.367 433.08 371.671 433.997 371.78 434.948C371.963 436.566 372.123 438.184 372.297 439.806L372.143 439.817C372.354 442.17 372.55 444.522 372.782 446.872C372.865 447.706 373.613 448.859 371.859 448.966C371.794 448.97 371.73 448.971 371.665 448.971C370.22 448.972 369.677 447.93 369.541 446.865ZM332.271 445.195C330.931 444.618 331.848 443.608 332.24 442.815C334.502 438.265 338.286 434.452 341.874 430.548C342.204 430.115 342.657 429.79 343.174 429.617C343.69 429.444 344.247 429.43 344.771 429.577C345.041 429.622 345.289 429.755 345.476 429.956C345.662 430.157 345.777 430.414 345.802 430.687C345.622 430.993 345.405 431.276 345.156 431.529C340.89 435.178 337.889 439.479 334.886 443.786C334.445 444.417 334.053 445.39 333.088 445.39C332.805 445.381 332.528 445.315 332.272 445.195L332.271 445.195ZM399.731 440.252C398.334 435.9 394.173 432.942 391.071 429.448C390.305 428.586 389.408 427.636 390.949 426.756C392.537 425.85 393.25 426.886 394.042 427.757C395.955 429.864 397.884 431.964 399.87 434.028C400.631 434.742 401.234 435.607 401.639 436.569C402.045 437.53 402.245 438.567 402.227 439.61C402.465 440.412 402.288 440.9 401.5 441.048C401.358 441.075 401.213 441.09 401.068 441.09C400.785 441.116 400.5 441.048 400.259 440.897C400.018 440.745 399.833 440.519 399.732 440.252H399.731ZM419.529 420.309C418.186 420.036 416.869 419.646 415.593 419.144C412.669 417.968 409.808 416.696 406.919 415.467C405.871 415.02 404.747 414.459 405.647 413.438C406.052 413.005 406.586 412.715 407.169 412.612C407.753 412.509 408.354 412.599 408.882 412.868C412.816 414.551 416.221 416.962 420.53 418.13C420.787 418.183 421.016 418.325 421.18 418.529C421.343 418.734 421.43 418.99 421.425 419.252C421.414 419.416 421.371 419.576 421.296 419.722C421.222 419.868 421.118 419.998 420.992 420.103C420.866 420.208 420.72 420.285 420.562 420.332C420.405 420.378 420.24 420.392 420.077 420.372C419.893 420.369 419.71 420.348 419.53 420.309H419.529ZM314.347 414.872C313.711 414.088 313.963 413.293 315.068 413.076C321.217 411.873 326.261 408.83 331.941 406.851C333.46 406.322 334.461 406.442 334.939 407.761C334.854 408.608 334.059 408.907 333.294 409.185C329.019 410.749 324.763 412.349 320.437 413.815C319.251 414.207 318.104 414.709 317.011 415.315C316.663 415.521 316.268 415.634 315.864 415.643C315.569 415.639 315.279 415.567 315.016 415.433C314.753 415.3 314.525 415.108 314.347 414.872V414.872ZM408.766 400.953C408.398 400.51 408.613 400.078 408.975 399.72C409.736 398.967 410.698 398.45 411.745 398.231C416.39 397.265 421.062 396.383 425.712 395.434C426.558 395.26 427.206 395.281 427.603 395.952C428.038 396.688 427.436 397.139 426.74 397.376C421.341 399.199 415.313 399.399 410.519 401.345C410.311 401.362 410.126 401.372 409.964 401.372C409.746 401.403 409.523 401.381 409.314 401.308C409.106 401.235 408.918 401.113 408.767 400.953L408.766 400.953ZM337.99 391.294C331.875 387.91 325.052 385.554 318.408 382.94C317.743 382.678 317.094 382.377 316.463 382.041C316.3 381.97 316.153 381.864 316.033 381.732C315.912 381.6 315.821 381.444 315.766 381.274C315.71 381.104 315.69 380.924 315.708 380.747C315.726 380.569 315.782 380.397 315.871 380.242C316.119 379.609 316.756 379.623 317.427 379.636C317.57 379.639 317.716 379.641 317.86 379.636C320.659 380.043 322.897 381.482 325.255 382.663C328.433 384.201 331.734 385.469 335.124 386.455C336.109 386.708 337.03 387.166 337.826 387.799C338.623 388.433 339.277 389.227 339.747 390.13C340.006 390.628 340.17 391.166 339.493 391.539C339.342 391.627 339.172 391.675 338.997 391.676C338.635 391.634 338.289 391.503 337.99 391.293V391.294ZM400.074 380.457C398.804 379.805 399.622 378.627 400.388 377.612C403.802 373.082 408.655 369.407 412.302 365.017C412.515 364.771 412.783 364.578 413.084 364.454C413.385 364.329 413.711 364.277 414.036 364.301C414.259 364.296 414.475 364.379 414.637 364.533C414.8 364.687 414.894 364.899 414.901 365.123C414.823 366.159 413.833 367.065 413.014 367.896C409.498 371.461 405.481 374.724 403.154 378.968C402.766 379.675 401.937 380.667 400.897 380.667C400.61 380.664 400.327 380.592 400.074 380.457V380.457ZM357.219 373.437C356.546 372.753 355.95 371.998 355.442 371.185C353.709 368.078 352.432 364.796 349.586 362.132C349.045 361.624 348.712 360.945 349.174 360.271C349.311 360.073 349.748 360.003 349.906 359.935C351.201 360.144 352.399 360.753 353.331 361.678C355.568 364.003 356.933 366.681 358.209 369.369C358.67 370.34 359.202 371.27 359.731 372.212C360.062 372.801 360.557 373.497 359.452 373.934C359.198 374.037 358.926 374.092 358.651 374.094C358.379 374.093 358.111 374.034 357.864 373.921C357.617 373.808 357.397 373.643 357.218 373.438L357.219 373.437ZM382.933 372.466C381.769 372.332 381.986 371.537 381.97 370.876C381.88 368.857 382.195 366.842 382.895 364.947C383.884 362.672 384.375 360.21 384.334 357.729C384.29 356.926 384.237 355.703 385.873 355.773C387.413 355.838 387.267 356.985 387.337 357.85C387.347 358.445 387.315 359.04 387.241 359.63C387.163 363.59 385.662 367.377 384.965 371.262C384.88 371.64 384.659 371.974 384.344 372.2C384.029 372.425 383.642 372.527 383.257 372.485C383.148 372.484 383.04 372.477 382.932 372.463L382.933 372.466Z" fill="white"/>
<path opacity="0.21" d="M2316.43 254.116C2316.43 393.983 2203.05 507.367 2063.18 507.367C1923.31 507.367 1809.93 393.983 1809.93 254.116C1809.93 114.25 1923.31 0.865234 2063.18 0.865234C2203.05 0.865234 2316.43 114.25 2316.43 254.116Z" fill="white"/>
<path d="M359.65 651.957C359.65 704.226 317.278 746.598 265.01 746.598C212.741 746.598 170.369 704.226 170.369 651.957C170.369 599.689 212.741 557.317 265.01 557.317C317.278 557.317 359.65 599.689 359.65 651.957Z" fill="#DF3E3F"/>
<path d="M1518.88 788.961C1525.76 803.186 1534.28 816.088 1546.1 826.688C1556.51 836.019 1568.68 843.014 1581.28 848.926C1596.62 856.129 1612.55 861.995 1628.04 868.886C1629.55 869.559 1631.48 868.547 1632.64 867.584C1633.26 867.069 1635.17 864.93 1633.65 864.257C1607.27 852.511 1578.36 843.875 1555.63 825.391C1543.69 815.69 1534.53 803.417 1527.58 789.75C1525.07 784.813 1522.77 779.77 1520.36 774.783C1518.42 776.73 1516.68 778.876 1515.18 781.185C1516.42 783.781 1517.63 786.379 1518.88 788.961Z" fill="#554140"/>
<path d="M1506.98 765.519C1509.79 770.15 1512.21 774.988 1514.55 779.867C1516.1 777.635 1517.87 775.572 1519.85 773.709C1518.54 771.027 1517.19 768.365 1515.75 765.751C1511.41 757.926 1506.07 750.699 1499.87 744.252C1495.17 739.374 1490.17 734.804 1484.88 730.571L1478.46 734.527C1482.4 737.679 1486.22 740.984 1489.85 744.499C1496.43 750.746 1502.19 757.81 1506.98 765.519V765.519Z" fill="#554140"/>
<path d="M1477.61 764.648C1482.66 770.778 1487.01 777.452 1490.58 784.545C1496.54 795.88 1500.66 808.164 1506.36 819.625C1506.57 814.173 1506.63 808.677 1507.13 803.282C1504.22 796.399 1501.43 789.454 1498.08 782.82C1494.6 775.697 1490.41 768.944 1485.57 762.662C1481.1 757.169 1475.7 752.516 1469.6 748.92C1467.14 747.406 1464.61 745.987 1462.02 744.663L1455.35 748.771C1457.14 749.67 1458.91 750.61 1460.65 751.59C1466.92 755.12 1472.91 759.151 1477.61 764.648Z" fill="#554140"/>
<path d="M1507.37 821.624C1509.07 824.94 1510.96 828.155 1513.04 831.251C1518.04 838.812 1524.69 845.138 1532.5 849.751C1540.53 854.404 1549.32 857.594 1558.12 860.472C1568.2 863.773 1578.11 867.382 1587.97 871.318C1597.92 875.292 1607.87 879.285 1618.07 882.578C1620.3 883.297 1625.88 878.648 1622.58 877.584C1604.33 871.692 1586.96 863.382 1568.72 857.437C1559.83 854.539 1550.92 851.697 1542.54 847.499C1534.26 843.484 1527.05 837.572 1521.48 830.243C1515.77 822.638 1511.76 814.105 1508.03 805.412C1507.64 810.632 1507.62 815.892 1507.4 821.114C1507.38 821.285 1507.38 821.453 1507.37 821.624Z" fill="#554140"/>
<path d="M1501.42 849.933C1502.35 850.973 1503.29 852.006 1504.25 853.02C1516.29 865.744 1530.72 875.488 1547.39 880.987C1566.56 887.309 1586.79 889.333 1606.2 894.722C1608.46 895.35 1614.01 890.645 1610.71 889.728C1593.43 884.933 1575.54 882.796 1558.29 877.943C1541.39 873.3 1525.97 864.387 1513.51 852.062C1510.28 848.856 1507.22 845.497 1504.27 842.031C1503.91 843.285 1503.5 844.533 1503.06 845.774C1502.56 847.186 1502.01 848.572 1501.42 849.933Z" fill="#554140"/>
<path d="M1453.4 787.778C1460.02 794.498 1465.68 802.104 1471.15 809.768C1480.6 823.026 1489.72 836.682 1500.53 848.899C1501.64 846.302 1502.59 843.641 1503.38 840.93C1495.05 831 1487.66 820.236 1480.23 809.681C1474.83 801.99 1469.33 794.313 1463.03 787.321C1457.76 781.286 1451.4 776.308 1444.27 772.65C1438.86 770.06 1433.29 767.8 1427.6 765.884L1420.8 770.07C1425.19 771.644 1429.58 773.203 1433.8 775.029C1441.04 778.159 1447.83 782.128 1453.4 787.778Z" fill="#554140"/>
<path d="M1450.71 833.061C1463.12 845.022 1474.78 857.882 1488.05 868.909C1489.61 867.074 1491.09 865.18 1492.48 863.23C1481.03 853.481 1470.73 842.443 1459.97 831.941C1447.02 819.302 1433.58 806.995 1418.46 796.98C1411.52 792.374 1404.21 788.364 1396.6 784.994L1389.88 789.135C1396.35 791.912 1402.61 795.173 1408.59 798.888C1424.01 808.439 1437.69 820.504 1450.71 833.061Z" fill="#554140"/>
<path d="M1490.75 871.145C1504.62 882.276 1520.08 891.255 1536.61 897.779C1555.67 905.179 1575.91 909.071 1596.36 909.268C1597.27 909.179 1598.15 908.883 1598.93 908.402C1599.71 907.922 1600.37 907.269 1600.86 906.493C1601.67 905.083 1600.97 904.26 1599.47 904.243C1563.39 903.808 1528.6 891.062 1499.95 869.306C1497.7 867.597 1495.51 865.824 1493.35 864.009C1491.95 865.948 1490.47 867.827 1488.91 869.648C1489.52 870.148 1490.13 870.652 1490.75 871.145Z" fill="#554140"/>
<path d="M1373.96 819.501C1384.1 823.279 1393.92 827.368 1403 833.329C1411.23 838.728 1418.74 845.112 1426.29 851.396C1440.39 863.128 1454.57 874.934 1469.24 885.966C1471.22 884.531 1473.16 883.043 1475.06 881.5C1461.99 871.694 1449.46 861.149 1436.82 850.826C1429.11 844.519 1421.61 837.914 1413.52 832.079C1405.13 826.07 1396 821.156 1386.36 817.456C1380.25 815.069 1374.09 812.808 1367.89 810.673C1365.14 809.718 1362.38 808.74 1359.61 807.793L1352.71 812.046C1354.29 812.576 1355.86 813.117 1357.43 813.648C1362.97 815.519 1368.48 817.47 1373.96 819.501Z" fill="#554140"/>
<path d="M1470.18 886.711C1471.14 887.435 1472.11 888.156 1473.08 888.873C1489.12 900.704 1506.32 911.198 1525.4 917.307C1535.75 920.621 1546.22 920.997 1557.01 920.788C1567.42 920.586 1577.95 920.162 1588.07 923.021C1590.33 923.66 1595.89 918.961 1592.58 918.027C1574.34 912.878 1555.16 918.235 1536.77 914.221C1527.19 912.13 1517.88 908.061 1509.19 903.588C1500.33 898.95 1491.81 893.692 1483.69 887.854C1481.1 886.015 1478.52 884.14 1475.98 882.231C1475.51 882.615 1475.04 882.996 1474.57 883.373C1473.13 884.519 1471.66 885.627 1470.18 886.711Z" fill="#554140"/>
<path d="M1587.76 922.777C1577.63 919.914 1567.11 920.332 1556.69 920.528C1545.9 920.731 1535.43 920.35 1525.08 917.028C1506 910.913 1488.81 900.41 1472.78 888.575C1471.8 887.858 1470.83 887.137 1469.87 886.412C1471.35 885.329 1472.82 884.223 1474.26 883.079C1474.73 882.699 1475.2 882.319 1475.67 881.939C1478.22 883.845 1480.79 885.721 1483.39 887.565C1491.5 893.405 1500.02 898.665 1508.88 903.306C1517.56 907.78 1526.87 911.857 1536.45 913.95C1554.84 917.971 1574.02 912.626 1592.27 917.785C1595.3 918.644 1590.86 922.675 1588.37 922.83C1588.16 922.846 1587.96 922.829 1587.76 922.777V922.777ZM1596.05 909.028C1575.61 908.82 1555.37 904.919 1536.31 897.511C1519.78 890.981 1504.32 881.998 1490.46 870.862C1489.84 870.374 1489.23 869.866 1488.62 869.365C1490.18 867.546 1491.66 865.668 1493.06 863.731C1495.22 865.545 1497.41 867.318 1499.66 869.027C1528.3 890.794 1563.08 903.552 1599.17 904.005C1600.67 904.025 1601.36 904.846 1600.55 906.255C1600.08 906.997 1599.45 907.628 1598.71 908.105C1597.97 908.582 1597.14 908.894 1596.27 909.02C1596.2 909.026 1596.12 909.028 1596.05 909.028ZM1605.91 894.493C1586.5 889.096 1566.27 887.061 1547.11 880.732C1530.43 875.224 1516 865.477 1503.98 852.753C1503.02 851.735 1502.07 850.702 1501.14 849.662C1501.73 848.301 1502.28 846.916 1502.79 845.509C1503.23 844.269 1503.63 843.021 1504 841.768C1506.94 845.233 1510.01 848.597 1513.23 851.799C1525.69 864.128 1541.11 873.044 1558 877.693C1575.26 882.554 1593.14 884.699 1610.41 889.503C1613.46 890.348 1609 894.392 1606.51 894.545C1606.31 894.561 1606.1 894.544 1605.91 894.493ZM1617.79 882.351C1607.58 879.055 1597.64 875.058 1587.69 871.08C1577.84 867.14 1567.93 863.528 1557.84 860.223C1549.05 857.339 1540.26 854.147 1532.23 849.491C1524.43 844.876 1517.78 838.55 1512.78 830.988C1512.11 829.992 1511.46 828.985 1510.83 827.966C1509.51 825.809 1508.28 823.603 1507.11 821.362C1507.12 821.192 1507.13 821.024 1507.14 820.854C1507.36 815.636 1507.39 810.378 1507.78 805.16C1511.5 813.853 1515.52 822.383 1521.22 829.988C1526.78 837.317 1533.99 843.23 1542.26 847.248C1550.64 851.449 1559.55 854.295 1568.44 857.195C1586.68 863.146 1604.04 871.463 1622.29 877.362C1625.29 878.332 1620.94 882.273 1618.45 882.426C1618.23 882.444 1618 882.42 1617.79 882.355L1617.79 882.351ZM1426 851.134C1418.45 844.848 1410.95 838.464 1402.72 833.063C1393.64 827.1 1383.83 823.005 1373.69 819.221C1368.21 817.179 1362.7 815.226 1357.16 813.362C1355.59 812.831 1354.02 812.29 1352.44 811.758L1359.34 807.511C1362.11 808.459 1364.87 809.44 1367.62 810.395C1373.81 812.546 1379.97 814.81 1386.09 817.185C1395.72 820.888 1404.85 825.804 1413.24 831.815C1421.33 837.651 1428.82 844.259 1436.54 850.566C1449.16 860.892 1461.7 871.44 1474.75 881.247C1472.86 882.79 1470.92 884.277 1468.94 885.709C1454.27 874.681 1440.1 862.872 1426 851.139L1426 851.134ZM1627.76 868.665C1612.29 861.768 1596.36 855.896 1581.02 848.688C1568.43 842.771 1556.25 835.769 1545.85 826.444C1538.14 819.434 1531.49 811.339 1526.1 802.412C1523.39 797.977 1520.9 793.408 1518.65 788.72C1517.4 786.138 1516.18 783.542 1514.95 780.951C1516.45 778.644 1518.19 776.5 1520.14 774.556C1522.55 779.539 1524.84 784.582 1527.35 789.519C1534.29 803.183 1543.45 815.454 1555.38 825.158C1578.1 843.642 1607 852.29 1633.38 864.044C1634.89 864.719 1632.98 866.855 1632.36 867.371C1631.43 868.192 1630.27 868.718 1629.03 868.881C1628.6 868.915 1628.16 868.842 1627.76 868.669L1627.76 868.665ZM1450.44 832.81C1437.42 820.251 1423.75 808.186 1408.33 798.631C1402.35 794.914 1396.1 791.652 1389.63 788.873L1396.35 784.736C1403.95 788.109 1411.26 792.12 1418.19 796.727C1433.31 806.745 1446.75 819.054 1459.69 831.693C1470.45 842.198 1480.74 853.232 1492.18 862.985C1490.8 864.933 1489.32 866.824 1487.76 868.659C1474.49 857.637 1462.83 844.778 1450.43 832.814L1450.44 832.81ZM1470.89 809.531C1465.43 801.866 1459.77 794.261 1453.15 787.54C1447.58 781.887 1440.8 777.92 1433.56 774.786C1429.34 772.963 1424.96 771.4 1420.57 769.824L1427.36 765.644C1433.05 767.564 1438.62 769.827 1444.03 772.42C1451.15 776.079 1457.51 781.059 1462.78 787.094C1469.08 794.086 1474.57 801.761 1479.97 809.45C1487.39 820.005 1494.78 830.765 1503.1 840.695C1502.31 843.404 1501.36 846.063 1500.25 848.658C1489.45 836.446 1480.34 822.793 1470.89 809.536L1470.89 809.531ZM1490.35 784.316C1486.78 777.224 1482.43 770.553 1477.38 764.425C1472.69 758.926 1466.69 754.899 1460.43 751.365C1458.69 750.384 1456.93 749.444 1455.14 748.545L1461.8 744.443C1464.39 745.768 1466.91 747.187 1469.39 748.702C1475.48 752.297 1480.88 756.951 1485.34 762.444C1490.18 768.724 1494.37 775.476 1497.84 782.598C1501.19 789.227 1503.98 796.169 1506.88 803.05C1506.38 808.442 1506.32 813.935 1506.11 819.384C1500.41 807.93 1496.3 795.652 1490.34 784.321L1490.35 784.316ZM1506.76 765.302C1501.97 757.594 1496.22 750.531 1489.64 744.285C1486.01 740.769 1482.2 737.465 1478.26 734.311L1484.68 730.361C1489.96 734.593 1494.96 739.162 1499.66 744.038C1505.85 750.485 1511.19 757.712 1515.52 765.537C1516.97 768.149 1518.31 770.808 1519.62 773.493C1517.65 775.353 1515.87 777.414 1514.33 779.643C1511.99 774.772 1509.57 769.937 1506.75 765.307L1506.76 765.302Z" fill="white"/>
<path opacity="0.21" d="M2033.39 856.135C2033.39 996.002 1920 1109.39 1780.13 1109.39C1640.27 1109.39 1526.88 996.002 1526.88 856.135C1526.88 716.269 1640.27 602.884 1780.13 602.884C1920 602.884 2033.39 716.269 2033.39 856.135Z" fill="white"/>
</svg>
