<svg width="50" height="50" viewBox="0 0 50 50" fill="none" xmlns="http://www.w3.org/2000/svg">
<path d="M39.8552 6.38163C35.871 2.40616 30.5736 0.216797 24.9391 0.216797C19.3046 0.216797 14.0071 2.40616 10.023 6.38163C6.03869 10.3572 3.84448 15.6428 3.84448 21.2648C3.84448 32.638 14.622 42.0977 20.4121 47.1798C21.2167 47.886 21.9115 48.4959 22.4651 49.0119C23.1587 49.6583 24.049 49.9816 24.939 49.9816C25.8293 49.9816 26.7193 49.6583 27.413 49.0119C27.9666 48.4958 28.6614 47.886 29.4661 47.1798C35.2561 42.0976 46.0336 32.638 46.0336 21.2648C46.0335 15.6428 43.8394 10.3572 39.8552 6.38163ZM27.5363 44.9911C26.7141 45.7128 26.004 46.3361 25.4186 46.8817C25.1496 47.1322 24.7284 47.1323 24.4594 46.8817C23.874 46.3359 23.1639 45.7127 22.3416 44.991C16.8982 40.2133 6.76588 31.3198 6.76588 21.2649C6.76588 11.2664 14.9182 3.13203 24.9389 3.13203C34.9595 3.13203 43.1119 11.2664 43.1119 21.2649C43.112 31.3198 32.9797 40.2133 27.5363 44.9911Z" fill="#010F98"/>
<path d="M24.9379 11.1938C19.812 11.1938 15.6418 15.3548 15.6418 20.4694C15.6418 25.584 19.812 29.7449 24.9379 29.7449C30.0639 29.7449 34.234 25.584 34.234 20.4694C34.234 15.3548 30.0639 11.1938 24.9379 11.1938ZM24.9379 26.8297C21.423 26.8297 18.5634 23.9764 18.5634 20.4693C18.5634 16.9622 21.423 14.1089 24.9379 14.1089C28.4529 14.1089 31.3124 16.9622 31.3124 20.4693C31.3124 23.9764 28.4529 26.8297 24.9379 26.8297Z" fill="#FFB546"/>
</svg>
