<svg width="57" height="57" viewBox="0 0 57 57" fill="none" xmlns="http://www.w3.org/2000/svg">
<path d="M45.5477 7.06111C40.9943 2.50767 34.9402 0 28.5007 0C22.0613 0 16.007 2.50767 11.4537 7.06111C6.90025 11.6147 4.39258 17.6687 4.39258 24.108C4.39258 37.1348 16.7097 47.9698 23.327 53.7907C24.2465 54.5997 25.0406 55.2982 25.6733 55.8892C26.466 56.6296 27.4834 56.9999 28.5006 56.9999C29.518 56.9999 30.5352 56.6296 31.328 55.8892C31.9607 55.2981 32.7548 54.5997 33.6744 53.7907C40.2916 47.9697 52.6088 37.1348 52.6088 24.108C52.6087 17.6687 50.1011 11.6147 45.5477 7.06111ZM31.469 51.2838C30.5292 52.1105 29.7178 52.8244 29.0487 53.4493C28.7413 53.7362 28.2599 53.7363 27.9524 53.4493C27.2835 52.8242 26.4719 52.1104 25.5322 51.2837C19.3111 45.8114 7.73131 35.625 7.73131 24.1082C7.73131 12.656 17.0483 3.33907 28.5005 3.33907C39.9526 3.33907 49.2696 12.656 49.2696 24.1082C49.2697 35.625 37.69 45.8114 31.469 51.2838Z" fill="#010F98"/>
<path d="M28.5006 12.5733C22.6424 12.5733 17.8765 17.3392 17.8765 23.1974C17.8765 29.0556 22.6424 33.8215 28.5006 33.8215C34.3589 33.8215 39.1247 29.0556 39.1247 23.1974C39.1247 17.3392 34.3589 12.5733 28.5006 12.5733ZM28.5006 30.4824C24.4836 30.4824 21.2154 27.2142 21.2154 23.1973C21.2154 19.1803 24.4836 15.9122 28.5006 15.9122C32.5177 15.9122 35.7857 19.1803 35.7857 23.1973C35.7857 27.2142 32.5177 30.4824 28.5006 30.4824Z" fill="#FFB546"/>
</svg>
