<svg width="58" height="57" viewBox="0 0 58 57" fill="none" xmlns="http://www.w3.org/2000/svg">
<g clip-path="url(#clip0_573_2213)">
<path d="M28.5024 57.0005C44.2166 57.0005 57.0024 44.2147 57.0024 28.5005C57.0024 12.7863 44.2166 0.000488281 28.5024 0.000488281C12.7883 0.000488281 0.00244141 12.7863 0.00244141 28.5005C0.00244141 44.2147 12.7883 57.0005 28.5024 57.0005ZM28.5024 1.78174C43.2352 1.78174 55.2212 13.7678 55.2212 28.5005C55.2212 43.2332 43.2352 55.2192 28.5024 55.2192C13.7697 55.2192 1.78369 43.2332 1.78369 28.5005C1.78369 13.7678 13.7697 1.78174 28.5024 1.78174Z" fill="#E93535"/>
<path d="M19.1221 24.3073C20.0252 24.6013 20.9639 24.4659 21.8492 23.9119C22.2642 23.6518 22.3925 23.1014 22.1306 22.6846C21.8705 22.2696 21.3219 22.1413 20.9033 22.4032C20.474 22.6704 20.0608 22.7381 19.6778 22.6152C19.2699 22.4816 18.8852 22.1378 18.5628 21.6212C18.2742 21.1617 18.1816 20.6166 18.3027 20.0876C18.4256 19.5568 18.7462 19.1079 19.2076 18.8193C20.3084 18.1246 21.7405 18.5218 22.6685 19.2183C24.2378 20.3922 24.9396 22.4335 24.9396 25.8285C24.9396 30.841 22.6596 37.0736 18.3009 39.2841C17.8627 39.5068 17.6864 40.0429 17.9091 40.4829C18.0694 40.791 18.3811 40.9692 18.7053 40.9692C18.8406 40.9692 18.9778 40.9371 19.1096 40.873C24.3376 38.2207 26.7209 31.2133 26.7209 25.8285C26.7209 21.8706 25.7733 19.3181 23.7373 17.7915C22.0415 16.5144 19.8399 16.3238 18.2635 17.3088C17.3996 17.8485 16.7975 18.6928 16.5695 19.6868C16.3398 20.6807 16.5125 21.7032 17.0523 22.5653C17.5991 23.4381 18.3134 24.0402 19.1221 24.3073Z" fill="#E93535"/>
<path d="M33.3721 24.3073C34.2734 24.6013 35.2139 24.4659 36.0992 23.9119C36.5142 23.6518 36.6425 23.1014 36.3806 22.6846C36.1206 22.2696 35.5719 22.1413 35.1533 22.4032C34.7258 22.6704 34.3108 22.7381 33.9278 22.6152C33.5199 22.4816 33.1352 22.1378 32.8128 21.6212C32.5242 21.1617 32.4316 20.6166 32.5527 20.0876C32.6756 19.5568 32.9962 19.1079 33.4576 18.8193C34.5602 18.1246 35.9923 18.5218 36.9186 19.2183C38.4878 20.3922 39.1896 22.4335 39.1896 25.8285C39.1896 30.841 36.9096 37.0736 32.5509 39.2841C32.1127 39.5068 31.9364 40.0429 32.159 40.4829C32.3194 40.791 32.6311 40.9692 32.9553 40.9692C33.0906 40.9692 33.2278 40.9371 33.3596 40.873C38.5876 38.2207 40.9709 31.2133 40.9709 25.8285C40.9709 21.8706 40.0233 19.3181 37.9873 17.7915C36.2916 16.5144 34.0899 16.3238 32.5135 17.3088C31.6496 17.8485 31.0476 18.6928 30.8195 19.6868C30.5898 20.6807 30.7625 21.7032 31.3023 22.5653C31.8491 23.4381 32.5634 24.0402 33.3721 24.3073Z" fill="#E93535"/>
</g>
<defs>
<clipPath id="clip0_573_2213">
<rect width="57" height="57" fill="white" transform="translate(0.00244141 0.000488281)"/>
</clipPath>
</defs>
</svg>
