<svg width="51" height="51" viewBox="0 0 51 51" fill="none" xmlns="http://www.w3.org/2000/svg">
<g clip-path="url(#clip0_535_1654)">
<path d="M25.9331 50.955C39.7153 50.955 50.9292 39.7412 50.9292 25.959C50.9292 12.1768 39.7153 0.962891 25.9331 0.962891C12.1509 0.962891 0.937012 12.1768 0.937012 25.959C0.937012 39.7412 12.1509 50.955 25.9331 50.955ZM25.9331 2.52515C38.8545 2.52515 49.3669 13.0376 49.3669 25.959C49.3669 38.8804 38.8545 49.3928 25.9331 49.3928C13.0117 49.3928 2.49927 38.8804 2.49927 25.959C2.49927 13.0376 13.0117 2.52515 25.9331 2.52515Z" fill="#E93535"/>
<path d="M17.7061 22.2814C18.4982 22.5391 19.3215 22.4204 20.0979 21.9345C20.4619 21.7065 20.5744 21.2237 20.3447 20.8581C20.1167 20.4941 19.6355 20.3817 19.2684 20.6113C18.8918 20.8457 18.5294 20.905 18.1935 20.7972C17.8358 20.6801 17.4983 20.3785 17.2155 19.9255C16.9625 19.5224 16.8812 19.0444 16.9875 18.5804C17.0953 18.1148 17.3765 17.7211 17.7811 17.4681C18.7466 16.8588 20.0026 17.2072 20.8165 17.818C22.1929 18.8475 22.8084 20.6379 22.8084 23.6155C22.8084 28.0117 20.8087 33.478 16.9859 35.4168C16.6016 35.6121 16.4469 36.0823 16.6422 36.4682C16.7828 36.7385 17.0562 36.8947 17.3405 36.8947C17.4593 36.8947 17.5796 36.8666 17.6952 36.8103C22.2804 34.4841 24.3707 28.3382 24.3707 23.6155C24.3707 20.1442 23.5396 17.9055 21.7539 16.5666C20.2666 15.4465 18.3357 15.2793 16.9531 16.1433C16.1954 16.6166 15.6674 17.3571 15.4674 18.2289C15.2659 19.1006 15.4174 19.9973 15.8908 20.7535C16.3704 21.519 16.9968 22.047 17.7061 22.2814Z" fill="#E93535"/>
<path d="M30.2041 22.2814C30.9946 22.5391 31.8195 22.4204 32.596 21.9345C32.96 21.7065 33.0724 21.2237 32.8428 20.8581C32.6147 20.4941 32.1335 20.3817 31.7664 20.6113C31.3915 20.8457 31.0275 20.905 30.6916 20.7972C30.3338 20.6801 29.9964 20.3785 29.7136 19.9255C29.4605 19.5224 29.3793 19.0444 29.4855 18.5804C29.5933 18.1148 29.8745 17.7211 30.2791 17.4681C31.2462 16.8588 32.5022 17.2072 33.3146 17.818C34.6909 18.8475 35.3065 20.6379 35.3065 23.6155C35.3065 28.0117 33.3068 33.478 29.4839 35.4168C29.0996 35.6121 28.945 36.0823 29.1402 36.4682C29.2809 36.7385 29.5542 36.8947 29.8386 36.8947C29.9573 36.8947 30.0776 36.8666 30.1932 36.8103C34.7784 34.4841 36.8687 28.3382 36.8687 23.6155C36.8687 20.1442 36.0376 17.9055 34.2519 16.5666C32.7647 15.4465 30.8337 15.2793 29.4511 16.1433C28.6934 16.6166 28.1654 17.3571 27.9654 18.2289C27.7639 19.1006 27.9154 19.9973 28.3888 20.7535C28.8684 21.519 29.4949 22.047 30.2041 22.2814Z" fill="#E93535"/>
</g>
<defs>
<clipPath id="clip0_535_1654">
<rect width="49.9921" height="49.9921" fill="white" transform="translate(0.937012 0.962891)"/>
</clipPath>
</defs>
</svg>
