<svg width="51" height="51" viewBox="0 0 51 51" fill="none" xmlns="http://www.w3.org/2000/svg">
<g clip-path="url(#clip0_535_1672)">
<path d="M25.9331 50.0253C39.7153 50.0253 50.9292 38.8115 50.9292 25.0293C50.9292 11.2471 39.7153 0.0332031 25.9331 0.0332031C12.1509 0.0332031 0.937012 11.2471 0.937012 25.0293C0.937012 38.8115 12.1509 50.0253 25.9331 50.0253ZM25.9331 1.59546C38.8545 1.59546 49.3669 12.1079 49.3669 25.0293C49.3669 37.9507 38.8545 48.4631 25.9331 48.4631C13.0117 48.4631 2.49927 37.9507 2.49927 25.0293C2.49927 12.1079 13.0117 1.59546 25.9331 1.59546Z" fill="#E93535"/>
<path d="M17.7061 21.3517C18.4982 21.6094 19.3215 21.4907 20.0979 21.0049C20.4619 20.7768 20.5744 20.294 20.3447 19.9285C20.1167 19.5645 19.6355 19.452 19.2684 19.6816C18.8918 19.916 18.5294 19.9753 18.1935 19.8675C17.8358 19.7504 17.4983 19.4488 17.2155 18.9958C16.9625 18.5927 16.8812 18.1147 16.9875 17.6507C17.0953 17.1851 17.3765 16.7915 17.7811 16.5384C18.7466 15.9291 20.0026 16.2775 20.8165 16.8883C22.1929 17.9178 22.8084 19.7082 22.8084 22.6858C22.8084 27.082 20.8087 32.5484 16.9859 34.4871C16.6016 34.6824 16.4469 35.1526 16.6422 35.5385C16.7828 35.8088 17.0562 35.965 17.3405 35.965C17.4593 35.965 17.5796 35.9369 17.6952 35.8806C22.2804 33.5544 24.3707 27.4085 24.3707 22.6858C24.3707 19.2145 23.5396 16.9758 21.7539 15.6369C20.2666 14.5168 18.3357 14.3497 16.9531 15.2136C16.1954 15.6869 15.6674 16.4275 15.4674 17.2992C15.2659 18.1709 15.4174 19.0677 15.8908 19.8238C16.3704 20.5893 16.9968 21.1173 17.7061 21.3517Z" fill="#E93535"/>
<path d="M30.2041 21.3517C30.9946 21.6094 31.8195 21.4907 32.596 21.0049C32.96 20.7768 33.0724 20.294 32.8428 19.9285C32.6147 19.5645 32.1335 19.452 31.7664 19.6816C31.3915 19.916 31.0275 19.9753 30.6916 19.8675C30.3338 19.7504 29.9964 19.4488 29.7136 18.9958C29.4605 18.5927 29.3793 18.1147 29.4855 17.6507C29.5933 17.1851 29.8745 16.7915 30.2791 16.5384C31.2462 15.9291 32.5022 16.2775 33.3146 16.8883C34.6909 17.9178 35.3065 19.7082 35.3065 22.6858C35.3065 27.082 33.3068 32.5484 29.4839 34.4871C29.0996 34.6824 28.945 35.1526 29.1402 35.5385C29.2809 35.8088 29.5542 35.965 29.8386 35.965C29.9573 35.965 30.0776 35.9369 30.1932 35.8806C34.7784 33.5544 36.8687 27.4085 36.8687 22.6858C36.8687 19.2145 36.0376 16.9758 34.2519 15.6369C32.7647 14.5168 30.8337 14.3497 29.4511 15.2136C28.6934 15.6869 28.1654 16.4275 27.9654 17.2992C27.7639 18.1709 27.9154 19.0677 28.3888 19.8238C28.8684 20.5893 29.4949 21.1173 30.2041 21.3517Z" fill="#E93535"/>
</g>
<defs>
<clipPath id="clip0_535_1672">
<rect width="49.9921" height="49.9921" fill="white" transform="translate(0.937012 0.0332031)"/>
</clipPath>
</defs>
</svg>
