<svg width="51" height="51" viewBox="0 0 51 51" fill="none" xmlns="http://www.w3.org/2000/svg">
<g clip-path="url(#clip0_535_1681)">
<path d="M25.1103 50.0253C38.8925 50.0253 50.1064 38.8115 50.1064 25.0293C50.1064 11.2471 38.8925 0.0332031 25.1103 0.0332031C11.3281 0.0332031 0.114258 11.2471 0.114258 25.0293C0.114258 38.8115 11.3281 50.0253 25.1103 50.0253ZM25.1103 1.59546C38.0317 1.59546 48.5441 12.1079 48.5441 25.0293C48.5441 37.9507 38.0317 48.4631 25.1103 48.4631C12.1889 48.4631 1.67651 37.9507 1.67651 25.0293C1.67651 12.1079 12.1889 1.59546 25.1103 1.59546Z" fill="#E93535"/>
<path d="M16.8833 21.3517C17.6754 21.6094 18.4987 21.4907 19.2752 21.0049C19.6392 20.7768 19.7516 20.294 19.522 19.9285C19.2939 19.5645 18.8127 19.452 18.4456 19.6816C18.0691 19.916 17.7067 19.9753 17.3708 19.8675C17.013 19.7504 16.6756 19.4488 16.3928 18.9958C16.1397 18.5927 16.0585 18.1147 16.1647 17.6507C16.2725 17.1851 16.5537 16.7915 16.9583 16.5384C17.9238 15.9291 19.1799 16.2775 19.9938 16.8883C21.3701 17.9178 21.9857 19.7082 21.9857 22.6858C21.9857 27.082 19.986 32.5484 16.1631 34.4871C15.7788 34.6824 15.6242 35.1526 15.8194 35.5385C15.9601 35.8088 16.2334 35.965 16.5178 35.965C16.6365 35.965 16.7568 35.9369 16.8724 35.8806C21.4576 33.5544 23.5479 27.4085 23.5479 22.6858C23.5479 19.2145 22.7168 16.9758 20.9311 15.6369C19.4439 14.5168 17.5129 14.3497 16.1303 15.2136C15.3726 15.6869 14.8446 16.4275 14.6446 17.2992C14.4431 18.1709 14.5946 19.0677 15.068 19.8238C15.5476 20.5893 16.1741 21.1173 16.8833 21.3517Z" fill="#E93535"/>
<path d="M29.3809 21.3517C30.1714 21.6094 30.9963 21.4907 31.7727 21.0049C32.1367 20.7768 32.2492 20.294 32.0196 19.9285C31.7915 19.5645 31.3103 19.452 30.9432 19.6816C30.5682 19.916 30.2042 19.9753 29.8683 19.8675C29.5106 19.7504 29.1731 19.4488 28.8904 18.9958C28.6373 18.5927 28.556 18.1147 28.6623 17.6507C28.7701 17.1851 29.0513 16.7915 29.4559 16.5384C30.4229 15.9291 31.679 16.2775 32.4914 16.8883C33.8677 17.9178 34.4832 19.7082 34.4832 22.6858C34.4832 27.082 32.4835 32.5484 28.6607 34.4871C28.2764 34.6824 28.1217 35.1526 28.317 35.5385C28.4576 35.8088 28.731 35.965 29.0153 35.965C29.1341 35.965 29.2544 35.9369 29.37 35.8806C33.9552 33.5544 36.0455 27.4085 36.0455 22.6858C36.0455 19.2145 35.2144 16.9758 33.4287 15.6369C31.9414 14.5168 30.0105 14.3497 28.6279 15.2136C27.8702 15.6869 27.3422 16.4275 27.1422 17.2992C26.9407 18.1709 27.0922 19.0677 27.5656 19.8238C28.0452 20.5893 28.6716 21.1173 29.3809 21.3517Z" fill="#E93535"/>
</g>
<defs>
<clipPath id="clip0_535_1681">
<rect width="49.9921" height="49.9921" fill="white" transform="translate(0.114258 0.0332031)"/>
</clipPath>
</defs>
</svg>
