<svg width="58" height="57" viewBox="0 0 58 57" fill="none" xmlns="http://www.w3.org/2000/svg">
<g clip-path="url(#clip0_449_936)">
<path d="M28.5024 57C44.2166 57 57.0024 44.2142 57.0024 28.5C57.0024 12.7858 44.2166 0 28.5024 0C12.7883 0 0.00244141 12.7858 0.00244141 28.5C0.00244141 44.2142 12.7883 57 28.5024 57ZM28.5024 1.78125C43.2352 1.78125 55.2212 13.7673 55.2212 28.5C55.2212 43.2327 43.2352 55.2188 28.5024 55.2188C13.7697 55.2188 1.78369 43.2327 1.78369 28.5C1.78369 13.7673 13.7697 1.78125 28.5024 1.78125Z" fill="#E93535"/>
<path d="M19.122 24.3069C20.0251 24.6008 20.9638 24.4654 21.8491 23.9114C22.2641 23.6514 22.3923 23.101 22.1305 22.6841C21.8704 22.2691 21.3218 22.1409 20.9032 22.4027C20.4739 22.6699 20.0607 22.7376 19.6777 22.6147C19.2698 22.4811 18.8851 22.1373 18.5626 21.6207C18.2741 21.1612 18.1815 20.6161 18.3026 20.0871C18.4255 19.5563 18.7461 19.1074 19.2075 18.8188C20.3083 18.1241 21.7404 18.5214 22.6684 19.2178C24.2377 20.3917 24.9395 22.433 24.9395 25.828C24.9395 30.8405 22.6595 37.0731 18.3008 39.2836C17.8626 39.5063 17.6863 40.0424 17.9089 40.4824C18.0692 40.7905 18.381 40.9687 18.7051 40.9687C18.8405 40.9687 18.9777 40.9366 19.1095 40.8725C24.3375 38.2202 26.7208 31.2128 26.7208 25.828C26.7208 21.8701 25.7731 19.3176 23.7372 17.791C22.0414 16.5139 19.8398 16.3233 18.2634 17.3083C17.3995 17.848 16.7974 18.6924 16.5694 19.6863C16.3396 20.6802 16.5124 21.7027 17.0521 22.5648C17.599 23.4376 18.3133 24.0397 19.122 24.3069Z" fill="#E93535"/>
<path d="M33.372 24.3069C34.2733 24.6008 35.2138 24.4654 36.0991 23.9114C36.5141 23.6514 36.6423 23.101 36.3805 22.6841C36.1204 22.2691 35.5718 22.1409 35.1532 22.4027C34.7257 22.6699 34.3107 22.7376 33.9277 22.6147C33.5198 22.4811 33.1351 22.1373 32.8126 21.6207C32.5241 21.1612 32.4315 20.6161 32.5526 20.0871C32.6755 19.5563 32.9961 19.1074 33.4575 18.8188C34.5601 18.1241 35.9922 18.5214 36.9184 19.2178C38.4877 20.3917 39.1895 22.433 39.1895 25.828C39.1895 30.8405 36.9095 37.0731 32.5508 39.2836C32.1126 39.5063 31.9363 40.0424 32.1589 40.4824C32.3192 40.7905 32.631 40.9687 32.9551 40.9687C33.0905 40.9687 33.2277 40.9366 33.3595 40.8725C38.5875 38.2202 40.9708 31.2128 40.9708 25.828C40.9708 21.8701 40.0231 19.3176 37.9872 17.791C36.2914 16.5139 34.0898 16.3233 32.5134 17.3083C31.6495 17.848 31.0474 18.6924 30.8194 19.6863C30.5896 20.6802 30.7624 21.7027 31.3021 22.5648C31.849 23.4376 32.5633 24.0397 33.372 24.3069Z" fill="#E93535"/>
</g>
<defs>
<clipPath id="clip0_449_936">
<rect width="57" height="57" fill="white" transform="translate(0.00244141)"/>
</clipPath>
</defs>
</svg>
