<svg width="51" height="51" viewBox="0 0 51 51" fill="none" xmlns="http://www.w3.org/2000/svg">
<g clip-path="url(#clip0_535_1663)">
<path d="M25.1103 50.9545C38.8925 50.9545 50.1064 39.7407 50.1064 25.9585C50.1064 12.1763 38.8925 0.962402 25.1103 0.962402C11.3281 0.962402 0.114258 12.1763 0.114258 25.9585C0.114258 39.7407 11.3281 50.9545 25.1103 50.9545ZM25.1103 2.52466C38.0317 2.52466 48.5441 13.0371 48.5441 25.9585C48.5441 38.8799 38.0317 49.3923 25.1103 49.3923C12.1889 49.3923 1.67651 38.8799 1.67651 25.9585C1.67651 13.0371 12.1889 2.52466 25.1103 2.52466Z" fill="#E93535"/>
<path d="M16.8833 22.2809C17.6754 22.5386 18.4987 22.4199 19.2752 21.9341C19.6392 21.706 19.7516 21.2232 19.522 20.8577C19.2939 20.4937 18.8127 20.3812 18.4456 20.6108C18.0691 20.8452 17.7067 20.9045 17.3708 20.7967C17.013 20.6796 16.6756 20.378 16.3928 19.925C16.1397 19.5219 16.0585 19.0439 16.1647 18.5799C16.2725 18.1143 16.5537 17.7207 16.9583 17.4676C17.9238 16.8583 19.1799 17.2067 19.9938 17.8175C21.3701 18.847 21.9857 20.6374 21.9857 23.615C21.9857 28.0112 19.986 33.4776 16.1631 35.4163C15.7788 35.6116 15.6242 36.0818 15.8194 36.4677C15.9601 36.738 16.2334 36.8942 16.5178 36.8942C16.6365 36.8942 16.7568 36.8661 16.8724 36.8098C21.4576 34.4836 23.5479 28.3377 23.5479 23.615C23.5479 20.1437 22.7168 17.905 20.9311 16.5661C19.4439 15.446 17.5129 15.2789 16.1303 16.1428C15.3726 16.6161 14.8446 17.3566 14.6446 18.2284C14.4431 19.1001 14.5946 19.9969 15.068 20.753C15.5476 21.5185 16.1741 22.0465 16.8833 22.2809Z" fill="#E93535"/>
<path d="M29.3809 22.2809C30.1714 22.5386 30.9963 22.4199 31.7727 21.9341C32.1367 21.706 32.2492 21.2232 32.0196 20.8577C31.7915 20.4937 31.3103 20.3812 30.9432 20.6108C30.5682 20.8452 30.2042 20.9045 29.8683 20.7967C29.5106 20.6796 29.1731 20.378 28.8904 19.925C28.6373 19.5219 28.556 19.0439 28.6623 18.5799C28.7701 18.1143 29.0513 17.7207 29.4559 17.4676C30.4229 16.8583 31.679 17.2067 32.4914 17.8175C33.8677 18.847 34.4832 20.6374 34.4832 23.615C34.4832 28.0112 32.4835 33.4776 28.6607 35.4163C28.2764 35.6116 28.1217 36.0818 28.317 36.4677C28.4576 36.738 28.731 36.8942 29.0153 36.8942C29.1341 36.8942 29.2544 36.8661 29.37 36.8098C33.9552 34.4836 36.0455 28.3377 36.0455 23.615C36.0455 20.1437 35.2144 17.905 33.4287 16.5661C31.9414 15.446 30.0105 15.2789 28.6279 16.1428C27.8702 16.6161 27.3422 17.3566 27.1422 18.2284C26.9407 19.1001 27.0922 19.9969 27.5656 20.753C28.0452 21.5185 28.6716 22.0465 29.3809 22.2809Z" fill="#E93535"/>
</g>
<defs>
<clipPath id="clip0_535_1663">
<rect width="49.9921" height="49.9921" fill="white" transform="translate(0.114258 0.962402)"/>
</clipPath>
</defs>
</svg>
