<svg width="58" height="57" viewBox="0 0 58 57" fill="none" xmlns="http://www.w3.org/2000/svg">
<g clip-path="url(#clip0_573_2222)">
<path d="M28.5024 57C44.2166 57 57.0024 44.2142 57.0024 28.5C57.0024 12.7858 44.2166 0 28.5024 0C12.7883 0 0.00244141 12.7858 0.00244141 28.5C0.00244141 44.2142 12.7883 57 28.5024 57ZM28.5024 1.78125C43.2352 1.78125 55.2212 13.7673 55.2212 28.5C55.2212 43.2327 43.2352 55.2188 28.5024 55.2188C13.7697 55.2188 1.78369 43.2327 1.78369 28.5C1.78369 13.7673 13.7697 1.78125 28.5024 1.78125Z" fill="#E93535"/>
<path d="M19.1221 24.3069C20.0252 24.6008 20.9639 24.4654 21.8492 23.9114C22.2642 23.6514 22.3925 23.101 22.1306 22.6841C21.8705 22.2691 21.3219 22.1409 20.9033 22.4027C20.474 22.6699 20.0608 22.7376 19.6778 22.6147C19.2699 22.4811 18.8852 22.1373 18.5628 21.6207C18.2742 21.1612 18.1816 20.6161 18.3027 20.0871C18.4256 19.5563 18.7462 19.1074 19.2076 18.8188C20.3084 18.1241 21.7405 18.5214 22.6685 19.2178C24.2378 20.3917 24.9396 22.433 24.9396 25.828C24.9396 30.8405 22.6596 37.0731 18.3009 39.2836C17.8627 39.5063 17.6864 40.0424 17.9091 40.4824C18.0694 40.7905 18.3811 40.9687 18.7053 40.9687C18.8406 40.9687 18.9778 40.9366 19.1096 40.8725C24.3376 38.2202 26.7209 31.2128 26.7209 25.828C26.7209 21.8701 25.7733 19.3176 23.7373 17.791C22.0415 16.5139 19.8399 16.3233 18.2635 17.3083C17.3996 17.848 16.7975 18.6924 16.5695 19.6863C16.3398 20.6802 16.5125 21.7027 17.0523 22.5648C17.5991 23.4376 18.3134 24.0397 19.1221 24.3069Z" fill="#E93535"/>
<path d="M33.3721 24.3069C34.2734 24.6008 35.2139 24.4654 36.0992 23.9114C36.5142 23.6514 36.6425 23.101 36.3806 22.6841C36.1206 22.2691 35.5719 22.1409 35.1533 22.4027C34.7258 22.6699 34.3108 22.7376 33.9278 22.6147C33.5199 22.4811 33.1352 22.1373 32.8128 21.6207C32.5242 21.1612 32.4316 20.6161 32.5527 20.0871C32.6756 19.5563 32.9962 19.1074 33.4576 18.8188C34.5602 18.1241 35.9923 18.5214 36.9186 19.2178C38.4878 20.3917 39.1896 22.433 39.1896 25.828C39.1896 30.8405 36.9096 37.0731 32.5509 39.2836C32.1127 39.5063 31.9364 40.0424 32.159 40.4824C32.3194 40.7905 32.6311 40.9687 32.9553 40.9687C33.0906 40.9687 33.2278 40.9366 33.3596 40.8725C38.5876 38.2202 40.9709 31.2128 40.9709 25.828C40.9709 21.8701 40.0233 19.3176 37.9873 17.791C36.2916 16.5139 34.0899 16.3233 32.5135 17.3083C31.6496 17.848 31.0476 18.6924 30.8195 19.6863C30.5898 20.6802 30.7625 21.7027 31.3023 22.5648C31.8491 23.4376 32.5634 24.0397 33.3721 24.3069Z" fill="#E93535"/>
</g>
<defs>
<clipPath id="clip0_573_2222">
<rect width="57" height="57" fill="white" transform="translate(0.00244141)"/>
</clipPath>
</defs>
</svg>
