<svg width="157" height="35" viewBox="0 0 157 35" fill="none" xmlns="http://www.w3.org/2000/svg">
<g clip-path="url(#clip0_535_1566)">
<path d="M17.6229 0.213806C8.17266 0.213806 0.48291 7.90141 0.48291 17.3527C0.48291 26.804 8.17266 34.4916 17.6229 34.4916C27.0731 34.4916 34.7629 26.804 34.7629 17.3527C34.7629 7.90141 27.0731 0.213806 17.6229 0.213806ZM17.6229 33.35C8.80224 33.35 1.62664 26.1734 1.62664 17.3527C1.62664 8.53207 8.80224 1.3554 17.6229 1.3554C26.4435 1.3554 33.6191 8.53207 33.6191 17.3527C33.6191 26.1734 26.4435 33.35 17.6229 33.35Z" fill="black"/>
<path d="M21.3648 7.73316H18.513C14.8808 7.69682 14.4169 9.94474 14.4169 12.3776V14.1466H12.8135C12.7411 14.1369 12.6674 14.1441 12.5981 14.1675C12.5288 14.191 12.4659 14.2301 12.4142 14.2818C12.3625 14.3335 12.3234 14.3964 12.3 14.4656C12.2766 14.5349 12.2694 14.6086 12.2791 14.6811V17.8878C12.2694 17.9603 12.2766 18.034 12.3 18.1033C12.3234 18.1725 12.3625 18.2354 12.4142 18.2871C12.4659 18.3388 12.5288 18.3779 12.5981 18.4014C12.6674 18.4248 12.7411 18.4319 12.8135 18.4223H14.4169V26.4391C14.408 26.5117 14.4158 26.5854 14.4397 26.6545C14.4637 26.7236 14.5031 26.7864 14.5549 26.8379C14.6068 26.8895 14.6698 26.9285 14.739 26.952C14.8083 26.9755 14.882 26.9829 14.9546 26.9736H18.2201C18.5354 27.0099 18.7909 26.7544 18.6904 26.4391L18.6926 18.4223H21.3648C21.4373 18.4319 21.511 18.4248 21.5803 18.4014C21.6495 18.3779 21.7125 18.3388 21.7642 18.2871C21.8159 18.2354 21.8549 18.1725 21.8784 18.1033C21.9018 18.034 21.909 17.9603 21.8993 17.8878V14.6811C21.909 14.6086 21.9018 14.5349 21.8784 14.4656C21.8549 14.3964 21.8159 14.3335 21.7642 14.2818C21.7125 14.2301 21.6495 14.191 21.5803 14.1675C21.511 14.1441 21.4373 14.1369 21.3648 14.1466H18.6893L18.6926 12.5433C18.7962 11.8602 18.7962 11.9714 19.4301 12.0088H21.3424C21.491 11.9757 21.6492 11.9938 21.7603 11.8859C21.8715 11.7779 21.9356 11.6304 21.8982 11.4743V8.26762C21.9081 8.19521 21.9011 8.12149 21.8778 8.05223C21.8545 7.98296 21.8155 7.92001 21.7639 7.86829C21.7123 7.81656 21.6494 7.77745 21.5802 7.75401C21.511 7.73058 21.4373 7.72344 21.3648 7.73316ZM20.793 10.88L19.4526 10.8287C17.7925 10.8287 17.6536 11.7298 17.6536 12.6523L17.6493 14.6789C17.6492 14.754 17.6638 14.8283 17.6924 14.8977C17.7211 14.9671 17.7631 15.0301 17.8161 15.0833C17.8691 15.1364 17.9321 15.1785 18.0014 15.2073C18.0707 15.236 18.145 15.2508 18.2201 15.2508H20.8304V17.3159H18.2222C18.0708 17.3159 17.9255 17.376 17.8182 17.4831C17.711 17.5901 17.6507 17.7353 17.6504 17.8867L17.6493 25.9046H15.4858V17.8878C15.4858 17.5725 15.271 17.317 14.9546 17.317H13.348V15.2519H14.9546C15.0296 15.252 15.1039 15.2373 15.1732 15.2087C15.2425 15.1801 15.3055 15.1381 15.3586 15.0851C15.4655 14.9772 15.4848 14.8318 15.4848 14.68V12.3765C15.4848 9.98001 15.969 8.83842 18.5119 8.83842H20.7919V10.88H20.793Z" fill="black"/>
</g>
<g clip-path="url(#clip1_535_1566)">
<path d="M78.5506 0.213806C69.1004 0.213806 61.4106 7.90141 61.4106 17.3527C61.4106 26.804 69.1004 34.4916 78.5506 34.4916C88.0009 34.4916 95.6906 26.804 95.6906 17.3527C95.6906 7.90141 88.0009 0.213806 78.5506 0.213806ZM78.5506 33.35C69.73 33.35 62.5544 26.1734 62.5544 17.3527C62.5544 8.53207 69.73 1.3554 78.5506 1.3554C87.3713 1.3554 94.5469 8.53207 94.5469 17.3527C94.5469 26.1734 87.3713 33.35 78.5506 33.35Z" fill="black"/>
<path d="M87.9511 12.0578C88.0697 11.8384 88.1674 11.6083 88.2429 11.3705C88.2779 11.2603 88.2786 11.142 88.2449 11.0313C88.2113 10.9206 88.1449 10.8227 88.0544 10.7506C87.964 10.6785 87.8538 10.6354 87.7384 10.6272C87.623 10.619 87.5078 10.646 87.4081 10.7046C86.8604 11.03 86.2675 11.2724 85.6487 11.424C84.8975 10.746 83.922 10.3702 82.9101 10.369C82.3604 10.3694 81.8164 10.4808 81.3108 10.6965C80.8052 10.9123 80.3483 11.2279 79.9676 11.6245C79.5869 12.021 79.2902 12.4904 79.0953 13.0044C78.9004 13.5184 78.8113 14.0665 78.8333 14.6157C76.4293 14.3131 74.2341 13.0967 72.7031 11.2187C72.6444 11.1476 72.5695 11.0917 72.4846 11.0557C72.3996 11.0197 72.3073 11.0048 72.2154 11.0121C72.1235 11.0195 72.0347 11.0489 71.9566 11.0979C71.8785 11.1469 71.8133 11.214 71.7667 11.2936C71.4161 11.8953 71.2256 12.5768 71.2132 13.2731C71.2009 13.9694 71.3672 14.6572 71.6962 15.271C71.6155 15.2846 71.538 15.3129 71.4674 15.3544C71.381 15.4095 71.3098 15.4855 71.2605 15.5753C71.2112 15.6652 71.1853 15.766 71.1852 15.8685C71.1852 17.0817 71.725 18.1955 72.5951 18.9523L72.5577 18.9897C72.492 19.064 72.4468 19.1542 72.4266 19.2513C72.4063 19.3484 72.4117 19.4491 72.4423 19.5434C72.6237 20.1094 72.9266 20.629 73.3299 21.0656C73.7331 21.5023 74.227 21.8456 74.7768 22.0714C73.6476 22.6223 72.3839 22.8371 71.1361 22.6903C71.0078 22.6772 70.8788 22.7071 70.7693 22.7752C70.6599 22.8432 70.576 22.9457 70.5311 23.0666C70.4878 23.1883 70.487 23.321 70.5288 23.4433C70.5705 23.5655 70.6523 23.6701 70.7609 23.74C72.4572 24.8287 74.4307 25.4071 76.4464 25.4064C83.0523 25.4064 87.0008 20.0405 87.0008 14.853L86.9998 14.6777C87.64 14.1779 88.1961 13.5789 88.647 12.9033C88.7152 12.8012 88.7488 12.6798 88.7427 12.5571C88.7366 12.4344 88.6912 12.317 88.6131 12.2221C88.535 12.1272 88.4285 12.06 88.3093 12.0305C88.19 12.0009 88.0645 12.0105 87.9511 12.0578ZM86.0858 13.9338C86.0083 13.9896 85.9459 14.0639 85.9045 14.15C85.863 14.236 85.8438 14.3311 85.8486 14.4265C85.855 14.5676 85.8582 14.7109 85.8582 14.852C85.8582 19.4782 82.3382 24.2637 76.4475 24.2637C75.3968 24.2642 74.3536 24.0879 73.3615 23.7421C74.5497 23.5144 75.6659 23.0049 76.6164 22.2563C76.7089 22.1834 76.7766 22.0836 76.8103 21.9707C76.844 21.8578 76.842 21.7373 76.8045 21.6256C76.7671 21.5138 76.6961 21.4164 76.6012 21.3466C76.5063 21.2768 76.3921 21.238 76.2743 21.2355C75.8134 21.2267 75.3611 21.1097 74.9537 20.894C74.5463 20.6782 74.1954 20.3697 73.9291 19.9934C74.1996 19.9753 74.4646 19.9304 74.7223 19.8609C74.8469 19.8275 74.9566 19.7529 75.0334 19.6492C75.1102 19.5454 75.1496 19.4187 75.1451 19.2897C75.1407 19.1608 75.0926 19.0371 75.0088 18.9389C74.925 18.8408 74.8105 18.7739 74.6838 18.7492C74.1632 18.6433 73.6813 18.3979 73.2895 18.0392C72.8977 17.6806 72.6107 17.2221 72.4594 16.7129C72.7437 16.7846 73.0355 16.8262 73.3273 16.8359C73.5785 16.8348 73.8115 16.6809 73.8896 16.4393C73.9676 16.1977 73.8757 15.9316 73.663 15.7905C73.16 15.4554 72.7728 14.9732 72.5541 14.4098C72.3354 13.8464 72.296 13.2292 72.4412 12.6425C74.2979 14.5477 76.8051 15.6821 79.4618 15.8193C79.6499 15.8204 79.8145 15.7531 79.9289 15.6152C80.0433 15.4773 80.0871 15.2945 80.0465 15.1192C79.9003 14.4896 79.9657 13.8294 80.2325 13.2407C80.4994 12.652 80.9528 12.1677 81.5227 11.8627C82.0925 11.5577 82.747 11.449 83.3849 11.5535C84.0227 11.6579 84.6083 11.9697 85.0511 12.4405C85.1175 12.5113 85.2008 12.5641 85.2932 12.5938C85.3856 12.6235 85.484 12.6293 85.5792 12.6105C85.7556 12.5752 85.9298 12.5346 86.1019 12.4875C86.0243 12.5456 85.9437 12.5995 85.8603 12.6489C85.7495 12.7168 85.6651 12.8205 85.621 12.9428C85.5769 13.0651 85.5759 13.1987 85.6179 13.3217C85.66 13.4447 85.7427 13.5497 85.8525 13.6194C85.9622 13.689 86.0924 13.7193 86.2216 13.705L86.4161 13.6804C86.309 13.7687 86.1988 13.8532 86.0858 13.9338Z" fill="black"/>
</g>
<g clip-path="url(#clip2_535_1566)">
<path d="M143.236 13.0262C142.512 13.0262 141.975 13.209 141.555 13.4399C141.487 13.2005 141.266 13.0252 141.005 13.0776H137.816C137.5 13.0252 137.245 13.2806 137.342 13.612V25.37C137.245 25.6693 137.5 25.9259 137.816 25.9045H141.005C141.321 25.9259 141.576 25.6693 141.576 25.354L141.575 18.2479C141.574 18.2447 141.562 17.9048 141.777 17.6707C141.949 17.4847 142.245 17.3895 142.655 17.3895C143.337 17.3895 143.64 17.6685 143.754 18.2928V25.354C143.641 25.6693 143.897 25.9259 144.212 25.9045H147.574C147.889 25.9259 148.145 25.6693 148.031 25.354V18.0555C148.144 14.3442 145.5 13.0262 143.236 13.0262ZM147.002 24.8356H144.783V18.2928C144.783 17.0304 143.967 16.2479 142.656 16.2479C141.914 16.2479 141.337 16.466 140.939 16.8957C140.387 17.4943 140.429 18.2532 140.548 18.4221V24.8356H138.387V14.1678H140.435V14.527C140.434 14.634 140.463 14.739 140.519 14.8301C140.576 14.9211 140.656 14.9945 140.752 15.0417C140.848 15.0889 140.956 15.1081 141.062 15.0971C141.168 15.086 141.27 15.0451 141.354 14.9791L141.504 14.8637C141.936 14.5227 142.384 14.1689 143.237 14.1689C144.12 14.1689 147.003 14.45 147.003 18.0565V24.8356H147.002Z" fill="black"/>
<path d="M134.135 7.69666C132.935 7.69666 131.96 8.6715 131.96 9.87082C131.96 11.0701 132.935 12.045 134.135 12.045C135.334 12.045 136.309 11.0701 136.309 9.87082C136.309 8.6715 135.334 7.69666 134.135 7.69666ZM134.135 10.9034C133.566 10.9034 133.102 10.4395 133.102 9.87082C133.102 9.30216 133.566 8.83825 134.135 8.83825C134.703 8.83825 135.167 9.30216 135.167 9.87082C135.167 10.4395 134.703 10.9034 134.135 10.9034Z" fill="black"/>
<path d="M135.661 13.0253H132.489C132.173 13.0253 131.918 13.2807 131.997 13.6121V25.3701C131.918 25.6694 132.173 25.926 132.489 25.9046H135.661C135.976 25.926 136.232 25.6694 136.232 25.3541V13.5961C136.232 13.4447 136.172 13.2995 136.065 13.1925C135.958 13.0854 135.813 13.0253 135.661 13.0253ZM135.204 24.8357H133.059V14.1679H135.204V24.8357Z" fill="black"/>
<path d="M139.479 0.213806C130.027 0.213806 122.34 7.90141 122.34 17.3527C122.34 26.804 130.027 34.4916 139.479 34.4916C148.93 34.4916 156.618 26.804 156.618 17.3527C156.618 7.90141 148.93 0.213806 139.479 0.213806ZM139.479 33.35C130.658 33.35 123.481 26.1734 123.481 17.3527C123.481 8.53207 130.658 1.3554 139.479 1.3554C148.299 1.3554 155.476 8.53207 155.476 17.3527C155.476 26.1734 148.299 33.35 139.479 33.35Z" fill="black"/>
</g>
<defs>
<clipPath id="clip0_535_1566">
<rect width="34.2052" height="34.2052" fill="white" transform="translate(0.52002 0.249756)"/>
</clipPath>
<clipPath id="clip1_535_1566">
<rect width="34.2052" height="34.2052" fill="white" transform="translate(61.4482 0.249512)"/>
</clipPath>
<clipPath id="clip2_535_1566">
<rect width="34.2052" height="34.2052" fill="white" transform="translate(122.376 0.249512)"/>
</clipPath>
</defs>
</svg>
