<svg width="157" height="35" viewBox="0 0 157 35" fill="none" xmlns="http://www.w3.org/2000/svg">
<g clip-path="url(#clip0_535_1513)">
<path d="M17.4251 0.213806C7.9749 0.213806 0.285156 7.90141 0.285156 17.3527C0.285156 26.804 7.9749 34.4916 17.4251 34.4916C26.8754 34.4916 34.5651 26.804 34.5651 17.3527C34.5651 7.90141 26.8754 0.213806 17.4251 0.213806ZM17.4251 33.35C8.60449 33.35 1.42889 26.1734 1.42889 17.3527C1.42889 8.53207 8.60449 1.3554 17.4251 1.3554C26.2458 1.3554 33.4214 8.53207 33.4214 17.3527C33.4214 26.1734 26.2458 33.35 17.4251 33.35Z" fill="#009BA5"/>
<path d="M21.1666 7.73316H18.3147C14.6826 7.69682 14.2187 9.94474 14.2187 12.3776V14.1466H12.6153C12.5428 14.1369 12.4691 14.1441 12.3999 14.1675C12.3306 14.191 12.2677 14.2301 12.216 14.2818C12.1643 14.3335 12.1252 14.3964 12.1018 14.4656C12.0783 14.5349 12.0712 14.6086 12.0808 14.6811V17.8878C12.0712 17.9603 12.0783 18.034 12.1018 18.1033C12.1252 18.1725 12.1643 18.2354 12.216 18.2871C12.2677 18.3388 12.3306 18.3779 12.3999 18.4014C12.4691 18.4248 12.5428 18.4319 12.6153 18.4223H14.2187V26.4391C14.2098 26.5117 14.2176 26.5854 14.2415 26.6545C14.2654 26.7236 14.3048 26.7864 14.3567 26.8379C14.4086 26.8895 14.4715 26.9285 14.5408 26.952C14.6101 26.9755 14.6838 26.9829 14.7563 26.9736H18.0219C18.3372 27.0099 18.5927 26.7544 18.4922 26.4391L18.4943 18.4223H21.1666C21.2391 18.4319 21.3128 18.4248 21.382 18.4014C21.4513 18.3779 21.5142 18.3388 21.5659 18.2871C21.6176 18.2354 21.6567 18.1725 21.6801 18.1033C21.7036 18.034 21.7107 17.9603 21.701 17.8878V14.6811C21.7107 14.6086 21.7036 14.5349 21.6801 14.4656C21.6567 14.3964 21.6176 14.3335 21.5659 14.2818C21.5142 14.2301 21.4513 14.191 21.382 14.1675C21.3128 14.1441 21.2391 14.1369 21.1666 14.1466H18.4911L18.4943 12.5433C18.598 11.8602 18.598 11.9714 19.2319 12.0088H21.1441C21.2927 11.9757 21.4509 11.9938 21.5621 11.8859C21.6733 11.7779 21.7374 11.6304 21.7 11.4743V8.26762C21.7098 8.19521 21.7029 8.12149 21.6796 8.05223C21.6563 7.98296 21.6173 7.92001 21.5657 7.86829C21.514 7.81656 21.4512 7.77745 21.3819 7.75401C21.3127 7.73058 21.239 7.72344 21.1666 7.73316ZM20.5947 10.88L19.2543 10.8287C17.5943 10.8287 17.4553 11.7298 17.4553 12.6523L17.4511 14.6789C17.4509 14.754 17.4656 14.8283 17.4942 14.8977C17.5228 14.9671 17.5648 15.0301 17.6179 15.0833C17.6709 15.1364 17.7339 15.1785 17.8032 15.2073C17.8725 15.236 17.9468 15.2508 18.0219 15.2508H20.6321V17.3159H18.024C17.8725 17.3159 17.7272 17.376 17.62 17.4831C17.5128 17.5901 17.4524 17.7353 17.4521 17.8867L17.4511 25.9046H15.2876V17.8878C15.2876 17.5725 15.0727 17.317 14.7563 17.317H13.1498V15.2519H14.7563C14.8313 15.252 14.9056 15.2373 14.975 15.2087C15.0443 15.1801 15.1073 15.1381 15.1604 15.0851C15.2673 14.9772 15.2865 14.8318 15.2865 14.68V12.3765C15.2865 9.98001 15.7707 8.83842 18.3137 8.83842H20.5937V10.88H20.5947Z" fill="#009BA5"/>
</g>
<g clip-path="url(#clip1_535_1513)">
<path d="M78.3529 0.213806C68.9026 0.213806 61.2129 7.90141 61.2129 17.3527C61.2129 26.804 68.9026 34.4916 78.3529 34.4916C87.8031 34.4916 95.4929 26.804 95.4929 17.3527C95.4929 7.90141 87.8031 0.213806 78.3529 0.213806ZM78.3529 33.35C69.5322 33.35 62.3566 26.1734 62.3566 17.3527C62.3566 8.53207 69.5322 1.3554 78.3529 1.3554C87.1735 1.3554 94.3491 8.53207 94.3491 17.3527C94.3491 26.1734 87.1735 33.35 78.3529 33.35Z" fill="black"/>
<path d="M87.7538 12.0578C87.8724 11.8384 87.9701 11.6083 88.0456 11.3705C88.0806 11.2603 88.0813 11.142 88.0477 11.0313C88.014 10.9206 87.9476 10.8227 87.8571 10.7506C87.7667 10.6785 87.6565 10.6354 87.5411 10.6272C87.4257 10.619 87.3106 10.646 87.2108 10.7046C86.6631 11.03 86.0702 11.2724 85.4514 11.424C84.7002 10.746 83.7247 10.3702 82.7128 10.369C82.1631 10.3694 81.6191 10.4808 81.1135 10.6965C80.6079 10.9123 80.1511 11.2279 79.7704 11.6245C79.3897 12.021 79.093 12.4904 78.898 13.0044C78.7031 13.5184 78.614 14.0665 78.636 14.6157C76.2321 14.3131 74.0369 13.0967 72.5058 11.2187C72.4472 11.1476 72.3722 11.0917 72.2873 11.0557C72.2024 11.0197 72.11 11.0048 72.0181 11.0121C71.9262 11.0195 71.8374 11.0489 71.7593 11.0979C71.6812 11.1469 71.6161 11.214 71.5695 11.2936C71.2189 11.8953 71.0283 12.5768 71.016 13.2731C71.0036 13.9694 71.1699 14.6572 71.4989 15.271C71.4182 15.2846 71.3407 15.3129 71.2702 15.3544C71.1837 15.4095 71.1126 15.4855 71.0633 15.5753C71.0139 15.6652 70.988 15.766 70.988 15.8685C70.988 17.0817 71.5278 18.1955 72.3979 18.9523L72.3604 18.9897C72.2948 19.064 72.2496 19.1542 72.2293 19.2513C72.2091 19.3484 72.2145 19.4491 72.245 19.5434C72.4264 20.1094 72.7294 20.629 73.1326 21.0656C73.5359 21.5023 74.0297 21.8456 74.5795 22.0714C73.4503 22.6223 72.1866 22.8371 70.9388 22.6903C70.8105 22.6772 70.6816 22.7071 70.5721 22.7752C70.4626 22.8432 70.3788 22.9457 70.3338 23.0666C70.2906 23.1883 70.2898 23.321 70.3315 23.4433C70.3732 23.5655 70.455 23.6701 70.5636 23.74C72.26 24.8287 74.2334 25.4071 76.2491 25.4064C82.855 25.4064 86.8036 20.0405 86.8036 14.853L86.8025 14.6777C87.4427 14.1779 87.9988 13.5789 88.4497 12.9033C88.518 12.8012 88.5515 12.6798 88.5455 12.5571C88.5394 12.4344 88.4939 12.317 88.4158 12.2221C88.3378 12.1272 88.2312 12.06 88.112 12.0305C87.9928 12.0009 87.8672 12.0105 87.7538 12.0578ZM85.8886 13.9338C85.811 13.9896 85.7487 14.0639 85.7072 14.15C85.6658 14.236 85.6465 14.3311 85.6513 14.4265C85.6577 14.5676 85.6609 14.7109 85.6609 14.852C85.6609 19.4782 82.141 24.2637 76.2502 24.2637C75.1996 24.2642 74.1564 24.0879 73.1643 23.7421C74.3525 23.5144 75.4687 23.0049 76.4191 22.2563C76.5116 22.1834 76.5793 22.0836 76.613 21.9707C76.6467 21.8578 76.6447 21.7373 76.6073 21.6256C76.5698 21.5138 76.4988 21.4164 76.4039 21.3466C76.309 21.2768 76.1948 21.238 76.077 21.2355C75.6162 21.2267 75.1638 21.1097 74.7564 20.894C74.3491 20.6782 73.9981 20.3697 73.7319 19.9934C74.0023 19.9753 74.2674 19.9304 74.525 19.8609C74.6497 19.8275 74.7594 19.7529 74.8362 19.6492C74.913 19.5454 74.9523 19.4187 74.9479 19.2897C74.9434 19.1608 74.8954 19.0371 74.8116 18.9389C74.7278 18.8408 74.6132 18.7739 74.4865 18.7492C73.966 18.6433 73.484 18.3979 73.0922 18.0392C72.7004 17.6806 72.4135 17.2221 72.2621 16.7129C72.5464 16.7846 72.8382 16.8262 73.1301 16.8359C73.3813 16.8348 73.6143 16.6809 73.6923 16.4393C73.7703 16.1977 73.6784 15.9316 73.4657 15.7905C72.9627 15.4554 72.5755 14.9732 72.3568 14.4098C72.1382 13.8464 72.0987 13.2292 72.2439 12.6425C74.1007 14.5477 76.6078 15.6821 79.2645 15.8193C79.4527 15.8204 79.6173 15.7531 79.7317 15.6152C79.846 15.4773 79.8899 15.2945 79.8492 15.1192C79.703 14.4896 79.7684 13.8294 80.0353 13.2407C80.3021 12.652 80.7556 12.1677 81.3254 11.8627C81.8953 11.5577 82.5498 11.449 83.1876 11.5535C83.8254 11.6579 84.4111 11.9697 84.8539 12.4405C84.9202 12.5113 85.0035 12.5641 85.0959 12.5938C85.1883 12.6235 85.2867 12.6293 85.3819 12.6105C85.5583 12.5752 85.7325 12.5346 85.9046 12.4875C85.827 12.5456 85.7464 12.5995 85.663 12.6489C85.5522 12.7168 85.4678 12.8205 85.4237 12.9428C85.3797 13.0651 85.3786 13.1987 85.4207 13.3217C85.4627 13.4447 85.5455 13.5497 85.6552 13.6194C85.7649 13.689 85.8951 13.7193 86.0243 13.705L86.2189 13.6804C86.1117 13.7687 86.0016 13.8532 85.8886 13.9338Z" fill="black"/>
</g>
<g clip-path="url(#clip2_535_1513)">
<path d="M143.039 13.0262C142.314 13.0262 141.778 13.209 141.358 13.4399C141.29 13.2005 141.069 13.0252 140.808 13.0776H137.619C137.303 13.0252 137.048 13.2806 137.145 13.612V25.37C137.048 25.6693 137.303 25.9259 137.619 25.9045H140.808C141.123 25.9259 141.379 25.6693 141.379 25.354L141.378 18.2479C141.377 18.2447 141.365 17.9048 141.58 17.6707C141.752 17.4847 142.048 17.3895 142.457 17.3895C143.139 17.3895 143.443 17.6685 143.556 18.2928V25.354C143.444 25.6693 143.7 25.9259 144.015 25.9045H147.377C147.692 25.9259 147.947 25.6693 147.834 25.354V18.0555C147.946 14.3442 145.303 13.0262 143.039 13.0262ZM146.805 24.8356H144.586V18.2928C144.586 17.0304 143.77 16.2479 142.459 16.2479C141.717 16.2479 141.14 16.466 140.742 16.8957C140.189 17.4943 140.232 18.2532 140.351 18.4221V24.8356H138.189V14.1678H140.237V14.527C140.237 14.634 140.266 14.739 140.322 14.8301C140.378 14.9211 140.459 14.9945 140.555 15.0417C140.651 15.0889 140.758 15.1081 140.865 15.0971C140.971 15.086 141.072 15.0451 141.157 14.9791L141.306 14.8637C141.739 14.5227 142.187 14.1689 143.04 14.1689C143.923 14.1689 146.806 14.45 146.806 18.0565V24.8356H146.805Z" fill="black"/>
<path d="M133.937 7.69666C132.738 7.69666 131.763 8.6715 131.763 9.87082C131.763 11.0701 132.738 12.045 133.937 12.045C135.136 12.045 136.111 11.0701 136.111 9.87082C136.111 8.6715 135.136 7.69666 133.937 7.69666ZM133.937 10.9034C133.368 10.9034 132.904 10.4395 132.904 9.87082C132.904 9.30216 133.368 8.83825 133.937 8.83825C134.506 8.83825 134.969 9.30216 134.969 9.87082C134.969 10.4395 134.506 10.9034 133.937 10.9034Z" fill="black"/>
<path d="M135.463 13.0253H132.291C131.976 13.0253 131.72 13.2807 131.799 13.6121V25.3701C131.72 25.6694 131.976 25.926 132.291 25.9046H135.463C135.779 25.926 136.034 25.6694 136.034 25.3541V13.5961C136.034 13.4447 135.974 13.2995 135.867 13.1925C135.76 13.0854 135.615 13.0253 135.463 13.0253ZM135.006 24.8357H132.862V14.1679H135.006V24.8357Z" fill="black"/>
<path d="M139.281 0.213806C129.83 0.213806 122.142 7.90141 122.142 17.3527C122.142 26.804 129.83 34.4916 139.281 34.4916C148.732 34.4916 156.42 26.804 156.42 17.3527C156.42 7.90141 148.732 0.213806 139.281 0.213806ZM139.281 33.35C130.46 33.35 123.284 26.1734 123.284 17.3527C123.284 8.53207 130.46 1.3554 139.281 1.3554C148.102 1.3554 155.278 8.53207 155.278 17.3527C155.278 26.1734 148.102 33.35 139.281 33.35Z" fill="black"/>
</g>
<defs>
<clipPath id="clip0_535_1513">
<rect width="34.2052" height="34.2052" fill="white" transform="translate(0.322266 0.249756)"/>
</clipPath>
<clipPath id="clip1_535_1513">
<rect width="34.2052" height="34.2052" fill="white" transform="translate(61.25 0.249512)"/>
</clipPath>
<clipPath id="clip2_535_1513">
<rect width="34.2052" height="34.2052" fill="white" transform="translate(122.178 0.249512)"/>
</clipPath>
</defs>
</svg>
