<svg width="178" height="39" viewBox="0 0 178 39" fill="none" xmlns="http://www.w3.org/2000/svg">
<g clip-path="url(#clip0_573_2074)">
<path d="M19.5 -0.0415039C8.72503 -0.0415039 -0.0426636 8.72375 -0.0426636 19.4999C-0.0426636 30.2761 8.72503 39.0414 19.5 39.0414C30.275 39.0414 39.0427 30.2761 39.0427 19.4999C39.0427 8.72375 30.275 -0.0415039 19.5 -0.0415039ZM19.5 37.7397C9.44287 37.7397 1.2614 29.5571 1.2614 19.4999C1.2614 9.44281 9.44287 1.26012 19.5 1.26012C29.5571 1.26012 37.7386 9.44281 37.7386 19.4999C37.7386 29.5571 29.5571 37.7397 19.5 37.7397Z" fill="#009BA5"/>
<path d="M23.7656 8.53118H20.514C16.3727 8.48974 15.8438 11.0528 15.8438 13.8266V15.8437H14.0156C13.933 15.8326 13.849 15.8408 13.77 15.8675C13.691 15.8942 13.6193 15.9388 13.5603 15.9978C13.5014 16.0567 13.4568 16.1284 13.4301 16.2074C13.4034 16.2864 13.3952 16.3704 13.4063 16.4531V20.1093C13.3952 20.1919 13.4034 20.276 13.4301 20.355C13.4568 20.4339 13.5014 20.5057 13.5603 20.5646C13.6193 20.6235 13.691 20.6681 13.77 20.6948C13.849 20.7216 13.933 20.7297 14.0156 20.7187H15.8438V29.8593C15.8336 29.9421 15.8425 30.0261 15.8698 30.1049C15.8971 30.1837 15.942 30.2552 16.0011 30.314C16.0603 30.3728 16.1321 30.4173 16.2111 30.4441C16.29 30.4709 16.3741 30.4793 16.4568 30.4687H20.1801C20.5396 30.5101 20.8309 30.2188 20.7163 29.8593L20.7188 20.7187H23.7656C23.8483 20.7297 23.9323 20.7216 24.0113 20.6948C24.0903 20.6681 24.162 20.6235 24.2209 20.5646C24.2799 20.5057 24.3244 20.4339 24.3512 20.355C24.3779 20.276 24.3861 20.1919 24.375 20.1093V16.4531C24.3861 16.3704 24.3779 16.2864 24.3512 16.2074C24.3244 16.1284 24.2799 16.0567 24.2209 15.9978C24.162 15.9388 24.0903 15.8942 24.0113 15.8675C23.9323 15.8408 23.8483 15.8326 23.7656 15.8437H20.7151L20.7188 14.0156C20.837 13.2368 20.837 13.3635 21.5597 13.4062H23.74C23.9095 13.3684 24.0898 13.3891 24.2166 13.266C24.3433 13.1429 24.4165 12.9747 24.3738 12.7968V9.14055C24.385 9.05799 24.3771 8.97395 24.3505 8.89497C24.3239 8.81599 24.2795 8.74422 24.2206 8.68524C24.1618 8.62626 24.0901 8.58168 24.0112 8.55495C23.9323 8.52823 23.8482 8.52009 23.7656 8.53118ZM23.1136 12.1192L21.5853 12.0607C19.6926 12.0607 19.5341 13.0881 19.5341 14.1399L19.5293 16.4506C19.5291 16.5362 19.5458 16.6209 19.5785 16.7C19.6111 16.7791 19.659 16.851 19.7195 16.9116C19.7799 16.9722 19.8517 17.0202 19.9307 17.053C20.0098 17.0858 20.0945 17.1026 20.1801 17.1026H23.1563V19.4573H20.1825C20.0098 19.4573 19.8441 19.5258 19.7219 19.6478C19.5996 19.7698 19.5308 19.9354 19.5305 20.1081L19.5293 29.2499H17.0625V20.1093C17.0625 19.7498 16.8175 19.4585 16.4568 19.4585H14.625V17.1039H16.4568C16.5423 17.104 16.627 17.0873 16.7061 17.0546C16.7851 17.022 16.8569 16.9741 16.9175 16.9137C17.0394 16.7906 17.0613 16.6249 17.0613 16.4518V13.8254C17.0613 11.093 17.6134 9.79136 20.5128 9.79136H23.1124V12.1192H23.1136Z" fill="#009BA5"/>
</g>
<g clip-path="url(#clip1_573_2074)">
<path d="M88.9687 -0.0415039C78.1938 -0.0415039 69.4261 8.72375 69.4261 19.4999C69.4261 30.2761 78.1938 39.0414 88.9687 39.0414C99.7437 39.0414 108.511 30.2761 108.511 19.4999C108.511 8.72375 99.7437 -0.0415039 88.9687 -0.0415039ZM88.9687 37.7397C78.9116 37.7397 70.7301 29.5571 70.7301 19.4999C70.7301 9.44281 78.9116 1.26012 88.9687 1.26012C99.0259 1.26012 107.207 9.44281 107.207 19.4999C107.207 29.5571 99.0259 37.7397 88.9687 37.7397Z" fill="black"/>
<path d="M99.6865 13.4622C99.8216 13.212 99.933 12.9496 100.019 12.6786C100.059 12.5529 100.06 12.418 100.021 12.2918C99.9831 12.1656 99.9074 12.054 99.8043 11.9718C99.7012 11.8895 99.5755 11.8405 99.444 11.8311C99.3124 11.8217 99.1811 11.8525 99.0673 11.9193C98.4428 12.2903 97.7668 12.5667 97.0613 12.7395C96.2048 11.9666 95.0925 11.5381 93.9388 11.5366C93.3121 11.5371 92.6918 11.6641 92.1153 11.9101C91.5388 12.1561 91.0179 12.516 90.5839 12.9681C90.1498 13.4203 89.8115 13.9554 89.5893 14.5415C89.367 15.1275 89.2654 15.7524 89.2905 16.3787C86.5496 16.0337 84.0467 14.6467 82.301 12.5055C82.2341 12.4244 82.1486 12.3606 82.0518 12.3196C81.955 12.2786 81.8498 12.2616 81.745 12.2699C81.6402 12.2783 81.5389 12.3119 81.4499 12.3677C81.3608 12.4236 81.2865 12.5001 81.2334 12.5908C80.8337 13.2769 80.6164 14.054 80.6023 14.8478C80.5882 15.6417 80.7778 16.426 81.1529 17.1258C81.0609 17.1413 80.9725 17.1736 80.8921 17.2209C80.7936 17.2837 80.7125 17.3703 80.6562 17.4728C80.6 17.5753 80.5705 17.6902 80.5704 17.8071C80.5704 19.1904 81.1858 20.4603 82.1779 21.3232L82.1353 21.3658C82.0604 21.4506 82.0088 21.5533 81.9857 21.664C81.9627 21.7748 81.9688 21.8896 82.0036 21.9972C82.2105 22.6425 82.5559 23.2349 83.0157 23.7327C83.4755 24.2306 84.0385 24.622 84.6654 24.8795C83.3779 25.5076 81.937 25.7525 80.5143 25.5852C80.3681 25.5702 80.221 25.6043 80.0962 25.6819C79.9714 25.7595 79.8758 25.8764 79.8245 26.0142C79.7752 26.1529 79.7743 26.3043 79.8219 26.4437C79.8694 26.583 79.9627 26.7023 80.0865 26.782C82.0207 28.0233 84.2708 28.6828 86.5691 28.682C94.1009 28.682 98.603 22.5639 98.603 16.6493L98.6018 16.4494C99.3317 15.8795 99.9658 15.1965 100.48 14.4263C100.558 14.3098 100.596 14.1714 100.589 14.0315C100.582 13.8916 100.53 13.7577 100.441 13.6495C100.352 13.5414 100.231 13.4648 100.095 13.431C99.9589 13.3973 99.8157 13.4082 99.6865 13.4622ZM97.5597 15.6012C97.4713 15.6647 97.4002 15.7495 97.3529 15.8476C97.3057 15.9458 97.2838 16.0542 97.2892 16.163C97.2965 16.3239 97.3002 16.4872 97.3002 16.6481C97.3002 21.9228 93.2868 27.3792 86.5703 27.3792C85.3724 27.3797 84.1829 27.1786 83.0518 26.7844C84.4065 26.5248 85.6792 25.9438 86.7628 25.0903C86.8683 25.0072 86.9456 24.8934 86.984 24.7647C87.0224 24.636 87.0201 24.4985 86.9774 24.3712C86.9347 24.2438 86.8537 24.1327 86.7455 24.0531C86.6373 23.9735 86.5071 23.9293 86.3728 23.9264C85.8474 23.9164 85.3316 23.783 84.8671 23.537C84.4026 23.291 84.0025 22.9393 83.6989 22.5102C84.0073 22.4895 84.3095 22.4383 84.6032 22.3591C84.7454 22.3211 84.8704 22.236 84.958 22.1177C85.0456 21.9994 85.0905 21.855 85.0854 21.7079C85.0803 21.5609 85.0255 21.4199 84.93 21.3079C84.8344 21.196 84.7038 21.1197 84.5593 21.0916C83.9658 20.9709 83.4163 20.6911 82.9696 20.2821C82.5228 19.8732 82.1957 19.3505 82.0231 18.7699C82.3473 18.8516 82.68 18.8991 83.0128 18.9101C83.2992 18.9088 83.5648 18.7333 83.6538 18.4579C83.7428 18.1825 83.638 17.879 83.3954 17.7181C82.822 17.3361 82.3804 16.7863 82.1311 16.1439C81.8818 15.5015 81.8368 14.7978 82.0024 14.1289C84.1194 16.3011 86.978 17.5946 90.0072 17.751C90.2217 17.7522 90.4093 17.6755 90.5398 17.5182C90.6702 17.361 90.7201 17.1526 90.6738 16.9527C90.5071 16.2349 90.5817 15.4821 90.8859 14.8109C91.1902 14.1397 91.7072 13.5875 92.3569 13.2398C93.0067 12.892 93.7529 12.7681 94.4801 12.8872C95.2074 13.0063 95.8751 13.3617 96.38 13.8986C96.4557 13.9793 96.5506 14.0394 96.656 14.0733C96.7613 14.1072 96.8735 14.1138 96.9821 14.0923C97.1832 14.0521 97.3818 14.0058 97.578 13.9522C97.4896 14.0184 97.3976 14.0798 97.3026 14.1362C97.1762 14.2136 97.08 14.3318 97.0297 14.4712C96.9795 14.6107 96.9783 14.7631 97.0262 14.9033C97.0742 15.0435 97.1685 15.1632 97.2937 15.2427C97.4188 15.3221 97.5672 15.3566 97.7145 15.3403L97.9363 15.3123C97.8142 15.4129 97.6886 15.5093 97.5597 15.6012Z" fill="black"/>
</g>
<g clip-path="url(#clip2_573_2074)">
<path d="M162.721 14.5664C161.895 14.5664 161.283 14.7748 160.804 15.0381C160.728 14.7651 160.475 14.5652 160.178 14.6249H156.541C156.182 14.5652 155.89 14.8565 156.001 15.2343V28.6405C155.89 28.9818 156.182 29.2743 156.541 29.2499H160.178C160.537 29.2743 160.829 28.9818 160.829 28.6223L160.827 20.52C160.826 20.5163 160.813 20.1288 161.058 19.8619C161.254 19.6498 161.592 19.5413 162.058 19.5413C162.836 19.5413 163.182 19.8594 163.311 20.5712V28.6223C163.183 28.9818 163.475 29.2743 163.834 29.2499H167.667C168.027 29.2743 168.318 28.9818 168.189 28.6223V20.3006C168.317 16.0691 165.303 14.5664 162.721 14.5664ZM167.015 28.0312H164.485V20.5712C164.485 19.1318 163.555 18.2397 162.06 18.2397C161.214 18.2397 160.556 18.4883 160.102 18.9783C159.472 19.6608 159.521 20.5261 159.656 20.7187V28.0312H157.192V15.868H159.527V16.2775C159.526 16.3995 159.56 16.5193 159.624 16.6231C159.688 16.7269 159.78 16.8106 159.889 16.8644C159.999 16.9182 160.121 16.9401 160.242 16.9275C160.364 16.9149 160.479 16.8683 160.575 16.7931L160.746 16.6614C161.239 16.2727 161.75 15.8693 162.723 15.8693C163.729 15.8693 167.016 16.1898 167.016 20.3018V28.0312H167.015Z" fill="black"/>
<path d="M152.344 8.48975C150.976 8.48975 149.865 9.60125 149.865 10.9687C149.865 12.3361 150.976 13.4476 152.344 13.4476C153.711 13.4476 154.823 12.3361 154.823 10.9687C154.823 9.60125 153.711 8.48975 152.344 8.48975ZM152.344 12.146C151.695 12.146 151.166 11.6171 151.166 10.9687C151.166 10.3203 151.695 9.79137 152.344 9.79137C152.992 9.79137 153.521 10.3203 153.521 10.9687C153.521 11.6171 152.992 12.146 152.344 12.146Z" fill="black"/>
<path d="M154.084 14.5654H150.467C150.107 14.5654 149.816 14.8567 149.906 15.2345V28.6408C149.816 28.982 150.107 29.2745 150.467 29.2501H154.084C154.444 29.2745 154.735 28.982 154.735 28.6225V15.2162C154.735 15.0436 154.666 14.8781 154.544 14.756C154.422 14.634 154.257 14.5654 154.084 14.5654ZM153.562 28.0314H151.118V15.8683H153.562V28.0314Z" fill="black"/>
<path d="M158.437 -0.0415039C147.661 -0.0415039 138.896 8.72375 138.896 19.4999C138.896 30.2761 147.661 39.0414 158.437 39.0414C169.214 39.0414 177.979 30.2761 177.979 19.4999C177.979 8.72375 169.214 -0.0415039 158.437 -0.0415039ZM158.437 37.7397C148.38 37.7397 140.198 29.5571 140.198 19.4999C140.198 9.44281 148.38 1.26012 158.437 1.26012C168.495 1.26012 176.677 9.44281 176.677 19.4999C176.677 29.5571 168.495 37.7397 158.437 37.7397Z" fill="black"/>
</g>
<defs>
<clipPath id="clip0_573_2074">
<rect width="39" height="39" fill="white"/>
</clipPath>
<clipPath id="clip1_573_2074">
<rect width="39" height="39" fill="white" transform="translate(69.4688)"/>
</clipPath>
<clipPath id="clip2_573_2074">
<rect width="39" height="39" fill="white" transform="translate(138.938)"/>
</clipPath>
</defs>
</svg>
