<svg width="178" height="39" viewBox="0 0 178 39" fill="none" xmlns="http://www.w3.org/2000/svg">
<g clip-path="url(#clip0_498_1073)">
<path d="M19.4997 -0.0410156C8.72472 -0.0410156 -0.0429688 8.72423 -0.0429688 19.5004C-0.0429688 30.2766 8.72472 39.0419 19.4997 39.0419C30.2747 39.0419 39.0423 30.2766 39.0423 19.5004C39.0423 8.72423 30.2747 -0.0410156 19.4997 -0.0410156ZM19.4997 37.7402C9.44256 37.7402 1.26109 29.5575 1.26109 19.5004C1.26109 9.4433 9.44256 1.26061 19.4997 1.26061C29.5568 1.26061 37.7383 9.4433 37.7383 19.5004C37.7383 29.5575 29.5568 37.7402 19.4997 37.7402Z" fill="#009BA5"/>
<path d="M23.7655 8.53215H20.5139C16.3726 8.49072 15.8436 11.0537 15.8436 13.8276V15.8447H14.0155C13.9329 15.8336 13.8488 15.8418 13.7699 15.8685C13.6909 15.8952 13.6192 15.9398 13.5602 15.9987C13.5013 16.0577 13.4567 16.1294 13.43 16.2084C13.4033 16.2873 13.3951 16.3714 13.4061 16.454V20.1103C13.3951 20.1929 13.4033 20.277 13.43 20.3559C13.4567 20.4349 13.5013 20.5066 13.5602 20.5656C13.6192 20.6245 13.6909 20.6691 13.7699 20.6958C13.8488 20.7225 13.9329 20.7307 14.0155 20.7197H15.8436V29.8603C15.8335 29.9431 15.8424 30.0271 15.8697 30.1059C15.8969 30.1847 15.9419 30.2562 16.001 30.315C16.0602 30.3738 16.132 30.4183 16.2109 30.4451C16.2899 30.4719 16.374 30.4803 16.4567 30.4697H20.18C20.5395 30.5111 20.8308 30.2198 20.7162 29.8603L20.7186 20.7197H23.7655C23.8481 20.7307 23.9322 20.7225 24.0112 20.6958C24.0901 20.6691 24.1619 20.6245 24.2208 20.5656C24.2798 20.5066 24.3243 20.4349 24.351 20.3559C24.3778 20.277 24.3859 20.1929 24.3749 20.1103V16.454C24.3859 16.3714 24.3778 16.2873 24.351 16.2084C24.3243 16.1294 24.2798 16.0577 24.2208 15.9987C24.1619 15.9398 24.0901 15.8952 24.0112 15.8685C23.9322 15.8418 23.8481 15.8336 23.7655 15.8447H20.715L20.7186 14.0165C20.8369 13.2377 20.8369 13.3645 21.5596 13.4072H23.7399C23.9093 13.3694 24.0897 13.3901 24.2165 13.267C24.3432 13.1439 24.4163 12.9757 24.3737 12.7978V9.14153C24.3849 9.05897 24.377 8.97492 24.3504 8.89595C24.3238 8.81697 24.2794 8.7452 24.2205 8.68622C24.1617 8.62724 24.09 8.58265 24.0111 8.55593C23.9321 8.52921 23.8481 8.52107 23.7655 8.53215ZM23.1135 12.1202L21.5852 12.0617C19.6925 12.0617 19.534 13.0891 19.534 14.1408L19.5291 16.4516C19.529 16.5372 19.5457 16.6219 19.5783 16.701C19.611 16.7801 19.6589 16.852 19.7193 16.9126C19.7798 16.9731 19.8516 17.0212 19.9306 17.054C20.0097 17.0867 20.0944 17.1036 20.18 17.1036H23.1561V19.4582H20.1824C20.0097 19.4582 19.844 19.5268 19.7218 19.6488C19.5995 19.7708 19.5307 19.9363 19.5304 20.1091L19.5291 29.2509H17.0624V20.1103C17.0624 19.7507 16.8174 19.4595 16.4567 19.4595H14.6249V17.1048H16.4567C16.5422 17.105 16.6269 17.0882 16.7059 17.0556C16.785 17.023 16.8568 16.9751 16.9174 16.9147C17.0392 16.7916 17.0612 16.6259 17.0612 16.4528V13.8264C17.0612 11.094 17.6133 9.79234 20.5127 9.79234H23.1123V12.1202H23.1135Z" fill="#009BA5"/>
</g>
<g clip-path="url(#clip1_498_1073)">
<path d="M88.9689 -0.0410156C78.194 -0.0410156 69.4263 8.72423 69.4263 19.5004C69.4263 30.2766 78.194 39.0419 88.9689 39.0419C99.7439 39.0419 108.512 30.2766 108.512 19.5004C108.512 8.72423 99.7439 -0.0410156 88.9689 -0.0410156ZM88.9689 37.7402C78.9118 37.7402 70.7303 29.5575 70.7303 19.5004C70.7303 9.4433 78.9118 1.26061 88.9689 1.26061C99.0261 1.26061 107.208 9.4433 107.208 19.5004C107.208 29.5575 99.0261 37.7402 88.9689 37.7402Z" fill="black"/>
<path d="M99.6867 13.4627C99.8219 13.2125 99.9333 12.9501 100.019 12.6791C100.059 12.5533 100.06 12.4185 100.022 12.2923C99.9834 12.1661 99.9076 12.0545 99.8045 11.9722C99.7014 11.89 99.5758 11.8409 99.4442 11.8316C99.3126 11.8222 99.1813 11.853 99.0676 11.9198C98.4431 12.2908 97.7671 12.5672 97.0615 12.74C96.2051 11.9671 95.0928 11.5385 93.9391 11.5371C93.3123 11.5376 92.6921 11.6646 92.1156 11.9106C91.5391 12.1566 91.0182 12.5164 90.5841 12.9686C90.1501 13.4208 89.8118 13.9559 89.5895 14.542C89.3673 15.128 89.2657 15.7529 89.2908 16.3792C86.5498 16.0341 84.0469 14.6472 82.3012 12.506C82.2344 12.4249 82.1489 12.3611 82.0521 12.3201C81.9553 12.2791 81.85 12.262 81.7452 12.2704C81.6404 12.2788 81.5392 12.3123 81.4501 12.3682C81.361 12.4241 81.2868 12.5006 81.2336 12.5913C80.8339 13.2774 80.6166 14.0544 80.6026 14.8483C80.5885 15.6422 80.778 16.4265 81.1532 17.1263C81.0612 17.1418 80.9728 17.174 80.8924 17.2214C80.7938 17.2842 80.7127 17.3708 80.6565 17.4733C80.6002 17.5757 80.5707 17.6907 80.5706 17.8076C80.5706 19.1909 81.1861 20.4608 82.1782 21.3237L82.1355 21.3663C82.0606 21.4511 82.0091 21.5538 81.986 21.6645C81.9629 21.7752 81.9691 21.89 82.0039 21.9976C82.2107 22.643 82.5561 23.2354 83.0159 23.7332C83.4757 24.2311 84.0387 24.6225 84.6656 24.88C83.3781 25.5081 81.9373 25.753 80.5146 25.5856C80.3683 25.5707 80.2213 25.6048 80.0964 25.6824C79.9716 25.76 79.876 25.8769 79.8247 26.0146C79.7755 26.1534 79.7746 26.3048 79.8221 26.4442C79.8697 26.5835 79.9629 26.7027 80.0868 26.7825C82.0209 28.0238 84.2711 28.6833 86.5693 28.6825C94.1012 28.6825 98.6032 22.5644 98.6032 16.6498L98.602 16.4499C99.332 15.88 99.966 15.197 100.48 14.4268C100.558 14.3103 100.596 14.1719 100.589 14.032C100.582 13.8921 100.531 13.7582 100.442 13.65C100.353 13.5419 100.231 13.4653 100.095 13.4315C99.9592 13.3978 99.816 13.4087 99.6867 13.4627ZM97.56 15.6016C97.4716 15.6652 97.4005 15.75 97.3532 15.8481C97.3059 15.9463 97.284 16.0547 97.2894 16.1635C97.2967 16.3244 97.3004 16.4877 97.3004 16.6485C97.3004 21.9233 93.2871 27.3796 86.5705 27.3796C85.3726 27.3802 84.1832 27.1791 83.052 26.7849C84.4068 26.5253 85.6794 25.9443 86.7631 25.0908C86.8686 25.0077 86.9458 24.8939 86.9842 24.7652C87.0226 24.6365 87.0203 24.499 86.9776 24.3716C86.9349 24.2443 86.854 24.1332 86.7458 24.0536C86.6375 23.974 86.5074 23.9297 86.3731 23.9269C85.8476 23.9169 85.3318 23.7835 84.8673 23.5375C84.4029 23.2915 84.0027 22.9398 83.6992 22.5107C84.0075 22.49 84.3097 22.4388 84.6035 22.3596C84.7456 22.3216 84.8707 22.2365 84.9582 22.1182C85.0458 21.9999 85.0907 21.8555 85.0856 21.7084C85.0805 21.5613 85.0258 21.4203 84.9302 21.3084C84.8347 21.1965 84.704 21.1202 84.5596 21.0921C83.9661 20.9714 83.4166 20.6916 82.9698 20.2826C82.5231 19.8737 82.1959 19.3509 82.0234 18.7704C82.3476 18.852 82.6803 18.8996 83.013 18.9105C83.2994 18.9093 83.5651 18.7338 83.6541 18.4584C83.743 18.183 83.6382 17.8795 83.3957 17.7186C82.8222 17.3365 82.3807 16.7868 82.1314 16.1444C81.882 15.502 81.8371 14.7983 82.0027 14.1294C84.1197 16.3016 86.9783 17.5951 90.0074 17.7515C90.2219 17.7527 90.4096 17.676 90.54 17.5187C90.6704 17.3615 90.7204 17.1531 90.6741 16.9532C90.5074 16.2354 90.5819 15.4826 90.8862 14.8114C91.1904 14.1402 91.7074 13.588 92.3572 13.2402C93.0069 12.8925 93.7531 12.7686 94.4804 12.8877C95.2076 13.0067 95.8754 13.3622 96.3802 13.899C96.4559 13.9798 96.5509 14.0399 96.6562 14.0738C96.7615 14.1077 96.8738 14.1143 96.9823 14.0928C97.1834 14.0526 97.3821 14.0063 97.5783 13.9527C97.4898 14.0189 97.3979 14.0803 97.3028 14.1367C97.1765 14.2141 97.0802 14.3323 97.03 14.4717C96.9798 14.6112 96.9785 14.7635 97.0265 14.9038C97.0745 15.044 97.1688 15.1637 97.2939 15.2431C97.419 15.3226 97.5675 15.357 97.7148 15.3408L97.9366 15.3128C97.8144 15.4134 97.6888 15.5098 97.56 15.6016Z" fill="black"/>
</g>
<g clip-path="url(#clip2_498_1073)">
<path d="M162.721 14.5664C161.895 14.5664 161.283 14.7748 160.804 15.0381C160.727 14.7651 160.475 14.5652 160.178 14.6249H156.541C156.181 14.5652 155.89 14.8565 156.001 15.2343V28.6405C155.89 28.9818 156.181 29.2743 156.541 29.2499H160.178C160.537 29.2743 160.828 28.9818 160.828 28.6223L160.827 20.52C160.826 20.5163 160.813 20.1288 161.058 19.8619C161.254 19.6498 161.591 19.5413 162.058 19.5413C162.836 19.5413 163.182 19.8594 163.311 20.5712V28.6223C163.183 28.9818 163.474 29.2743 163.834 29.2499H167.667C168.026 29.2743 168.318 28.9818 168.188 28.6223V20.3006C168.316 16.0691 165.302 14.5664 162.721 14.5664ZM167.015 28.0312H164.485V20.5712C164.485 19.1318 163.555 18.2397 162.059 18.2397C161.214 18.2397 160.555 18.4883 160.102 18.9783C159.472 19.6608 159.521 20.5261 159.656 20.7187V28.0312H157.192V15.868H159.527V16.2775C159.526 16.3995 159.559 16.5193 159.623 16.6231C159.687 16.7269 159.78 16.8106 159.889 16.8644C159.998 16.9182 160.121 16.9401 160.242 16.9275C160.364 16.9149 160.479 16.8683 160.575 16.7931L160.746 16.6614C161.239 16.2727 161.75 15.8693 162.722 15.8693C163.729 15.8693 167.016 16.1898 167.016 20.3018V28.0312H167.015Z" fill="black"/>
<path d="M152.344 8.49023C150.976 8.49023 149.865 9.60173 149.865 10.9692C149.865 12.3366 150.976 13.4481 152.344 13.4481C153.711 13.4481 154.823 12.3366 154.823 10.9692C154.823 9.60173 153.711 8.49023 152.344 8.49023ZM152.344 12.1465C151.695 12.1465 151.166 11.6175 151.166 10.9692C151.166 10.3208 151.695 9.79186 152.344 9.79186C152.992 9.79186 153.521 10.3208 153.521 10.9692C153.521 11.6175 152.992 12.1465 152.344 12.1465Z" fill="black"/>
<path d="M154.084 14.5654H150.467C150.107 14.5654 149.816 14.8567 149.906 15.2345V28.6408C149.816 28.982 150.107 29.2745 150.467 29.2501H154.084C154.444 29.2745 154.735 28.982 154.735 28.6225V15.2162C154.735 15.0436 154.666 14.8781 154.544 14.756C154.422 14.634 154.257 14.5654 154.084 14.5654ZM153.562 28.0314H151.118V15.8683H153.562V28.0314Z" fill="black"/>
<path d="M158.437 -0.0410156C147.661 -0.0410156 138.896 8.72423 138.896 19.5004C138.896 30.2766 147.661 39.0419 158.437 39.0419C169.214 39.0419 177.979 30.2766 177.979 19.5004C177.979 8.72423 169.214 -0.0410156 158.437 -0.0410156ZM158.437 37.7402C148.38 37.7402 140.198 29.5575 140.198 19.5004C140.198 9.4433 148.38 1.26061 158.437 1.26061C168.495 1.26061 176.677 9.4433 176.677 19.5004C176.677 29.5575 168.495 37.7402 158.437 37.7402Z" fill="black"/>
</g>
<defs>
<clipPath id="clip0_498_1073">
<rect width="39" height="39" fill="white"/>
</clipPath>
<clipPath id="clip1_498_1073">
<rect width="39" height="39" fill="white" transform="translate(69.4688)"/>
</clipPath>
<clipPath id="clip2_498_1073">
<rect width="39" height="39" fill="white" transform="translate(138.938)"/>
</clipPath>
</defs>
</svg>
