<svg width="157" height="35" viewBox="0 0 157 35" fill="none" xmlns="http://www.w3.org/2000/svg">
<g clip-path="url(#clip0_535_1540)">
<path d="M18.0179 0.213806C8.56767 0.213806 0.87793 7.90141 0.87793 17.3527C0.87793 26.804 8.56767 34.4916 18.0179 34.4916C27.4682 34.4916 35.1579 26.804 35.1579 17.3527C35.1579 7.90141 27.4682 0.213806 18.0179 0.213806ZM18.0179 33.35C9.19726 33.35 2.02166 26.1734 2.02166 17.3527C2.02166 8.53207 9.19726 1.3554 18.0179 1.3554C26.8386 1.3554 34.0142 8.53207 34.0142 17.3527C34.0142 26.1734 26.8386 33.35 18.0179 33.35Z" fill="black"/>
<path d="M21.7599 7.73316H18.908C15.2758 7.69682 14.8119 9.94474 14.8119 12.3776V14.1466H13.2086C13.1361 14.1369 13.0624 14.1441 12.9931 14.1675C12.9239 14.191 12.8609 14.2301 12.8092 14.2818C12.7575 14.3335 12.7185 14.3964 12.695 14.4656C12.6716 14.5349 12.6644 14.6086 12.6741 14.6811V17.8878C12.6644 17.9603 12.6716 18.034 12.695 18.1033C12.7185 18.1725 12.7575 18.2354 12.8092 18.2871C12.8609 18.3388 12.9239 18.3779 12.9931 18.4014C13.0624 18.4248 13.1361 18.4319 13.2086 18.4223H14.8119V26.4391C14.803 26.5117 14.8108 26.5854 14.8347 26.6545C14.8587 26.7236 14.8981 26.7864 14.9499 26.8379C15.0018 26.8895 15.0648 26.9285 15.1341 26.952C15.2033 26.9755 15.277 26.9829 15.3496 26.9736H18.6151C18.9304 27.0099 19.1859 26.7544 19.0854 26.4391L19.0876 18.4223H21.7599C21.8323 18.4319 21.906 18.4248 21.9753 18.4014C22.0446 18.3779 22.1075 18.3388 22.1592 18.2871C22.2109 18.2354 22.25 18.1725 22.2734 18.1033C22.2968 18.034 22.304 17.9603 22.2943 17.8878V14.6811C22.304 14.6086 22.2968 14.5349 22.2734 14.4656C22.25 14.3964 22.2109 14.3335 22.1592 14.2818C22.1075 14.2301 22.0446 14.191 21.9753 14.1675C21.906 14.1441 21.8323 14.1369 21.7599 14.1466H19.0844L19.0876 12.5433C19.1913 11.8602 19.1913 11.9714 19.8251 12.0088H21.7374C21.886 11.9757 22.0442 11.9938 22.1554 11.8859C22.2665 11.7779 22.3307 11.6304 22.2932 11.4743V8.26762C22.3031 8.19521 22.2961 8.12149 22.2728 8.05223C22.2495 7.98296 22.2105 7.92001 22.1589 7.86829C22.1073 7.81656 22.0444 7.77745 21.9752 7.75401C21.906 7.73058 21.8323 7.72344 21.7599 7.73316ZM21.188 10.88L19.8476 10.8287C18.1876 10.8287 18.0486 11.7298 18.0486 12.6523L18.0443 14.6789C18.0442 14.754 18.0588 14.8283 18.0875 14.8977C18.1161 14.9671 18.1581 15.0301 18.2111 15.0833C18.2641 15.1364 18.3271 15.1785 18.3964 15.2073C18.4658 15.236 18.5401 15.2508 18.6151 15.2508H21.2254V17.3159H18.6173C18.4658 17.3159 18.3205 17.376 18.2133 17.4831C18.106 17.5901 18.0457 17.7353 18.0454 17.8867L18.0443 25.9046H15.8808V17.8878C15.8808 17.5725 15.666 17.317 15.3496 17.317H13.743V15.2519H15.3496C15.4246 15.252 15.4989 15.2373 15.5682 15.2087C15.6375 15.1801 15.7006 15.1381 15.7536 15.0851C15.8605 14.9772 15.8798 14.8318 15.8798 14.68V12.3765C15.8798 9.98001 16.364 8.83842 18.9069 8.83842H21.1869V10.88H21.188Z" fill="black"/>
</g>
<g clip-path="url(#clip1_535_1540)">
<path d="M78.9457 0.213806C69.4954 0.213806 61.8057 7.90141 61.8057 17.3527C61.8057 26.804 69.4954 34.4916 78.9457 34.4916C88.3959 34.4916 96.0856 26.804 96.0856 17.3527C96.0856 7.90141 88.3959 0.213806 78.9457 0.213806ZM78.9457 33.35C70.125 33.35 62.9494 26.1734 62.9494 17.3527C62.9494 8.53207 70.125 1.3554 78.9457 1.3554C87.7663 1.3554 94.9419 8.53207 94.9419 17.3527C94.9419 26.1734 87.7663 33.35 78.9457 33.35Z" fill="black"/>
<path d="M88.3461 12.0578C88.4647 11.8384 88.5624 11.6083 88.6379 11.3705C88.6729 11.2603 88.6736 11.142 88.64 11.0313C88.6063 10.9206 88.5399 10.8227 88.4494 10.7506C88.359 10.6785 88.2488 10.6354 88.1334 10.6272C88.018 10.619 87.9029 10.646 87.8031 10.7046C87.2554 11.03 86.6625 11.2724 86.0437 11.424C85.2925 10.746 84.317 10.3702 83.3051 10.369C82.7554 10.3694 82.2114 10.4808 81.7058 10.6965C81.2002 10.9123 80.7433 11.2279 80.3626 11.6245C79.9819 12.021 79.6852 12.4904 79.4903 13.0044C79.2954 13.5184 79.2063 14.0665 79.2283 14.6157C76.8243 14.3131 74.6291 13.0967 73.0981 11.2187C73.0394 11.1476 72.9645 11.0917 72.8796 11.0557C72.7947 11.0197 72.7023 11.0048 72.6104 11.0121C72.5185 11.0195 72.4297 11.0489 72.3516 11.0979C72.2735 11.1469 72.2084 11.214 72.1617 11.2936C71.8112 11.8953 71.6206 12.5768 71.6083 13.2731C71.5959 13.9694 71.7622 14.6572 72.0912 15.271C72.0105 15.2846 71.933 15.3129 71.8624 15.3544C71.776 15.4095 71.7049 15.4855 71.6555 15.5753C71.6062 15.6652 71.5803 15.766 71.5802 15.8685C71.5802 17.0817 72.12 18.1955 72.9901 18.9523L72.9527 18.9897C72.887 19.064 72.8418 19.1542 72.8216 19.2513C72.8014 19.3484 72.8068 19.4491 72.8373 19.5434C73.0187 20.1094 73.3217 20.629 73.7249 21.0656C74.1282 21.5023 74.622 21.8456 75.1718 22.0714C74.0426 22.6223 72.7789 22.8371 71.5311 22.6903C71.4028 22.6772 71.2738 22.7071 71.1644 22.7752C71.0549 22.8432 70.9711 22.9457 70.9261 23.0666C70.8829 23.1883 70.8821 23.321 70.9238 23.4433C70.9655 23.5655 71.0473 23.6701 71.1559 23.74C72.8523 24.8287 74.8257 25.4071 76.8414 25.4064C83.4473 25.4064 87.3959 20.0405 87.3959 14.853L87.3948 14.6777C88.035 14.1779 88.5911 13.5789 89.042 12.9033C89.1103 12.8012 89.1438 12.6798 89.1377 12.5571C89.1316 12.4344 89.0862 12.317 89.0081 12.2221C88.9301 12.1272 88.8235 12.06 88.7043 12.0305C88.5851 12.0009 88.4595 12.0105 88.3461 12.0578ZM86.4809 13.9338C86.4033 13.9896 86.3409 14.0639 86.2995 14.15C86.258 14.236 86.2388 14.3311 86.2436 14.4265C86.25 14.5676 86.2532 14.7109 86.2532 14.852C86.2532 19.4782 82.7333 24.2637 76.8425 24.2637C75.7919 24.2642 74.7487 24.0879 73.7566 23.7421C74.9447 23.5144 76.0609 23.0049 77.0114 22.2563C77.1039 22.1834 77.1716 22.0836 77.2053 21.9707C77.239 21.8578 77.237 21.7373 77.1995 21.6256C77.1621 21.5138 77.0911 21.4164 76.9962 21.3466C76.9013 21.2768 76.7871 21.238 76.6693 21.2355C76.2084 21.2267 75.7561 21.1097 75.3487 20.894C74.9413 20.6782 74.5904 20.3697 74.3241 19.9934C74.5946 19.9753 74.8597 19.9304 75.1173 19.8609C75.242 19.8275 75.3516 19.7529 75.4284 19.6492C75.5052 19.5454 75.5446 19.4187 75.5402 19.2897C75.5357 19.1608 75.4876 19.0371 75.4039 18.9389C75.3201 18.8408 75.2055 18.7739 75.0788 18.7492C74.5583 18.6433 74.0763 18.3979 73.6845 18.0392C73.2927 17.6806 73.0057 17.2221 72.8544 16.7129C73.1387 16.7846 73.4305 16.8262 73.7223 16.8359C73.9735 16.8348 74.2066 16.6809 74.2846 16.4393C74.3626 16.1977 74.2707 15.9316 74.058 15.7905C73.555 15.4554 73.1678 14.9732 72.9491 14.4098C72.7304 13.8464 72.691 13.2292 72.8362 12.6425C74.693 14.5477 77.2001 15.6821 79.8568 15.8193C80.045 15.8204 80.2096 15.7531 80.3239 15.6152C80.4383 15.4773 80.4821 15.2945 80.4415 15.1192C80.2953 14.4896 80.3607 13.8294 80.6276 13.2407C80.8944 12.652 81.3479 12.1677 81.9177 11.8627C82.4875 11.5577 83.142 11.449 83.7799 11.5535C84.4177 11.6579 85.0034 11.9697 85.4462 12.4405C85.5125 12.5113 85.5958 12.5641 85.6882 12.5938C85.7806 12.6235 85.879 12.6293 85.9742 12.6105C86.1506 12.5752 86.3248 12.5346 86.4969 12.4875C86.4193 12.5456 86.3387 12.5995 86.2553 12.6489C86.1445 12.7168 86.0601 12.8205 86.016 12.9428C85.972 13.0651 85.9709 13.1987 86.013 13.3217C86.055 13.4447 86.1378 13.5497 86.2475 13.6194C86.3572 13.689 86.4874 13.7193 86.6166 13.705L86.8112 13.6804C86.704 13.7687 86.5939 13.8532 86.4809 13.9338Z" fill="black"/>
</g>
<g clip-path="url(#clip2_535_1540)">
<path d="M143.631 13.0262C142.907 13.0262 142.37 13.209 141.95 13.4399C141.883 13.2005 141.661 13.0252 141.4 13.0776H138.211C137.895 13.0252 137.64 13.2806 137.737 13.612V25.37C137.64 25.6693 137.895 25.9259 138.211 25.9045H141.4C141.716 25.9259 141.971 25.6693 141.971 25.354L141.97 18.2479C141.969 18.2447 141.957 17.9048 142.172 17.6707C142.344 17.4847 142.64 17.3895 143.05 17.3895C143.732 17.3895 144.035 17.6685 144.149 18.2928V25.354C144.036 25.6693 144.292 25.9259 144.607 25.9045H147.969C148.284 25.9259 148.54 25.6693 148.426 25.354V18.0555C148.539 14.3442 145.895 13.0262 143.631 13.0262ZM147.397 24.8356H145.178V18.2928C145.178 17.0304 144.362 16.2479 143.051 16.2479C142.309 16.2479 141.732 16.466 141.334 16.8957C140.782 17.4943 140.824 18.2532 140.943 18.4221V24.8356H138.782V14.1678H140.83V14.527C140.829 14.634 140.858 14.739 140.914 14.8301C140.971 14.9211 141.051 14.9945 141.147 15.0417C141.243 15.0889 141.351 15.1081 141.457 15.0971C141.564 15.086 141.665 15.0451 141.749 14.9791L141.899 14.8637C142.331 14.5227 142.779 14.1689 143.632 14.1689C144.515 14.1689 147.398 14.45 147.398 18.0565V24.8356H147.397Z" fill="black"/>
<path d="M134.53 7.69666C133.33 7.69666 132.355 8.6715 132.355 9.87082C132.355 11.0701 133.33 12.045 134.53 12.045C135.729 12.045 136.704 11.0701 136.704 9.87082C136.704 8.6715 135.729 7.69666 134.53 7.69666ZM134.53 10.9034C133.961 10.9034 133.497 10.4395 133.497 9.87082C133.497 9.30216 133.961 8.83825 134.53 8.83825C135.098 8.83825 135.562 9.30216 135.562 9.87082C135.562 10.4395 135.098 10.9034 134.53 10.9034Z" fill="black"/>
<path d="M136.056 13.0253H132.883C132.568 13.0253 132.312 13.2807 132.391 13.6121V25.3701C132.312 25.6694 132.568 25.926 132.883 25.9046H136.056C136.371 25.926 136.626 25.6694 136.626 25.3541V13.5961C136.626 13.4447 136.566 13.2995 136.459 13.1925C136.352 13.0854 136.207 13.0253 136.056 13.0253ZM135.598 24.8357H133.454V14.1679H135.598V24.8357Z" fill="black"/>
<path d="M139.874 0.213806C130.422 0.213806 122.735 7.90141 122.735 17.3527C122.735 26.804 130.422 34.4916 139.874 34.4916C149.325 34.4916 157.013 26.804 157.013 17.3527C157.013 7.90141 149.325 0.213806 139.874 0.213806ZM139.874 33.35C131.053 33.35 123.876 26.1734 123.876 17.3527C123.876 8.53207 131.053 1.3554 139.874 1.3554C148.694 1.3554 155.871 8.53207 155.871 17.3527C155.871 26.1734 148.694 33.35 139.874 33.35Z" fill="black"/>
</g>
<defs>
<clipPath id="clip0_535_1540">
<rect width="34.2052" height="34.2052" fill="white" transform="translate(0.915039 0.249756)"/>
</clipPath>
<clipPath id="clip1_535_1540">
<rect width="34.2052" height="34.2052" fill="white" transform="translate(61.8433 0.249512)"/>
</clipPath>
<clipPath id="clip2_535_1540">
<rect width="34.2052" height="34.2052" fill="white" transform="translate(122.771 0.249512)"/>
</clipPath>
</defs>
</svg>
