<svg width="178" height="39" viewBox="0 0 178 39" fill="none" xmlns="http://www.w3.org/2000/svg">
<g clip-path="url(#clip0_573_2098)">
<path d="M19.4999 -0.0415039C8.72496 -0.0415039 -0.0427246 8.72375 -0.0427246 19.4999C-0.0427246 30.2761 8.72496 39.0414 19.4999 39.0414C30.2749 39.0414 39.0426 30.2761 39.0426 19.4999C39.0426 8.72375 30.2749 -0.0415039 19.4999 -0.0415039ZM19.4999 37.7397C9.44281 37.7397 1.26134 29.5571 1.26134 19.4999C1.26134 9.44281 9.44281 1.26012 19.4999 1.26012C29.5571 1.26012 37.7385 9.44281 37.7385 19.4999C37.7385 29.5571 29.5571 37.7397 19.4999 37.7397Z" fill="black"/>
<path d="M23.7655 8.53118H20.5139C16.3726 8.48974 15.8436 11.0528 15.8436 13.8266V15.8437H14.0155C13.9329 15.8326 13.8488 15.8408 13.7699 15.8675C13.6909 15.8942 13.6192 15.9388 13.5602 15.9978C13.5013 16.0567 13.4567 16.1284 13.43 16.2074C13.4033 16.2864 13.3951 16.3704 13.4061 16.4531V20.1093C13.3951 20.1919 13.4033 20.276 13.43 20.355C13.4567 20.4339 13.5013 20.5057 13.5602 20.5646C13.6192 20.6235 13.6909 20.6681 13.7699 20.6948C13.8488 20.7216 13.9329 20.7297 14.0155 20.7187H15.8436V29.8593C15.8335 29.9421 15.8424 30.0261 15.8697 30.1049C15.8969 30.1837 15.9419 30.2552 16.001 30.314C16.0602 30.3728 16.132 30.4173 16.2109 30.4441C16.2899 30.4709 16.374 30.4793 16.4567 30.4687H20.18C20.5395 30.5101 20.8308 30.2188 20.7162 29.8593L20.7186 20.7187H23.7655C23.8481 20.7297 23.9322 20.7216 24.0112 20.6948C24.0901 20.6681 24.1619 20.6235 24.2208 20.5646C24.2798 20.5057 24.3243 20.4339 24.351 20.355C24.3778 20.276 24.3859 20.1919 24.3749 20.1093V16.4531C24.3859 16.3704 24.3778 16.2864 24.351 16.2074C24.3243 16.1284 24.2798 16.0567 24.2208 15.9978C24.1619 15.9388 24.0901 15.8942 24.0112 15.8675C23.9322 15.8408 23.8481 15.8326 23.7655 15.8437H20.715L20.7186 14.0156C20.8369 13.2368 20.8369 13.3635 21.5596 13.4062H23.7399C23.9093 13.3684 24.0897 13.3891 24.2165 13.266C24.3432 13.1429 24.4163 12.9747 24.3737 12.7968V9.14055C24.3849 9.05799 24.377 8.97395 24.3504 8.89497C24.3238 8.81599 24.2794 8.74422 24.2205 8.68524C24.1617 8.62626 24.09 8.58168 24.0111 8.55495C23.9321 8.52823 23.8481 8.52009 23.7655 8.53118ZM23.1135 12.1192L21.5852 12.0607C19.6925 12.0607 19.534 13.0881 19.534 14.1399L19.5291 16.4506C19.529 16.5362 19.5457 16.6209 19.5783 16.7C19.611 16.7791 19.6589 16.851 19.7193 16.9116C19.7798 16.9722 19.8516 17.0202 19.9306 17.053C20.0097 17.0858 20.0944 17.1026 20.18 17.1026H23.1561V19.4573H20.1824C20.0097 19.4573 19.844 19.5258 19.7218 19.6478C19.5995 19.7698 19.5307 19.9354 19.5304 20.1081L19.5291 29.2499H17.0624V20.1093C17.0624 19.7498 16.8174 19.4585 16.4567 19.4585H14.6249V17.1039H16.4567C16.5422 17.104 16.6269 17.0873 16.7059 17.0546C16.785 17.022 16.8568 16.9741 16.9174 16.9137C17.0392 16.7906 17.0612 16.6249 17.0612 16.4518V13.8254C17.0612 11.093 17.6133 9.79136 20.5127 9.79136H23.1123V12.1192H23.1135Z" fill="black"/>
</g>
<g clip-path="url(#clip1_573_2098)">
<path d="M88.9687 -0.0415039C78.1937 -0.0415039 69.426 8.72375 69.426 19.4999C69.426 30.2761 78.1937 39.0414 88.9687 39.0414C99.7437 39.0414 108.511 30.2761 108.511 19.4999C108.511 8.72375 99.7437 -0.0415039 88.9687 -0.0415039ZM88.9687 37.7397C78.9116 37.7397 70.7301 29.5571 70.7301 19.4999C70.7301 9.44281 78.9116 1.26012 88.9687 1.26012C99.0258 1.26012 107.207 9.44281 107.207 19.4999C107.207 29.5571 99.0258 37.7397 88.9687 37.7397Z" fill="black"/>
<path d="M99.6863 13.4622C99.8215 13.212 99.9329 12.9496 100.019 12.6786C100.059 12.5529 100.06 12.418 100.021 12.2918C99.983 12.1656 99.9073 12.054 99.8041 11.9718C99.701 11.8895 99.5754 11.8405 99.4438 11.8311C99.3123 11.8217 99.1809 11.8525 99.0672 11.9193C98.4427 12.2903 97.7667 12.5667 97.0612 12.7395C96.2047 11.9666 95.0924 11.5381 93.9387 11.5366C93.3119 11.5371 92.6917 11.6641 92.1152 11.9101C91.5387 12.1561 91.0178 12.516 90.5838 12.9681C90.1497 13.4203 89.8114 13.9554 89.5892 14.5415C89.3669 15.1275 89.2653 15.7524 89.2904 16.3787C86.5495 16.0337 84.0465 14.6467 82.3009 12.5055C82.234 12.4244 82.1485 12.3606 82.0517 12.3196C81.9549 12.2786 81.8496 12.2616 81.7448 12.2699C81.64 12.2783 81.5388 12.3119 81.4497 12.3677C81.3607 12.4236 81.2864 12.5001 81.2333 12.5908C80.8335 13.2769 80.6163 14.054 80.6022 14.8478C80.5881 15.6417 80.7777 16.426 81.1528 17.1258C81.0608 17.1413 80.9724 17.1736 80.892 17.2209C80.7935 17.2837 80.7123 17.3703 80.6561 17.4728C80.5999 17.5753 80.5703 17.6902 80.5703 17.8071C80.5703 19.1904 81.1857 20.4603 82.1778 21.3232L82.1351 21.3658C82.0602 21.4506 82.0087 21.5533 81.9856 21.664C81.9625 21.7748 81.9687 21.8896 82.0035 21.9972C82.2104 22.6425 82.5558 23.2349 83.0156 23.7327C83.4753 24.2306 84.0384 24.622 84.6653 24.8795C83.3778 25.5076 81.9369 25.7525 80.5142 25.5852C80.3679 25.5702 80.2209 25.6043 80.0961 25.6819C79.9712 25.7595 79.8757 25.8764 79.8244 26.0142C79.7751 26.1529 79.7742 26.3043 79.8218 26.4437C79.8693 26.583 79.9626 26.7023 80.0864 26.782C82.0206 28.0233 84.2707 28.6828 86.5689 28.682C94.1008 28.682 98.6029 22.5639 98.6029 16.6493L98.6017 16.4494C99.3316 15.8795 99.9657 15.1965 100.48 14.4263C100.558 14.3098 100.596 14.1714 100.589 14.0315C100.582 13.8916 100.53 13.7577 100.441 13.6495C100.352 13.5414 100.231 13.4648 100.095 13.431C99.9588 13.3973 99.8156 13.4082 99.6863 13.4622ZM97.5596 15.6012C97.4712 15.6647 97.4001 15.7495 97.3528 15.8476C97.3056 15.9458 97.2836 16.0542 97.2891 16.163C97.2964 16.3239 97.3 16.4872 97.3 16.6481C97.3 21.9228 93.2867 27.3792 86.5702 27.3792C85.3723 27.3797 84.1828 27.1786 83.0516 26.7844C84.4064 26.5248 85.6791 25.9438 86.7627 25.0903C86.8682 25.0072 86.9454 24.8934 86.9838 24.7647C87.0222 24.636 87.0199 24.4985 86.9773 24.3712C86.9346 24.2438 86.8536 24.1327 86.7454 24.0531C86.6372 23.9735 86.507 23.9293 86.3727 23.9264C85.8472 23.9164 85.3314 23.783 84.867 23.537C84.4025 23.291 84.0024 22.9393 83.6988 22.5102C84.0071 22.4895 84.3094 22.4383 84.6031 22.3591C84.7453 22.3211 84.8703 22.236 84.9579 22.1177C85.0454 21.9994 85.0903 21.855 85.0853 21.7079C85.0802 21.5609 85.0254 21.4199 84.9299 21.3079C84.8343 21.196 84.7037 21.1197 84.5592 21.0916C83.9657 20.9709 83.4162 20.6911 82.9695 20.2821C82.5227 19.8732 82.1956 19.3505 82.023 18.7699C82.3472 18.8516 82.6799 18.8991 83.0126 18.9101C83.299 18.9088 83.5647 18.7333 83.6537 18.4579C83.7427 18.1825 83.6378 17.879 83.3953 17.7181C82.8219 17.3361 82.3803 16.7863 82.131 16.1439C81.8817 15.5015 81.8367 14.7978 82.0023 14.1289C84.1193 16.3011 86.9779 17.5946 90.007 17.751C90.2215 17.7522 90.4092 17.6755 90.5396 17.5182C90.67 17.361 90.72 17.1526 90.6737 16.9527C90.507 16.2349 90.5816 15.4821 90.8858 14.8109C91.1901 14.1397 91.7071 13.5875 92.3568 13.2398C93.0065 12.892 93.7528 12.7681 94.48 12.8872C95.2073 13.0063 95.875 13.3617 96.3799 13.8986C96.4555 13.9793 96.5505 14.0394 96.6558 14.0733C96.7612 14.1072 96.8734 14.1138 96.9819 14.0923C97.183 14.0521 97.3817 14.0058 97.5779 13.9522C97.4894 14.0184 97.3975 14.0798 97.3025 14.1362C97.1761 14.2136 97.0799 14.3318 97.0296 14.4712C96.9794 14.6107 96.9782 14.7631 97.0261 14.9033C97.0741 15.0435 97.1684 15.1632 97.2935 15.2427C97.4186 15.3221 97.5671 15.3566 97.7144 15.3403L97.9362 15.3123C97.8141 15.4129 97.6885 15.5093 97.5596 15.6012Z" fill="black"/>
</g>
<g clip-path="url(#clip2_573_2098)">
<path d="M162.721 14.5664C161.895 14.5664 161.283 14.7748 160.804 15.0381C160.728 14.7651 160.475 14.5652 160.178 14.6249H156.541C156.182 14.5652 155.89 14.8565 156.001 15.2343V28.6405C155.89 28.9818 156.182 29.2743 156.541 29.2499H160.178C160.537 29.2743 160.829 28.9818 160.829 28.6223L160.827 20.52C160.826 20.5163 160.813 20.1288 161.058 19.8619C161.254 19.6498 161.592 19.5413 162.058 19.5413C162.836 19.5413 163.182 19.8594 163.311 20.5712V28.6223C163.183 28.9818 163.475 29.2743 163.834 29.2499H167.667C168.027 29.2743 168.318 28.9818 168.189 28.6223V20.3006C168.317 16.0691 165.303 14.5664 162.721 14.5664ZM167.015 28.0312H164.485V20.5712C164.485 19.1318 163.555 18.2397 162.06 18.2397C161.214 18.2397 160.556 18.4883 160.102 18.9783C159.472 19.6608 159.521 20.5261 159.656 20.7187V28.0312H157.192V15.868H159.527V16.2775C159.526 16.3995 159.56 16.5193 159.624 16.6231C159.688 16.7269 159.78 16.8106 159.889 16.8644C159.999 16.9182 160.121 16.9401 160.242 16.9275C160.364 16.9149 160.479 16.8683 160.575 16.7931L160.746 16.6614C161.239 16.2727 161.75 15.8693 162.723 15.8693C163.729 15.8693 167.016 16.1898 167.016 20.3018V28.0312H167.015Z" fill="black"/>
<path d="M152.344 8.48975C150.976 8.48975 149.865 9.60125 149.865 10.9687C149.865 12.3361 150.976 13.4476 152.344 13.4476C153.711 13.4476 154.823 12.3361 154.823 10.9687C154.823 9.60125 153.711 8.48975 152.344 8.48975ZM152.344 12.146C151.695 12.146 151.166 11.6171 151.166 10.9687C151.166 10.3203 151.695 9.79137 152.344 9.79137C152.992 9.79137 153.521 10.3203 153.521 10.9687C153.521 11.6171 152.992 12.146 152.344 12.146Z" fill="black"/>
<path d="M154.084 14.5654H150.467C150.107 14.5654 149.816 14.8567 149.906 15.2345V28.6408C149.816 28.982 150.107 29.2745 150.467 29.2501H154.084C154.444 29.2745 154.735 28.982 154.735 28.6225V15.2162C154.735 15.0436 154.666 14.8781 154.544 14.756C154.422 14.634 154.257 14.5654 154.084 14.5654ZM153.562 28.0314H151.118V15.8683H153.562V28.0314Z" fill="black"/>
<path d="M158.437 -0.0415039C147.661 -0.0415039 138.896 8.72375 138.896 19.4999C138.896 30.2761 147.661 39.0414 158.437 39.0414C169.214 39.0414 177.979 30.2761 177.979 19.4999C177.979 8.72375 169.214 -0.0415039 158.437 -0.0415039ZM158.437 37.7397C148.38 37.7397 140.198 29.5571 140.198 19.4999C140.198 9.44281 148.38 1.26012 158.437 1.26012C168.495 1.26012 176.677 9.44281 176.677 19.4999C176.677 29.5571 168.495 37.7397 158.437 37.7397Z" fill="black"/>
</g>
<defs>
<clipPath id="clip0_573_2098">
<rect width="39" height="39" fill="white"/>
</clipPath>
<clipPath id="clip1_573_2098">
<rect width="39" height="39" fill="white" transform="translate(69.4688)"/>
</clipPath>
<clipPath id="clip2_573_2098">
<rect width="39" height="39" fill="white" transform="translate(138.938)"/>
</clipPath>
</defs>
</svg>
