<svg width="179" height="39" viewBox="0 0 179 39" fill="none" xmlns="http://www.w3.org/2000/svg">
<g clip-path="url(#clip0_573_2124)">
<path d="M20.2336 -0.0415039C9.45861 -0.0415039 0.690918 8.72375 0.690918 19.4999C0.690918 30.2761 9.45861 39.0414 20.2336 39.0414C31.0085 39.0414 39.7762 30.2761 39.7762 19.4999C39.7762 8.72375 31.0085 -0.0415039 20.2336 -0.0415039ZM20.2336 37.7397C10.1764 37.7397 1.99498 29.5571 1.99498 19.4999C1.99498 9.44281 10.1764 1.26012 20.2336 1.26012C30.2907 1.26012 38.4722 9.44281 38.4722 19.4999C38.4722 29.5571 30.2907 37.7397 20.2336 37.7397Z" fill="black"/>
<path d="M24.4992 8.53118H21.2475C17.1062 8.48974 16.5773 11.0528 16.5773 13.8266V15.8437H14.7492C14.6665 15.8326 14.5825 15.8408 14.5035 15.8675C14.4245 15.8942 14.3528 15.9388 14.2939 15.9978C14.2349 16.0567 14.1903 16.1284 14.1636 16.2074C14.1369 16.2864 14.1287 16.3704 14.1398 16.4531V20.1093C14.1287 20.1919 14.1369 20.276 14.1636 20.355C14.1903 20.4339 14.2349 20.5057 14.2939 20.5646C14.3528 20.6235 14.4245 20.6681 14.5035 20.6948C14.5825 20.7216 14.6665 20.7297 14.7492 20.7187H16.5773V29.8593C16.5671 29.9421 16.576 30.0261 16.6033 30.1049C16.6306 30.1837 16.6755 30.2552 16.7346 30.314C16.7938 30.3728 16.8656 30.4173 16.9446 30.4441C17.0235 30.4709 17.1076 30.4793 17.1903 30.4687H20.9136C21.2731 30.5101 21.5644 30.2188 21.4498 29.8593L21.4523 20.7187H24.4992C24.5818 20.7297 24.6658 20.7216 24.7448 20.6948C24.8238 20.6681 24.8955 20.6235 24.9545 20.5646C25.0134 20.5057 25.058 20.4339 25.0847 20.355C25.1114 20.276 25.1196 20.1919 25.1085 20.1093V16.4531C25.1196 16.3704 25.1114 16.2864 25.0847 16.2074C25.058 16.1284 25.0134 16.0567 24.9545 15.9978C24.8955 15.9388 24.8238 15.8942 24.7448 15.8675C24.6658 15.8408 24.5818 15.8326 24.4992 15.8437H21.4486L21.4523 14.0156C21.5705 13.2368 21.5705 13.3635 22.2932 13.4062H24.4736C24.643 13.3684 24.8233 13.3891 24.9501 13.266C25.0768 13.1429 25.15 12.9747 25.1073 12.7968V9.14055C25.1186 9.05799 25.1106 8.97395 25.084 8.89497C25.0575 8.81599 25.013 8.74422 24.9542 8.68524C24.8953 8.62626 24.8236 8.58168 24.7447 8.55495C24.6658 8.52823 24.5817 8.52009 24.4992 8.53118ZM23.8471 12.1192L22.3188 12.0607C20.4261 12.0607 20.2677 13.0881 20.2677 14.1399L20.2628 16.4506C20.2626 16.5362 20.2793 16.6209 20.312 16.7C20.3446 16.7791 20.3925 16.851 20.453 16.9116C20.5134 16.9722 20.5852 17.0202 20.6643 17.053C20.7433 17.0858 20.828 17.1026 20.9136 17.1026H23.8898V19.4573H20.916C20.7433 19.4573 20.5777 19.5258 20.4554 19.6478C20.3332 19.7698 20.2643 19.9354 20.264 20.1081L20.2628 29.2499H17.796V20.1093C17.796 19.7498 17.5511 19.4585 17.1903 19.4585H15.3585V17.1039H17.1903C17.2758 17.104 17.3605 17.0873 17.4396 17.0546C17.5186 17.022 17.5905 16.9741 17.651 16.9137C17.7729 16.7906 17.7948 16.6249 17.7948 16.4518V13.8254C17.7948 11.093 18.3469 9.79136 21.2463 9.79136H23.8459V12.1192H23.8471Z" fill="black"/>
</g>
<g clip-path="url(#clip1_573_2124)">
<path d="M89.7023 -0.0415039C78.9274 -0.0415039 70.1597 8.72375 70.1597 19.4999C70.1597 30.2761 78.9274 39.0414 89.7023 39.0414C100.477 39.0414 109.245 30.2761 109.245 19.4999C109.245 8.72375 100.477 -0.0415039 89.7023 -0.0415039ZM89.7023 37.7397C79.6452 37.7397 71.4637 29.5571 71.4637 19.4999C71.4637 9.44281 79.6452 1.26012 89.7023 1.26012C99.7594 1.26012 107.941 9.44281 107.941 19.4999C107.941 29.5571 99.7594 37.7397 89.7023 37.7397Z" fill="black"/>
<path d="M100.42 13.4622C100.555 13.212 100.667 12.9496 100.753 12.6786C100.793 12.5529 100.793 12.418 100.755 12.2918C100.717 12.1656 100.641 12.054 100.538 11.9718C100.435 11.8895 100.309 11.8405 100.177 11.8311C100.046 11.8217 99.9146 11.8525 99.8009 11.9193C99.1764 12.2903 98.5003 12.5667 97.7948 12.7395C96.9383 11.9666 95.826 11.5381 94.6724 11.5366C94.0456 11.5371 93.4254 11.6641 92.8489 11.9101C92.2724 12.1561 91.7515 12.516 91.3174 12.9681C90.8833 13.4203 90.545 13.9554 90.3228 14.5415C90.1006 15.1275 89.9989 15.7524 90.0241 16.3787C87.2831 16.0337 84.7802 14.6467 83.0345 12.5055C82.9676 12.4244 82.8822 12.3606 82.7854 12.3196C82.6886 12.2786 82.5833 12.2616 82.4785 12.2699C82.3737 12.2783 82.2724 12.3119 82.1834 12.3677C82.0943 12.4236 82.0201 12.5001 81.9669 12.5908C81.5672 13.2769 81.3499 14.054 81.3358 14.8478C81.3217 15.6417 81.5113 16.426 81.8865 17.1258C81.7945 17.1413 81.7061 17.1736 81.6256 17.2209C81.5271 17.2837 81.446 17.3703 81.3897 17.4728C81.3335 17.5753 81.304 17.6902 81.3039 17.8071C81.3039 19.1904 81.9194 20.4603 82.9114 21.3232L82.8688 21.3658C82.7939 21.4506 82.7423 21.5533 82.7193 21.664C82.6962 21.7748 82.7023 21.8896 82.7371 21.9972C82.944 22.6425 83.2894 23.2349 83.7492 23.7327C84.209 24.2306 84.772 24.622 85.3989 24.8795C84.1114 25.5076 82.6706 25.7525 81.2478 25.5852C81.1016 25.5702 80.9545 25.6043 80.8297 25.6819C80.7049 25.7595 80.6093 25.8764 80.558 26.0142C80.5088 26.1529 80.5078 26.3043 80.5554 26.4437C80.603 26.583 80.6962 26.7023 80.8201 26.782C82.7542 28.0233 85.0043 28.6828 87.3026 28.682C94.8345 28.682 99.3365 22.5639 99.3365 16.6493L99.3353 16.4494C100.065 15.8795 100.699 15.1965 101.213 14.4263C101.291 14.3098 101.33 14.1714 101.323 14.0315C101.316 13.8916 101.264 13.7577 101.175 13.6495C101.086 13.5414 100.964 13.4648 100.828 13.431C100.692 13.3973 100.549 13.4082 100.42 13.4622ZM98.2933 15.6012C98.2048 15.6647 98.1337 15.7495 98.0865 15.8476C98.0392 15.9458 98.0173 16.0542 98.0227 16.163C98.03 16.3239 98.0337 16.4872 98.0337 16.6481C98.0337 21.9228 94.0203 27.3792 87.3038 27.3792C86.1059 27.3797 84.9164 27.1786 83.7853 26.7844C85.14 26.5248 86.4127 25.9438 87.4964 25.0903C87.6019 25.0072 87.6791 24.8934 87.7175 24.7647C87.7559 24.636 87.7536 24.4985 87.7109 24.3712C87.6682 24.2438 87.5872 24.1327 87.479 24.0531C87.3708 23.9735 87.2407 23.9293 87.1064 23.9264C86.5809 23.9164 86.0651 23.783 85.6006 23.537C85.1362 23.291 84.736 22.9393 84.4324 22.5102C84.7408 22.4895 85.043 22.4383 85.3367 22.3591C85.4789 22.3211 85.604 22.236 85.6915 22.1177C85.7791 21.9994 85.824 21.855 85.8189 21.7079C85.8138 21.5609 85.759 21.4199 85.6635 21.3079C85.568 21.196 85.4373 21.1197 85.2929 21.0916C84.6994 20.9709 84.1498 20.6911 83.7031 20.2821C83.2564 19.8732 82.9292 19.3505 82.7566 18.7699C83.0808 18.8516 83.4136 18.8991 83.7463 18.9101C84.0327 18.9088 84.2984 18.7333 84.3873 18.4579C84.4763 18.1825 84.3715 17.879 84.129 17.7181C83.5555 17.3361 83.114 16.7863 82.8646 16.1439C82.6153 15.5015 82.5704 14.7978 82.7359 14.1289C84.8529 16.3011 87.7115 17.5946 90.7407 17.751C90.9552 17.7522 91.1429 17.6755 91.2733 17.5182C91.4037 17.361 91.4536 17.1526 91.4073 16.9527C91.2406 16.2349 91.3152 15.4821 91.6195 14.8109C91.9237 14.1397 92.4407 13.5875 93.0904 13.2398C93.7402 12.892 94.4864 12.7681 95.2137 12.8872C95.9409 13.0063 96.6087 13.3617 97.1135 13.8986C97.1892 13.9793 97.2842 14.0394 97.3895 14.0733C97.4948 14.1072 97.607 14.1138 97.7156 14.0923C97.9167 14.0521 98.1153 14.0058 98.3116 13.9522C98.2231 14.0184 98.1311 14.0798 98.0361 14.1362C97.9097 14.2136 97.8135 14.3318 97.7633 14.4712C97.713 14.6107 97.7118 14.7631 97.7598 14.9033C97.8077 15.0435 97.9021 15.1632 98.0272 15.2427C98.1523 15.3221 98.3007 15.3566 98.4481 15.3403L98.6699 15.3123C98.5477 15.4129 98.4221 15.5093 98.2933 15.6012Z" fill="black"/>
</g>
<g clip-path="url(#clip2_573_2124)">
<path d="M163.455 14.5664C162.629 14.5664 162.017 14.7748 161.538 15.0381C161.461 14.7651 161.209 14.5652 160.911 14.6249H157.275C156.915 14.5652 156.624 14.8565 156.735 15.2343V28.6405C156.624 28.9818 156.915 29.2743 157.275 29.2499H160.911C161.271 29.2743 161.562 28.9818 161.562 28.6223L161.561 20.52C161.56 20.5163 161.546 20.1288 161.791 19.8619C161.988 19.6498 162.325 19.5413 162.792 19.5413C163.57 19.5413 163.916 19.8594 164.045 20.5712V28.6223C163.917 28.9818 164.208 29.2743 164.568 29.2499H168.401C168.76 29.2743 169.052 28.9818 168.922 28.6223V20.3006C169.05 16.0691 166.036 14.5664 163.455 14.5664ZM167.749 28.0312H165.219V20.5712C165.219 19.1318 164.289 18.2397 162.793 18.2397C161.947 18.2397 161.289 18.4883 160.836 18.9783C160.206 19.6608 160.255 20.5261 160.39 20.7187V28.0312H157.926V15.868H160.261V16.2775C160.26 16.3995 160.293 16.5193 160.357 16.6231C160.421 16.7269 160.513 16.8106 160.623 16.8644C160.732 16.9182 160.855 16.9401 160.976 16.9275C161.097 16.9149 161.213 16.8683 161.309 16.7931L161.479 16.6614C161.973 16.2727 162.484 15.8693 163.456 15.8693C164.463 15.8693 167.75 16.1898 167.75 20.3018V28.0312H167.749Z" fill="black"/>
<path d="M153.077 8.48975C151.71 8.48975 150.598 9.60125 150.598 10.9687C150.598 12.3361 151.71 13.4476 153.077 13.4476C154.445 13.4476 155.556 12.3361 155.556 10.9687C155.556 9.60125 154.445 8.48975 153.077 8.48975ZM153.077 12.146C152.429 12.146 151.9 11.6171 151.9 10.9687C151.9 10.3203 152.429 9.79137 153.077 9.79137C153.726 9.79137 154.255 10.3203 154.255 10.9687C154.255 11.6171 153.726 12.146 153.077 12.146Z" fill="black"/>
<path d="M154.818 14.5654H151.2C150.841 14.5654 150.55 14.8567 150.64 15.2345V28.6408C150.55 28.982 150.841 29.2745 151.2 29.2501H154.818C155.177 29.2745 155.469 28.982 155.469 28.6225V15.2162C155.469 15.0436 155.4 14.8781 155.278 14.756C155.156 14.634 154.99 14.5654 154.818 14.5654ZM154.296 28.0314H151.851V15.8683H154.296V28.0314Z" fill="black"/>
<path d="M159.171 -0.0415039C148.395 -0.0415039 139.63 8.72375 139.63 19.4999C139.63 30.2761 148.395 39.0414 159.171 39.0414C169.947 39.0414 178.713 30.2761 178.713 19.4999C178.713 8.72375 169.947 -0.0415039 159.171 -0.0415039ZM159.171 37.7397C149.114 37.7397 140.931 29.5571 140.931 19.4999C140.931 9.44281 149.114 1.26012 159.171 1.26012C169.228 1.26012 177.411 9.44281 177.411 19.4999C177.411 29.5571 169.228 37.7397 159.171 37.7397Z" fill="black"/>
</g>
<defs>
<clipPath id="clip0_573_2124">
<rect width="39" height="39" fill="white" transform="translate(0.733643)"/>
</clipPath>
<clipPath id="clip1_573_2124">
<rect width="39" height="39" fill="white" transform="translate(70.2024)"/>
</clipPath>
<clipPath id="clip2_573_2124">
<rect width="39" height="39" fill="white" transform="translate(139.671)"/>
</clipPath>
</defs>
</svg>
