<svg width="379" height="28" viewBox="0 0 379 28" fill="none" xmlns="http://www.w3.org/2000/svg">
<path fill-rule="evenodd" clip-rule="evenodd" d="M161.097 3.32391C143.318 4.21333 125.748 5.30695 108.615 6.50257C84.3603 8.19392 60.1151 9.94361 36.0162 12.7139C28.4303 13.5888 20.7268 14.1428 13.1884 15.2363C8.45627 15.9216 2.18157 16.8984 1.35809 17.1025C0.927378 17.2192 0.739473 17.3943 0.678756 17.4526C0.251839 17.8609 0.329736 18.2544 0.570707 18.5606C0.667475 18.6918 0.912172 19.0127 1.59144 19.0565C47.0192 22.0455 93.4716 16.2132 138.954 15.6009C217.83 14.5511 299.096 18.7211 377.345 27.8194C378.028 27.8923 378.692 27.5277 378.787 26.9882C378.901 26.4633 378.408 25.953 377.724 25.8801C299.342 16.7672 217.944 12.5825 138.916 13.6469C96.5283 14.2156 53.3034 19.3335 10.8565 17.5838C11.8318 17.438 12.7881 17.2921 13.6609 17.1609C21.169 16.0674 28.8402 15.5279 36.3957 14.6531C60.4434 11.8828 84.6392 10.1331 108.862 8.45632C138.917 6.35671 170.281 4.5487 201.891 3.70302C213.2 3.83425 224.471 3.96553 235.741 4.12592C260.123 4.47585 284.619 5.4965 308.943 6.86708C316.267 7.28992 323.591 7.7273 330.915 8.1064C333.344 8.23762 339.605 8.61666 340.478 8.5875C341.56 8.55833 341.768 7.85853 341.787 7.74188C341.844 7.47943 341.806 7.11489 341.275 6.8087C341.218 6.76496 340.877 6.61906 340.118 6.53158C295.889 1.37003 248.663 0.509913 201.929 1.74927C152.635 1.20978 103.15 0.976386 53.9809 0.728516C53.2769 0.728516 52.702 1.166 52.6963 1.70548C52.6925 2.24496 53.2598 2.68246 53.9637 2.69704C89.5667 2.87201 125.35 3.04688 161.097 3.32391Z" fill="#FFB546"/>
</svg>
