<svg width="196" height="198" viewBox="0 0 196 198" fill="none" xmlns="http://www.w3.org/2000/svg">
<path d="M112.759 58.9903C116.786 68.8114 121.969 77.8145 129.462 85.408C136.057 92.093 143.934 97.2845 152.138 101.769C162.13 107.23 172.571 111.82 182.669 117.077C183.653 117.59 184.989 116.991 185.806 116.394C186.244 116.074 187.613 114.718 186.625 114.204C169.413 105.242 150.387 98.2627 135.904 84.9372C128.428 77.8982 122.518 69.3616 118.56 59.8841C117.077 56.4719 115.747 52.9915 114.333 49.5491C112.948 50.7746 111.695 52.1419 110.595 53.6286C111.316 55.4163 112.029 57.2078 112.759 58.9903Z" fill="#554140"/>
<path d="M105.738 42.7839C107.433 46.0044 108.86 49.3481 110.23 52.7167C111.359 51.283 112.634 49.9713 114.036 48.803C113.272 46.9487 112.472 45.1102 111.611 43.2975C109.021 37.8735 105.737 32.8095 101.843 28.2327C98.895 24.7675 95.7273 21.496 92.359 18.4388L87.8931 20.8276C90.4054 23.104 92.8285 25.4769 95.1176 27.9827C99.2738 32.4431 102.843 37.4172 105.738 42.7839V42.7839Z" fill="#554140"/>
<path d="M86.0835 40.9916C89.2167 45.3095 91.8599 49.9628 93.9643 54.8657C97.4938 62.7113 99.7547 71.1176 103.106 79.037C103.471 75.3893 103.737 71.7077 104.293 68.1103C102.626 63.3753 101.042 58.6041 99.0662 54.0195C97.0233 49.0997 94.4896 44.3986 91.5036 39.9877C88.7366 36.1204 85.3029 32.7776 81.3638 30.116C79.7681 28.9971 78.1299 27.9415 76.4492 26.9491L71.8121 29.4294C72.9757 30.1045 74.1213 30.807 75.249 31.5368C79.3873 34.0272 83.0549 37.2278 86.0835 40.9916V40.9916Z" fill="#554140"/>
<path d="M103.7 80.4183C104.705 82.7117 105.843 84.9447 107.107 87.106C110.151 92.3821 114.352 96.8977 119.393 100.312C124.672 103.635 130.282 106.398 136.132 108.556C142.76 111.185 149.254 114.019 155.703 117.057C162.214 120.132 168.719 123.218 175.426 125.846C176.893 126.423 180.819 123.528 178.653 122.682C166.654 117.98 155.353 111.694 143.368 106.957C137.468 104.807 131.737 102.22 126.222 99.2158C120.837 96.1828 116.243 91.9216 112.813 86.7784C109.295 81.4443 106.949 75.5572 104.811 69.5749C104.335 73.0591 104.102 76.5855 103.74 80.0778L103.7 80.4183Z" fill="#554140"/>
<path d="M98.5492 99.1553C99.1329 99.8915 99.7228 100.622 100.326 101.343C107.728 110.4 117.278 117.458 128.105 121.872C140.698 126.9 154.18 129.089 166.968 133.504C168.46 134.019 172.374 131.092 170.195 130.34C158.81 126.413 146.903 124.246 135.529 120.28C124.391 116.471 114.418 109.861 106.568 101.083C104.536 98.8009 102.619 96.4213 100.784 93.9769C100.489 94.803 100.168 95.623 99.8212 96.437C99.4263 97.3601 99.0023 98.2662 98.5492 99.1553Z" fill="#554140"/>
<path d="M68.8962 55.5014C72.9664 60.3617 76.6452 65.5372 79.898 70.9793C85.6922 80.2584 91.2428 89.7905 97.9912 98.4276C98.8407 96.7317 99.5878 94.9864 100.229 93.2011C95.0538 86.1996 90.5326 78.6793 85.9901 71.2953C82.7695 65.8529 79.224 60.6099 75.3728 55.5947C72.0882 51.3312 68.0242 47.7309 63.397 44.9852C59.8717 43.0256 56.2311 41.2815 52.4951 39.7625L47.7693 42.2904C50.6493 43.5256 53.5255 44.7537 56.2779 46.1491C61.0489 48.4203 65.3342 51.5965 68.8962 55.5014V55.5014Z" fill="#554140"/>
<path d="M65.2393 85.7595C73.0634 94.2905 80.3609 103.394 88.8058 111.332C89.9253 110.165 90.9913 108.956 92.0035 107.706C84.7271 100.696 78.2747 92.8737 71.4884 85.3875C63.3243 76.3791 54.8136 67.5731 45.0887 60.2358C40.6287 56.8625 35.8912 53.8732 30.9271 51.3001L26.2537 53.8001C30.4794 55.9288 34.5394 58.3723 38.3993 61.1099C48.3455 68.1506 57.0233 76.8026 65.2393 85.7595Z" fill="#554140"/>
<path d="M90.528 112.94C99.3671 120.975 109.364 127.631 120.184 132.686C132.661 138.433 146.074 141.876 159.774 142.849C160.389 142.828 160.991 142.665 161.534 142.375C162.076 142.085 162.546 141.674 162.905 141.174C163.507 140.261 163.075 139.682 162.069 139.608C137.889 137.831 115.092 127.853 96.7719 112.085C95.334 110.847 93.9366 109.568 92.5662 108.263C91.5485 109.506 90.4787 110.705 89.3569 111.86C89.7452 112.222 90.1336 112.584 90.528 112.94Z" fill="#554140"/>
<path d="M14.335 73.5076C20.982 76.4573 27.3937 79.6055 33.2381 83.9752C38.4393 88.0485 43.4059 92.4133 48.1141 97.0486C57.0877 105.495 66.1092 113.996 75.4991 121.995C76.8844 121.115 78.246 120.197 79.5839 119.242C71.2288 112.13 63.2539 104.542 55.2092 97.1044C50.2931 92.5582 45.5386 87.82 40.3525 83.5747C34.9667 79.1978 29.0452 75.526 22.7314 72.6483C18.7315 70.796 14.6946 69.0267 10.6208 67.3402C8.81891 66.5861 7.01032 65.8152 5.19028 65.0674L0.390097 67.6352C1.42553 68.056 2.45844 68.4828 3.49076 68.9042C7.12749 70.3864 10.7422 71.9209 14.335 73.5076Z" fill="#554140"/>
<path d="M76.0921 122.531C76.7112 123.056 77.331 123.58 77.9515 124.102C88.2203 132.695 99.3194 140.44 111.863 145.321C118.668 147.969 125.674 148.652 132.917 148.956C139.907 149.249 146.982 149.396 153.655 151.733C155.144 152.253 159.06 149.331 156.881 148.569C144.859 144.364 131.777 147.168 119.612 143.72C113.265 141.754 107.197 138.976 101.56 135.456C95.8101 131.982 90.3124 128.106 85.1075 123.857C83.4421 122.516 81.7943 121.153 80.1641 119.768C79.8372 120.005 79.5061 120.241 79.1709 120.477C78.161 121.184 77.1286 121.868 76.0921 122.531Z" fill="#554140"/>
<path d="M153.456 151.567C146.781 149.23 139.709 149.075 132.72 148.779C125.477 148.47 118.471 147.784 111.668 145.131C99.126 140.243 88.0288 132.494 77.763 123.897C77.1395 123.375 76.5186 122.852 75.9004 122.327C76.941 121.659 77.9682 120.975 78.9822 120.272C79.3139 120.04 79.6457 119.803 79.9755 119.564C81.607 120.948 83.2545 122.311 84.918 123.655C90.1221 127.906 95.6189 131.786 101.367 135.264C107.004 138.787 113.07 141.567 119.417 143.537C131.581 146.991 144.663 144.198 156.683 148.408C158.682 149.108 155.54 151.632 153.861 151.632C153.724 151.633 153.586 151.611 153.456 151.567V151.567ZM159.579 142.688C145.88 141.706 132.47 138.256 119.994 132.504C109.177 127.444 99.1822 120.783 90.3442 112.745C89.9505 112.389 89.5617 112.026 89.172 111.664C90.2919 110.509 91.3621 109.31 92.3827 108.069C93.7528 109.37 95.1488 110.654 96.5878 111.894C114.903 127.669 137.699 137.657 161.876 139.45C162.883 139.524 163.314 140.104 162.711 141.016C162.363 141.494 161.917 141.891 161.402 142.181C160.887 142.47 160.316 142.645 159.727 142.694C159.677 142.692 159.628 142.69 159.579 142.69V142.688ZM166.782 133.346C153.991 128.928 140.513 126.73 127.922 121.696C117.098 117.278 107.55 110.217 100.149 101.156C99.5497 100.433 98.9578 99.7036 98.3735 98.9663C98.8259 98.0783 99.2509 97.1725 99.6486 96.2491C99.9974 95.4355 100.317 94.6159 100.613 93.7892C102.447 96.2351 104.363 98.6141 106.394 100.895C114.243 109.676 124.213 116.29 135.348 120.103C146.72 124.074 158.627 126.25 170.009 130.182C172.014 130.873 168.863 133.402 167.183 133.403C167.049 133.406 166.915 133.387 166.786 133.346H166.782ZM175.243 125.696C168.538 123.064 162.035 119.975 155.525 116.897C149.079 113.85 142.583 111.02 135.958 108.391C130.109 106.229 124.501 103.464 119.224 100.139C114.184 96.7234 109.985 92.2065 106.942 86.9289C106.532 86.2337 106.138 85.533 105.759 84.8271C104.96 83.326 104.223 81.7959 103.535 80.2457C103.548 80.1316 103.561 80.0174 103.573 79.9053C103.935 76.4136 104.172 72.8898 104.646 69.4071C106.783 75.3888 109.127 81.2744 112.64 86.6095C116.07 91.7544 120.663 96.017 126.046 99.0514C131.561 102.059 137.292 104.649 143.192 106.801C155.176 111.544 166.476 117.836 178.467 122.544C180.442 123.317 177.359 125.779 175.685 125.779C175.534 125.779 175.385 125.751 175.244 125.697L175.243 125.696ZM47.933 96.8607C43.2261 92.2243 38.261 87.8581 33.0615 83.7833C27.2196 79.4119 20.8071 76.2595 14.1618 73.3062C10.5743 71.7116 6.96089 70.1772 3.32145 68.7027C2.29018 68.2814 1.2579 67.853 0.223633 67.4317L5.02025 64.8677C6.83897 65.6173 8.6477 66.3888 10.4504 67.1424C14.5189 68.8404 18.5551 70.6115 22.5589 72.4556C28.8667 75.336 34.7828 79.0086 40.1645 83.3851C45.3489 87.6324 50.1015 92.372 55.016 96.9196C63.0614 104.363 71.0328 111.953 79.3849 119.069C78.0525 120.024 76.6925 120.942 75.3048 121.821C65.9224 113.815 56.9047 105.311 47.934 96.8617L47.933 96.8607ZM182.491 116.927C172.398 111.665 161.96 107.071 151.97 101.605C143.769 97.1179 135.894 91.9208 129.302 85.2366C124.418 80.2183 120.288 74.516 117.041 68.3084C115.405 65.2219 113.925 62.0544 112.608 58.818C111.878 57.0356 111.168 55.2431 110.446 53.4557C111.547 51.9702 112.8 50.604 114.184 49.3795C115.596 52.8222 116.928 56.2979 118.407 59.7116C122.364 69.19 128.271 77.7271 135.743 84.7663C150.22 98.0977 169.241 105.082 186.448 114.056C187.435 114.57 186.067 115.924 185.629 116.244C184.969 116.756 184.171 117.062 183.338 117.12C183.045 117.126 182.754 117.06 182.492 116.928L182.491 116.927ZM65.065 85.5789C56.8548 76.6199 48.1769 67.9652 38.2349 60.9237C34.376 58.1843 30.3171 55.7391 26.0924 53.6089L30.7661 51.1118C35.7288 53.6866 40.465 56.6774 44.9242 60.0519C54.6513 67.3937 63.1523 76.2004 71.3136 85.2105C78.0958 92.6983 84.5473 100.522 91.8201 107.528C90.8095 108.778 89.7436 109.986 88.6224 111.151C80.1813 103.217 72.8885 94.1126 65.066 85.5799L65.065 85.5789ZM79.7356 70.8113C76.4855 65.3687 72.8099 60.1924 68.7434 55.3312C65.1822 51.424 60.8984 48.2453 56.1293 45.9708C53.3772 44.5698 50.5022 43.3459 47.6233 42.1099L52.3489 39.586C56.084 41.107 59.7234 42.8534 63.2473 44.8159C67.8718 47.5614 71.934 51.1614 75.2178 55.4243C79.0672 60.4395 82.6108 65.6827 85.8294 71.1255C90.3692 78.5083 94.889 86.0281 100.06 93.0306C99.4194 94.8146 98.672 96.5585 97.8219 98.2527C91.0737 89.6219 85.5266 80.0915 79.7366 70.8123L79.7356 70.8113ZM93.8097 54.6986C91.7075 49.7958 89.0664 45.143 85.9353 40.826C82.9078 37.0612 79.2416 33.8602 75.1049 31.3696C73.979 30.639 72.8342 29.9357 71.6703 29.2598L76.3071 26.783C77.9852 27.7785 79.6224 28.8346 81.2186 29.9515C85.1553 32.6142 88.5871 35.9576 91.3535 39.8252C94.3372 44.2354 96.8689 48.9356 98.9102 53.8549C100.885 58.4385 102.468 63.2084 104.132 67.9431C103.577 71.5389 103.31 75.2199 102.943 78.8647C99.5957 70.9515 97.3352 62.5479 93.8107 54.7037L93.8097 54.6986ZM105.593 42.6242C102.699 37.2579 99.1306 32.2845 94.9759 27.8248C92.6885 25.3169 90.2682 22.9439 87.757 20.6671L92.2219 18.2832C95.5889 21.3388 98.7556 24.6088 101.702 28.0728C105.595 32.6515 108.875 37.718 111.462 43.1447C112.322 44.9571 113.117 46.7965 113.885 48.649C112.487 49.8144 111.214 51.1223 110.087 52.5519C108.714 49.1923 107.288 45.8489 105.594 42.6294L105.593 42.6242Z" fill="#3B3430"/>
</svg>
