<svg width="191" height="260" viewBox="0 0 191 260" fill="none" xmlns="http://www.w3.org/2000/svg">
<path d="M181.919 201.344C181.778 201.223 181.642 201.223 181.613 201.335C181.584 201.447 181.426 201.636 181.362 201.384C181.298 201.132 181.42 200.385 181.302 200.471C181.185 200.557 180.796 200.766 180.875 200.621C180.924 200.508 180.937 200.383 180.913 200.264C180.889 200.144 180.828 200.036 180.74 199.955C180.34 199.624 179.989 199.233 179.699 198.795L179.397 198.562C179.267 198.428 179.154 198.277 179.063 198.112C178.931 197.929 178.681 197.72 178.688 197.57C178.702 197.216 178.372 197.438 178.265 197.207L178.175 197.01C177.833 196.807 177.539 196.53 177.313 196.197L177.098 196C176.803 195.728 176.332 195.582 176.147 195.281L175.893 194.863C175.328 194.585 174.792 194.248 174.294 193.859L173.887 193.421C173.528 192.945 173.042 192.589 172.487 192.395C172.223 192.291 172.004 192.095 171.869 191.839C171.834 191.748 171.779 191.667 171.709 191.602C171.638 191.537 171.553 191.491 171.461 191.466C171.189 191.355 170.675 191.369 170.688 190.819C170.645 190.758 170.581 190.717 170.509 190.703C170.203 190.815 170.279 190.424 170.104 190.373C169.891 190.341 169.683 190.279 169.488 190.187L169.334 190.082C169.063 189.731 168.738 189.428 168.371 189.185C167.805 188.821 167.21 188.507 166.59 188.248L166.536 188.036C166.494 187.908 166.415 187.796 166.31 187.714C166.206 187.633 166.079 187.585 165.948 187.578C165.634 187.476 165.335 187.333 165.059 187.152C164.746 187.033 164.457 186.857 164.206 186.634C163.977 186.353 163.584 186.432 163.437 186.09C163.422 186.055 163.43 185.988 163.416 185.982C163.073 185.835 162.645 185.951 162.404 185.49L161.458 184.815L161.079 184.702C160.481 184.482 159.905 184.204 159.358 183.872L158.888 183.552C158.691 183.423 158.535 183.185 158.349 183.463C158.33 183.49 158.09 183.413 158.074 183.366L157.856 182.705C157.386 182.702 156.919 182.647 156.462 182.541C156.076 182.417 155.679 182.329 155.276 182.28C155.06 182.285 154.411 181.56 154.024 181.325C153.221 181.125 152.404 180.99 151.579 180.921L151.143 180.493L150.905 180.26C150.43 180.141 150.048 180.532 150.055 181.128L149.927 181.572C149.807 182.074 149.647 182.564 149.449 183.04C149.081 184.103 148.491 185.072 147.721 185.877L147.186 186.326C146.647 186.871 145.968 187.511 145.678 187.751L145.499 188.091C145.267 188.404 144.961 188.65 144.611 188.805L144.29 189C143.897 189.157 143.439 189.334 143.27 189.391C142.977 189.503 142.693 189.641 142.423 189.804C142.284 189.905 141.692 189.778 141.596 189.809L141.514 189.85L140.944 190.138C140.059 190.243 139.169 190.29 138.28 190.279L137.854 190.478C137.537 190.629 137.209 190.306 136.913 190.544C136.755 190.67 136.303 190.451 135.988 190.401C135.842 190.377 135.693 190.375 135.545 190.395C135.384 190.421 135.241 190.532 135.083 190.519C134.979 190.511 135.092 190.15 134.793 190.212C134.615 190.248 134.391 189.839 134.241 190.167L132.883 190.013L132.325 189.914C131.726 189.707 130.761 189.407 130.177 189.245L129.656 189.169C129.364 189.118 129.086 189.005 128.841 188.836C128.418 188.629 127.981 188.453 127.534 188.31C127.164 188.154 126.739 188.065 126.56 187.593C126.536 187.531 126.444 187.485 126.383 187.43L126.006 187.093C125.447 186.753 124.944 186.326 124.515 185.825L124.168 185.466L123.815 185.106C123.498 184.727 123.162 184.365 122.81 184.021C122.557 183.556 122.332 183.075 122.136 182.581C121.757 181.63 121.479 180.638 121.307 179.623L121.551 179.237L121.752 178.921C121.71 178.486 121.729 178.045 121.807 177.613L121.882 177.295C121.964 176.946 122.07 176.605 122.166 176.263C122.194 176.17 122.29 176.08 122.269 175.996C122.18 175.797 122.102 175.592 122.035 175.384C122.009 175.195 122.407 175.267 122.3 174.929C122.248 174.765 122.403 174.561 122.485 174.394C122.658 173.963 122.881 173.555 123.149 173.178L123.483 172.791C123.937 172.44 124.92 171.785 125.669 171.336L126.348 170.929L126.846 170.63C127.542 170.588 128.235 170.502 128.922 170.373L129.378 170.505L129.772 170.619C130.275 170.505 130.791 170.468 131.302 170.509C131.921 170.558 132.543 170.574 133.164 170.557C133.44 170.539 134.177 170.633 134.2 170.452C134.222 170.271 134.94 170.724 135.311 170.816C135.683 170.909 137.762 170.694 139.288 170.887L140.676 171.157C142.391 171.492 144.106 171.922 145.82 172.324L146.127 172.396C146.462 172.536 146.507 172.119 146.225 171.466C145.545 170.19 144.79 168.959 143.965 167.779L143.433 167.095L143.123 166.696C142.728 166.41 142.37 166.072 142.059 165.691C141.917 165.471 141.186 164.959 141.043 164.783L140.955 164.601C140.843 164.371 140.498 164.642 140.464 164.288C140.446 164.232 140.408 164.184 140.357 164.157C140.224 164.102 139.184 163.424 139.066 163.331C138.975 163.258 138.832 163.247 138.754 163.168C138.344 162.752 137.542 162.821 137.431 162.025L137.424 161.98C137.274 161.92 136.734 161.646 136.231 161.364C135.727 161.082 134.313 160.473 134.179 160.805L134.056 160.178L133.983 159.802C133.684 159.685 133.116 159.429 132.718 159.238C132.319 159.048 130.907 158.435 130.51 158.179L130.153 158.12C129.765 158.056 129.726 157.612 129.696 157.631L128.966 158.079C128.276 157.528 127.667 157.036 127.612 156.987C127.501 156.861 127.399 156.726 127.306 156.585C127.232 156.476 126.567 156.601 126.326 156.363C125.692 155.985 125.015 155.686 124.311 155.473L123.847 155.262C123.484 155.17 123.145 154.998 122.854 154.757C122.736 154.628 122.439 154.68 122.239 154.596L122.127 154.549C122.029 154.404 121.724 154.396 121.454 154.524L121.356 154.016C121.347 153.968 120.899 153.968 120.682 153.864L120.506 153.779C120.273 153.569 120.012 153.396 119.729 153.265L119.493 153.35C119.434 153.371 119.372 153.378 119.311 153.371C119.249 153.364 119.19 153.344 119.138 153.311C118.833 153.006 118.34 152.589 118.053 152.649L117.453 152.771C117.001 152.555 116.539 152.363 116.067 152.196L115.955 152.11C115.719 151.923 115.51 151.628 115.23 151.923C115.21 151.942 115.03 151.837 114.951 151.762C114.636 151.459 114.352 151.314 113.995 151.565C113.797 151.7 113.829 151.337 113.795 151.335L113.419 151.313C113.008 151.192 112.177 150.927 111.563 150.726L111.07 150.439L110.627 150.183C110.132 150.057 109.33 149.823 108.845 149.663L108.394 149.589C108.199 149.557 108.141 148.99 107.836 149.385C107.782 149.455 107.386 149.241 107.148 149.157L106.869 149.061C106.472 148.859 106.058 148.693 105.631 148.567C105.225 148.453 103.718 147.932 103.118 147.796C102.283 147.451 101.467 147.057 100.675 146.616C100.265 146.513 99.8608 146.387 99.4646 146.238C99.256 146.12 98.4504 145.928 98.2557 145.822C97.9978 145.592 97.7678 145.33 97.5702 145.043C97.4961 144.951 97.3598 144.894 97.5519 145.239L97.2448 145.447C97.0509 145.577 96.9351 145.542 96.8075 145.351C96.7252 145.23 96.6606 144.964 96.6347 144.966L95.6401 145.021C95.2506 144.553 94.8331 144.111 94.3901 143.697C94.4478 143.798 94.3774 143.967 94.1244 143.873C93.6047 143.66 93.1004 143.411 92.6153 143.125L92.3336 143.101L92.018 143.073C91.5226 142.748 90.9774 142.511 90.4046 142.37L89.9182 141.936L89.5767 141.631C89.4076 141.633 89.2408 141.594 89.0894 141.519C88.938 141.443 88.8059 141.332 88.7035 141.195C88.6058 140.975 88.1196 140.696 87.9876 140.984L87.5379 140.674C87.3424 140.54 87.1183 140.503 87.0549 140.226L87.0454 140.186C86.947 140.146 86.2867 139.957 85.5753 139.764L85.1933 139.362C84.989 139.15 84.8781 138.809 84.6545 138.664C84.431 138.518 84.1021 138.534 83.8213 138.464C83.5401 138.403 83.2642 138.321 82.9961 138.216L82.8083 138.136C82.6312 137.906 82.4989 137.643 82.4188 137.361L82.1737 137.617C82.1424 137.65 81.8616 137.462 81.7133 137.35L81.2527 137.004C80.8731 136.74 80.5304 136.424 80.2338 136.065C80.2295 135.936 80.2081 135.809 80.1701 135.687C80.135 135.69 80.1012 135.703 80.0722 135.724C80.0433 135.745 80.0202 135.774 80.0054 135.807C79.9676 135.892 79.795 136.142 79.7311 136.109C79.5855 135.876 79.4782 135.619 79.4132 135.349L79.0475 135.667C78.9233 135.626 78.8147 135.547 78.7366 135.439C78.7222 135.123 78.504 135.25 78.3773 135.172C78.2838 135.114 78.2946 134.888 78.2005 134.784L78.1098 134.678C77.9574 134.614 77.6453 134.508 77.4137 134.441C76.8847 134.25 76.3868 133.98 75.936 133.638L75.5363 133.562C75.3471 133.539 75.1696 133.459 75.0252 133.332C74.8808 133.205 74.7759 133.037 74.7235 132.849C74.7101 132.823 74.6917 132.801 74.6695 132.783C74.6472 132.765 74.6216 132.752 74.5942 132.745L73.8708 132.841C73.485 132.227 73.2552 131.784 73.3585 131.851C73.4618 131.918 73.765 132.016 73.6193 131.805L73.6198 131.693C73.6178 131.349 73.3647 131.523 73.2563 131.434C73.0657 131.279 72.9369 131.402 72.8103 131.382L72.458 131.326C71.9369 131.063 71.7255 130.837 71.9877 130.824L72.0667 130.766L72.1344 130.722C72.1302 130.639 72.1053 130.558 72.0621 130.488C72.0189 130.418 71.9588 130.361 71.8876 130.322L71.8108 130.352L71.2309 130.58C70.7728 130.227 70.2413 129.83 70.043 129.701L69.9842 129.595L69.774 129.212C69.4464 129.034 69.1082 128.876 68.7614 128.74C68.5732 128.677 68.2558 128.129 68.1317 128.061C67.959 127.913 67.7778 127.775 67.5889 127.649C67.495 127.638 67.1576 127.508 67.1098 127.383C66.9947 127.133 66.8315 126.909 66.6301 126.727C66.1655 126.503 65.686 126.313 65.1952 126.158L64.9747 125.885L64.5012 125.302C63.84 125 63.2399 124.574 62.7304 124.047L62.4207 123.713L62.2449 123.525C61.9339 123.364 61.6524 123.149 61.4123 122.889C60.967 122.532 60.4798 122.235 59.9619 122.003L59.8779 121.687L59.7895 121.352C59.5901 121.215 59.374 121.106 59.1465 121.027L59.1377 121.001C58.8691 120.243 58.0325 119.996 57.6304 119.37L57.492 119.153C57.4007 118.875 57.2348 118.644 57.1233 118.639C56.768 118.495 56.4699 118.234 56.2742 117.897C56.0832 117.503 54.8732 115.956 54.2462 115.072L53.7321 114.25C53.5148 113.919 53.3603 113.541 53.1296 113.192L52.8768 112.8C52.7827 112.275 52.6721 111.643 52.6316 111.396C52.5725 111.057 52.534 110.713 52.5162 110.368C52.5362 110.294 52.767 110.073 52.8152 109.976C52.8634 109.879 52.5217 109.382 52.4262 109.253L52.4504 109.224L52.6828 108.943C52.5939 108.766 52.4695 108.612 52.3177 108.49C52.1658 108.367 51.9901 108.28 51.8022 108.234C51.4527 108.166 50.8854 107.148 50.7559 107.016C50.4346 106.792 50.156 106.509 49.9337 106.181L49.5193 106.159L49.4593 106.156C49.388 106.096 49.1537 105.938 48.9367 105.802C48.6461 105.544 48.3823 105.256 48.1492 104.942C48.0694 104.836 47.9185 104.504 47.8517 104.433C47.785 104.362 47.0434 103.746 46.3935 103.205L45.8493 102.661C45.7219 102.476 45.5541 102.324 45.3592 102.217C45.0718 102.089 44.8387 101.86 44.701 101.57L44.6005 101.261C44.3794 101.086 44.0333 100.798 43.836 100.618L43.6597 100.451C43.4909 100.288 43.1898 100.081 43.1955 99.9495L43.2107 99.5882C42.9641 99.5832 42.7184 99.5596 42.4755 99.5176C42.2996 99.4827 42.0439 98.7207 41.8616 98.4522L41.6416 98.2459L41.4394 98.0579C41.2043 97.9169 40.9813 97.7557 40.7727 97.5759C40.6542 97.4611 40.1951 96.9349 39.971 96.6791L39.7686 96.4453L39.5184 96.1559C39.255 95.8292 38.9321 95.4329 38.801 95.2769C38.4998 95.0025 38.1776 94.7537 37.8372 94.533C37.6237 94.3958 37.0723 93.7691 36.7424 93.5122C36.4125 93.2553 35.5128 91.837 34.9149 91.3047L34.5538 90.6969C34.3494 90.354 33.921 90.5616 33.793 90.1393L33.7144 89.8768C33.5445 89.6366 33.3218 89.4417 33.0642 89.3077L32.9421 89.2314C32.6953 89.0759 32.3203 88.9459 32.609 88.5796C32.6236 88.5689 32.416 88.2954 32.3458 88.2951L31.9341 88.3016C31.7075 87.9926 31.5049 87.6655 31.3281 87.3233C31.2316 87.1119 30.5837 86.8432 30.5224 86.6933C30.4611 86.5434 30.1616 86.0506 30.0405 86.0383C29.9194 86.0261 29.6397 85.9058 29.7862 85.8056C29.9327 85.7054 29.2751 85.3756 29.1032 85.2079L28.9433 85.0495L28.4591 84.5719C27.9637 84.1379 27.5943 83.571 27.3906 82.9323L26.9524 82.9658C26.4529 83.0039 26.6079 82.5405 26.3923 82.368C26.259 82.2914 26.1431 82.1866 26.052 82.0605C25.9609 81.9344 25.8965 81.7897 25.8631 81.6356L25.854 81.5785C25.7124 81.5038 25.5543 81.4672 25.3944 81.4723C25.2338 81.4776 24.813 80.787 24.5956 80.5329L24.382 80.3074C24.1706 80.0847 23.8399 79.9425 23.8508 79.5766C23.8174 79.5048 23.7586 79.4493 23.6863 79.4214L23.0844 79.6148C22.8692 79.2026 22.6869 78.7727 22.5394 78.3291C22.1746 77.9333 21.7802 77.5679 21.3596 77.2362L21.3057 76.9746C21.2158 76.5424 20.8871 76.75 20.7653 76.548C20.6303 76.3266 20.454 75.9284 20.3428 75.9258C19.9352 75.9124 19.981 75.5187 19.7639 75.3763C19.558 75.2097 19.3983 74.9901 19.3005 74.7391L19.1898 74.5325C18.755 74.201 18.3455 73.8358 17.965 73.4399C17.5911 73.0506 16.5257 71.8876 16.4293 71.7264C16.333 71.5651 16.0099 71.2619 15.9461 71.1115C15.7461 70.909 15.5205 70.7351 15.2753 70.5945C15.0028 70.2632 14.8043 69.8736 14.6938 69.4528L14.1697 69.5593L14.1471 69.5634C13.8894 69.1162 13.5983 68.6906 13.2764 68.2907C12.9223 67.8433 11.7946 66.5646 11.6757 66.3573C11.5006 66.1397 11.302 65.9436 11.0838 65.7725C10.976 65.6655 10.5459 65.1774 10.3418 64.9058L10.2723 64.6422C10.1716 64.2682 10.1724 63.9488 9.62651 63.8831L9.42447 63.8595C9.15169 63.5209 8.94266 63.1323 8.808 62.7132L8.8327 62.4513L8.88089 61.9339C8.49596 61.6411 8.05296 61.3079 7.89508 61.1882C7.73721 61.0686 7.27207 60.6788 7.32885 60.5803C7.35783 60.4455 7.35398 60.3056 7.31737 60.1738C7.28075 60.0419 7.21259 59.922 7.11923 59.8249C6.88458 59.6148 6.90024 58.7788 6.99766 58.9851C7.10601 59.2319 7.25577 59.4565 7.43988 59.6489C7.50979 59.6471 7.80077 59.5085 7.76695 59.3475L7.67204 59.2478C7.34638 58.9117 7.57176 58.7617 7.71855 58.5426C7.8433 58.362 8.2225 58.4789 8.16992 58.0598L8.14 57.8288C8.37745 57.533 8.63621 57.2557 8.91375 56.9997C9.14264 56.7968 9.87883 57.3813 10.0165 57.4777C10.1542 57.574 10.6743 58.0367 10.9235 58.2328C11.1727 58.429 11.8433 59.3087 12.0833 59.4768C12.3234 59.645 12.8998 60.5308 13.1154 60.7C13.37 60.9753 13.6509 61.2233 13.954 61.4402C14.1675 61.508 14.5581 62.383 14.9474 62.7901C15.3366 63.1973 16.6887 64.603 17.0732 65.0225C17.5997 65.647 18.0915 66.302 18.5464 66.9842L18.6865 67.0843L19.6965 67.8124C20.571 68.852 21.5177 69.9898 21.8045 70.3509L22.0874 70.6612C22.3824 70.9078 22.6282 71.2109 22.8113 71.5545L22.9133 71.8045L23.8833 72.4723C24.09 72.6155 24.6086 73.3791 24.825 73.5254C25.0414 73.6716 25.5524 74.5157 25.8017 74.7845C26.2739 75.2269 26.7739 75.6369 27.2984 76.0119L27.3113 76.1568C27.3397 76.484 27.6335 76.4474 27.7481 76.621C27.8711 76.813 28.0109 76.9929 28.1657 77.1585C28.3619 77.362 28.605 77.5235 28.7905 77.7337C28.9348 77.8979 29.0096 78.245 29.1377 78.2789C29.6538 78.4279 29.7671 78.9706 30.161 79.2266C30.3931 79.3882 30.6064 79.5766 30.7966 79.7884L30.9651 79.9641C31.1331 80.1922 31.2859 80.4319 31.4227 80.6816L31.6163 80.8053C31.7425 80.8601 31.854 80.9451 31.9416 81.0534C32.0292 81.1617 32.0905 81.2902 32.1204 81.4284L32.1308 81.5114C32.5438 81.7048 32.9343 81.9449 33.2949 82.2277C33.6597 82.6543 33.9698 83.1278 34.2178 83.6368C34.2498 83.6661 34.6997 84.1095 35.1481 84.5506C35.5965 84.9917 36.9262 86.397 37.1395 86.6563C37.3528 86.9156 38.0369 87.7652 38.1903 87.9653L38.3469 88.1329C38.6048 88.4111 38.995 88.5021 39.2073 88.8841C39.387 89.2082 39.8647 89.3236 39.9734 89.7544L40.08 90.1789C40.4668 90.5031 40.8338 90.8516 41.1791 91.2222C41.4148 91.4887 42.511 92.4693 42.9393 92.9162C43.3675 93.3631 44.6055 94.6429 44.7561 94.7388C44.9756 94.9354 45.167 95.1632 45.3248 95.4154C45.408 95.5605 46.1595 95.9302 46.5645 96.243C47.0731 96.8173 47.5444 97.4258 47.9754 98.0645L48.1538 98.224L49.7263 99.6276C51.4591 101.167 53.0827 102.684 53.3351 102.998L53.7498 102.963C53.8431 102.956 54.0305 103.137 54.1032 103.265C54.2076 103.446 54.1322 103.76 54.4698 103.747L54.8471 103.732C55.228 103.679 55.5779 103.481 55.8282 103.178L56.1351 103.146C56.194 103.141 56.1944 102.956 56.245 102.871L56.3704 102.661C56.4588 102.812 56.6005 102.922 56.7663 102.968L56.7992 102.922L56.8736 102.814C57.027 102.59 57.2451 102.422 57.4958 102.334C57.7874 102.21 58.8017 102.203 59.052 102.47L59.2769 102.228C59.375 102.131 59.4928 102.058 59.6214 102.015C59.7499 101.972 59.8859 101.959 60.019 101.978L60.1103 101.978C60.2639 101.802 60.3996 101.609 60.5151 101.404L60.8739 101.525L60.9717 101.557C61.0868 101.527 61.4177 101.471 61.7081 101.431C62.152 101.501 62.58 101.649 62.974 101.867L63.0741 101.889L63.1816 101.914C63.3727 101.885 63.5612 101.839 63.7447 101.776C63.9394 101.709 64.4425 101.714 64.5072 102.041L64.865 101.703L65.0131 101.561C65.108 101.54 65.206 101.541 65.3 101.563C65.394 101.586 65.4818 101.629 65.5574 101.69C65.9025 101.93 66.2758 102.125 66.6687 102.269C67.1173 102.446 68.5252 102.966 68.805 103.104C69.3838 103.444 69.9451 103.814 70.4869 104.214C70.8918 104.516 72.4562 105.411 72.9434 105.755L73.2694 106.209L73.4707 106.49C73.7757 106.707 74.2979 107.127 74.6305 107.424L74.9328 107.693C75.235 107.962 75.5391 108.231 75.8405 108.501C75.9056 108.545 75.9604 108.602 76.0013 108.67C76.0805 108.948 75.9663 109.277 76.4822 109.379C76.6494 109.412 76.7475 109.856 76.9874 110.095C77.4107 110.515 77.4833 111.182 78.0213 111.563C78.0419 111.577 78.004 111.687 77.9928 111.751C77.9829 111.915 77.9498 112.076 77.8945 112.23L77.7311 112.534C77.9793 112.66 78.0727 112.797 77.9388 112.84L77.9199 112.974C77.8909 113.173 77.8948 113.382 77.8846 113.586L77.6827 114.27L77.543 114.387C77.4712 114.575 77.329 115.002 77.2259 115.337L77.1231 115.643C77.0553 115.926 76.9658 116.202 76.855 116.47C76.6146 116.933 76.3436 117.379 76.0442 117.804L75.8754 118.039C75.6644 118.217 75.4255 118.356 75.1692 118.449C74.9003 118.439 74.6335 118.4 74.3725 118.335C74.0732 118.295 73.7678 118.339 73.4889 118.464L73.2877 118.511C73.0547 118.569 72.7686 118.208 72.5211 118.488L72.3976 118.629C72.2924 118.436 72.147 118.27 71.9717 118.143C71.6908 118.045 71.4033 117.967 71.1115 117.91L70.9115 117.826L70.7099 117.742C70.4784 117.598 70.2246 117.556 70.1455 117.651C70.0664 117.745 69.7006 117.953 69.5679 117.835C69.4353 117.717 69.0319 117.425 69.0384 117.512C69.0449 117.599 68.9982 117.775 68.9316 117.78L68.8768 117.753C68.8055 117.715 68.7435 117.66 68.6951 117.594C68.2837 117.026 67.7884 117.226 67.3295 117.218C66.9908 117.212 66.9472 117.221 67.0054 116.858L67.0739 116.443C66.8711 116.545 66.6754 116.554 66.6396 116.466C66.6039 116.378 66.3566 116.201 66.3417 116.282L66.3471 116.358L66.3789 116.775C66.0963 116.69 65.3698 116.47 64.7646 116.283L64.2162 116.104C64.0372 116.066 63.8698 115.986 63.728 115.868C63.4503 115.605 63.1151 115.414 62.7499 115.312L62.5039 115.207C62.3868 115.055 62.2356 114.936 62.0631 114.858L61.9901 114.863C61.8978 114.869 61.7673 114.94 61.725 114.9C61.2706 114.572 60.781 114.299 60.2653 114.086L59.8182 113.834C59.3315 113.492 58.6348 113.028 58.2704 112.804L57.9474 112.68C57.6736 112.573 57.5019 112.58 57.4124 112.226L57.3525 111.988C57.2235 111.966 57.101 111.915 56.9936 111.839C56.8863 111.762 56.7968 111.663 56.7311 111.547C56.701 111.386 56.2602 111.443 56.1481 111.478C56.036 111.513 55.724 111.084 55.533 110.894L55.2908 111.012L55.2351 111.039C55.1167 111.026 55.1833 111.189 55.3751 111.407C55.6332 111.769 55.9591 112.074 56.3339 112.304L56.4164 112.621C56.4852 112.908 56.5922 113.184 56.7345 113.439L56.866 113.663C57.0952 113.888 57.3658 114.063 57.6622 114.178C57.8851 114.247 58.6485 115.415 59.4278 116.108C60.207 116.801 62.3825 118.74 62.4787 118.958C62.5748 119.175 63.2912 119.284 63.4509 119.342C63.6107 119.4 64.1173 120.14 64.4394 120.419L64.7855 120.606L65.1687 120.817C65.6077 121.143 66.0659 121.441 66.5408 121.709L66.7081 122.067L66.7862 122.234C66.7696 122.45 66.9247 122.468 67.131 122.274L67.3856 122.659L67.6314 123.021C68.1201 123.329 68.5826 123.679 69.0142 124.067L69.5099 124.131L69.6804 124.154C70.0184 124.612 70.4139 125.021 70.8571 125.371C71.2994 125.719 72.6098 126.328 72.5867 126.402C72.5832 126.467 72.6027 126.53 72.6416 126.58C72.6805 126.629 72.7359 126.662 72.7974 126.672C72.9523 126.696 73.4188 126.883 73.7408 126.933L73.7647 127.038C73.8687 127.513 74.249 127.606 74.5692 127.802L74.6084 127.826C74.7727 128.051 74.9925 128.227 75.2455 128.335C75.5909 128.521 76.7449 129.254 77.0778 129.443C77.6048 129.745 78.0716 130.146 78.454 130.626L78.834 130.486C78.9884 130.428 79.3071 130.625 79.5225 130.766C79.7546 130.918 79.9457 131.143 80.1657 131.32C80.2491 131.393 80.3545 131.435 80.4645 131.438C80.6374 131.416 80.8121 131.444 80.9697 131.518C81.1274 131.591 81.2621 131.708 81.3595 131.855L81.6314 132.188C82.3045 132.469 82.9554 132.803 83.5782 133.186C84.2637 133.601 86.7382 134.921 87.4894 135.339L88.1637 135.741C88.6003 136.09 89.1194 136.314 89.6694 136.39C89.775 136.406 89.8734 136.453 89.9529 136.526C89.9296 136.915 90.2718 136.875 90.4531 136.951C90.985 137.122 91.4871 137.376 91.9412 137.706L92.2909 137.996C92.8018 138.085 93.2964 138.252 93.7586 138.49C94.2883 138.749 94.8372 138.965 95.4004 139.135C95.7107 139.223 96.6404 139.705 96.8853 139.813C97.1302 139.92 98.7525 140.575 99.9692 141.08L101.077 141.537C101.202 141.61 101.339 141.659 101.481 141.682L101.884 141.667C102.236 141.827 102.601 141.958 102.974 142.06C103.165 142.097 103.793 142.48 103.984 142.531L104.158 142.534C104.309 142.515 104.461 142.532 104.604 142.583C104.746 142.634 104.876 142.717 104.982 142.827C105.128 142.936 105.297 143.008 105.476 143.037C105.726 143.069 105.97 143.132 106.205 143.225L107.07 143.745C107.936 143.894 108.79 144.102 109.628 144.367C110.241 144.565 110.865 144.731 111.496 144.862C111.838 144.99 112.173 145.137 112.5 145.301C112.949 145.467 113.409 145.602 113.876 145.705L114.231 145.767C114.341 145.787 114.442 145.843 114.517 145.927L114.732 146.212C115.048 146.287 116.043 146.603 116.943 146.915L117.709 147.398C117.738 147.416 117.78 147.405 117.815 147.417L118.36 147.605C118.894 147.83 119.443 148.018 120.002 148.168C120.307 148.231 121.457 148.938 121.969 149.183C122.481 149.427 124.221 149.904 124.626 150.081C125.031 150.258 126.625 151.041 127.282 151.399L127.88 151.538L128.387 151.655C128.766 151.931 129.175 152.16 129.606 152.339C129.847 152.411 130.95 153.01 131.528 153.314L132.054 153.526C132.523 153.716 132.754 154.236 133.32 154.29C133.682 154.326 134.077 154.76 134.463 154.996C135.234 155.458 136.011 155.905 136.787 156.355L136.849 156.391C136.925 156.418 137.547 156.859 138.231 157.374L138.861 157.828C139.264 158.119 139.686 158.38 140.094 158.661C140.502 158.943 140.777 159.464 141.332 159.497C141.387 159.5 141.449 159.628 141.513 159.647C141.923 159.766 141.732 160.452 142.364 160.466L142.626 160.472C143.004 160.903 143.32 161.388 143.565 161.912L143.99 162.037L144.373 162.148C144.623 162.575 144.943 162.953 145.319 163.265L145.455 163.677C145.525 163.888 145.846 164.064 146.068 164.246L146.281 164.419C146.268 164.546 146.283 164.674 146.327 164.792C146.371 164.911 146.441 165.016 146.532 165.101L146.702 165.228C146.836 165.326 147.084 165.307 147.086 165.544C147.085 165.974 147.411 166.195 147.658 166.506C147.997 166.989 148.304 167.495 148.577 168.022L148.653 168.149C148.726 168.28 148.717 168.42 148.632 168.46C148.525 168.504 148.427 168.567 148.341 168.647C148.417 168.711 148.511 168.748 148.609 168.755C148.752 168.796 148.885 168.868 148.998 168.966C149.112 169.064 149.203 169.187 149.267 169.325L149.286 169.571L149.296 169.701C149.243 169.838 149.257 169.966 149.337 169.982C149.417 169.998 149.497 170.218 149.458 170.376C149.419 170.534 149.387 171.025 149.46 170.979C149.534 170.934 149.759 170.891 149.762 171.006C149.823 171.277 149.918 171.537 150.047 171.781L150.165 171.97C150.463 172.446 150.463 172.6 150.204 173.274L150.158 173.392C150.168 173.582 150.337 173.67 150.535 173.587L150.608 173.856L150.636 173.955C150.943 174.199 151.276 174.406 151.63 174.572L152.067 174.745L152.942 175.09C153.901 175.493 155 175.967 155.383 176.143C155.766 176.318 157.131 176.968 157.564 177.204C157.996 177.44 159.432 178.221 159.835 178.381C160.237 178.54 161.319 179.328 161.526 179.383L161.645 179.5L162.071 179.92C162.615 180.237 163.486 180.761 164 181.085C164.514 181.408 166.076 182.484 166.393 182.616L166.578 182.821L166.789 183.056C167.07 183.243 167.432 183.462 167.595 183.542C167.757 183.623 169.022 184.492 170.118 185.195L170.909 186.114L171.136 186.377C171.497 186.642 171.877 186.878 172.273 187.084L172.538 187.297C172.852 187.551 173.146 187.832 173.449 188.102L173.723 188.343C174.14 188.728 174.525 189.148 174.876 189.598L175.375 189.862L175.764 190.069C176.104 190.558 176.491 191.124 176.621 191.33C176.958 191.651 177.275 191.994 177.57 192.356L177.994 192.291L178.039 192.284C178.235 192.444 178.419 192.619 178.589 192.806C178.858 193.282 179.099 193.773 179.313 194.278L179.436 194.483L179.622 194.795C179.811 194.634 180.025 194.594 180.1 194.708C180.174 194.823 180.435 195.422 180.589 195.783L180.527 196.03L180.392 196.56C180.841 196.589 181.264 196.778 181.588 197.096L181.49 197.523C181.489 197.578 181.501 197.632 181.524 197.682C181.546 197.732 181.58 197.775 181.621 197.81C182.181 198.093 181.96 198.61 182.174 198.996C182.218 199.075 182.166 199.292 182.113 199.301C181.936 199.327 181.844 199.348 182.026 199.536C182.122 199.61 182.211 199.692 182.292 199.783C182.369 199.908 182.371 200.078 182.457 200.189C182.655 200.427 182.546 200.581 182.369 200.571L181.946 200.544C182.083 200.8 182.198 201.069 182.29 201.346C182.345 201.537 182.739 202.085 182.668 202.363L182.604 202.615C182.524 202.929 182.208 202.928 181.961 203.001L181.922 203.012C181.776 202.631 181.756 202.209 181.865 201.812L181.931 201.377L181.919 201.344ZM143.819 178.192C143.888 178.417 143.834 178.528 143.699 178.439C143.338 178.232 142.96 178.059 142.569 177.921L142.351 178.103C142.039 178.362 141.69 178.041 141.365 178.054C141.043 178.034 140.725 177.979 140.415 177.891C140.1 177.853 139.788 177.79 139.482 177.705C138.965 177.479 138.38 177.473 137.853 177.689C137.654 177.786 137.53 177.899 137.316 177.645C137.146 177.442 137.016 177.479 136.868 177.63C136.828 177.67 136.593 177.481 136.494 177.507C136.395 177.532 136.329 177.798 136.303 177.786L135.786 177.544C135.285 177.661 134.717 177.78 134.52 177.808C134.324 177.836 133.174 177.652 132.405 177.548L131.713 177.67L131.19 177.76C130.566 177.634 130.021 177.651 129.977 177.8L129.918 177.8L129.793 177.798C129.474 177.727 129.142 177.742 128.829 177.842C128.447 177.943 127.265 178.336 127.022 178.436C126.566 178.659 126.135 178.932 125.735 179.25C125.5 179.477 125.882 180.561 125.935 180.694C126.057 180.928 126.248 181.115 126.481 181.228C126.69 181.282 127.444 181.756 127.902 181.981C128.36 182.205 129.895 182.912 130.314 183.027C131.304 183.237 132.304 183.396 133.31 183.502L134.026 183.897C134.067 183.92 134.14 183.833 134.203 183.836C134.499 183.851 134.919 184.013 135.069 183.874C135.414 183.568 135.667 184.121 135.952 184.027C135.999 184.011 136.112 184.117 136.146 184.097C136.644 183.806 137.283 184.073 137.821 183.973C138.375 183.87 138.891 183.671 139.467 183.606C139.955 183.549 140.436 183.43 140.897 183.251C141.317 183.089 141.785 183.051 142.205 182.867L142.584 182.702C142.962 182.647 143.332 182.542 143.686 182.391L143.675 182.316C143.61 181.864 143.749 181.804 144.156 182.057C144.215 182.093 144.428 181.9 144.51 181.771L144.576 181.67C144.731 181.43 144.908 181.205 145.104 180.997L145.502 180.93L145.8 180.884C146.037 180.614 146.315 180.387 146.623 180.21C146.797 180.144 146.751 179.504 146.851 179.373C146.951 179.241 145.998 178.923 145.385 178.854L144.834 178.624C144.6 178.526 144.374 178.4 144.136 178.314L143.819 178.192ZM58.6838 105.935C58.316 105.756 58.1196 105.767 58.2415 105.95C58.3635 106.132 58.6531 106.69 58.7928 106.723C58.9326 106.756 59.3527 107.03 59.5097 107.056C59.6666 107.083 60.0254 107.642 60.293 107.817C60.5606 107.992 61.4839 108.442 61.7375 108.664C61.9912 108.886 62.9013 109.001 63.0146 109.186L63.1666 109.292C63.2725 109.365 63.4603 109.276 63.5967 109.329C63.6731 109.359 63.7112 109.602 63.7805 109.622L64.0945 109.711C64.4192 109.759 64.7293 109.878 65.0046 110.059C65.5699 110.319 66.1555 110.531 66.7553 110.692L67.2177 110.928L67.6639 111.156C67.9808 111.081 68.2927 111.171 68.3554 111.357L68.4536 111.408L68.6777 111.526C68.9467 111.586 69.5142 111.682 69.9386 111.738C70.363 111.794 71.6983 112.205 71.97 112.254L72.2096 112.338L72.443 112.42C72.6043 112.39 72.7675 112.374 72.9311 112.373L72.9545 112.356C73.0105 112.324 73.0985 112.286 73.0944 112.24L73.0935 112.15C72.9948 111.98 72.8798 111.822 72.7502 111.676C72.4575 111.353 72.1262 111.068 71.7641 110.83L71.5365 110.711L71.257 110.564C70.8899 110.295 70.5514 109.988 70.247 109.646L69.8975 109.453L69.6327 109.303C69.632 109.023 69.5511 108.749 69.4001 108.518L69.3048 108.511L68.8224 108.481C68.5107 108.248 68.0456 107.884 67.7871 107.671L67.5338 107.52C67.247 107.349 66.8444 107.267 67.1205 106.831C67.1296 106.815 66.912 106.562 66.8387 106.569L66.5142 106.595C66.1829 106.672 65.8927 106.648 65.8624 106.547C65.8322 106.446 65.8463 106.223 65.9454 106.262C66.0445 106.302 66.1068 106.281 65.7146 106.095C65.3225 105.91 64.3214 105.778 64.404 105.63C64.4866 105.483 64.4622 105.14 64.2002 105.138C63.8035 105.152 63.4066 105.143 63.0116 105.111C62.8575 105.065 62.4362 104.867 62.4012 104.968C62.3663 105.07 61.6567 105.023 61.2731 104.993L60.9654 105.136C60.7931 105.216 60.5564 105.358 60.4172 105.285C60.3245 105.216 60.21 105.185 60.0955 105.199C59.9811 105.212 59.8748 105.269 59.7973 105.357C59.5895 105.524 59.175 105.459 58.9887 105.638L58.6838 105.935Z" fill="#6FB2A5"/>
<path d="M8.80964 62.5816L8.83363 62.3212L8.88029 61.8035L7.89456 61.0563C7.73822 60.9387 7.27152 60.546 7.32804 60.4476C7.35673 60.3129 7.35245 60.1733 7.31565 60.0415C7.27884 59.9096 7.21074 59.7895 7.11734 59.6923C6.99169 59.5201 6.92514 59.3093 6.92815 59.0926C6.91879 58.8957 6.94655 58.7534 6.99298 58.8538C7.10161 59.1007 7.25138 59.3255 7.43559 59.5183C7.5054 59.5166 7.79587 59.3784 7.7613 59.2167L7.66686 59.1177C7.34033 58.7817 7.56583 58.6317 7.712 58.413C7.83573 58.232 8.21512 58.3503 8.16111 57.9319L8.13132 57.7017C8.36786 57.4064 8.62536 57.1298 8.90173 56.8741C9.13041 56.6725 9.86682 57.2568 10.0043 57.3546C10.1417 57.4525 10.6621 57.9146 10.9106 58.1116C11.1591 58.3087 11.8324 59.1887 12.0724 59.3573C12.3124 59.5258 12.889 60.4115 13.1043 60.5824C13.3592 60.8578 13.6403 61.106 13.9432 61.3237C14.1425 61.4897 14.3038 61.6991 14.4157 61.9371C14.5674 62.1995 14.7426 62.4465 14.9388 62.6749C15.3266 63.0849 16.6807 64.4902 17.0654 64.9103C17.5922 65.5355 18.0845 66.191 18.5401 66.8736L18.6804 66.9739L19.6895 67.704C20.5646 68.7446 21.5126 69.8844 21.7991 70.2451L22.0816 70.555C22.3771 70.802 22.6231 71.1059 22.8065 71.4501L22.9082 71.6994C23.2349 71.9233 23.6707 72.2255 23.8789 72.368C24.087 72.5105 24.6046 73.2758 24.8205 73.4217C25.0364 73.5675 25.5486 74.4129 25.7985 74.6827C26.2707 75.1257 26.7705 75.5361 27.2948 75.9115L27.3076 76.0555C27.3138 76.1293 27.3407 76.1994 27.3851 76.2571C27.4296 76.3148 27.4895 76.3576 27.5576 76.3803C27.6314 76.4101 27.6962 76.4591 27.746 76.5227C27.869 76.7146 28.0088 76.8944 28.1635 77.0599C28.3605 77.2631 28.6035 77.4261 28.7891 77.6366C28.8519 77.7179 28.9038 77.8076 28.9438 77.9032C29.0064 78.0356 29.0615 78.16 29.1345 78.1839C29.65 78.3338 29.7644 78.8762 30.1582 79.1329C30.3905 79.2945 30.6037 79.4833 30.7937 79.6957L30.9618 79.8708C31.1304 80.0988 31.2838 80.3384 31.4209 80.5881L31.6147 80.7131C31.7411 80.7678 31.8529 80.8528 31.9406 80.9613C32.0283 81.0697 32.0895 81.1985 32.1193 81.3368L32.1298 81.4198C32.5428 81.6134 32.9331 81.8542 33.2935 82.1379C33.5826 82.4412 33.8247 82.789 34.0114 83.169C34.1258 83.3776 34.2058 83.5354 34.2179 83.5467C34.2503 83.5768 34.6999 84.02 35.149 84.4625C35.5981 84.905 36.9283 86.312 37.1413 86.5709C37.3543 86.8297 38.0404 87.6802 38.1932 87.881L38.3492 88.0482C38.6072 88.3268 38.9965 88.4177 39.2097 88.8006C39.3008 88.9381 39.4176 89.0553 39.5533 89.1454C39.7498 89.2641 39.8992 89.4506 39.9755 89.6724L40.082 90.0974C40.469 90.422 40.8363 90.7708 41.1816 91.1421C41.4187 91.4091 42.5137 92.3911 42.9419 92.8399C43.3702 93.2886 44.6089 94.5688 44.7594 94.6649C44.9787 94.8618 45.17 95.0895 45.328 95.3415C45.4107 95.4872 46.1622 95.8589 46.5675 96.1711C47.0764 96.746 47.5481 97.355 47.9796 97.9942L48.1575 98.1532L49.7317 99.5591C51.4643 101.1 53.0887 102.621 53.3405 102.935L53.7545 102.902C53.8489 102.894 54.0344 103.076 54.108 103.203C54.2118 103.385 54.1383 103.7 54.4749 103.686L54.8517 103.672C55.2318 103.619 55.5806 103.422 55.8297 103.119L56.1361 103.088C56.1963 103.083 56.1957 102.898 56.2466 102.814L56.3716 102.604C56.4604 102.755 56.6018 102.865 56.7673 102.912L56.8015 102.865L56.8749 102.758C57.0277 102.535 57.2446 102.368 57.4944 102.28C57.7853 102.157 58.7994 102.153 59.0486 102.42L59.2734 102.177C59.3712 102.081 59.4887 102.009 59.617 101.966C59.7452 101.923 59.881 101.91 60.014 101.929L60.1053 101.928C60.2586 101.753 60.3939 101.561 60.509 101.356L60.8667 101.478L60.965 101.512C61.0806 101.481 61.4104 101.425 61.7001 101.387C62.1438 101.458 62.5719 101.606 62.9661 101.825L63.0664 101.847L63.1737 101.872C63.3645 101.844 63.5524 101.798 63.7355 101.735C63.9299 101.67 64.4314 101.675 64.4974 102.002L64.8548 101.665L65.0022 101.524C65.0969 101.504 65.1945 101.505 65.2883 101.527C65.3821 101.55 65.4698 101.593 65.5453 101.655C65.8901 101.896 66.2633 102.091 66.656 102.236C67.1042 102.414 68.5115 102.936 68.7911 103.074C69.3696 103.416 69.9307 103.787 70.4726 104.187C70.8775 104.491 72.4405 105.389 72.9289 105.733L73.2559 106.187L73.458 106.469C73.7622 106.687 74.2839 107.107 74.6165 107.404L74.9189 107.674C75.2222 107.944 75.5248 108.214 75.8268 108.483C75.892 108.527 75.9469 108.585 75.9876 108.653C76.0672 108.931 75.9545 109.258 76.4692 109.361C76.5611 109.379 76.6329 109.522 76.7184 109.688C76.7842 109.831 76.8704 109.962 76.9744 110.078C77.1487 110.27 77.2919 110.49 77.3987 110.73C77.5332 111.051 77.7431 111.331 78.0095 111.547C78.0288 111.561 77.9926 111.671 77.9816 111.735C77.9712 111.899 77.9381 112.06 77.8834 112.214L77.7208 112.518C77.9695 112.643 78.0631 112.781 77.9287 112.824L77.9101 112.957C77.8815 113.156 77.8858 113.365 77.876 113.569L77.6758 114.251L77.537 114.368C77.4665 114.555 77.3245 114.982 77.2221 115.317L77.1207 115.623C77.0536 115.905 76.9644 116.181 76.8539 116.449C76.6148 116.911 76.345 117.357 76.0465 117.781L75.8784 118.016C75.6681 118.194 75.4295 118.332 75.1735 118.424C74.9049 118.413 74.6384 118.374 74.3778 118.308C74.0786 118.268 73.7735 118.312 73.4949 118.436L73.2941 118.482C73.0616 118.54 72.776 118.178 72.5293 118.457L72.4068 118.598C72.3017 118.405 72.1562 118.239 71.9806 118.112C71.7002 118.013 71.4132 117.935 71.122 117.877L70.921 117.793L70.7194 117.708C70.488 117.564 70.2345 117.521 70.1551 117.615C70.0758 117.709 69.712 117.917 69.5793 117.799C69.4467 117.681 69.0433 117.388 69.0507 117.474C69.0581 117.561 69.0111 117.737 68.945 117.743L68.8905 117.715C68.8195 117.677 68.7576 117.623 68.7093 117.556C68.2974 116.987 67.8032 117.187 67.345 117.177C67.0068 117.171 66.9625 117.18 67.0207 116.817L67.0885 116.403C66.8869 116.503 66.6905 116.513 66.6554 116.424C66.6204 116.336 66.3723 116.159 66.3571 116.239L66.3626 116.315L66.3951 116.732C66.1121 116.646 65.3871 116.424 64.7824 116.236L64.2349 116.057C64.0561 116.02 63.889 115.939 63.7471 115.821C63.4692 115.557 63.1339 115.366 62.7688 115.263L62.5237 115.158C62.4063 115.006 62.2551 114.886 62.0828 114.808L62.0098 114.813C61.9169 114.819 61.7883 114.888 61.7453 114.849C61.2909 114.521 60.8013 114.247 60.2861 114.033L59.8393 113.781C59.352 113.438 58.6561 112.973 58.2911 112.749L57.9683 112.624C57.6954 112.516 57.5238 112.524 57.4333 112.169L57.3735 111.932C57.2447 111.909 57.1224 111.858 57.0152 111.782C56.908 111.705 56.8185 111.605 56.7529 111.489C56.7214 111.328 56.2825 111.385 56.1706 111.419C56.0588 111.454 55.7465 111.024 55.5554 110.835L55.3147 110.951L55.2581 110.979C55.1394 110.965 55.2069 111.128 55.3988 111.346C55.6574 111.709 55.9833 112.014 56.3578 112.244L56.441 112.561C56.5105 112.848 56.6178 113.123 56.7601 113.379L56.8924 113.603C57.1214 113.828 57.3918 114.003 57.6879 114.118C57.9111 114.188 58.6751 115.356 59.4537 116.05C60.2323 116.745 62.4085 118.687 62.5053 118.905C62.6022 119.123 63.3168 119.232 63.4769 119.291C63.637 119.35 64.1444 120.09 64.4668 120.368L64.8131 120.557L65.1961 120.769C65.6335 121.096 66.0902 121.396 66.5637 121.665L66.7314 122.023L66.8098 122.19C66.7936 122.405 66.9478 122.425 67.1534 122.231L67.4085 122.616L67.6546 122.978C68.1434 123.287 68.6059 123.638 69.0376 124.028L69.5327 124.093L69.7028 124.116C70.0415 124.575 70.4374 124.984 70.8807 125.335C71.3222 125.684 72.6319 126.296 72.6097 126.369C72.6061 126.433 72.6256 126.496 72.6644 126.546C72.7031 126.596 72.7584 126.63 72.8199 126.64C72.9741 126.663 73.4402 126.851 73.7623 126.902L73.7857 127.007C73.8904 127.483 74.2711 127.576 74.5904 127.773L74.6296 127.797C74.7944 128.022 75.0142 128.198 75.2667 128.307C75.612 128.494 76.7631 129.224 77.0983 129.417C77.6251 129.721 78.0921 130.123 78.4752 130.603L78.8544 130.464C79.0082 130.408 79.3276 130.605 79.5417 130.746C79.7648 130.92 79.9792 131.106 80.1842 131.302C80.2678 131.375 80.3728 131.416 80.4827 131.42C80.6552 131.399 80.8296 131.427 80.9871 131.501C81.1446 131.574 81.2793 131.691 81.3765 131.839L81.6487 132.172C82.3215 132.454 82.9719 132.789 83.5943 133.174C84.2795 133.589 86.7537 134.913 87.5034 135.332L88.1772 135.736C88.6141 136.085 89.1329 136.309 89.6821 136.387C89.7877 136.403 89.8861 136.45 89.966 136.522C89.9434 136.912 90.2845 136.872 90.4659 136.948C90.9976 137.119 91.4995 137.375 91.9536 137.706L92.3034 137.996C92.8138 138.087 93.3078 138.254 93.7697 138.493C94.2991 138.753 94.848 138.97 95.411 139.142C95.7215 139.231 96.6502 139.714 96.8942 139.822C97.1382 139.931 98.7608 140.587 99.9759 141.095L101.083 141.553C101.208 141.626 101.345 141.676 101.487 141.7L101.889 141.685C102.241 141.846 102.605 141.977 102.977 142.08C103.168 142.117 103.795 142.501 103.987 142.553L104.16 142.556C104.311 142.538 104.463 142.556 104.605 142.607C104.748 142.658 104.877 142.742 104.983 142.852C105.129 142.961 105.299 143.034 105.478 143.063C105.721 143.135 105.995 143.123 106.207 143.252L107.072 143.773C107.936 143.924 108.789 144.133 109.626 144.399C110.239 144.599 110.862 144.765 111.493 144.897C111.834 145.026 112.168 145.173 112.494 145.337C112.943 145.504 113.403 145.64 113.87 145.744L114.224 145.805C114.335 145.825 114.435 145.882 114.511 145.967L114.725 146.253C115.041 146.328 116.035 146.646 116.935 146.96L117.7 147.444C117.729 147.461 117.772 147.451 117.806 147.464L118.351 147.652C118.885 147.879 119.433 148.068 119.991 148.219C120.297 148.283 121.446 148.991 121.958 149.237C122.469 149.482 124.208 149.961 124.612 150.139C125.015 150.316 126.611 151.102 127.266 151.46L127.864 151.599L128.37 151.718C128.75 151.994 129.159 152.224 129.59 152.403C129.83 152.475 130.933 153.077 131.511 153.381L132.036 153.595C132.504 153.785 132.736 154.305 133.301 154.36C133.663 154.397 134.058 154.831 134.444 155.067C135.214 155.531 135.992 155.978 136.767 156.431L136.829 156.467C136.906 156.493 137.527 156.936 138.211 157.451L138.841 157.907C139.244 158.199 139.666 158.46 140.074 158.742C140.482 159.025 140.758 159.544 141.311 159.579C141.366 159.582 141.428 159.711 141.492 159.729C141.57 159.762 141.638 159.813 141.693 159.878C141.747 159.944 141.785 160.022 141.805 160.106C141.832 160.232 141.9 160.345 141.997 160.426C142.095 160.506 142.216 160.55 142.342 160.55L142.604 160.556C142.982 160.987 143.298 161.473 143.544 161.997L143.968 162.123L144.351 162.236C144.601 162.663 144.921 163.041 145.297 163.354L145.435 163.767C145.505 163.978 145.826 164.153 146.047 164.336L146.261 164.509C146.247 164.636 146.263 164.763 146.307 164.882C146.351 165 146.422 165.106 146.513 165.19L146.683 165.317C146.816 165.416 147.065 165.398 147.067 165.635C147.065 166.064 147.392 166.285 147.64 166.597C147.979 167.081 148.287 167.588 148.561 168.114L148.636 168.242C148.71 168.374 148.701 168.514 148.616 168.552C148.531 168.591 148.316 168.713 148.327 168.74C148.403 168.804 148.496 168.841 148.594 168.848C148.738 168.889 148.871 168.961 148.984 169.059C149.097 169.158 149.189 169.281 149.252 169.419L149.272 169.665L149.282 169.795C149.229 169.932 149.244 170.06 149.324 170.076C149.404 170.093 149.484 170.312 149.446 170.47C149.407 170.629 149.376 171.119 149.45 171.074C149.523 171.03 149.746 170.987 149.75 171.102C149.812 171.372 149.908 171.632 150.036 171.876L150.154 172.065C150.453 172.541 150.453 172.695 150.197 173.368L150.15 173.486C150.161 173.676 150.33 173.764 150.526 173.682L150.6 173.951L150.627 174.049C150.934 174.294 151.267 174.502 151.621 174.668L152.057 174.841L152.933 175.188C153.891 175.593 154.988 176.068 155.371 176.245C155.753 176.421 157.118 177.074 157.551 177.31C157.984 177.546 159.418 178.331 159.82 178.49C160.222 178.649 161.304 179.44 161.511 179.495L161.629 179.612L162.057 180.033C162.601 180.351 163.472 180.876 163.986 181.2C164.5 181.525 166.058 182.599 166.378 182.735L166.561 182.937L166.772 183.171C167.053 183.36 167.415 183.579 167.578 183.659C167.74 183.74 169.004 184.612 170.101 185.317L170.892 186.237L171.119 186.5C171.48 186.766 171.86 187.003 172.255 187.209L172.521 187.423C172.834 187.677 173.128 187.958 173.431 188.228L173.705 188.471C174.122 188.856 174.508 189.276 174.859 189.727L175.358 189.992L175.747 190.199C176.087 190.688 176.474 191.255 176.605 191.462C176.732 191.613 176.87 191.753 177.019 191.882C177.224 192.058 177.405 192.262 177.556 192.488L177.978 192.424L178.024 192.416C178.219 192.577 178.403 192.752 178.573 192.94C178.751 193.194 178.895 193.471 179.001 193.765C179.086 193.988 179.185 194.204 179.298 194.413L179.421 194.617L179.608 194.928C179.796 194.769 180.009 194.729 180.084 194.844C180.159 194.959 180.421 195.556 180.575 195.918L180.513 196.163L180.38 196.693C180.828 196.723 181.25 196.913 181.574 197.231L181.478 197.658C181.477 197.713 181.488 197.768 181.511 197.817C181.534 197.867 181.567 197.911 181.608 197.945C182.169 198.23 181.948 198.746 182.162 199.132C182.207 199.211 182.156 199.429 182.103 199.436C181.926 199.462 181.834 199.484 182.017 199.671C182.113 199.745 182.202 199.828 182.283 199.92C182.361 200.044 182.363 200.214 182.449 200.325C182.647 200.564 182.538 200.717 182.362 200.707L181.94 200.679C182.077 200.936 182.193 201.204 182.285 201.482C182.341 201.673 182.734 202.221 182.664 202.499L182.601 202.75C182.522 203.064 182.207 203.061 181.96 203.134L181.921 203.145C181.775 202.764 181.754 202.342 181.862 201.945L181.927 201.51L181.932 201.475C181.79 201.355 181.655 201.355 181.625 201.466C181.594 201.576 181.439 201.766 181.374 201.514C181.309 201.263 181.43 200.516 181.312 200.602C181.194 200.689 180.807 200.897 180.887 200.75C180.935 200.638 180.949 200.513 180.924 200.394C180.899 200.274 180.839 200.166 180.75 200.085C180.35 199.753 180 199.362 179.709 198.924L179.406 198.69C179.312 198.606 179.233 198.505 179.172 198.392C179.138 198.342 179.108 198.288 179.071 198.243C178.938 198.061 178.688 197.85 178.693 197.701C178.701 197.495 178.594 197.483 178.482 197.466C178.439 197.465 178.398 197.454 178.361 197.432C178.325 197.41 178.294 197.379 178.273 197.341L178.184 197.144C177.843 196.941 177.548 196.663 177.322 196.329L177.107 196.131C176.813 195.859 176.341 195.712 176.156 195.41L175.901 194.993C175.336 194.713 174.8 194.376 174.302 193.986L173.894 193.547C173.535 193.071 173.049 192.713 172.495 192.518C172.231 192.415 172.012 192.217 171.877 191.962C171.842 191.87 171.787 191.789 171.716 191.724C171.645 191.66 171.56 191.613 171.469 191.588C171.197 191.478 170.683 191.489 170.695 190.94C170.652 190.879 170.588 190.838 170.516 190.825C170.332 190.889 170.283 190.771 170.241 190.662C170.21 190.587 170.181 190.513 170.111 190.494C169.898 190.462 169.691 190.399 169.496 190.307L169.342 190.202C169.071 189.85 168.746 189.546 168.379 189.304C167.813 188.938 167.218 188.624 166.6 188.363L166.545 188.151C166.502 188.023 166.424 187.911 166.32 187.829C166.215 187.747 166.089 187.699 165.957 187.691C165.644 187.589 165.345 187.446 165.068 187.264C164.756 187.145 164.467 186.969 164.215 186.744C163.986 186.464 163.594 186.541 163.447 186.2C163.432 186.164 163.44 186.098 163.426 186.092C163.084 185.944 162.656 186.059 162.415 185.598L161.468 184.921L161.09 184.807C160.493 184.585 159.917 184.307 159.371 183.974L158.901 183.653C158.704 183.524 158.549 183.286 158.361 183.562C158.343 183.589 158.103 183.513 158.087 183.466L157.868 182.805C157.399 182.801 156.933 182.746 156.477 182.639C156.09 182.514 155.693 182.426 155.291 182.377C155.076 182.381 154.426 181.655 154.039 181.419C153.237 181.218 152.42 181.081 151.596 181.01L151.161 180.582L150.923 180.348C150.449 180.229 150.068 180.619 150.076 181.215L149.949 181.658C149.83 182.159 149.671 182.649 149.474 183.124C149.109 184.185 148.521 185.152 147.754 185.955L147.22 186.403C146.683 186.946 146.006 187.584 145.717 187.823L145.539 188.164C145.308 188.475 145.002 188.72 144.653 188.874L144.333 189.068C143.94 189.224 143.484 189.4 143.316 189.456C143.023 189.567 142.739 189.705 142.469 189.868C142.331 189.969 141.74 189.84 141.644 189.871L141.562 189.911L140.993 190.198C140.109 190.301 139.22 190.346 138.332 190.333L137.907 190.531C137.591 190.682 137.264 190.358 136.968 190.595C136.81 190.722 136.358 190.502 136.043 190.451C135.896 190.424 135.747 190.421 135.599 190.439C135.438 190.466 135.295 190.577 135.137 190.563C135.096 190.559 135.088 190.501 135.077 190.436C135.059 190.337 135.028 190.218 134.846 190.256C134.663 190.294 134.442 189.879 134.295 190.211L132.939 190.055L132.381 189.955C131.782 189.747 130.818 189.445 130.236 189.282L129.714 189.205C129.422 189.154 129.145 189.04 128.9 188.871C128.477 188.663 128.041 188.487 127.593 188.343C127.224 188.186 126.8 188.097 126.621 187.624C126.597 187.562 126.504 187.516 126.445 187.46L126.066 187.123C125.508 186.782 125.006 186.353 124.576 185.852L124.229 185.492L123.88 185.129C123.562 184.749 123.227 184.387 122.874 184.044C122.62 183.578 122.395 183.097 122.199 182.602C121.819 181.651 121.54 180.659 121.367 179.644L121.609 179.259L121.809 178.945C121.767 178.51 121.784 178.069 121.861 177.637L121.936 177.32C122.017 176.972 122.122 176.63 122.218 176.289C122.246 176.196 122.342 176.107 122.32 176.023C122.231 175.823 122.153 175.618 122.087 175.41C122.06 175.222 122.457 175.294 122.35 174.955C122.297 174.792 122.453 174.589 122.533 174.422C122.706 173.991 122.928 173.584 123.195 173.208L123.528 172.821C123.98 172.47 124.961 171.817 125.709 171.371L126.385 170.966L126.882 170.667C127.576 170.626 128.268 170.542 128.953 170.415L129.409 170.548L129.803 170.662C130.305 170.549 130.82 170.513 131.33 170.555C131.949 170.605 132.569 170.622 133.19 170.608C133.466 170.59 134.201 170.686 134.223 170.505C134.246 170.324 134.964 170.777 135.334 170.871C135.705 170.964 137.781 170.753 139.305 170.95L140.69 171.222C142.404 171.56 144.118 171.993 145.83 172.397L146.137 172.471C146.472 172.611 146.515 172.195 146.233 171.541C145.551 170.265 144.795 169.034 143.969 167.853L143.437 167.167L143.127 166.768C142.732 166.481 142.374 166.143 142.062 165.762C141.921 165.543 141.189 165.029 141.046 164.853L140.957 164.671C140.908 164.569 140.815 164.564 140.722 164.561C140.603 164.556 140.486 164.554 140.467 164.357C140.458 164.329 140.444 164.303 140.425 164.281C140.407 164.259 140.384 164.241 140.359 164.228C140.226 164.172 139.186 163.491 139.069 163.399C138.977 163.326 138.834 163.314 138.757 163.235C138.347 162.819 137.546 162.887 137.433 162.091L137.427 162.046C137.277 161.986 136.737 161.712 136.234 161.427C135.731 161.143 134.318 160.534 134.184 160.865L134.061 160.239L133.986 159.863C133.688 159.745 133.121 159.487 132.722 159.296C132.323 159.106 130.912 158.49 130.517 158.233L130.16 158.175C130.064 158.155 129.975 158.109 129.902 158.042C129.83 157.974 129.777 157.887 129.749 157.79C129.724 157.724 129.713 157.679 129.703 157.685L128.975 158.131C128.286 157.578 127.675 157.086 127.621 157.037C127.51 156.91 127.408 156.776 127.315 156.635C127.241 156.526 126.577 156.649 126.336 156.41C125.702 156.031 125.026 155.732 124.323 155.518L123.859 155.305C123.496 155.212 123.157 155.039 122.867 154.798C122.748 154.668 122.453 154.72 122.252 154.636L122.141 154.589C122.041 154.443 121.737 154.435 121.467 154.562L121.37 154.053C121.359 154.005 120.912 154.005 120.696 153.9L120.52 153.814C120.287 153.604 120.025 153.43 119.743 153.299L119.507 153.384C119.448 153.404 119.386 153.411 119.325 153.404C119.264 153.397 119.205 153.376 119.152 153.344C118.847 153.038 118.354 152.621 118.069 152.679L117.469 152.801C117.017 152.583 116.555 152.39 116.084 152.223L115.972 152.136C115.735 151.949 115.526 151.654 115.246 151.949C115.224 151.965 115.046 151.863 114.967 151.787C114.652 151.484 114.369 151.339 114.012 151.588C113.885 151.674 113.853 151.555 113.837 151.458C113.828 151.405 113.823 151.356 113.815 151.362L113.439 151.339C113.029 151.218 112.199 150.95 111.586 150.75L111.092 150.462L110.649 150.205C110.155 150.077 109.354 149.842 108.873 149.679L108.422 149.604C108.345 149.571 108.283 149.51 108.248 149.432C108.151 149.29 108.054 149.148 107.864 149.399C107.81 149.469 107.414 149.254 107.176 149.169L106.899 149.072C106.501 148.87 106.087 148.704 105.661 148.577C105.256 148.463 103.749 147.938 103.151 147.801C102.315 147.454 101.5 147.059 100.709 146.617C100.299 146.514 99.8956 146.387 99.4997 146.238C99.2908 146.118 98.4867 145.926 98.2921 145.819C98.0342 145.589 97.8039 145.327 97.606 145.039C97.5313 144.947 97.4001 144.887 97.5889 145.234L97.2827 145.442C97.0893 145.572 96.973 145.536 96.8466 145.345C96.7642 145.224 96.699 144.959 96.6733 144.96L95.6777 145.009C95.288 144.541 94.8703 144.098 94.4271 143.683C94.4847 143.785 94.415 143.953 94.1614 143.859C93.6421 143.645 93.1382 143.394 92.6534 143.108L92.3714 143.083L92.0566 143.055C91.5615 142.729 91.0167 142.491 90.4444 142.35L89.9585 141.914L89.6163 141.61C89.4474 141.611 89.2808 141.572 89.1295 141.496C88.9782 141.42 88.8461 141.309 88.7435 141.172C88.6464 140.952 88.1603 140.672 88.0291 140.959L87.5794 140.649C87.3804 140.517 87.1596 140.476 87.0964 140.2L87.087 140.159C86.9887 140.118 86.3282 139.929 85.6175 139.734L85.2355 139.332C85.1503 139.236 85.0751 139.131 85.0111 139.018C84.9341 138.868 84.8264 138.737 84.6954 138.634C84.4634 138.482 84.1428 138.503 83.863 138.432C83.5822 138.371 83.3066 138.288 83.0386 138.183L82.8509 138.103C82.6735 137.873 82.541 137.61 82.4606 137.327L82.2163 137.583C82.1851 137.616 81.9044 137.428 81.7568 137.315L81.2955 136.968C80.916 136.704 80.5733 136.387 80.2764 136.027C80.2719 135.899 80.2505 135.772 80.2126 135.651C80.1773 135.654 80.1433 135.666 80.1143 135.688C80.0853 135.709 80.0622 135.738 80.0476 135.771C80.0106 135.856 79.8381 136.105 79.7748 136.073C79.6287 135.84 79.5207 135.583 79.4553 135.312L79.0907 135.629C78.9671 135.588 78.8592 135.508 78.7812 135.401C78.7661 135.086 78.5445 135.213 78.4207 135.133C78.3687 135.08 78.3355 135.01 78.3261 134.935C78.312 134.866 78.2841 134.801 78.2442 134.744L78.1541 134.637C78.0018 134.574 77.6893 134.467 77.4592 134.4C76.9303 134.209 76.4324 133.938 75.9814 133.596L75.5822 133.519C75.3933 133.495 75.2156 133.415 75.0712 133.288C74.9268 133.161 74.8219 132.993 74.7693 132.804C74.7556 132.779 74.737 132.757 74.7147 132.739C74.6925 132.722 74.667 132.709 74.6397 132.702L73.9171 132.795C73.53 132.182 73.3005 131.738 73.4037 131.805C73.507 131.872 73.8094 131.97 73.664 131.759L73.6643 131.647C73.6609 131.305 73.4081 131.477 73.3017 131.388C73.111 131.232 72.9814 131.355 72.8561 131.335L72.5037 131.277C71.983 131.013 71.7715 130.787 72.0333 130.774L72.112 130.717L72.177 130.669C72.1726 130.586 72.1476 130.506 72.1044 130.436C72.0612 130.366 72.0013 130.308 71.9304 130.269L71.8542 130.3L71.2769 130.527C70.8182 130.173 70.2873 129.776 70.089 129.646L70.0308 129.54L69.8202 129.157C69.4927 128.978 69.1547 128.82 68.8083 128.683C68.6207 128.621 68.3015 128.072 68.1787 128.004C68.0056 127.855 67.8242 127.717 67.6355 127.59C67.5417 127.579 67.2045 127.449 67.1566 127.324C67.0414 127.073 66.878 126.85 66.6764 126.667C66.2119 126.442 65.7323 126.251 65.2413 126.095L65.0207 125.822L64.5475 125.238C63.8865 124.935 63.2865 124.508 62.777 123.98L62.4672 123.646L62.2912 123.458C61.9802 123.296 61.6985 123.08 61.4582 122.82C61.0128 122.463 60.5261 122.165 60.009 121.932L59.9244 121.616L59.835 121.28C59.6358 121.143 59.4199 121.034 59.1928 120.955L59.1839 120.929C59.0054 120.531 58.7183 120.196 58.3575 119.965C58.0955 119.782 57.8647 119.555 57.6743 119.294L57.5353 119.076C57.4441 118.799 57.2775 118.567 57.1669 118.561C56.8118 118.417 56.5136 118.155 56.3177 117.818C56.1262 117.423 54.9144 115.876 54.2875 114.99L53.7536 114.179C53.5365 113.848 53.3811 113.47 53.15 113.12L52.8969 112.728C52.802 112.203 52.6897 111.572 52.6495 111.325C52.5902 110.985 52.5512 110.642 52.5329 110.297C52.5522 110.222 52.7828 110.002 52.8307 109.906C52.8786 109.809 52.5366 109.312 52.4384 109.179L52.4625 109.15L52.694 108.869C52.605 108.693 52.4805 108.538 52.3286 108.416C52.1768 108.293 52.0012 108.206 51.8134 108.16C51.5607 108.109 51.1869 107.559 50.958 107.208C50.9001 107.114 50.8369 107.024 50.7686 106.938C50.4473 106.714 50.1685 106.43 49.9461 106.102L49.5328 106.08L49.4735 106.076C49.4022 106.017 49.1682 105.858 48.9513 105.722C48.6604 105.464 48.3963 105.175 48.1631 104.861C48.1101 104.781 48.0619 104.698 48.0187 104.611C47.9753 104.521 47.9241 104.434 47.8657 104.353C47.7992 104.284 47.058 103.663 46.4068 103.121L45.8625 102.577C45.7351 102.391 45.5677 102.238 45.3732 102.131C45.0855 102.003 44.852 101.774 44.7145 101.483L44.6136 101.174C44.3925 101 44.0464 100.71 43.8486 100.53L43.6723 100.362C43.5035 100.199 43.203 99.9926 43.2072 99.8607L43.2218 99.4997C42.9755 99.4938 42.73 99.4694 42.4875 99.4266C42.3797 99.4045 42.2451 99.1131 42.1133 98.8275C42.0447 98.6653 41.9648 98.5084 41.8742 98.3583L41.6546 98.1524L41.4525 97.9641C41.2175 97.823 40.9945 97.6619 40.7857 97.4823C40.6677 97.3681 40.2078 96.8406 39.9835 96.5844L39.7809 96.3505L39.5305 96.0608C39.2663 95.733 38.9432 95.3374 38.8122 95.18C38.5107 94.9055 38.1885 94.6563 37.8485 94.4347C37.6355 94.2979 37.0831 93.6699 36.7537 93.4133C36.4243 93.1566 35.523 91.7365 34.9246 91.2026L34.5626 90.5946C34.5206 90.5319 34.4667 90.4786 34.4042 90.4379C34.3417 90.3972 34.2717 90.37 34.1986 90.3577C34.1092 90.3493 34.0242 90.3146 33.9538 90.2575C33.8835 90.2004 33.8309 90.1234 33.8021 90.0358L33.723 89.7733C33.5534 89.5326 33.3308 89.3372 33.0734 89.2029L32.9515 89.1262C32.7041 88.9709 32.3296 88.8389 32.6177 88.4741C32.6323 88.4634 32.4245 88.1897 32.3551 88.1888L31.9438 88.1957C31.7171 87.886 31.5142 87.5583 31.3369 87.2157C31.2236 87.0707 31.0802 86.9539 30.9171 86.8739C30.7715 86.8034 30.6404 86.7049 30.5309 86.5836C30.4692 86.435 30.1699 85.9414 30.0485 85.9281C29.9271 85.9149 29.6488 85.7944 29.7947 85.6957C29.9405 85.5971 29.283 85.2642 29.1116 85.0971L28.9511 84.9377L28.4673 84.4602C27.9716 84.0252 27.6016 83.4576 27.3968 82.8187L26.9598 82.8521C26.9101 82.8627 26.859 82.862 26.8097 82.8505C26.7605 82.8389 26.7142 82.8166 26.6741 82.785C26.6341 82.7534 26.6011 82.7133 26.5774 82.6673C26.5537 82.6213 26.5398 82.5705 26.5367 82.5184C26.519 82.4175 26.4712 82.3251 26.3999 82.2543C26.2667 82.1775 26.1508 82.0726 26.0596 81.9464C25.9684 81.8201 25.9038 81.6754 25.8702 81.5214L25.868 81.4715C25.7262 81.3966 25.568 81.3599 25.4081 81.3649C25.2486 81.3694 24.8271 80.6783 24.6095 80.424L24.3952 80.1987C24.1844 79.9752 23.8531 79.833 23.8633 79.4673C23.8302 79.3953 23.7713 79.3396 23.6989 79.3119L23.0982 79.504C22.8824 79.0917 22.6996 78.6616 22.5516 78.218C22.1868 77.822 21.7924 77.4563 21.372 77.1242L21.3172 76.8619C21.3097 76.78 21.2743 76.7039 21.2174 76.6468C21.1605 76.5898 21.0856 76.5556 21.0061 76.5504C20.9621 76.5493 20.919 76.5384 20.8795 76.5185C20.84 76.4987 20.8052 76.4703 20.7774 76.4353C20.6421 76.2138 20.4654 75.8155 20.3548 75.8133C20.2638 75.8105 20.176 75.7789 20.1035 75.7227C20.0309 75.6665 19.9771 75.5885 19.9492 75.4992C19.9129 75.4057 19.853 75.3242 19.7757 75.2631C19.5696 75.0963 19.4097 74.8765 19.3118 74.6254L19.2004 74.4178C18.766 74.0858 18.3567 73.7203 17.9759 73.3243C17.6019 72.9345 16.5359 71.7701 16.4401 71.6083C16.3715 71.5084 16.2954 71.4141 16.2127 71.3264C16.115 71.2263 16.0292 71.1146 15.957 70.9936C15.7569 70.7908 15.5313 70.6166 15.2862 70.4755C15.0132 70.1441 14.8143 69.7543 14.7035 69.3334L14.1803 69.4388L14.1578 69.4429C13.8995 68.9955 13.6079 68.5698 13.2853 68.1697C12.9301 67.7225 11.8032 66.4413 11.6833 66.2343C11.5084 66.0164 11.31 65.8198 11.092 65.6483C10.9837 65.5403 10.5531 65.053 10.3495 64.7806L10.2791 64.5163C10.1772 64.1429 10.1781 63.8231 9.63287 63.7564L9.42985 63.7322C9.37701 63.6689 9.32329 63.5961 9.26786 63.5146C9.07023 63.2297 8.91569 62.9152 8.80964 62.5816V62.5816ZM64.2083 105.08C63.8122 105.094 63.4159 105.084 63.0214 105.051C62.8679 105.005 62.4464 104.806 62.4122 104.908C62.378 105.01 61.6698 104.96 61.2859 104.93L60.9787 105.073C60.8068 105.152 60.5715 105.293 60.4321 105.221C60.3394 105.152 60.225 105.121 60.1108 105.134C59.9966 105.147 59.8907 105.203 59.8135 105.292C59.6075 105.458 59.1921 105.393 59.0064 105.571L58.6926 105.87C58.3243 105.691 58.1292 105.702 58.2508 105.884C58.3724 106.066 58.6636 106.625 58.8022 106.657C58.9408 106.689 59.3619 106.965 59.5186 106.992C59.6754 107.018 60.0343 107.577 60.3024 107.753C60.5705 107.929 61.4925 108.38 61.7462 108.603C61.9999 108.825 62.9089 108.942 63.0231 109.126L63.1745 109.232C63.2811 109.305 63.4678 109.217 63.6041 109.27C63.6416 109.285 63.6715 109.353 63.7008 109.423C63.7301 109.493 63.7555 109.557 63.7895 109.566L64.1043 109.656C64.4287 109.705 64.7386 109.824 65.0138 110.006C65.5788 110.267 66.1638 110.479 66.7631 110.642L67.2254 110.879L67.6711 111.108C67.9875 111.033 68.2991 111.124 68.3615 111.309L68.4606 111.36L68.6839 111.477C68.9531 111.539 69.5199 111.636 69.9433 111.692C70.3667 111.748 71.7019 112.162 71.9736 112.21L72.2134 112.295L72.4465 112.378C72.6079 112.349 72.7715 112.333 72.9352 112.333L72.9586 112.316C73.0149 112.285 73.1027 112.245 73.0979 112.199L73.0962 112.11C72.9974 111.94 72.8823 111.782 72.7526 111.636C72.4597 111.312 72.1282 111.028 71.7662 110.789L71.5389 110.669L71.2588 110.522C70.8914 110.253 70.5526 109.945 70.2479 109.603L69.9022 109.408L69.6374 109.257C69.6362 108.976 69.5549 108.703 69.4037 108.471L69.3079 108.465L68.8261 108.434C68.5152 108.2 68.0488 107.835 67.7916 107.622L67.5391 107.47C67.2524 107.299 66.8502 107.216 67.1251 106.78C67.1349 106.764 66.9164 106.512 66.8434 106.517L66.5195 106.543C66.1888 106.618 65.8986 106.593 65.8687 106.493C65.8389 106.392 65.8519 106.169 65.9509 106.209C66.0499 106.248 66.112 106.228 65.7201 106.041C65.3282 105.855 64.3284 105.721 64.4113 105.574C64.4412 105.512 64.4556 105.443 64.453 105.375C64.4503 105.306 64.4308 105.239 64.3963 105.18C64.3751 105.149 64.3466 105.123 64.3133 105.106C64.28 105.088 64.2431 105.08 64.2056 105.081L64.2083 105.08ZM145.421 178.915L144.869 178.684C144.635 178.586 144.409 178.46 144.17 178.373L143.84 178.256C143.909 178.482 143.855 178.592 143.72 178.503C143.36 178.295 142.982 178.121 142.591 177.983L142.374 178.165C142.062 178.423 141.713 178.101 141.389 178.114C141.067 178.094 140.749 178.038 140.44 177.949C140.124 177.91 139.813 177.847 139.507 177.761C138.991 177.534 138.407 177.527 137.881 177.741C137.681 177.838 137.559 177.951 137.344 177.696C137.174 177.494 137.044 177.53 136.897 177.68C136.858 177.72 136.622 177.531 136.523 177.556C136.425 177.581 136.36 177.847 136.333 177.835L135.816 177.592C135.317 177.709 134.749 177.827 134.554 177.854C134.358 177.882 133.209 177.696 132.442 177.59L131.751 177.71L131.229 177.8C130.606 177.673 130.062 177.689 130.018 177.837L129.959 177.836L129.834 177.835C129.516 177.762 129.184 177.777 128.871 177.877C128.491 177.976 127.312 178.367 127.068 178.467C126.614 178.689 126.183 178.961 125.785 179.278C125.551 179.505 125.934 180.589 125.987 180.721C126.109 180.955 126.301 181.142 126.534 181.255C126.742 181.31 127.496 181.785 127.954 182.01C128.413 182.236 129.945 182.945 130.365 183.061C131.353 183.273 132.352 183.433 133.357 183.542L134.073 183.937C134.113 183.96 134.186 183.874 134.25 183.877C134.546 183.892 134.966 184.055 135.115 183.917C135.458 183.61 135.713 184.165 135.997 184.072C136.043 184.056 136.156 184.161 136.19 184.142C136.688 183.852 137.325 184.12 137.863 184.021C138.416 183.919 138.931 183.721 139.504 183.656C139.992 183.601 140.472 183.483 140.933 183.306C141.351 183.145 141.818 183.108 142.237 182.925L142.615 182.761C142.994 182.706 143.365 182.601 143.719 182.449L143.708 182.374C143.642 181.922 143.781 181.863 144.188 182.117C144.245 182.153 144.459 181.96 144.541 181.833L144.606 181.732C144.761 181.492 144.938 181.267 145.133 181.061L145.531 180.994L145.828 180.949C146.064 180.68 146.341 180.454 146.649 180.278C146.822 180.212 146.775 179.572 146.875 179.441C146.886 179.427 146.884 179.41 146.872 179.392C146.427 179.127 145.931 178.965 145.418 178.916L145.421 178.915Z" fill="#787878"/>
</svg>
