<svg width="196" height="197" viewBox="0 0 196 197" fill="none" xmlns="http://www.w3.org/2000/svg">
<path d="M112.62 58.6801C116.651 68.4946 121.84 77.4922 129.339 85.0821C135.939 91.764 143.821 96.954 152.03 101.437C162.028 106.898 172.475 111.487 182.579 116.744C183.564 117.256 184.9 116.659 185.717 116.062C186.155 115.742 187.524 114.389 186.535 113.874C169.313 104.914 150.277 97.9336 135.784 84.614C128.302 77.578 122.387 69.0464 118.423 59.5751C116.938 56.1651 115.607 52.6871 114.191 49.247C112.806 50.471 111.553 51.8368 110.453 53.3219C111.174 55.1084 111.888 56.8987 112.62 58.6801Z" fill="#554140"/>
<path d="M105.592 42.4985C107.289 45.7167 108.718 49.058 110.089 52.4241C111.218 50.992 112.493 49.682 113.894 48.5151C113.13 46.6622 112.329 44.8251 111.467 43.0137C108.875 37.5937 105.588 32.533 101.691 27.9589C98.741 24.4957 95.5712 21.2261 92.2008 18.1705L87.7344 20.5556C90.2482 22.8308 92.6729 25.2024 94.9635 27.7068C99.1225 32.1647 102.694 37.1356 105.592 42.4985Z" fill="#554140"/>
<path d="M85.921 40.7065C89.0566 45.0216 91.7022 49.6718 93.8089 54.571C97.3422 62.411 99.6066 70.8107 102.962 78.7243C103.326 75.08 103.59 71.4016 104.145 67.8076C102.476 63.0762 100.89 58.3086 98.912 53.7273C96.8668 48.8111 94.3308 44.1133 91.3424 39.7053C88.5732 35.8404 85.1374 32.4993 81.1961 29.8387C79.5996 28.7203 77.9606 27.665 76.279 26.6729L71.6414 29.1494C72.8055 29.8244 73.9517 30.5267 75.0801 31.2563C79.2204 33.7459 82.8902 36.9449 85.921 40.7065Z" fill="#554140"/>
<path d="M103.554 80.0907C104.561 82.3826 105.7 84.6143 106.966 86.7744C110.012 92.0474 114.217 96.561 119.262 99.9745C124.544 103.296 130.158 106.059 136.012 108.218C142.643 110.847 149.142 113.681 155.595 116.719C162.11 119.793 168.619 122.879 175.331 125.508C176.798 126.085 180.725 123.194 178.558 122.347C166.552 117.645 155.243 111.359 143.251 106.622C137.347 104.473 131.612 101.885 126.094 98.8813C120.706 95.8488 116.108 91.5894 112.674 86.449C109.153 81.1178 106.804 75.2345 104.663 69.2561C104.187 72.7374 103.956 76.261 103.595 79.7505L103.554 80.0907Z" fill="#554140"/>
<path d="M98.3985 98.8126C98.9828 99.5484 99.5732 100.279 100.177 101C107.586 110.053 117.143 117.108 127.978 121.523C140.579 126.551 154.069 128.743 166.866 133.159C168.358 133.674 172.274 130.751 170.093 129.999C158.701 126.071 146.786 123.901 135.405 119.934C124.26 116.125 114.279 109.516 106.422 100.741C104.388 98.4604 102.469 96.082 100.633 93.6387C100.338 94.4641 100.017 95.2834 99.6703 96.0967C99.2755 97.019 98.8516 97.9242 98.3985 98.8126Z" fill="#554140"/>
<path d="M68.7213 55.2044C72.7946 60.062 76.4764 65.2344 79.7323 70.673C85.5318 79.9462 91.0876 89.4721 97.8414 98.1042C98.6906 96.41 99.4374 94.6665 100.078 92.8828C94.8987 85.8855 90.3733 78.3701 85.8267 70.9908C82.6031 65.552 79.0545 60.3122 75.2002 55.2999C71.9129 51.0389 67.8462 47.4403 63.2164 44.6953C59.6892 42.7362 56.0467 40.9923 52.3088 39.4733L47.5822 41.9974C50.4637 43.2326 53.3414 44.4606 56.0952 45.8558C60.8687 48.1267 65.1566 51.3016 68.7213 55.2044Z" fill="#554140"/>
<path d="M65.0637 85.4421C72.894 93.9688 80.1977 103.067 88.6488 111.001C89.7684 109.836 90.8344 108.628 91.8467 107.379C84.5647 100.373 78.107 92.5549 71.3153 85.0726C63.1447 76.0687 54.6274 67.2669 44.896 59.9324C40.4329 56.5603 35.6924 53.5719 30.7254 50.9991L26.0508 53.4954C30.279 55.6239 34.3416 58.0668 38.204 60.8035C48.1568 67.8418 56.8412 76.4897 65.0637 85.4421Z" fill="#554140"/>
<path d="M90.3715 112.587C99.2184 120.618 109.224 127.273 120.051 132.329C132.537 138.076 145.958 141.521 159.667 142.498C160.282 142.477 160.884 142.315 161.427 142.025C161.97 141.735 162.44 141.324 162.799 140.825C163.401 139.913 162.969 139.334 161.962 139.26C137.768 137.476 114.955 127.497 96.6186 111.734C95.1795 110.496 93.7809 109.218 92.4092 107.914C91.3914 109.155 90.3214 110.353 89.1994 111.507C89.5881 111.869 89.9767 112.23 90.3715 112.587Z" fill="#554140"/>
<path d="M14.123 73.189C20.7742 76.1388 27.1901 79.2867 33.0388 83.655C38.2439 87.7269 43.2144 92.09 47.9264 96.7233C56.9072 105.166 65.936 113.663 75.3332 121.659C76.7188 120.78 78.0808 119.864 79.419 118.911C71.0574 111.8 63.0761 104.216 55.025 96.7816C50.105 92.2372 45.3466 87.501 40.1565 83.2573C34.7666 78.8819 28.841 75.211 22.5232 72.3333C18.5207 70.4811 14.4813 68.7118 10.4049 67.0253C8.6019 66.2711 6.79218 65.5002 4.97101 64.7523L0.169399 67.3165C1.20548 67.7373 2.23903 68.1641 3.27199 68.5855C6.91098 70.0678 10.528 71.6023 14.123 73.189Z" fill="#554140"/>
<path d="M75.9251 122.168C76.5447 122.693 77.165 123.216 77.7861 123.738C88.0639 132.329 99.1721 140.073 111.725 144.955C118.535 147.603 125.545 148.288 132.793 148.594C139.787 148.89 146.866 149.039 153.543 151.376C155.033 151.897 158.951 148.978 156.77 148.216C144.739 144.01 131.651 146.807 119.477 143.357C113.126 141.39 107.054 138.613 101.412 135.093C95.6579 131.619 90.1556 127.744 84.9462 123.496C83.2794 122.156 81.6302 120.793 79.9985 119.409C79.6715 119.645 79.3403 119.881 79.0049 120.116C77.9947 120.822 76.962 121.505 75.9251 122.168Z" fill="#554140"/>
<path d="M153.343 151.196C146.664 148.86 139.587 148.706 132.593 148.41C125.345 148.101 118.334 147.416 111.526 144.765C98.9748 139.881 87.8698 132.138 77.5968 123.547C76.9728 123.026 76.3515 122.503 75.7328 121.978C76.7742 121.311 77.8022 120.627 78.8168 119.925C79.1488 119.693 79.4808 119.456 79.8108 119.218C81.4435 120.6 83.0921 121.962 84.7568 123.305C89.9646 127.554 95.4652 131.43 101.218 134.905C106.858 138.426 112.929 141.204 119.28 143.172C131.453 146.623 144.544 143.832 156.573 148.039C158.573 148.739 155.429 151.26 153.749 151.26C153.611 151.262 153.474 151.24 153.343 151.196ZM159.471 142.323C145.762 141.342 132.342 137.895 119.858 132.147C109.033 127.091 99.031 120.436 90.1868 112.404C89.7928 112.048 89.4038 111.685 89.0138 111.324C90.1345 110.169 91.2055 108.972 92.2268 107.732C93.5978 109.032 94.9948 110.315 96.4348 111.554C114.763 127.316 137.575 137.297 161.769 139.088C162.777 139.162 163.208 139.742 162.605 140.653C162.257 141.13 161.81 141.527 161.294 141.817C160.779 142.106 160.208 142.281 159.619 142.33C159.569 142.327 159.519 142.326 159.471 142.326V142.323ZM166.679 132.989C153.879 128.574 140.391 126.378 127.791 121.348C116.959 116.933 107.405 109.878 99.9988 100.824C99.3988 100.102 98.8065 99.3728 98.2218 98.6361C98.6745 97.7488 99.0998 96.8437 99.4978 95.921C99.8468 95.108 100.167 94.289 100.463 93.463C102.298 95.907 104.216 98.2841 106.248 100.563C114.103 109.337 124.08 115.946 135.223 119.756C146.603 123.724 158.518 125.898 169.908 129.827C171.914 130.518 168.761 133.045 167.08 133.046C166.945 133.049 166.811 133.03 166.683 132.989H166.679ZM175.146 125.345C168.436 122.715 161.928 119.628 155.414 116.553C148.963 113.508 142.463 110.68 135.833 108.053C129.98 105.893 124.367 103.13 119.087 99.808C114.044 96.3949 109.842 91.8815 106.797 86.608C106.386 85.9134 105.991 85.2133 105.613 84.5079C104.813 83.0079 104.076 81.4791 103.387 79.9301C103.4 79.8161 103.413 79.702 103.425 79.59C103.787 76.101 104.025 72.58 104.499 69.1C106.637 75.077 108.983 80.9579 112.499 86.2889C115.931 91.4298 120.527 95.6891 125.914 98.7211C131.432 101.726 137.168 104.315 143.072 106.465C155.064 111.204 166.372 117.491 178.372 122.195C180.348 122.968 177.263 125.428 175.588 125.428C175.437 125.428 175.288 125.4 175.147 125.346L175.146 125.345ZM47.7458 96.5321C43.0355 91.8993 38.0669 87.5365 32.8638 83.465C27.0178 79.097 20.6008 75.947 13.9508 72.996C10.3608 71.4026 6.74481 69.8695 3.10281 68.3961C2.07081 67.9751 1.03781 67.5471 0.00280762 67.1261L4.80281 64.5641C6.62281 65.3131 8.43281 66.084 10.2368 66.837C14.3081 68.5337 18.3471 70.3035 22.3538 72.1461C28.6661 75.0242 34.5863 78.6939 39.9718 83.067C45.1598 87.311 49.9158 92.0469 54.8338 96.5909C62.8848 104.029 70.8618 111.613 79.2198 118.723C77.8865 119.678 76.5255 120.594 75.1368 121.473C65.7478 113.473 56.7238 104.976 47.7468 96.5331L47.7458 96.5321ZM182.399 116.583C172.299 111.325 161.853 106.734 151.856 101.273C143.649 96.7891 135.769 91.5961 129.172 84.9171C124.285 79.9027 120.152 74.2048 116.903 68.0021C115.265 64.918 113.784 61.753 112.467 58.5192C111.736 56.7382 111.025 54.947 110.303 53.161C111.404 51.6766 112.658 50.3115 114.044 49.088C115.457 52.528 116.79 56.001 118.27 59.412C122.23 68.883 128.141 77.4134 135.618 84.4471C150.105 97.7681 169.139 104.747 186.359 113.714C187.346 114.228 185.977 115.58 185.539 115.9C184.878 116.412 184.08 116.717 183.246 116.776C182.952 116.781 182.662 116.716 182.4 116.584L182.399 116.583ZM64.8898 85.2592C56.6738 76.3072 47.9898 67.6592 38.0408 60.6232C34.1793 57.8859 30.1175 55.4426 25.8898 53.3141L30.5668 50.819C35.533 53.3917 40.2725 56.3802 44.7348 59.7521C54.4688 67.0881 62.9758 75.888 71.1428 84.891C77.9298 92.373 84.3858 100.191 91.6638 107.191C90.6525 108.44 89.5858 109.647 88.4638 110.811C80.0168 102.883 72.7188 93.7861 64.8908 85.2601L64.8898 85.2592ZM79.5708 70.5031C76.3183 65.0647 72.6402 59.8925 68.5708 55.035C65.0071 51.1309 60.7203 47.9547 55.9478 45.682C53.1938 44.282 50.3168 43.0591 47.4358 41.8241L52.1648 39.3021C55.9025 40.8219 59.5445 42.567 63.0708 44.528C67.6987 47.2714 71.7636 50.8685 75.0498 55.1281C78.9019 60.1393 82.448 65.3785 85.6688 70.817C90.2118 78.194 94.7348 85.708 99.9098 92.705C99.2685 94.4876 98.5205 96.2301 97.6698 97.923C90.9168 89.299 85.3658 79.776 79.5718 70.504L79.5708 70.5031ZM93.6548 54.403C91.5511 49.504 88.9081 44.8548 85.7748 40.5411C82.7452 36.7793 79.0764 33.5808 74.9368 31.0922C73.8102 30.3622 72.6645 29.6593 71.4998 28.984L76.1398 26.5092C77.8192 27.5038 79.4575 28.5592 81.0548 29.6752C84.9942 32.3358 88.4285 35.6766 91.1968 39.5411C94.1826 43.9479 96.7161 48.6445 98.7588 53.5599C100.735 58.1399 102.319 62.9061 103.985 67.6371C103.429 71.2301 103.162 74.9082 102.795 78.5502C99.4448 70.6432 97.1828 62.2461 93.6558 54.4081L93.6548 54.403ZM105.447 42.338C102.55 36.9759 98.9794 32.0064 94.8218 27.5502C92.5328 25.0442 90.1108 22.6731 87.5978 20.3981L92.0658 18.016C95.4352 21.0692 98.6041 24.3367 101.553 27.798C105.448 32.3731 108.731 37.4356 111.32 42.858C112.18 44.669 112.976 46.507 113.744 48.358C112.345 49.5225 111.072 50.8295 109.944 52.2579C108.57 48.9009 107.143 45.5601 105.448 42.3431L105.447 42.338Z" fill="#3B3430"/>
</svg>
